<svg height="512" viewBox="0 0 60 59" width="512" xmlns="http://www.w3.org/2000/svg"><g id="Page-1" fill="none" fill-rule="evenodd"><g id="001---Tractor" fill-rule="nonzero"><g fill="#35495e"><path id="Shape" d="m30 59c-.5522847 0-1-.4477153-1-1v-15c0-.5522847.4477153-1 1-1s1 .4477153 1 1v15c0 .5522847-.4477153 1-1 1z"/><path id="Shape" d="m8 59c-.1273562-.0001189-.25355246-.0242047-.372-.071-.24626434-.0985145-.44330276-.2908294-.54776252-.5346314-.10445975-.2438019-.10778262-.5191165-.00923748-.7653686l6-15c.1329028-.3318997.4327765-.5676849.7866615-.6185376s.7080177.0909529.929.372c.2209822.2810471.2752413.6586379.1423385.9905376l-6 15c-.15244431.3792035-.52030165.6274775-.929.627z"/><path id="Shape" d="m52 59c-.408945.0003137-.7768725-.2484037-.929-.628l-6-15c-.1329028-.3318997-.0786437-.7094905.1423385-.9905376s.575115-.4228527.929-.372c.3538851.0508526.6537587.2866379.7866615.6185376l6 15c.0985451.2462521.0952223.5215667-.0092375.7653686-.1044597.243802-.3014982.4361169-.5477625.5346314-.1183814.0471373-.2445799.0715628-.372.072z"/><path id="Shape" d="m29 32v4c0 1.1045695.8954305 2 2 2h2c1.1045695 0 2-.8954305 2-2v-4z"/></g><path id="Shape" d="m58 18v11.89l-16.94 3.11h-12.06v-7l6-11h20c1.6568542 0 3 1.3431458 3 3z" fill="#e64c3c"/><path id="Shape" d="m12.25 15.02 2.75-11.02 8-1h12v22c0 .5522847-.4477153 1-1 1h-5.8z" fill="#2fa8cc"/><path id="Shape" d="m23 20.51c-.5522847 0-1-.4477153-1-1v-16.51c0-.55228475.4477153-1 1-1s1 .44771525 1 1v16.51c0 .5522847-.4477153 1-1 1z" fill="#2980ba"/><rect id="Rectangle-path" fill="#35495e" height="4" rx="2" width="25" x="13"/><path id="Shape" d="m27 12c-.4304304 0-.8125693-.2754301-.9486833-.6837722-.136114-.4083422.004339-.8579696.3486833-1.1162278l4-3c.2858125-.21435937.6642734-.25995645.9928203-.11961526.3285469.14034118.5572656.44529947.6.80000001.0427345.35470055-.1070078.7052559-.3928203.91961525l-4 3c-.1730962.1298221-.3836298.2-.6.2z" fill="#9fc9d3"/><path id="Shape" d="m27 18c-.4304304 0-.8125693-.2754301-.9486833-.6837722-.136114-.4083422.004339-.8579696.3486833-1.1162278l4-3c.2858125-.2143594.6642734-.2599564.9928203-.1196153.3285469.1403412.5572656.4452995.6.8000001.0427345.3547005-.1070078.7052558-.3928203.9196152l-4 3c-.1730962.1298221-.3836298.2-.6.2z" fill="#9fc9d3"/><path id="Shape" d="m17 12c-.4043959-.0000863-.7689341-.2437275-.923678-.6173454-.1547439-.373618-.0692299-.8036603.216678-1.0896546l2-2c.3923789-.37897221 1.0160848-.37355237 1.4018186.01218142.3857338.3857338.3911536 1.00943969.0121814 1.40181858l-2 2c-.1874927.1875494-.4418052.2929434-.707.293z" fill="#9fc9d3"/><path id="Shape" d="m58 20v9.89l-12 2.2v-12.09z" fill="#35495e"/><path id="Shape" d="m51 20v5c0 .5522847-.4477153 1-1 1s-1-.4477153-1-1v-5z" fill="#2c3e50"/><path id="Shape" d="m55 20v5.94c0 .5522847-.4477153 1-1 1s-1-.4477153-1-1v-5.94z" fill="#2c3e50"/><circle id="Oval" cx="50" cy="34" fill="#7f8c8d" r="9"/><circle id="Oval" cx="50" cy="34" fill="#95a5a5" r="5"/><circle id="Oval" cx="50" cy="34" fill="#7f8c8d" r="1"/><path id="Shape" d="m40 21h-1c-.5522847 0-1-.4477153-1-1s.4477153-1 1-1h1c.5522847 0 1 .4477153 1 1s-.4477153 1-1 1z" fill="#c03a2b"/><path id="Shape" d="m58 19v2h-14c-.5522847 0-1-.4477153-1-1s.4477153-1 1-1z" fill="#c03a2b"/><path id="Shape" d="m29 31v1h-4.04c.03-.33-15.76-12.54-17.39-11.71l-2.05-3.43c2.30183883-1.2272446 4.8714462-1.8662112 7.48-1.86 8.836556 0 16 7.163444 16 16z" fill="#2c3e50"/><path id="Shape" d="m25 31c0 .34-.01.67-.04 1-.5332872 6.5191588-6.1815006 11.4152346-12.7103492 11.0177907-6.52884873-.3974439-11.54145801-5.9424976-11.28002968-12.4782059.26142833-6.5357082 5.70091855-11.6626779 12.24065298-11.5373785 6.5397345.1252994 11.7788421 5.4568681 11.7897259 11.9977937z" fill="#7f8c8d"/><circle id="Oval" cx="13" cy="31" fill="#95a5a5" r="8"/><circle id="Oval" cx="13" cy="31" fill="#7f8c8d" r="2"/><path id="Shape" d="m29 34c-.5522847 0-1-.4477153-1-1v-2c-.0011037-5.5563859-3.0736085-10.6569745-7.9849073-13.2555453-4.9112987-2.5985708-10.85670992-2.2693663-15.4510927.8555453-.4561872.3114886-1.0785114.1941872-1.39-.262s-.1941872-1.0785114.262-1.39c5.2068604-3.5432279 11.9459519-3.9174497 17.5131007-.9725026s9.0499609 8.7264189 9.0508993 15.0245026v2c0 .5522847-.4477153 1-1 1z" fill="#e64c3c"/><path id="Shape" d="m59 44h-32c-.5522847 0-1-.4477153-1-1s.4477153-1 1-1h32c.5522847 0 1 .4477153 1 1s-.4477153 1-1 1z" fill="#3f5c6c"/><path id="Shape" d="m23 44h-22c-.55228475 0-1-.4477153-1-1s.44771525-1 1-1h22c.5522847 0 1 .4477153 1 1s-.4477153 1-1 1z" fill="#3f5c6c"/></g></g></svg>