<svg height="512" viewBox="0 0 58 58" width="512" xmlns="http://www.w3.org/2000/svg"><g id="Page-1" fill="none" fill-rule="evenodd"><g id="002---Corn-Farm" fill-rule="nonzero"><path id="Shape" d="m10 46c-.55228475 0-1-.4477153-1-1v-12c0-.5522847.44771525-1 1-1 .5522847 0 1 .4477153 1 1v12c0 .5522847-.4477153 1-1 1z" fill="#33907c"/><path id="Shape" d="m15 25v-11.5c0-3.59-2.239-6.5-5-6.5s-5 2.91-5 6.5v11.5z" fill="#f0c419"/><rect id="Rectangle-path" fill="#33907c" height="21" rx="1" width="2" x="27.995" y="25"/><path id="Shape" d="m48 46c-.5522847 0-1-.4477153-1-1v-12c0-.5522847.4477153-1 1-1s1 .4477153 1 1v12c0 .5522847-.4477153 1-1 1z" fill="#33907c"/><path id="Shape" d="m10 13h-1c-.55228475 0-1-.4477153-1-1s.44771525-1 1-1h1c.5522847 0 1 .4477153 1 1s-.4477153 1-1 1z" fill="#f29c1f"/><path id="Shape" d="m11 17h-1c-.55228475 0-1-.4477153-1-1s.44771525-1 1-1h1c.5522847 0 1 .4477153 1 1s-.4477153 1-1 1z" fill="#f29c1f"/><path id="Shape" d="m53 25v-11.5c0-3.59-2.239-6.5-5-6.5s-5 2.91-5 6.5v11.5z" fill="#f0c419"/><path id="Shape" d="m48 13h-1c-.5522847 0-1-.4477153-1-1s.4477153-1 1-1h1c.5522847 0 1 .4477153 1 1s-.4477153 1-1 1z" fill="#f29c1f"/><path id="Shape" d="m49 17h-1c-.5522847 0-1-.4477153-1-1s.4477153-1 1-1h1c.5522847 0 1 .4477153 1 1s-.4477153 1-1 1z" fill="#f29c1f"/><path id="Shape" d="m24 19v-12.5c0-3.59 2.239-6.5 5-6.5s5 2.91 5 6.5v12.5z" fill="#f0c419"/><path id="Shape" d="m30 6h-1c-.5522847 0-1-.44771525-1-1s.4477153-1 1-1h1c.5522847 0 1 .44771525 1 1s-.4477153 1-1 1z" fill="#f29c1f"/><path id="Shape" d="m29 10h-1c-.5522847 0-1-.44771525-1-1s.4477153-1 1-1h1c.5522847 0 1 .44771525 1 1s-.4477153 1-1 1z" fill="#f29c1f"/><path id="Shape" d="m15 20c-2.7614237 0-5 2.2385763-5 5v9c3.3137085 0 6-2.6862915 6-6v-2.394c.0000709-1.7193142.658066-3.3734256 1.839-4.623.158569-.1708141.2006144-.4194583.1070248-.6329122-.0935897-.2134539-.3049566-.3509884-.5380248-.3500878z" fill="#26b99a"/><path id="Shape" d="m5 20c2.76142375 0 5 2.2385763 5 5v9c-3.3137085 0-6-2.6862915-6-6v-2.394c-.00007094-1.7193142-.65806595-3.3734256-1.839-4.623-.15856896-.1708141-.20061442-.4194583-.10702478-.6329122.09358965-.2134539.30495662-.3509884.53802478-.3500878z" fill="#14a085"/><path id="Shape" d="m34 13c-2.7614237 0-5 2.2385763-5 5v9c3.3137085 0 6-2.6862915 6-6v-2.394c.0000709-1.7193142.658066-3.3734256 1.839-4.623.158569-.1708141.2006144-.4194583.1070248-.6329122-.0935897-.2134539-.3049566-.3509884-.5380248-.3500878z" fill="#26b99a"/><path id="Shape" d="m24 13c2.7614237 0 5 2.2385763 5 5v9c-3.3137085 0-6-2.6862915-6-6v-2.394c-.0000709-1.7193142-.658066-3.3734256-1.839-4.623-.158569-.1708141-.2006144-.4194583-.1070248-.6329122.0935897-.2134539.3049566-.3509884.5380248-.3500878z" fill="#14a085"/><path id="Shape" d="m53 20c-2.7614237 0-5 2.2385763-5 5v9c3.3137085 0 6-2.6862915 6-6v-2.394c.0000709-1.7193142.658066-3.3734256 1.839-4.623.158569-.1708141.2006144-.4194583.1070248-.6329122-.0935897-.2134539-.3049566-.3509884-.5380248-.3500878z" fill="#26b99a"/><path id="Shape" d="m43 20c2.7614237 0 5 2.2385763 5 5v9c-3.3137085 0-6-2.6862915-6-6v-2.394c-.0000709-1.7193142-.658066-3.3734256-1.839-4.623-.158569-.1708141-.2006144-.4194583-.1070248-.6329122.0935897-.2134539.3049566-.3509884.5380248-.3500878z" fill="#14a085"/><path id="Shape" d="m58 42.053v14.947c0 .5522847-.4477153 1-1 1h-56c-.55228475 0-1-.4477153-1-1v-14.947c-.0028246-.2808364.11328653-.5497611.31962729-.7402881.20634075-.1905271.48365145-.2848727.76337271-.2597119 3.779.413 4.138 2.947 8.577 2.947 4.83 0 4.83-3 9.67-3s4.83 3 9.66 3 4.84-3 9.67-3 4.83 3 9.67 3c4.44 0 4.8-2.535 8.587-2.944.2792702-.0254255.5562711.068416.7625839.2583457s.3227007.4582384.3204161.7386543z" fill="#cb8252"/><g fill="#a56a43"><path id="Shape" d="m17 47.292c-.4998196.0002494-.9230657-.3685804-.9911719-.8637382-.0681063-.4951578.2398455-.9645599.7211719-1.0992618.8473229-.2291678 1.722301-.3398862 2.6-.329.6201679-.0042901 1.2394241.048263 1.85.157.3515493.0643078.6420865.31128.762169.6478846.1200825.3366045.0514669.7117032-.18.984-.2314669.2722967-.5906197.4004232-.942169.3361154-.4918148-.0870232-.9905604-.1288643-1.49-.125-.6951341-.0102867-1.3883559.0755248-2.06.255-.0879126.0244867-.1787409.0369335-.27.037z"/><path id="Shape" d="m31 50.292c-.4998196.0002494-.9230657-.3685804-.9911719-.8637382-.0681063-.4951578.2398455-.9645599.7211719-1.0992618.8473229-.2291678 1.722301-.3398862 2.6-.329.6201679-.0042901 1.2394241.048263 1.85.157.3515493.0643078.6420865.31128.762169.6478846.1200825.3366045.0514669.7117032-.18.984-.2314669.2722967-.5906197.4004232-.942169.3361154-.4918148-.0870232-.9905604-.1288643-1.49-.125-.6951341-.0102867-1.3883559.0755248-2.06.255-.0879126.0244867-.1787409.0369335-.27.037z"/><path id="Shape" d="m42 49.292c-.4998196.0002494-.9230657-.3685804-.9911719-.8637382-.0681063-.4951578.2398455-.9645599.7211719-1.0992618.8473478-.2290416 1.7223083-.3397577 2.6-.329.6201679-.0042901 1.2394241.048263 1.85.157.3515493.0643078.6420865.31128.762169.6478846.1200825.3366045.0514669.7117032-.18.984-.2314669.2722967-.5906197.4004232-.942169.3361154-.4918148-.0870232-.9905604-.1288643-1.49-.125-.6951306-.0102227-1.3883436.0755877-2.06.255-.0879126.0244867-.1787409.0369335-.27.037z"/><path id="Shape" d="m6 50.292c-.49981965.0002494-.92306566-.3685804-.99117193-.8637382-.06810628-.4951578.23984549-.9645599.72117193-1.0992618.84732292-.2291678 1.72230102-.3398862 2.6-.329.62016791-.0042901 1.23942412.048263 1.85.157.5434482.0994113.9034112.6205518.804 1.164-.0994113.5434482-.6205518.9034112-1.164.804-.49181477-.0870232-.99056043-.1288643-1.49-.125-.69513407-.0102867-1.38835587.0755248-2.06.255-.08791264.0244867-.17874089.0369335-.27.037z"/><path id="Shape" d="m39 54.292c-.4998196.0002494-.9230657-.3685804-.9911719-.8637382-.0681063-.4951578.2398455-.9645599.7211719-1.0992618.8473229-.2291678 1.722301-.3398862 2.6-.329.6201679-.0042901 1.2394241.048263 1.85.157.3515493.0643078.6420865.31128.762169.6478846.1200825.3366045.0514669.7117032-.18.984-.2314669.2722967-.5906197.4004232-.942169.3361154-.4918148-.0870232-.9905604-.1288643-1.49-.125-.6951341-.0102867-1.3883559.0755248-2.06.255-.0879126.0244867-.1787409.0369335-.27.037z"/><path id="Shape" d="m49 53c-.4998196.0002494-.9230657-.3685804-.9911719-.8637382-.0681063-.4951578.2398455-.9645599.7211719-1.0992618.8473478-.2290416 1.7223083-.3397577 2.6-.329.6201611-.0041166 1.2394016.0484351 1.85.157.3515493.0643078.6420865.31128.762169.6478846.1200825.3366045.0514669.7117032-.18.984-.2314669.2722967-.5906197.4004232-.942169.3361154-.4918313-.0868959-.9905653-.128736-1.49-.125-.6951036-.0097267-1.3882489.0760752-2.06.255-.0879126.0244867-.1787409.0369335-.27.037z"/><path id="Shape" d="m22 53.292c-.4998196.0002494-.9230657-.3685804-.9911719-.8637382-.0681063-.4951578.2398455-.9645599.7211719-1.0992618.8473229-.2291678 1.722301-.3398862 2.6-.329.6201679-.0042901 1.2394241.048263 1.85.157.3515494.0643078.6420865.31128.762169.6478846.1200825.3366045.0514669.7117032-.18.984-.2314668.2722967-.5906197.4004232-.942169.3361154-.4918148-.0870232-.9905604-.1288643-1.49-.125-.6951341-.0102867-1.3883559.0755248-2.06.255-.0879126.0244867-.1787409.0369335-.27.037z"/><path id="Shape" d="m11 54.292c-.4998196.0002494-.9230657-.3685804-.9911719-.8637382-.06810631-.4951578.2398455-.9645599.7211719-1.0992618.8473229-.2291678 1.722301-.3398862 2.6-.329.6201679-.0042901 1.2394241.048263 1.85.157.3515493.0643078.6420865.31128.762169.6478846.1200825.3366045.0514669.7117032-.18.984-.2314669.2722967-.5906197.4004232-.942169.3361154-.4918148-.0870232-.9905604-.1288643-1.49-.125-.6951341-.0102867-1.3883559.0755248-2.06.255-.0879126.0244867-.1787409.0369335-.27.037z"/></g></g></g></svg>