<svg height="512" viewBox="0 0 60 43" width="512" xmlns="http://www.w3.org/2000/svg"><g id="Page-1" fill="none" fill-rule="evenodd"><g id="003---Horse-Box" fill-rule="nonzero"><path id="Shape" d="m57 43c-.5522847 0-1-.4477153-1-1v-5c0-.5522847.4477153-1 1-1s1 .4477153 1 1v5c0 .5522847-.4477153 1-1 1z" fill="#7f8c8d"/><path id="Shape" d="m59 38h-6c-.5522847 0-1-.4477153-1-1s.4477153-1 1-1h6c.5522847 0 1 .4477153 1 1s-.4477153 1-1 1z" fill="#95a5a5"/><path id="Shape" d="m49 33 5.316 1.772c.4085428.1360719.6841037.5183926.684.949v2.279h-9z" fill="#fac176"/><path id="Shape" d="m17 38h29c1.6568542 0 3-1.3431458 3-3v-30c0-2.76142375-2.2385763-5-5-5h-38c-2.76142375 0-5 2.23857625-5 5v30c0 1.6568542 1.34314575 3 3 3z" fill="#f5efca"/><path id="Shape" d="m59 43h-20c-.5522847 0-1-.4477153-1-1s.4477153-1 1-1h20c.5522847 0 1 .4477153 1 1s-.4477153 1-1 1z" fill="#95a5a5"/><path id="Shape" d="m49 5v3h-48v-3c0-2.76142375 2.23857625-5 5-5h38c2.7614237 0 5 2.23857625 5 5z" fill="#fac176"/><path id="Shape" d="m14 0v31c0 .5522847-.4477153 1-1 1s-1-.4477153-1-1v-31z" fill="#f18d46"/><path id="Shape" d="m39 14v7h-16v-7c.0032948-1.1032019.8967981-1.9967052 2-2h12c1.1032019.0032948 1.9967052.8967981 2 2z" fill="#67b9cc"/><path id="Shape" d="m39 21v17h-10l-6-8v-9z" fill="#f9eab0"/><path id="Shape" d="m45 12h4v5h-4c-1.1045695 0-2-.8954305-2-2v-1c0-1.1045695.8954305-2 2-2z" fill="#fac176"/><path id="Shape" d="m35 29c-.5522847 0-1-.4477153-1-1v-2c0-.5522847.4477153-1 1-1s1 .4477153 1 1v2c0 .5522847-.4477153 1-1 1z" fill="#f18d46"/><path id="Shape" d="m5 38c0-4.418278 3.581722-8 8-8h12c4.418278 0 8 3.581722 8 8z" fill="#35495e"/><circle id="Oval" cx="13" cy="38" fill="#547580" r="4"/><circle id="Oval" cx="25" cy="38" fill="#547580" r="4"/><path id="Shape" d="m35 43h-34c-.55228475 0-1-.4477153-1-1s.44771525-1 1-1h34c.5522847 0 1 .4477153 1 1s-.4477153 1-1 1z" fill="#95a5a5"/><g fill="#f18d46"><path id="Rectangle-path" d="m22 0h2v8h-2z"/><path id="Rectangle-path" d="m40 0h2v8h-2z"/></g></g></g></svg>