<svg height="512" viewBox="0 0 60 60" width="512" xmlns="http://www.w3.org/2000/svg"><g id="Page-1" fill="none" fill-rule="evenodd"><g id="004---Small-Tractor" fill-rule="nonzero"><path id="Shape" d="m31 18h-5c-.5522847 0-1-.4477153-1-1s.4477153-1 1-1h5c.5522847 0 1 .4477153 1 1s-.4477153 1-1 1z" fill="#3f5c6c"/><path id="Shape" d="m26 20c-.5522847 0-1-.4477153-1-1v-4c0-.5522847.4477153-1 1-1s1 .4477153 1 1v4c0 .5522847-.4477153 1-1 1z" fill="#95a5a5"/><path id="Shape" d="m20 20.31v-4.31c-.0032948-1.1032019-.8967981-1.9967052-2-2h-5.49c-.8925799.0014128-1.6771402-.5910937-1.92-1.45l-1.1-3.83c-.28051247-.9770295-1.24630536-1.59084454-2.25-1.43l-1.87.31 2.53 10.97z" fill="#2c3e50"/><path id="Shape" d="m7.9 19.57c-.46576548-.0002744-.86966859-.3220699-.974-.776l-2.9-12.568c-.11505054-.53388874.21952075-1.06133636.75153146-1.18478033.53201072-.12344396 1.06466177.20277959 1.19646854.73278033l2.9 12.571c.05984679.2585983.01442708.5303806-.12625216.7554674-.14067925.2250868-.36507494.3850091-.62374784.4445326-.07344764.0169736-.14861747.0253631-.224.025z" fill="#3f5c6c"/><path id="Shape" d="m26.96 32h-4.01l-18.1-7.36-2.11-3.43c3.64934685-2.8718438 8.4237119-3.8900108 12.9271631-2.7568086 4.5034511 1.1332021 8.2273265 4.2897791 10.0828369 8.5468086.6946111 1.5824131 1.1042378 3.2750855 1.21 5z" fill="#2c3e50"/><path id="Shape" d="m56 14h-22c-1.6568542 0-3 1.3431458-3 3v10h-4.18c-.053-.133-.1-.269-.154-.4-2.0729977-4.7519164-6.3199306-8.204867-11.3948775-9.2645565-5.074947-1.0596894-10.34877469.4052504-14.1501225 3.9305565-.39600908.3769469-.41588198 1.0020541-.04461556 1.4033937.37126642.4013395.99602702.4301168 1.40261556.0646063 3.96731241-3.6852051 9.7046006-4.7509176 14.7306752-2.7362517 5.0260745 2.0146658 8.4388158 6.7481017 8.7623248 12.1532517.0322873.5283293.470686.9399857 1 .939h.062c.1839056-.0173777.3590646-.0867476.505-.2.1337662.0680833.2809673.105652.431.11h17.29l11.42-.08c1.361034-.3110203 2.3246834-1.5238892 2.32-2.92v-13c0-1.6568542-1.3431458-3-3-3z" fill="#3b97d3"/><path id="Shape" d="m42 6c-.5522847 0-1-.44771525-1-1v-2.382c-.0034625-.75701866.4228994-1.45043824 1.1-1.789l1.453-.724c.3197527-.15969774.7004141-.13667849.9985928.06038662.2981786.1970651.468574.53823719.447.89500002-.0215741.35676283-.2318401.67491565-.5515928.83461336l-1.447.723v2.382c0 .55228475-.4477153 1-1 1z" fill="#547580"/><circle id="Oval" cx="51" cy="37" fill="#3f5c6c" r="7"/><circle id="Oval" cx="51" cy="37" fill="#35495e" r="3"/><path id="Shape" d="m31 27v2c0 .5522847-.4477153 1-1 1s-1-.4477153-1-1v-2z" fill="#2980ba"/><path id="Shape" d="m59 17v2h-6c-.5522847 0-1-.4477153-1-1s.4477153-1 1-1z" fill="#35495e"/><path id="Shape" d="m48 19h-13c-.5522847 0-1-.4477153-1-1s.4477153-1 1-1h13c.5522847 0 1 .4477153 1 1s-.4477153 1-1 1z" fill="#2980ba"/><path id="Shape" d="m48 27h-13c-.5522847 0-1-.4477153-1-1s.4477153-1 1-1h13c.5522847 0 1 .4477153 1 1s-.4477153 1-1 1z" fill="#2980ba"/><path id="Shape" d="m59 21v2h-6c-.5522847 0-1-.4477153-1-1s.4477153-1 1-1z" fill="#35495e"/><path id="Shape" d="m59 25v2h-6c-.5522847 0-1-.4477153-1-1s.4477153-1 1-1z" fill="#35495e"/><path id="Shape" d="m42 5c1.1045695 0 2 .8954305 2 2v7h-4v-7c0-1.1045695.8954305-2 2-2z" fill="#95a5a5"/><circle id="Oval" cx="12" cy="33" fill="#3f5c6c" r="11"/><circle id="Oval" cx="12" cy="33" fill="#35495e" r="7"/><circle id="Oval" cx="12" cy="33" fill="#547580" r="2"/><g fill="#7f8c8d"><path id="Shape" d="m30 60c-.5522847 0-1-.4477153-1-1v-15c0-.5522847.4477153-1 1-1s1 .4477153 1 1v15c0 .5522847-.4477153 1-1 1z"/><path id="Shape" d="m8 60c-.1273562-.0001189-.25355246-.0242047-.372-.071-.24626434-.0985145-.44330276-.2908294-.54776252-.5346314-.10445975-.2438019-.10778262-.5191165-.00923748-.7653686l6-15c.1329028-.3318997.4327765-.5676849.7866615-.6185376s.7080177.0909529.929.372c.2209822.2810471.2752413.6586379.1423385.9905376l-6 15c-.15244431.3792035-.52030165.6274775-.929.627z"/><path id="Shape" d="m52 60c-.408945.0003137-.7768725-.2484037-.929-.628l-6-15c-.1329028-.3318997-.0786437-.7094905.1423385-.9905376s.575115-.4228527.929-.372c.3538851.0508526.6537587.2866379.7866615.6185376l6 15c.0985451.2462521.0952223.5215667-.0092375.7653686-.1044597.243802-.3014982.4361169-.5477625.5346314-.1183814.0471373-.2445799.0715628-.372.072z"/></g><path id="Shape" d="m59 45h-32c-.5522847 0-1-.4477153-1-1s.4477153-1 1-1h32c.5522847 0 1 .4477153 1 1s-.4477153 1-1 1z" fill="#95a5a5"/><path id="Shape" d="m23 45h-22c-.55228475 0-1-.4477153-1-1s.44771525-1 1-1h22c.5522847 0 1 .4477153 1 1s-.4477153 1-1 1z" fill="#95a5a5"/></g></g></svg>