<svg height="512" viewBox="0 0 60 59" width="512" xmlns="http://www.w3.org/2000/svg"><g id="Page-1" fill="none" fill-rule="evenodd"><g id="005---Farm" fill-rule="nonzero" transform="translate(-1)"><path id="Shape" d="m31 59c-.5522847 0-1-.4477153-1-1v-14c0-.5522847.4477153-1 1-1s1 .4477153 1 1v14c0 .5522847-.4477153 1-1 1z" fill="#24ae5f"/><path id="Shape" d="m21 59c-.3020874.0003276-.588133-.1359213-.7782395-.3706902-.1901065-.234769-.263897-.5428936-.2007605-.8383098l3-14c.0746685-.3494057.3300708-.6324348.6699993-.7424728.3399285-.1100381.71274-.0303677.978.209s.3826692.6020671.3080007.9514728l-3 14c-.0985219.460987-.5056028.7905683-.977.791z" fill="#24ae5f"/><path id="Shape" d="m12 59c-.3251588.0000449-.6300379-.1580057-.8174109-.4237492-.1873731-.2657435-.2338425-.6059961-.1245891-.9122508l5-14c.1200412-.3365442.4105081-.5834826.7619845-.6477959.3514765-.0643134.7105648.0637691.942.336.2314352.2722308.3000567.6472517.1800155.9837959l-5 14c-.1420592.3982148-.5192047.6640584-.942.664z" fill="#24ae5f"/><path id="Shape" d="m2 59c-.17543007.0011715-.34800847-.0443892-.5-.132-.23055572-.1322834-.39895862-.3509155-.46800828-.6076001s-.03306379-.5302985.10000828-.7603999l8-14c.17254611-.3192653.50451883-.5199915.8673996-.5244702.3628808-.0044787.6997064.187993.8800796.5029026.1803732.3149095.1759798.7028239-.0114792 1.0135676l-8 14c-.1769376.3130944-.50836947.507066-.868.508z" fill="#24ae5f"/><path id="Shape" d="m41 59c-.4713972-.0004317-.8784781-.330013-.977-.791l-3-14c-.1154275-.5401345.2288655-1.0715725.769-1.187s1.0715725.2288655 1.187.769l3 14c.0631365.2954162-.010654.6035408-.2007605.8383098-.1901065.2347689-.4761521.3710178-.7782395.3706902z" fill="#24ae5f"/><path id="Shape" d="m50 59c-.4224284-.0003642-.7990642-.2661305-.941-.664l-5-14c-.1855677-.5202522.0857478-1.0924323.606-1.278.5202522-.1855676 1.0924323.0857478 1.278.606l5 14c.1857407.519971-.0850932 1.0920797-.605 1.278-.1085416.0384405-.2228525.0580559-.338.058z" fill="#24ae5f"/><path id="Shape" d="m60 59c-.3583279.001065-.6898369-.1896767-.869-.5l-8-14c-.187459-.3107437-.1918524-.6986581-.0114792-1.0135676.1803732-.3149096.5171988-.5073813.8800796-.5029026s.6948535.2052049.8673996.5244702l8 14c.2737673.4794043.1072509 1.0899643-.372 1.364-.1509108.0853602-.3216271.129505-.495.128z" fill="#24ae5f"/><path id="Shape" d="m38 18h18c1.1045695 0 2 .8954305 2 2v24h-19z" fill="#802f34"/><path id="Shape" d="m58 20v6h-19.69l-.31-8h18c1.1032019.0032948 1.9967052.8967981 2 2z" fill="#e57e25"/><path id="Shape" d="m54 23h-1c-.5522847 0-1-.4477153-1-1s.4477153-1 1-1h1c.5522847 0 1 .4477153 1 1s-.4477153 1-1 1z" fill="#d25627"/><path id="Shape" d="m49 23h-5c-.5522847 0-1-.4477153-1-1s.4477153-1 1-1h5c.5522847 0 1 .4477153 1 1s-.4477153 1-1 1z" fill="#d25627"/><path id="Shape" d="m39 19v25h-34v-25l5-10 12-7 12 7z" fill="#cc4b4c"/><rect id="Rectangle-path" fill="#2c3e50" height="8" rx="1" width="10" x="43" y="30"/><path id="Shape" d="m48 40c-.5522847 0-1-.4477153-1-1v-10c0-.5522847.4477153-1 1-1s1 .4477153 1 1v10c0 .5522847-.4477153 1-1 1z" fill="#802f34"/><path id="Shape" d="m13 30h18c.5522847 0 1 .4477153 1 1v13h-20v-13c0-.5522847.4477153-1 1-1z" fill="#802f34"/><path id="Rectangle-path" d="m16 30h12v14h-12z" fill="#fb7b76"/><path id="Shape" d="m29 27h-14c-.5522847 0-1-.4477153-1-1s.4477153-1 1-1h14c.5522847 0 1 .4477153 1 1s-.4477153 1-1 1z" fill="#802f34"/><path id="Shape" d="m29 14.53v6.47c0 .5522847-.4477153 1-1 1h-12c-.5522847 0-1-.4477153-1-1v-6.47c-.0005011-.3326261.1644212-.6437296.44-.83l5.56-3.79.44-.3c.3347509-.24003414.7852491-.24003414 1.12 0l.44.3 5.56 3.79c.2755788.1862704.4405011.4973739.44.83z" fill="#2c3e50"/><path id="Shape" d="m29 16v2h-6v4h-2v-4h-6v-2h6v-6.09l.44-.3c.3347509-.24003414.7852491-.24003414 1.12 0l.44.3v6.09z" fill="#802f34"/><path id="Shape" d="m20 39c-.5522847 0-1-.4477153-1-1v-1c0-.5522847.4477153-1 1-1s1 .4477153 1 1v1c0 .5522847-.4477153 1-1 1z" fill="#cc4b4c"/><g fill="#802f34"><path id="Shape" d="m12 26c0 .5522847-.4477153 1-1 1h-6v-2h6c.5522847 0 1 .4477153 1 1z"/><path id="Shape" d="m39 20v2h-6c-.5522847 0-1-.4477153-1-1s.4477153-1 1-1z"/><path id="Shape" d="m12 21c0 .5522847-.4477153 1-1 1h-6v-2h6c.5522847 0 1 .4477153 1 1z"/><path id="Shape" d="m38 17h-5c-.5522847 0-1-.4477153-1-1s.4477153-1 1-1h5c.5522847 0 1 .4477153 1 1s-.4477153 1-1 1z"/><path id="Shape" d="m11 17h-5c-.55228475 0-1-.4477153-1-1s.44771525-1 1-1h5c.5522847 0 1 .4477153 1 1s-.4477153 1-1 1z"/><path id="Shape" d="m39 25v2h-6c-.5522847 0-1-.4477153-1-1s.4477153-1 1-1z"/><path id="Shape" d="m39 32h-3c-.5522847 0-1-.4477153-1-1s.4477153-1 1-1h3c.5522847 0 1 .4477153 1 1s-.4477153 1-1 1z"/><path id="Shape" d="m39 36h-3c-.5522847 0-1-.4477153-1-1s.4477153-1 1-1h3c.5522847 0 1 .4477153 1 1s-.4477153 1-1 1z"/><path id="Shape" d="m39 40h-3c-.5522847 0-1-.4477153-1-1s.4477153-1 1-1h3c.5522847 0 1 .4477153 1 1s-.4477153 1-1 1z"/><path id="Shape" d="m9 31c0 .5522847-.44771525 1-1 1h-3v-2h3c.55228475 0 1 .4477153 1 1z"/><path id="Shape" d="m9 35c0 .5522847-.44771525 1-1 1h-3v-2h3c.55228475 0 1 .4477153 1 1z"/><path id="Shape" d="m5 40h3c.55228475 0 1-.4477153 1-1s-.44771525-1-1-1h-3z"/></g><path id="Shape" d="m60 45h-58c-.55228475 0-1-.4477153-1-1s.44771525-1 1-1h58c.5522847 0 1 .4477153 1 1s-.4477153 1-1 1z" fill="#4fba6f"/><path id="Shape" d="m38.282 19.742-5.218-8c-.154366-.2409487-.3590513-.445634-.6-.6l-9.389-5.98c-.6552514-.41711402-1.4927486-.41711402-2.148 0l-9.389 5.98c-.2409487.154366-.445634.3590513-.6.6l-5.218 8c-.33268368.5106768-.87702618.8450541-1.48293782.9109351s-1.20939812-.1436923-1.64406218-.5709351c-.67694132-.6657584-.78169735-1.7200501-.249-2.506l6.672-9.843c.16134379-.23911057.37293503-.44012225.62-.589l11.329-6.855c.6363386-.38484478 1.4336614-.38484478 2.07 0l11.329 6.855c.247065.14887775.4586562.34988943.62.589l6.674 9.843c.5326974.7859499.4279413 1.8402416-.249 2.506-.4346641.4272428-1.0381505.6368161-1.6440622.5709351-.6059116-.065881-1.1502541-.4002583-1.4829378-.9109351z" fill="#f29c1f"/></g></g></svg>