<svg height="512" viewBox="0 0 40 58" width="512" xmlns="http://www.w3.org/2000/svg"><g id="Page-1" fill="none" fill-rule="evenodd"><g id="006---Farmer-Male" fill-rule="nonzero"><path id="Shape" d="m25 40v4h-10v-5c1.3168849-.9306018 2.0940385-2.4475458 2.08-4.06h5.84c-.0140385 1.6124542.7631151 3.1293982 2.08 4.06z" fill="#f9c795"/><path id="Shape" d="m8.61 10.89 4.99-9.16c.2666787-.47846935.7128587-.83109547 1.24-.98 1.6829113-.45981508 3.4158232-.71169182 5.16-.75 1.7441768.03830818 3.4770887.29018492 5.16.75.5271413.14890453.9733213.50153065 1.24.98l4.99 9.16z" fill="#fac176"/><path id="Shape" d="m31 19.18c5.43-.9 9-2.44 9-4.18 0-2.76-8.95-5-20-5s-20 2.24-20 5c0 1.74 3.57 3.28 9 4.18z" fill="#f18d46"/><path id="Shape" d="m36 46v10c-.0032948 1.1032019-.8967981 1.9967052-2 2h-28c-1.10320187-.0032948-1.9967052-.8967981-2-2v-10c-.00079443-3.0963377 2.0327335-5.8253322 5-6.71.64884577-.194187 1.3227218-.291899 2-.29h4s3.04 2.72 4.38 3.79c.3624101.2901603.8775899.2901603 1.24 0 1.34-1.07 4.38-3.79 4.38-3.79h4c.6772782-.001899 1.3511542.095813 2 .29 2.9672665.8846678 5.0007944 3.6136623 5 6.71z" fill="#3b97d3"/><path id="Shape" d="m11 38.9999728v19.0000272h-2v-18.71c.64884577-.194187 1.3227218-.291899 2-.2900272z" fill="#e64c3c"/><path id="Shape" d="m31 39.29v18.71h-2v-19.0000272c.6772782-.0018718 1.3511542.0958402 2 .2900272z" fill="#e64c3c"/><path id="Shape" d="m29.44 24.94-.5 4.159c-.5404592 3.3997252-3.4725841 5.90189-6.915 5.901h-4.05c-3.4413354-.0000153-6.3722187-2.5014202-6.913-5.9l-.5-4.159c-.1846334.0400264-.3730795.0598099-.562.059-1.65685421 0-2.99999991-1.3431458-2.99999991-3s1.3431457-3 2.99999991-3v-2.569c-.0019402-1.0185786.7619434-1.8759023 1.774-1.991 2.7316388-.3000809 5.477937-.4469775 8.226-.44 2.748063-.0069775 5.4943612.1399191 8.226.44 1.0120566.1150977 1.7759402.9724214 1.774 1.991v2.569c1.6568542 0 3 1.3431458 3 3s-1.3431458 3-3 3c-.1882886.0003363-.3760566-.0197817-.56-.06z" fill="#fdd7ad"/><path id="Shape" d="m15 52h10c.5522847 0 1 .4477153 1 1v5h-12v-5c0-.5522847.4477153-1 1-1z" fill="#e64c3c"/><path id="Shape" d="m29.44 24.94-.5 4.16c-.5411963 3.4011991-3.4760144 5.9034284-6.92 5.9h-4.04c-3.4439856.0034284-6.3788037-2.4988009-6.92-5.9l-.5-4.16s2.44 2.06 4.44 2.06 3-2 5-2 3 2 5 2 4.44-2.06 4.44-2.06z" fill="#a56a43"/><path id="Shape" d="m25 39v7c-.0032948 1.1032019-.8967981 1.9967052-2 2h-6c-1.1032019-.0032948-1.9967052-.8967981-2-2v-7s2.54 2.28 4 3.48c.14.12.27.22.38.31.3624101.2901603.8775899.2901603 1.24 0 .11-.09.24-.19.38-.31 1.46-1.2 4-3.48 4-3.48z" fill="#e64c3c"/><path id="Shape" d="m21 42.48v5.52h-2v-5.52c.14.12.27.22.38.31.3624101.2901603.8775899.2901603 1.24 0 .11-.09.24-.19.38-.31z" fill="#c03a2b"/></g></g></svg>