<svg height="512" viewBox="0 0 40 58" width="512" xmlns="http://www.w3.org/2000/svg"><g id="Page-1" fill="none" fill-rule="evenodd"><g id="007---Farmer-Female" fill-rule="nonzero"><path id="Shape" d="m8.61 10.89 4.99-9.16c.2666787-.47846935.7128587-.83109547 1.24-.98 1.6829113-.45981508 3.4158232-.71169182 5.16-.75 1.7441768.03830818 3.4770887.29018492 5.16.75.5271413.14890453.9733213.50153065 1.24.98l4.99 9.16z" fill="#fac176"/><path id="Shape" d="m36.42 17.85c2.26-.81 3.58-1.79 3.58-2.85 0-2.76-8.95-5-20-5s-20 2.24-20 5c0 1.06 1.32 2.04 3.58 2.85z" fill="#f18d46"/><path id="Shape" d="m36.88 32.76c.1547296.2949335.1524679.6475444-.0060323.9404688-.1585002.2929245-.452434.4877128-.7839677.5195312-2.68.17-7.89-1.1-9.72-5.2h-12.74c-1.83 4.1-7.04 5.37-9.72 5.2-.33153375-.0318184-.62546754-.2266067-.78396774-.5195312-.15850021-.2929244-.16076189-.6455353-.00603226-.9404688 1.74-3.6-2.65-9.19 1.23-16.62.35455863-.6803835 1.06287365-1.1022761 1.83-1.09 3.54.09 13.82-.08 13.82-5.05 0 4.97 10.28 5.14 13.82 5.05.7671264-.0122761 1.4754414.4096165 1.83 1.09 3.88 7.43-.51 13.02 1.23 16.62z" fill="#f0c419"/><path id="Shape" d="m35 45v11c-.0032948 1.1032019-.8967981 1.9967052-2 2h-26c-1.10320187-.0032948-1.9967052-.8967981-2-2v-11c-.00560246-2.704257 1.55353063-5.1676872 4-6.32.62961477-.3073989 1.3051479-.5100588 2-.6.330182-.0572191.6649206-.0839982 1-.08h16c.3350794-.0039982.669818.0227809 1 .08.6948521.0899412 1.3703852.2926011 2 .6 2.4464694 1.1523128 4.0056025 3.615743 4 6.32z" fill="#3b97d3"/><g fill="#e64c3c"><path id="Shape" d="m11 38.08v19.92h-2v-19.32c.62961477-.3073989 1.3051479-.5100588 2-.6z"/><path id="Shape" d="m25 38v7c0 1.1045695-.8954305 2-2 2h-6c-1.1045695 0-2-.8954305-2-2v-7z"/><path id="Shape" d="m31 38.68v19.32h-2v-19.92c.6948521.0899412 1.3703852.2926011 2 .6z"/><path id="Shape" d="m15 51h10c.5522847 0 1 .4477153 1 1v6h-12v-6c0-.5522847.4477153-1 1-1z"/></g><path id="Shape" d="m25 38s-1 4-5 4-5-4-5-4c1.7540588-1.8303496 2.488025-4.4104655 1.96-6.89h6.08c-.528025 2.4795345.2059412 5.0596504 1.96 6.89z" fill="#f9c795"/><path id="Shape" d="m33 22.03c0 1.6568542-1.3431458 3-3 3-.1882886.0003363-.3760566-.0197817-.56-.06-.6283074 1.6083776-1.6911756 3.0105328-3.07 4.05-2.28 1.86-5.12 3.01-6.37 3.01s-4.09-1.15-6.37-3.01c-1.3788244-1.0394672-2.4416926-2.4416224-3.07-4.05-.1839434.0402183-.3717114.0603363-.56.06-1.65685425 0-3-1.3431458-3-3s1.34314575-3 3-3v-4.04c4.36-.26 10-1.31 10-4.99 0 3.68 5.64 4.73 10 4.99v4.04c.7956495 0 1.5587112.3160705 2.1213203.8786797.5626092.5626091.8786797 1.3256708.8786797 2.1213203z" fill="#fdd7ad"/></g></g></svg>