<svg height="512" viewBox="0 0 60 36" width="512" xmlns="http://www.w3.org/2000/svg"><g id="Page-1" fill="none" fill-rule="evenodd"><g id="008---Farm-Warehouse" fill-rule="nonzero"><path id="Rectangle-path" d="m3 26h54v9h-54z" fill="#547580"/><path id="Shape" d="m45 36c-.5522847 0-1-.4477153-1-1v-7c0-.5522847.4477153-1 1-1s1 .4477153 1 1v7c0 .5522847-.4477153 1-1 1z" fill="#3f5c6c"/><path id="Shape" d="m49 36c-.5522847 0-1-.4477153-1-1v-7c0-.5522847.4477153-1 1-1s1 .4477153 1 1v7c0 .5522847-.4477153 1-1 1z" fill="#3f5c6c"/><path id="Shape" d="m53 36c-.5522847 0-1-.4477153-1-1v-7c0-.5522847.4477153-1 1-1s1 .4477153 1 1v7c0 .5522847-.4477153 1-1 1z" fill="#3f5c6c"/><path id="Shape" d="m7 36c-.55228475 0-1-.4477153-1-1v-7c0-.5522847.44771525-1 1-1s1 .4477153 1 1v7c0 .5522847-.44771525 1-1 1z" fill="#3f5c6c"/><path id="Shape" d="m11 36c-.5522847 0-1-.4477153-1-1v-7c0-.5522847.4477153-1 1-1s1 .4477153 1 1v7c0 .5522847-.4477153 1-1 1z" fill="#3f5c6c"/><path id="Shape" d="m15 36c-.5522847 0-1-.4477153-1-1v-7c0-.5522847.4477153-1 1-1s1 .4477153 1 1v7c0 .5522847-.4477153 1-1 1z" fill="#3f5c6c"/><path id="Shape" d="m57 12.01v15.99h-54v-15.99l26.24-10.85c.4848969-.21004797 1.0351031-.21004797 1.52 0z" fill="#95a5a5"/><path id="Rectangle-path" d="m19 14h22v8h-22z" fill="#547580"/><path id="Rectangle-path" d="m19 22h22v13h-22z" fill="#2c3e50"/><path id="Shape" d="m43 15h-26c-.5522847 0-1-.4477153-1-1s.4477153-1 1-1h26c.5522847 0 1 .4477153 1 1s-.4477153 1-1 1z" fill="#bdc3c7"/><path id="Shape" d="m36 19h-12c-.5522847 0-1-.4477153-1-1s.4477153-1 1-1h12c.5522847 0 1 .4477153 1 1s-.4477153 1-1 1z" fill="#3f5c6c"/><g fill="#7f8c8d"><path id="Shape" d="m7 25c-.55228475 0-1-.4477153-1-1v-13.64c0-.55228475.44771525-1 1-1s1 .44771525 1 1v13.64c0 .5522847-.44771525 1-1 1z"/><path id="Shape" d="m11 25c-.5522847 0-1-.4477153-1-1v-15.3c0-.55228475.4477153-1 1-1s1 .44771525 1 1v15.3c0 .5522847-.4477153 1-1 1z"/><path id="Shape" d="m30 11c-.5522847 0-1-.4477153-1-1v-9c0-.55228475.4477153-1 1-1s1 .44771525 1 1v9c0 .5522847-.4477153 1-1 1z"/><path id="Shape" d="m25 11c-.5522847 0-1-.4477153-1-1v-7.09c0-.55228475.4477153-1 1-1s1 .44771525 1 1v7.09c0 .5522847-.4477153 1-1 1z"/><path id="Shape" d="m20 11c-.5522847 0-1-.4477153-1-1v-5.02c0-.55228475.4477153-1 1-1s1 .44771525 1 1v5.02c0 .5522847-.4477153 1-1 1z"/><path id="Shape" d="m15 11c-.5522847 0-1-.4477153-1-1v-2.95c0-.55228475.4477153-1 1-1s1 .44771525 1 1v2.95c0 .5522847-.4477153 1-1 1z"/><path id="Shape" d="m15 25c-.5522847 0-1-.4477153-1-1v-6c0-.5522847.4477153-1 1-1s1 .4477153 1 1v6c0 .5522847-.4477153 1-1 1z"/><path id="Shape" d="m53 25c-.5522847 0-1-.4477153-1-1v-13.64c0-.55228475.4477153-1 1-1s1 .44771525 1 1v13.64c0 .5522847-.4477153 1-1 1z"/><path id="Shape" d="m49 25c-.5522847 0-1-.4477153-1-1v-15.3c0-.55228475.4477153-1 1-1s1 .44771525 1 1v15.3c0 .5522847-.4477153 1-1 1z"/><path id="Shape" d="m35 11c-.5522847 0-1-.4477153-1-1v-7.09c0-.55228475.4477153-1 1-1s1 .44771525 1 1v7.09c0 .5522847-.4477153 1-1 1z"/><path id="Shape" d="m40 11c-.5522847 0-1-.4477153-1-1v-5.02c0-.55228475.4477153-1 1-1s1 .44771525 1 1v5.02c0 .5522847-.4477153 1-1 1z"/><path id="Shape" d="m45 11c-.5522847 0-1-.4477153-1-1v-2.95c0-.55228475.4477153-1 1-1s1 .44771525 1 1v2.95c0 .5522847-.4477153 1-1 1z"/><path id="Shape" d="m45 25c-.5522847 0-1-.4477153-1-1v-6c0-.5522847.4477153-1 1-1s1 .4477153 1 1v6c0 .5522847-.4477153 1-1 1z"/></g><path id="Shape" d="m59 36h-58c-.55228475 0-1-.4477153-1-1s.44771525-1 1-1h58c.5522847 0 1 .4477153 1 1s-.4477153 1-1 1z" fill="#14a085"/><path id="Shape" d="m59 13.84c-.1313772-.0003573-.2614406-.0261662-.383-.076l-28.235-11.685c-.2448431-.10003494-.5191569-.10003494-.764 0l-28.235 11.685c-.51031111.2115251-1.09547494-.0306889-1.307-.541s.03068889-1.0954749.541-1.307l28.236-11.685c.7350511-.30097181 1.5589489-.30097181 2.294 0l28.236 11.685c.4409771.1824958.6915396.6511699.5983647 1.119234s-.5041169.8050562-.9813647.804766z" fill="#bdc3c7"/></g></g></svg>