<svg height="512" viewBox="0 0 60 44" width="512" xmlns="http://www.w3.org/2000/svg"><g id="Page-1" fill="none" fill-rule="evenodd"><g id="009---Pig" fill-rule="nonzero"><g fill="#ff5364"><path id="Shape" d="m5.983 11.989c-1.22050424.0019981-2.41194771-.3723358-3.412-1.072-2.14512247-1.50008462-3.07020268-4.21768146-2.28580632-6.71498533.78439635-2.49730388 3.09721444-4.19788567 5.71480632-4.20201467.55228475 0 1 .44771525 1 1s-.44771525 1-1 1c-1.74389141.00399313-3.28421539 1.13732333-3.80692719 2.80103772-.52271181 1.66371439.09267181 3.47433259 1.52092719 4.47496228 1.11887184.7665935 2.54532517.9277112 3.807.43.33607284-.12785781.71491603-.06544115.99220869.16347227.27729267.22891343.41033776.58907593.34845155.94328303-.0618862.3542071-.30917457.6479186-.64766024.7692447-.71370261.2666921-1.46910117.404499-2.231.407z"/><path id="Shape" d="m45 11v-3.07c.04284-.75166865.3806527-1.45604404.94-1.96 2.72-2.57 7.06-1.89 7.06-1.89s-3.408 3.212-1.589 5.608z"/><path id="Shape" d="m46.29 24.97c-.4121833.9804048-.9073145 1.9238304-1.48 2.82-.5997791.9404835-.886795 2.0465448-.82 3.16.0931359.8687908.2843541 1.7242408.57 2.55.1203286.3458337.0654625.7285458-.147181 1.0266442s-.5566517.4745559-.922819.4733558l-4.49.0000061v-11.0000061z"/><path id="Shape" d="m17.18 26.31c-.07.05-.14.09-.21.14-.6116397.3828789-.9646891 1.0697901-.92 1.79.03.56.09 1.26.2 2.01.1223678.9742006.3469384 1.9328151.67 2.86.15761.4312237.0949091.9122236-.16798 1.288633-.2628891.3764095-.6928963.6008779-1.15202.601367h-4.6v-12z"/></g><path id="Shape" d="m58.97 18-.62 3.13c-.1056368.5136363-.5900978.8584329-1.11.79-.5219233-.0750482-1.03936-.1785356-1.55-.31 0 .0026522-.0010536.0051957-.0029289.0070711-.0018754.0018753-.0044189.0029289-.0070711.0029289-.4504185.6412358-1.0379697 1.174131-1.72 1.56-1.41.85-3.76 1.65-7.67 1.79-.41.02-.84.03-1.29.03h-2.72c-.4108219.9696114-.902559 1.9029084-1.47 2.79-.5997791.9404835-.886795 2.0465448-.82 3.16.01.07.01.14.02.2.1014438.8002688.2857669 1.5878309.55 2.35.1203286.3458337.0654625.7285458-.147181 1.0266442s-.5566517.4745559-.922819.4733558h-2.43c-.421919-2.0978734-.6926154-4.2233416-.81-6.36-.0107002-.5515345-.2202168-1.0806527-.59-1.49-.416795-.4542418-.7947847-.9426178-1.13-1.46h-.01c-.65.19-1.31.36-1.99.5-2.5230658.5476187-5.0982056.8192155-7.68.81-3.5963888.0252697-7.1772917-.4732944-10.63-1.48-.392804.3408473-.8106451.6517211-1.25.93-.6116397.3828789-.9646891 1.0697901-.92 1.79.03.56.09 1.26.2 2.01.1223678.9742006.3469384 1.9328151.67 2.86.15761.4312237.0949091.9122236-.16798 1.288633-.2628891.3764095-.6928963.6008779-1.15202.601367h-2.59c-.51452284-2.5934434-.84534492-5.2199702-.99-7.86-.02001001-.6818172-.2823736-1.3341807-.74-1.84-2.21142751-2.584464-3.38079308-5.9000432-3.28-9.3 0-8 8.95-14 20-14 5.12 0 11.71.73 21 5.93v.01c.81.44 1.65.93 2.5 1.46l4.48 3.82c1.0958161 1.2788477 2.4713393 2.288249 4.02 2.95.7264513.2734692 1.4717285.4940445 2.23.66.5203841.128627.8467889.6446995.74 1.17z" fill="#fb7b76"/><path id="Shape" d="m17 8.009c-.4960171.00095144-.9177696-.36183678-.9909691-.85242387s.224279-.96069031.6989691-1.10457613c2.3652302-.70951578 4.8226719-1.06404522 7.292-1.052 1.3721517-.00666018 2.7436093.06311456 4.108.209.5492472.05964676.9461467.55325282.8865 1.1025-.0596468.54924718-.5532528.94614674-1.1025.8865-1.2926529-.13818444-2.5919973-.20428674-3.892-.198-2.2714181-.01183017-4.5320251.31337641-6.708.965-.0945863.02918208-.1930143.0440137-.292.044z" fill="#ecf0f1"/><path id="Shape" d="m43 27c-.1344297.0003217-.2674996-.0269049-.391-.08-.5083377-.2157069-.7456106-.8026214-.53-1.311.3798772-.8202061.5975406-1.7061401.641-2.609 0-.5522847.4477153-1 1-1s1 .4477153 1 1c-.0396028 1.172141-.3115261 2.324756-.8 3.391-.1568065.3691131-.5189604.6088433-.92.609z" fill="#ff5364"/><path id="Shape" d="m34.52 25.69c-.65.19-1.31.36-1.99.5-.7693512-1.6202162-1.1527154-3.3966982-1.12-5.19 0-.5522847.4477153-1 1-1s1 .4477153 1 1c-.0448937 1.6333373.3377424 3.250061 1.11 4.69z" fill="#ff5364"/><path id="Shape" d="m51.311 13.68.091-.045c.944256-.5273747 1.5112122-1.5413986 1.466-2.622.018-2.013 2.132-4.013 2.132-4.013s-4.336-.685-7.058 1.891c-1.054311 1.0131493-1.2115611 2.6440643-.370245 3.8399867.8413161 1.1959225 2.4294441 1.5989863 3.739245.9490133z" fill="#fb7b76"/><path id="Shape" d="m14.248 27.9c-.4188827.0004514-.7936573-.2602154-.9389741-.6530843-.1453169-.3928689-.0303772-.8346743.2879741-1.1069157 2.1812962-1.8682471 3.4350823-4.5980001 3.431-7.47v-3.29c0-.5522847.4477153-1 1-1s1 .4477153 1 1v3.29c.0042357 3.4564334-1.504911 6.7414766-4.13 8.99-.1811418.1549056-.4116555.2400183-.65.24z" fill="#ff5364"/><path id="Shape" d="m55.68 21.62c-.4504185.6412358-1.0379697 1.174131-1.72 1.56-.9525262-.3362326-1.8594982-.7897186-2.7-1.35-.4241552-.3190263-.5251973-.9138382-.2301824-1.3550316.2950148-.4411934.8833085-.575064 1.3401824-.3049684 1.0190202.6566215 2.136451 1.1461304 3.31 1.45z" fill="#ff5364"/><circle id="Oval" cx="32" cy="7" fill="#ecf0f1" r="1"/><path id="Shape" d="m59 36h-58c-.55228475 0-1-.4477153-1-1s.44771525-1 1-1h58c.5522847 0 1 .4477153 1 1s-.4477153 1-1 1z" fill="#cb8252"/><path id="Shape" d="m50 40h-40c-.55228475 0-1-.4477153-1-1s.44771525-1 1-1h40c.5522847 0 1 .4477153 1 1s-.4477153 1-1 1z" fill="#a56a43"/><path id="Shape" d="m41 44h-22c-.5522847 0-1-.4477153-1-1s.4477153-1 1-1h22c.5522847 0 1 .4477153 1 1s-.4477153 1-1 1z" fill="#805333"/></g></g></svg>