<svg height="512" viewBox="0 0 60 59" width="512" xmlns="http://www.w3.org/2000/svg"><g id="Page-1" fill="none" fill-rule="evenodd"><g id="010---Cow" fill-rule="nonzero"><path id="Shape" d="m49 4c-.5522847 0-1-.44771525-1-1s.4477153-1 1-1c1.5880778-.0523585 3.1084025-.65589203 4.3-1.707.3923789-.37897221 1.0160848-.37355237 1.4018186.01218143.3857338.38573379.3911536 1.00943968.0121814 1.40181857-1.5661332 1.42789983-3.5952532 2.24217567-5.714 2.293z" fill="#d1d4d1"/><path id="Shape" d="m18.707 31.293-.829-.829c1.555-2.2 1.668-5.484-1.1-8.513l-8.694 3.842c-3.853.822 0 7.5 5.278 7.18l.745 1.477c.2507784.4889357.8490836.6839257 1.3397978.4366453.4907141-.2472803.6899718-.8441778.4462022-1.3366453l-.528-1.05c.3876604-.1669833.7564114-.3748247 1.1-.62l.824.824c.3923789.3789722 1.0160848.3735524 1.4018186-.0121814s.3911536-1.0094397.0121814-1.4018186z" fill="#fb7b76"/><path id="Shape" d="m58.84 12.76-.4.97c-.3215986.7789081-1.0983278 1.2713705-1.94 1.23-2.4-.13-7.44-.7-9.43-2.03-.4620295.4899331-.8678798 1.0299487-1.21 1.61-.853862 1.3779708-1.4817955 2.8836608-1.86 4.46-.6236752 3.3175569-.9483111 6.6843987-.97 10.06-.0324466 1.0810694-.9184439 1.9404868-2 1.94h-2.03v8.79c.0134203.0960737.0788263.1768694.17.21.8271088.2770722 1.540323.8181313 2.03 1.54.4978902.7234944.7630412 1.5817463.76 2.46h-6.96v-10.97c-.0083484-.606029-.1924673-1.1965991-.53-1.7-.6725678-1.1792632-1.1010657-2.4817608-1.26-3.83-.0055228 0-.01.0044772-.01.01-.5988628.3442168-1.2164922.6547008-1.85.93-2.316723 1.019695-4.8188149 1.5507512-7.35 1.56-4.53 0-7.24-1.06-8.99-2.67-.6317485-.5766376-1.1743364-1.2439196-1.61-1.98-.0007292.0076786-.0042946.0148095-.01.02-.3571971 1.577838-1.0722719 3.0524659-2.09 4.31-.1901239.2011993-.284797.4742948-.26.75l.95 9.41c.0029844.1002683.0725508.1862033.17.21.8244509.2817704 1.5408664.8129662 2.05 1.52.5137061.706063.7902942 1.556834.79 2.43h-7c.08405071-3.6325477-.54094208-7.2466365-1.84-10.64-.10915909-.2521054-.16041576-.5254743-.15-.8.01-1.16.05-4.35-.01-5.56-.35771793-5.7807527-1.1465776-11.5267263-2.36-17.19-.13634124-.6379088.04910577-1.30210764.49618035-1.77712438.44707458-.47501673 1.0988258-.70034102 1.74381965-.60287562 6.96 1.04 20.12 2.57 28.12 2.57 5.1011408.0424005 9.844264-2.61633499 12.47-6.99.358559-.62269838 1.0214518-1.00748096 1.74-1.01h1.52c.745118.00217659 1.4272474.41839116 1.77 1.08 1.0027386 1.79548465 2.2817074 3.42203603 3.79 4.82.51.5 1.03.96 1.51 1.37.52.43.99.81 1.4 1.12.73356.5484183.997784 1.5268727.64 2.37z" fill="#ecf0f1"/><path id="Shape" d="m51 49h-44c-.55228475 0-1-.4477153-1-1s.44771525-1 1-1h44c.5522847 0 1 .4477153 1 1s-.4477153 1-1 1z" fill="#26b99a"/><path id="Shape" d="m38 54h-24c-.5522847 0-1-.4477153-1-1s.4477153-1 1-1h24c.5522847 0 1 .4477153 1 1s-.4477153 1-1 1z" fill="#14a085"/><path id="Shape" d="m28 59h-10c-.5522847 0-1-.4477153-1-1s.4477153-1 1-1h10c.5522847 0 1 .4477153 1 1s-.4477153 1-1 1z" fill="#33907c"/><path id="Shape" d="m59 45h-58c-.55228475 0-1-.4477153-1-1s.44771525-1 1-1h58c.5522847 0 1 .4477153 1 1s-.4477153 1-1 1z" fill="#81ccb8"/><path id="Shape" d="m41 26v5h-2v-5c0-.5522847.4477153-1 1-1s1 .4477153 1 1z" fill="#d1d4d1"/><path id="Shape" d="m33.2 27.51c-.5988628.3442168-1.2164922.6547008-1.85.93-.0399929-.0749235-.0670402-.1560654-.08-.24-.1282628-.8779111-.2017383-1.7629567-.22-2.65 0-.5522847.4477153-.9999999 1-.9999999s1 .4477152 1 .9999999c.0161952.6554815.066262 1.3096876.15 1.96z" fill="#d1d4d1"/><path id="Shape" d="m2 29.5c-.55228475 0-1-.4477153-1-1 0-11.676 0-16.509 2.912-19.793.23704572-.26794919.59903419-.38908207.94960786-.31776905.35057366.07131302.63647205.32423779.75.6635.11352794.33926221.03743786.71331986-.19960786.98126905-2.412 2.716-2.412 7.326-2.412 18.466 0 .5522847-.44771525 1-1 1z" fill="#35495e"/><path id="Shape" d="m15.67 22.65c-.0341791 1.5523184-.2455489 3.0956536-.63 4.6-.0083354.0272616-.0183546.0539796-.03.08-.6317485-.5766376-1.1743364-1.2439196-1.61-1.98.1559709-.8921774.2462136-1.7946042.27-2.7 0-.5522847.4477153-1 1-1s1 .4477153 1 1z" fill="#d1d4d1"/><path id="Shape" d="m47.07 12.93-.07.07c-.4338454.4711988-.8160212.9874714-1.14 1.54-.9036006-.50267-1.6457572-1.2517626-2.14-2.16-.2013504-.4835272.0045141-1.0404963.4719378-1.2768341s1.0380149-.0719586 1.3080622.3768341c.3734026.6239326.918407 1.1272805 1.57 1.45z" fill="#d1d4d1"/><path id="Shape" d="m56.8 9.27-1.34 2.24c-.1790334.3047463-.5065578.491359-.86.49-.1822556-.002862-.3609434-.0509702-.52-.14-.4684632-.2871767-.6198346-.8971143-.34-1.37l1.55-2.59c.51.5 1.03.96 1.51 1.37z" fill="#fb7b76"/><g fill="#3f5c6c"><path id="Shape" d="m41.07 8.22-1.26 4.42c-.3088863 1.0696314-1.2866657 1.80704-2.4 1.81-1.2248495-.004389-2.2715947.8813186-2.47 2.09l-.16.96c-.2905557 1.7655962-1.6744038 3.1494443-3.44 3.44-.2278456.0398129-.4587022.0598874-.69.06-1.5822652-.0040411-3.0279835-.8969848-3.74-2.31-.3342478-.6721204-1.0193582-1.0978953-1.77-1.1-.0734777-.0018939-.1469971.0014479-.22.01l-4.26.48c-1.9664767.2140998-3.8158037-.9729682-4.44-2.85-.1458577-.4282477-.2201858-.8775947-.22-1.33-.0030325-1.2775143.5791373-2.4860694 1.58-3.28l1.91-1.53c5.18.52 10.49.91 14.51.91 2.4702251.0220071 4.9046896-.59091324 7.07-1.78z"/><path id="Shape" d="m29.02 29.28c-1.6311794.4747337-3.3211445.7171191-5.02.72-2.396238.1029535-4.7841554-.3452086-6.98-1.31.15-1.93 1.68-4.69 4.48-4.69 1.0366379-.0011456 2.0195616.4609753 2.68 1.26.4186898-.1723992.8672064-.2607434 1.32-.26 1.9329966 0 3.5 1.5670034 3.5 3.5 0 .12.01.45.02.78z"/><path id="Shape" d="m11.92 8.25-1.01 3.01c-.5387692 1.6361717-2.06740654 2.7413079-3.79 2.74h-2.67c-.29-1.63-.58-3.06-.81-4.19-.13634124-.6379088.04910577-1.30210764.49618035-1.77712438.44707458-.47501673 1.0988258-.70034102 1.74381965-.60287562 1.7.25 3.77.54 6.04.82z"/></g></g></g></svg>