<svg height="512" viewBox="0 0 58 58" width="512" xmlns="http://www.w3.org/2000/svg"><g id="Page-1" fill="none" fill-rule="evenodd"><g id="011---Carrots" fill-rule="nonzero" transform="translate(-1)"><path id="Shape" d="m13.269 14.39c.9525061-.644502 1.7653546-1.4743557 2.39-2.44 1.709-2.71 1.409-6.18 1.109-7.87-.0458351-.27861832-.208575-.52435943-.4472101-.67529755s-.5304068-.1926784-.8017899-.11470245c-1.0826101.30028847-2.1286482.71950862-3.119 1.25h-6.8c-.99066952-.53055958-2.03704654-.94978114-3.12-1.25-.27138307-.07797595-.5631548-.03623567-.80178988.11470245s-.40137507.39667923-.44721012.67529755c-.3 1.69-.6 5.16 1.109 7.87.62464538.9656443 1.4374939 1.795498 2.39 2.44z" fill="#14a085"/><path id="Shape" d="m34.269 14.39c.9525061-.644502 1.7653546-1.4743557 2.39-2.44 1.709-2.71 1.409-6.18 1.109-7.87-.0458351-.27861832-.208575-.52435943-.4472101-.67529755s-.5304068-.1926784-.8017899-.11470245c-1.0826101.30028847-2.1286482.71950862-3.119 1.25h-6.8c-.9906695-.53055958-2.0370465-.94978114-3.12-1.25-.2713831-.07797595-.5631548-.03623567-.8017899.11470245s-.401375.39667923-.4472101.67529755c-.3 1.69-.6 5.16 1.109 7.87.6246454.9656443 1.4374939 1.795498 2.39 2.44z" fill="#14a085"/><path id="Shape" d="m55.269 14.39c.9525061-.644502 1.7653546-1.4743557 2.39-2.44 1.709-2.71 1.409-6.18 1.109-7.87-.0458351-.27861832-.208575-.52435943-.4472101-.67529755s-.5304068-.1926784-.8017899-.11470245c-1.0826101.30028847-2.1286482.71950862-3.119 1.25h-6.8c-.9906695-.53055958-2.0370465-.94978114-3.12-1.25-.2713831-.07797595-.5631548-.03623567-.8017899.11470245s-.401375.39667923-.4472101.67529755c-.3 1.69-.6 5.16 1.11 7.87.6240089.9658221 1.4365724 1.7957321 2.389 2.44z" fill="#14a085"/><path id="Shape" d="m11 13.22c1.21517-1.6379646 1.9117809-3.60240736 2-5.64 0-3.21-2.11-5.97-3.259-7.25-.18952447-.20851424-.458224-.32739313-.74-.32739313s-.55047553.11887889-.74.32739313c-1.149 1.28-3.261 4.04-3.261 7.25.08815826 2.03760446.78477529 4.0020645 2 5.64z" fill="#26b99a"/><path id="Shape" d="m32 13.22c1.21517-1.6379646 1.9117809-3.60240736 2-5.64 0-3.21-2.11-5.97-3.259-7.25-.1895245-.20851424-.458224-.32739313-.74-.32739313s-.5504755.11887889-.74.32739313c-1.149 1.28-3.261 4.04-3.261 7.25.0881583 2.03760446.7847753 4.0020645 2 5.64z" fill="#26b99a"/><path id="Shape" d="m53 13.22c1.21517-1.6379646 1.9117809-3.60240736 2-5.64 0-3.21-2.11-5.97-3.259-7.25-.1895245-.20851424-.458224-.32739313-.74-.32739313s-.5504755.11887889-.74.32739313c-1.149 1.28-3.261 4.04-3.261 7.25.0881583 2.03760446.7847753 4.0020645 2 5.64z" fill="#26b99a"/><path id="Shape" d="m17 22.01c0 5.69-3.25 16.59-4.96 22.02l-5.94.42c-1.778-5.658-5.1-16.486-5.1-22.44 0-4.878 3.5-9.01 8-9.01s8 4.136 8 9.01z" fill="#f29c1f"/><g fill="#e57e25"><path id="Shape" d="m8 19c0 .5522847-.44771525 1-1 1h-5.8c.13901675-.6882046.35365246-1.3589412.64-2h5.16c.55228475 0 1 .4477153 1 1z"/><path id="Shape" d="m16.8 20h-5.8c-.5522847 0-1-.4477153-1-1s.4477153-1 1-1h5.16c.2863475.6410588.5009833 1.3117954.64 2z"/><path id="Shape" d="m8 24c0 .5522847-.44771525 1-1 1h-5.79c-.08-.71-.15-1.38-.18-2h5.97c.55228475 0 1 .4477153 1 1z"/><path id="Shape" d="m16.97 23c-.03.62-.1 1.29-.19 2h-5.78c-.5522847 0-1-.4477153-1-1s.4477153-1 1-1z"/><path id="Shape" d="m8 29c0 .5522847-.44771525 1-1 1h-4.9c-.15-.69-.28-1.35-.41-2h5.31c.55228475 0 1 .4477153 1 1z"/><path id="Shape" d="m16.3 28c-.12.65-.26 1.32-.41 2h-4.89c-.5522847 0-1-.4477153-1-1s.4477153-1 1-1z"/><path id="Shape" d="m8 34c0 .5522847-.44771525 1-1 1h-3.68c-.18-.67-.35-1.34-.52-2h4.2c.55228475 0 1 .4477153 1 1z"/><path id="Shape" d="m15.2 33c-.17.66-.34 1.33-.52 2h-3.68c-.5522847 0-1-.4477153-1-1s.4477153-1 1-1z"/><path id="Shape" d="m8 39c0 .5522847-.44771525 1-1 1h-2.27c-.2-.66-.39-1.33-.58-2h2.85c.55228475 0 1 .4477153 1 1z"/><path id="Shape" d="m13.86 38c-.19.68-.39 1.35-.58 2h-2.28c-.5522847 0-1-.4477153-1-1s.4477153-1 1-1z"/></g><path id="Shape" d="m38 22.01c0 5.747-3.26 16.692-5 22.16h-5.99c-1.742-5.47-5.01-16.438-5.01-22.16 0-4.855 3.475-9.01 8-9.01s8 4.147 8 9.01z" fill="#f29c1f"/><path id="Shape" d="m29 19c0 .5522847-.4477153 1-1 1h-5.8c.1390167-.6882046.3536525-1.3589412.64-2h5.16c.5522847 0 1 .4477153 1 1z" fill="#e57e25"/><path id="Shape" d="m37.8 20h-5.8c-.5522847 0-1-.4477153-1-1s.4477153-1 1-1h5.16c.2863475.6410588.5009833 1.3117954.64 2z" fill="#e57e25"/><path id="Shape" d="m29 24c0 .5522847-.4477153 1-1 1h-5.78c-.09-.71-.16-1.38-.19-2h5.97c.5522847 0 1 .4477153 1 1z" fill="#e57e25"/><path id="Shape" d="m37.97 23c-.03.62-.1 1.29-.19 2h-5.78c-.5522847 0-1-.4477153-1-1s.4477153-1 1-1z" fill="#e57e25"/><path id="Shape" d="m29 29c0 .5522847-.4477153 1-1 1h-4.9c-.15-.68-.28-1.35-.41-2h5.31c.5522847 0 1 .4477153 1 1z" fill="#e57e25"/><path id="Shape" d="m36.9 30h-4.9c-.5522847 0-1-.4477153-1-1s.4477153-1 1-1h5.31z" fill="#e57e25"/><path id="Shape" d="m29 34c0 .5522847-.4477153 1-1 1h-3.68c-.18-.67-.35-1.34-.51-2h4.19c.5522847 0 1 .4477153 1 1z" fill="#e57e25"/><path id="Shape" d="m36.19 33c-.16.66-.33 1.33-.51 2h-3.68c-.5522847 0-1-.4477153-1-1s.4477153-1 1-1z" fill="#e57e25"/><path id="Shape" d="m29 39c0 .5522847-.4477153 1-1 1h-2.27c-.2-.66-.39-1.33-.58-2h2.85c.5522847 0 1 .4477153 1 1z" fill="#e57e25"/><path id="Shape" d="m34.86 38c-.19.67-.38 1.34-.57 2h-2.29c-.5522847 0-1-.4477153-1-1s.4477153-1 1-1z" fill="#e57e25"/><path id="Shape" d="m59 22.01c0 5.873-3.336 16.859-5.09 22.44l-5.94-.42c-1.715-5.445-4.97-16.31-4.97-22.02 0-4.878 3.5-9.01 8-9.01 4.52 0 8 4.147 8 9.01z" fill="#f29c1f"/><path id="Shape" d="m50 19c0 .5522847-.4477153 1-1 1h-5.8c.1390167-.6882046.3536525-1.3589412.64-2h5.16c.5522847 0 1 .4477153 1 1z" fill="#e57e25"/><path id="Shape" d="m58.8 20h-5.8c-.5522847 0-1-.4477153-1-1s.4477153-1 1-1h5.16c.2863475.6410588.5009833 1.3117954.64 2z" fill="#e57e25"/><path id="Shape" d="m50 24c0 .5522847-.4477153 1-1 1h-5.78c-.09-.71-.16-1.38-.19-2h5.97c.5522847 0 1 .4477153 1 1z" fill="#e57e25"/><path id="Shape" d="m58.79 25h-5.79c-.5522847 0-1-.4477153-1-1s.4477153-1 1-1h5.97z" fill="#e57e25"/><path id="Shape" d="m50 29c0 .5522847-.4477153 1-1 1h-4.89c-.15-.68-.29-1.35-.41-2h5.3c.5522847 0 1 .4477153 1 1z" fill="#e57e25"/><path id="Shape" d="m58.31 28c-.13.65-.26 1.31-.41 2h-4.9c-.5522847 0-1-.4477153-1-1s.4477153-1 1-1z" fill="#e57e25"/><path id="Shape" d="m50 34c0 .5522847-.4477153 1-1 1h-3.68c-.18-.67-.35-1.34-.52-2h4.2c.5522847 0 1 .4477153 1 1z" fill="#e57e25"/><path id="Shape" d="m57.2 33c-.17.66-.34 1.33-.52 2h-3.68c-.5522847 0-1-.4477153-1-1s.4477153-1 1-1z" fill="#e57e25"/><path id="Shape" d="m50 39c0 .5522847-.4477153 1-1 1h-2.27c-.19-.65-.39-1.32-.58-2h2.85c.5522847 0 1 .4477153 1 1z" fill="#e57e25"/><path id="Shape" d="m55.86 38c-.19.67-.39 1.34-.58 2h-2.28c-.5522847 0-1-.4477153-1-1s.4477153-1 1-1z" fill="#e57e25"/><path id="Shape" d="m59 46.931v9.069c0 1.1045695-.8954305 2-2 2h-54c-1.1045695 0-2-.8954305-2-2v-9.065c.0031857-1.0588353.82724202-1.9336297 1.884-2 3.065-.213 3.681-.935 7.786-.935 4.84 0 4.84 1 9.67 1s4.83-1 9.67-1 4.83 1 9.66 1 4.84-1 9.67-1c4.1 0 4.721.722 7.78.939 1.0530167.0662592 1.874719.936914 1.88 1.992z" fill="#a56a43"/><path id="Shape" d="m11 53h-2c-.55228475 0-1-.4477153-1-1s.44771525-1 1-1h2c.5522847 0 1 .4477153 1 1s-.4477153 1-1 1z" fill="#805333"/><path id="Shape" d="m19 55h-2c-.5522847 0-1-.4477153-1-1s.4477153-1 1-1h2c.5522847 0 1 .4477153 1 1s-.4477153 1-1 1z" fill="#805333"/><path id="Shape" d="m31 53h-2c-.5522847 0-1-.4477153-1-1s.4477153-1 1-1h2c.5522847 0 1 .4477153 1 1s-.4477153 1-1 1z" fill="#805333"/><path id="Shape" d="m39 55h-2c-.5522847 0-1-.4477153-1-1s.4477153-1 1-1h2c.5522847 0 1 .4477153 1 1s-.4477153 1-1 1z" fill="#805333"/><path id="Shape" d="m51 53h-2c-.5522847 0-1-.4477153-1-1s.4477153-1 1-1h2c.5522847 0 1 .4477153 1 1s-.4477153 1-1 1z" fill="#805333"/><path id="Shape" d="m59 46.93v2.07c-4.83 0-4.83-1-9.66-1s-4.83 1-9.67 1-4.83-1-9.66-1-4.84 1-9.67 1-4.83-1-9.67-1-4.83 1-9.67 1v-2.06c.00353771-1.0571942.82504495-1.9311381 1.88-2 3.07-.22 3.68-.94 7.79-.94 4.84 0 4.84 1 9.67 1s4.83-1 9.67-1 4.83 1 9.66 1 4.84-1 9.67-1c4.11 0 4.72.72 7.78.94 1.0536.0633247 1.8766238.9345041 1.88 1.99z" fill="#cb8252"/></g></g></svg>