<svg height="512" viewBox="0 0 60 59" width="512" xmlns="http://www.w3.org/2000/svg"><g id="Page-1" fill="none" fill-rule="evenodd"><g id="012---Farm-House" fill-rule="nonzero"><path id="Shape" d="m55 24.001v33.999h-50v-32.999l6-12.89 19-9.926 19 9.63z" fill="#cc4b4c"/><path id="Shape" d="m17 34h26c1.1045695 0 2 .8954305 2 2v22h-30v-22c0-1.1045695.8954305-2 2-2z" fill="#802f34"/><rect id="Rectangle-path" fill="#2c3e50" height="10" rx="1" width="10" x="25" y="15"/><path id="Shape" d="m29 22c-.4043959-.0000863-.7689341-.2437275-.923678-.6173454-.1547439-.373618-.0692299-.8036603.216678-1.0896546l2-2c.3923789-.3789722 1.0160848-.3735524 1.4018186.0121814s.3911536 1.0094397.0121814 1.4018186l-2 2c-.1874927.1875494-.4418052.2929434-.707.293z" fill="#3f5c6c"/><g fill="#802f34"><path id="Shape" d="m50 30h-33c-.5522847 0-1-.4477153-1-1s.4477153-1 1-1h33c.5522847 0 1 .4477153 1 1s-.4477153 1-1 1z"/><path id="Shape" d="m21 25h-9c-.5522847 0-1-.4477153-1-1s.4477153-1 1-1h9c.5522847 0 1 .4477153 1 1s-.4477153 1-1 1z"/><path id="Shape" d="m21 20h-7c-.5522847 0-1-.4477153-1-1s.4477153-1 1-1h7c.5522847 0 1 .4477153 1 1s-.4477153 1-1 1z"/><path id="Shape" d="m32 11h-4c-.5522847 0-1-.4477153-1-1 0-.55228475.4477153-1 1-1h4c.5522847 0 1 .44771525 1 1 0 .5522847-.4477153 1-1 1z"/><path id="Shape" d="m21 15h-2c-.5522847 0-1-.4477153-1-1s.4477153-1 1-1h2c.5522847 0 1 .4477153 1 1s-.4477153 1-1 1z"/><path id="Shape" d="m48 25h-9c-.5522847 0-1-.4477153-1-1s.4477153-1 1-1h9c.5522847 0 1 .4477153 1 1s-.4477153 1-1 1z"/><path id="Shape" d="m46 20h-7c-.5522847 0-1-.4477153-1-1s.4477153-1 1-1h7c.5522847 0 1 .4477153 1 1s-.4477153 1-1 1z"/><path id="Shape" d="m41 15h-2c-.5522847 0-1-.4477153-1-1s.4477153-1 1-1h2c.5522847 0 1 .4477153 1 1s-.4477153 1-1 1z"/><path id="Shape" d="m13 30h-3c-.55228475 0-1-.4477153-1-1s.44771525-1 1-1h3c.5522847 0 1 .4477153 1 1s-.4477153 1-1 1z"/><path id="Shape" d="m12 35h-3c-.55228475 0-1-.4477153-1-1s.44771525-1 1-1h3c.5522847 0 1 .4477153 1 1s-.4477153 1-1 1z"/><path id="Shape" d="m51 35h-3c-.5522847 0-1-.4477153-1-1s.4477153-1 1-1h3c.5522847 0 1 .4477153 1 1s-.4477153 1-1 1z"/></g><path id="Shape" d="m55.2 28.844-6.689-14.516c-.2818191-.6098492-.7609341-1.106931-1.36-1.411l-16.251-8.244c-.5656735-.28702558-1.2343265-.28702558-1.8 0l-16.251 8.244c-.5990659.304069-1.0781809.8011508-1.36 1.411l-6.689 14.516c-.46011397.9973605-1.64157021 1.4329637-2.639.973-.47899041-.2203685-.85075718-.6220756-1.03343928-1.1166677-.18268209-.494592-.16129956-1.0415125.05943928-1.5203323l7.269-15.772c.2817247-.608839.76051758-1.1048952 1.359-1.408l19.285-9.785c.5656735-.28702558 1.2343265-.28702558 1.8 0l19.285 9.785c.5989752.3038664 1.0778284.8010422 1.359 1.411l7.273 15.769c.2207388.4788198.2421214 1.0257403.0594393 1.5203323-.1826821.4945921-.5544489.8962992-1.0334393 1.1166677-.4794173.2221455-1.0275237.2444022-1.523374.0618587-.4958503-.1825434-.8986891-.5548832-1.119626-1.0348587z" fill="#f0c419"/><path id="Shape" d="m20 38h20c.5522847 0 1 .4477153 1 1v19h-22v-19c0-.5522847.4477153-1 1-1z" fill="#fb7b76"/><path id="Shape" d="m41.673 57.26-10.186-9.26 9.876-8.979c.2643766-.2404397.3803975-.6036584.3043588-.9528351-.0760386-.3491767-.3325848-.6312631-.673-.74-.3404152-.108737-.7129823-.0276047-.9773588.2128351l-10.017 9.106-10.017-9.107c-.4086907-.3716876-1.0413124-.3416907-1.413.067s-.3416907 1.0413124.067 1.413l9.876 8.98-10.186 9.26c-.4086907.3716876-.4386876 1.0043093-.067 1.413.3716877.4086907 1.0043093.4386876 1.413.067l10.327-9.39 10.327 9.39c.2643765.2404398.6369436.3215721.9773588.2128351.3404152-.1087369.5969614-.3908233.673-.74.0760387-.3491767-.0399822-.7123954-.3043588-.9528351z" fill="#802f34"/><path id="Shape" d="m11 40h-2c-.55228475 0-1-.4477153-1-1s.44771525-1 1-1h2c.5522847 0 1 .4477153 1 1s-.4477153 1-1 1z" fill="#802f34"/><path id="Shape" d="m11 45h-2c-.55228475 0-1-.4477153-1-1s.44771525-1 1-1h2c.5522847 0 1 .4477153 1 1s-.4477153 1-1 1z" fill="#802f34"/><path id="Shape" d="m11 50h-2c-.55228475 0-1-.4477153-1-1s.44771525-1 1-1h2c.5522847 0 1 .4477153 1 1s-.4477153 1-1 1z" fill="#802f34"/><path id="Shape" d="m11 55h-2c-.55228475 0-1-.4477153-1-1s.44771525-1 1-1h2c.5522847 0 1 .4477153 1 1s-.4477153 1-1 1z" fill="#802f34"/><path id="Shape" d="m51 40h-2c-.5522847 0-1-.4477153-1-1s.4477153-1 1-1h2c.5522847 0 1 .4477153 1 1s-.4477153 1-1 1z" fill="#802f34"/><path id="Shape" d="m51 45h-2c-.5522847 0-1-.4477153-1-1s.4477153-1 1-1h2c.5522847 0 1 .4477153 1 1s-.4477153 1-1 1z" fill="#802f34"/><path id="Shape" d="m51 50h-2c-.5522847 0-1-.4477153-1-1s.4477153-1 1-1h2c.5522847 0 1 .4477153 1 1s-.4477153 1-1 1z" fill="#802f34"/><path id="Shape" d="m51 55h-2c-.5522847 0-1-.4477153-1-1s.4477153-1 1-1h2c.5522847 0 1 .4477153 1 1s-.4477153 1-1 1z" fill="#802f34"/><path id="Shape" d="m59 59h-58c-.55228475 0-1-.4477153-1-1s.44771525-1 1-1h58c.5522847 0 1 .4477153 1 1s-.4477153 1-1 1z" fill="#3f5c6c"/></g></g></svg>