<svg height="512" viewBox="0 0 47 59" width="512" xmlns="http://www.w3.org/2000/svg"><g id="Page-1" fill="none" fill-rule="evenodd"><g id="013---Chicken" fill-rule="nonzero" transform="translate(-1)"><path id="Shape" d="m29.316 57.051c-1.4003108-.4763137-2.8469952-.8034601-4.316-.976v-9.594c0-.5522847-.4477153-1-1-1s-1 .4477153-1 1v9.674c-.8479735.2275904-1.6687703.5464538-2.448.951-.3193954.1607695-.5287595.4797221-.5492267.8367114-.0204673.3569894.1510718.6977802.45.8940001.2989282.1962198.6798313.218058.9992267.0572885.7885631-.4490164 1.6517581-.75188 2.548-.894 1.5991165.0923849 3.1769417.4119231 4.686.949.3394023.1128959.7132523.0361471.9807242-.201336.2674719-.237483.3879304-.599621.316-.95-.0719305-.350379-.3253219-.6357681-.6647242-.748664z" fill="#f0c419"/><path id="Shape" d="m42 28c.0002948 8.0875706-5.3958041 15.1814565-13.19 17.34-.71 2.45-3.11 4.439-4.227 5.26-.3470277.2544302-.8189723.2544302-1.166 0-1.117-.82-3.517-2.808-4.227-5.25-6.65-.32-11.42-4.62-12.1-10.8-3.91322412-2.5172612-6.22357947-6.8989696-6.09-11.55.01367286-1.6649554.33402129-3.3131396.945-4.862.14395075-.359938.48455732-.6028941.87175085-.6218235.38719354-.0189295.74987487.1896436.92824915.5338235.35281314.7258484.78548814 1.4100787 1.29 2.04.1651069-1.859247.78311421-3.6497515 1.8-5.215.22116478-.334081.62143203-.5025227 1.01492399-.4271034s.70311142.3799226.78507601.7721034c.28406044 1.1661824.79736297 2.2641739 1.51 3.23.3123152-1.1448378.8953756-2.1977764 1.7-3.07.2525427-.2790589.6412569-.3911674 1.0036181-.2894519.3623612.1017154.635952.3997341.7063819.7694519.4239999 2.0746716 1.5507079 3.9395675 3.19 5.28 5.06-2.19 7.85-.62 10.91-.2l14.26 5.4c.055.55.085 1.1.085 1.66z" fill="#ecf0f1"/><path id="Shape" d="m43.59 8h.55c1.5150618.00101742 2.9001309.85604609 3.58 2.21l.17.34c.1559692.3095182.1405453.6777279-.0407631.9731178-.1813083.29539-.5026437.4758333-.8492369.4768822h-3.42z" fill="#f0c419"/><path id="Shape" d="m41.52 5.67c1.19-.45 2.48-1.34 2.48-2.67-.0032948-1.10320187-.8967981-1.9967052-2-2-.3991209-.0025009-.7896247.11604488-1.12.34-.2769321-.80171232-1.0318054-1.33959951-1.88-1.33959951s-1.6030679.53788719-1.88 1.33959951c-.3303753-.22395512-.7208791-.3425009-1.12-.34-1.1032019.0032948-1.9967052.89679813-2 2 .028228 1.32992635.9205695 2.48591423 2.2 2.85h.01z" fill="#c03a2b"/><path id="Shape" d="m23.658 40c-8.492 0-12.381-6.439-13.519-8.8-.25325881-.5148981-.27168365-1.1141135-.0505378-1.6435987.2211458-.5294852.6602905-.9375912 1.2045378-1.1194013l12.807-4.383c.3391046-.1200933.7165816-.0487889.9885125.1867273s.3964031.5989442.3259597.9517218-.3249449.6405314-.6664722.7535509l-12.818 4.39c1.583 3.272 6.5 10.457 18.012 6.518 1.8844699-.6495556 3.3240967-2.1914511 3.843-4.116.1495799-.5270036.6953371-.8355558 1.2240182-.6920176.5286811.1435383.8434597.6857283.7059818 1.2160176-.6909881 2.5626176-2.6066417 4.6164679-5.115 5.484-2.2289081.7983576-4.5746411 1.2220898-6.942 1.254z" fill="#d1d4d1"/><path id="Shape" d="m23.64 36.006c-1.7834513.0258046-3.5444356-.4000791-5.119-1.238-.484906-.2645444-.6635444-.872094-.399-1.357s.872094-.6635444 1.357-.399c2.385 1.3 5.49 1.317 9.166.059.3381519-.1155754.7122759-.0419697.9814431.1930908.2691672.2350604.3924847.5958641.3235.9465-.0689847.3506358-.3197912.6378338-.6579431.7534092-1.8143413.6540774-3.7236946 1.0060848-5.652 1.042z" fill="#d1d4d1"/><path id="Shape" d="m42.68 25.07c.0819919.257322.0545035.5370433-.0760108.7734821-.1305142.2364388-.3525566.4087662-.6139892.4765179-2.9545303.8513919-6.1034812.7393046-8.99-.32-2.1371533-.7492231-4.0100038-2.1043469-5.39-3.9-.1684714-.2458197-.2167251-.5546472-.1312708-.8401423s.2954475-.5170242.5712708-.6298577c5.95-2.56 5.95-10.63 5.95-10.63-.0018933-2.49494003 1.8357379-4.60946295 4.3065686-4.95547631 2.4708306-.34601335 4.8186142 1.18238707 5.5021328 3.58187279.6835185 2.39948572-.5064322 4.93564672-2.7887014 5.94360352.0823917 3.5583863.6406815 7.0897374 1.66 10.5z" fill="#e64c3c"/><circle id="Oval" cx="39" cy="9" fill="#35495e" r="1"/></g></g></svg>