<svg height="512" viewBox="0 0 44 60" width="512" xmlns="http://www.w3.org/2000/svg"><g id="Page-1" fill="none" fill-rule="evenodd"><g id="014---Windmill" fill-rule="nonzero"><path id="Shape" d="m29.84 11-10.6-2-6.24 4.69v9.32 9.16 11.47h18v-7.96-7.66-9.32z" fill="#f0c419"/><path id="Shape" d="m13 11h20l-1.12-2.57-9.12-7.168c-.4465405-.34907821-1.0734595-.34907821-1.52 0l-7.16 5.629z" fill="#e57e25"/><path id="Shape" d="m7.38 46h29.24l1.38.58v12.42h-32v-12.42z" fill="#f0c419"/><path id="Shape" d="m28.259 26.84c-.2263542-.000063-.445991-.0769183-.623-.218l-4.69-3.74c-.4318867-.3443495-.5028495-.9736133-.1585-1.4055.3443496-.4318867.9736133-.5028495 1.4055-.1585l4.69 3.74c.3324704.2649891.4610406.7112283.3205307 1.1124922s-.519377.6698147-.9445307.6695078z" fill="#805333"/><path id="Shape" d="m37.665 41.709c-.4511576.000696-.8890106-.1527818-1.241-.435l-12.524-9.961c-.8639097-.6879481-1.0067171-1.9459064-.319-2.81l2.49-3.13c.6873495-.8645456 1.9453806-1.0082567 2.81-.321l12.519 9.961c.4153143.3302463.6823728.8119953.7423892 1.3392017s-.091929 1.0566542-.4223892 1.4717983l-2.49 3.13c-.3802571.4780693-.9581445.7561477-1.569.755z" fill="#cb8252"/><path id="Shape" d="m17.02 28.12c-.3834064-.0003107-.7328808-.2198087-.8996438-.5650487-.1667631-.34524-.1214518-.7554333.1166438-1.0559513l3.73-4.7c.3444984-.4290725.9709196-.4992062 1.4017763-.1569419.4308568.3422642.5042445.9683125.1642237 1.4009419l-3.73 4.7c-.1899011.2384348-.4781828.3772371-.783.377z" fill="#805333"/><path id="Shape" d="m6.272 41.014c-.45153956.0001594-.88963992-.1536343-1.242-.436l-3.13-2.49c-.86422761-.6876488-1.00748678-1.9456435-.32-2.81l9.962-12.521c.6876488-.8642276 1.9456435-1.0074868 2.81-.32l3.13 2.49c.8642276.6876488 1.0074868 1.9456435.32 2.81l-9.961 12.522c-.38025712.4780693-.95814453.7561477-1.569.755z" fill="#cb8252"/><path id="Shape" d="m20.43 20.605c-.2617729-.0000381-.5130941-.1027208-.7-.286l-4.61-3.666c-.432439-.3437973-.5042973-.973061-.1605-1.4055s.973061-.5042973 1.4055-.1605l4.69 3.73c.3374024.2635932.4695569.7127395.328678 1.1170598-.140879.4043202-.5235287.6740912-.951678.6709402z" fill="#805333"/><path id="Shape" d="m16.359 17.093c-.456148.0001703-.8982487-.1577985-1.251-.447l-12.508-9.954c-.41707368-.33004771-.68475535-.81324904-.74336647-1.34187621-.05861111-.52862717.09672129-1.05872985.43136647-1.47212379l2.479-3.121c.32992181-.41752038.81325175-.68559505 1.34213124-.74440119.52887948-.05880614 1.05929078.09655059 1.47286876.43140119l12.51 9.956c.4185952.32762.6880474.8096518.7478422 1.3378386.0597947.5281869-.0950801 1.0582557-.4298422 1.4711614l-2.487 3.127c-.3255159.4189627-.8066889.6884052-1.334.747-.0764436.0072876-.1532124.0106254-.23.01z" fill="#cb8252"/><path id="Shape" d="m23.25 20.29c-.4037087.0023715-.7692453-.2382408-.9266917-.6099894-.1574465-.3717485-.0759163-.8017067.2066917-1.0900106l3.667-4.62c.3478986-.4160817.9640587-.4789921 1.3888666-.1418042s.5033918.9515457.1771334 1.3848042l-3.73 4.7c-.1899011.2384348-.4781828.3772371-.783.377z" fill="#805333"/><path id="Shape" d="m30.89 19.707c-.4513784.0002038-.889389-.1532057-1.242-.435l-3.13-2.49c-.8642276-.6876488-1.0074868-1.9456435-.32-2.81l9.961-12.522c.3303915-.41516341.8122127-.68202825 1.3394126-.74185635.5271999-.05982809 1.0565678.09228423 1.4715874.42285635l3.13 2.49c.8642276.68764884 1.0074868 1.94564347.32 2.81l-9.962 12.521c-.3800391.4777941-.9574951.7558422-1.568.755z" fill="#cb8252"/><path id="Shape" d="m43 60h-42c-.55228475 0-1-.4477153-1-1s.44771525-1 1-1h42c.5522847 0 1 .4477153 1 1s-.4477153 1-1 1z" fill="#3f5c6c"/><g fill="#f29c1f"><path id="Shape" d="m34 51h-3c-.5522847 0-1-.4477153-1-1s.4477153-1 1-1h3c.5522847 0 1 .4477153 1 1s-.4477153 1-1 1z"/><path id="Shape" d="m27 51h-3c-.5522847 0-1-.4477153-1-1s.4477153-1 1-1h3c.5522847 0 1 .4477153 1 1s-.4477153 1-1 1z"/><path id="Shape" d="m20 51h-3c-.5522847 0-1-.4477153-1-1s.4477153-1 1-1h3c.5522847 0 1 .4477153 1 1s-.4477153 1-1 1z"/><path id="Shape" d="m13 51h-3c-.55228475 0-1-.4477153-1-1s.44771525-1 1-1h3c.5522847 0 1 .4477153 1 1s-.4477153 1-1 1z"/><path id="Shape" d="m34 55h-3c-.5522847 0-1-.4477153-1-1s.4477153-1 1-1h3c.5522847 0 1 .4477153 1 1s-.4477153 1-1 1z"/><path id="Shape" d="m27 55h-3c-.5522847 0-1-.4477153-1-1s.4477153-1 1-1h3c.5522847 0 1 .4477153 1 1s-.4477153 1-1 1z"/><path id="Shape" d="m20 55h-3c-.5522847 0-1-.4477153-1-1s.4477153-1 1-1h3c.5522847 0 1 .4477153 1 1s-.4477153 1-1 1z"/><path id="Shape" d="m13 55h-3c-.55228475 0-1-.4477153-1-1s.44771525-1 1-1h3c.5522847 0 1 .4477153 1 1s-.4477153 1-1 1z"/><path id="Shape" d="m18 38h-6c-.5522847 0-1-.4477153-1-1s.4477153-1 1-1h6c.5522847 0 1 .4477153 1 1s-.4477153 1-1 1z"/><path id="Shape" d="m32 38h-6c-.5522847 0-1-.4477153-1-1s.4477153-1 1-1h6c.5522847 0 1 .4477153 1 1s-.4477153 1-1 1z"/></g><path id="Shape" d="m39.747 9.79-4.865 6.115-6.248-4.996 4.86-6.109z" fill="#a56a43"/><path id="Shape" d="m17.048 7.975-4.99 6.244-6.109-4.86 4.983-6.249z" fill="#a56a43"/><path id="Shape" d="m15.366 30.8-4.86 6.109-6.254-4.99 4.865-6.115z" fill="#a56a43"/><path id="Shape" d="m38.047 32.343-4.986 6.256-6.117-4.866 4.995-6.25z" fill="#a56a43"/><path id="Shape" d="m7 46 15-6 15 6z" fill="#e57e25"/><circle id="Oval" cx="22" cy="20.854" fill="#f3d55b" r="2.854"/><path id="Shape" d="m39 48c-.1329015-.0000252-.2644648-.0265419-.387-.078l-16.334-6.864c-.1779607-.0773385-.3800393-.0773385-.558 0l-16.334 6.864c-.50741575.2057827-1.08596866-.0347806-1.2978883-.539664-.21191963-.5048835.02161133-1.0863106.5238883-1.304336l16.334-6.864c.6730602-.2850665 1.4329398-.2850665 2.106 0l16.334 6.864c.4389834.1843492.687117.652638.593135 1.1193911s-.5040141.8025185-.980135.8026089z" fill="#d25627"/></g></g></svg>