<svg height="512" viewBox="0 0 60 60" width="512" xmlns="http://www.w3.org/2000/svg"><g id="Page-1" fill="none" fill-rule="evenodd"><g id="015---Farm-Plane" fill-rule="nonzero"><path id="Shape" d="m15 25c-.5522847 0-1-.4477153-1-1v-6c0-.5522847.4477153-1 1-1s1 .4477153 1 1v3.586l4.293-4.293c.3923789-.3789722 1.0160848-.3735524 1.4018186.0121814s.3911536 1.0094397.0121814 1.4018186l-6 6c-.1874927.1875494-.4418052.2929434-.707.293z" fill="#35495e"/><path id="Shape" d="m45 25c-.2651948-.0000566-.5195073-.1054506-.707-.293l-6-6c-.3789722-.3923789-.3735524-1.0160848.0121814-1.4018186s1.0094397-.3911536 1.4018186-.0121814l4.293 4.293v-3.586c0-.5522847.4477153-1 1-1s1 .4477153 1 1v6c0 .5522847-.4477153 1-1 1z" fill="#35495e"/><path id="Rectangle-path" d="m8 5h44v13h-44z" fill="#f9eab0"/><path id="Shape" d="m59 19h-23.35c-.5522847 0-1-.4477153-1-1s.4477153-1 1-1h23.35c.5522847 0 1 .4477153 1 1s-.4477153 1-1 1z" fill="#e64c3c"/><path id="Shape" d="m24.35 19h-23.35c-.55228475 0-1-.4477153-1-1s.44771525-1 1-1h23.35c.5522847 0 1 .4477153 1 1s-.4477153 1-1 1z" fill="#e64c3c"/><path id="Shape" d="m59 6h-58c-.55228475 0-1-.44771525-1-1s.44771525-1 1-1h58c.5522847 0 1 .44771525 1 1s-.4477153 1-1 1z" fill="#e64c3c"/><path id="Shape" d="m30 6c-.5522847 0-1-.44771525-1-1v-4c0-.55228475.4477153-1 1-1s1 .44771525 1 1v4c0 .55228475-.4477153 1-1 1z" fill="#e64c3c"/><rect id="Rectangle-path" fill="#547580" height="5" rx="1" width="4" x="13" y="24"/><rect id="Rectangle-path" fill="#547580" height="5" rx="1" transform="matrix(-1 0 0 -1 90 53)" width="4" x="43" y="24"/><path id="Shape" d="m27 10.81v-2.81c0-1.65685425 1.3431458-3 3-3s3 1.34314575 3 3v2.81z" fill="#c03a2b"/><path id="Shape" d="m30 60c-.5522847 0-1-.4477153-1-1v-15c0-.5522847.4477153-1 1-1s1 .4477153 1 1v15c0 .5522847-.4477153 1-1 1z" fill="#cb8252"/><path id="Shape" d="m59 60c-.3887936.0003383-.7425404-.2247024-.907-.577l-7-15c-.1576822-.3246524-.1281887-.7090822.0771714-1.0058819s.5547181-.4599106.9141145-.4267886.6730585.2573369.8207141.5866705l7 15c.1444954.3095303.1209945.6714044-.0623214.9596459-.183316.2882415-.5010827.4629683-.8426786.4633541z" fill="#cb8252"/><path id="Shape" d="m45 60c-.4306074.0001037-.8129281-.2754572-.949-.684l-5-15c-.1128959-.3394023-.0361471-.7132523.201336-.9807242.237483-.2674719.599621-.3879304.95-.316.350379.0719305.6357681.3253219.748664.6647242l5 15c.1016886.3053075.0502399.6408961-.1382416.9017179-.1884814.2608218-.4909623.4150035-.8127584.4142821z" fill="#cb8252"/><path id="Shape" d="m1 60c-.34177354-.0000443-.65985436-.1746333-.84340974-.4629327-.18355538-.2882995-.20716047-.6503762-.06259026-.9600673l7-15c.23867641-.4914115.82755185-.7003313 1.32256448-.4692161.49501263.2311151.71293513.8167187.48943552 1.3152161l-7 15c-.16430673.3519698-.51756801.5769496-.906.577z" fill="#cb8252"/><path id="Shape" d="m8 60c-.33189879-.0000772-.64213382-.1648221-.82808366-.4397393-.18594983-.2749172-.2233827-.6241814-.09991634-.9322607l1.2-3c.12775814-.3389423.42881658-.5822999.78700919-.636171s.71751423.0901673.93931735.3765367c.22180316.2863694.27140776.6702945.12967346 1.0036343l-1.2 3c-.15199189.3792577-.51941963.6279049-.928.628z" fill="#805333"/><path id="Shape" d="m10.8 53c-.1270244-.0001967-.2528786-.024282-.371-.071-.51243002-.2055422-.76132085-.7874812-.556-1.3l1.6-4c.2054499-.5130725.7879275-.7624499 1.301-.557.5130725.20545.7624499.7879275.557 1.301l-1.6 4c-.152715.379882-.5215729.6282965-.931.627z" fill="#805333"/><path id="Shape" d="m15 60c-.3214436.0000774-.6233283-.1543712-.8113424-.4150947-.1880141-.2607234-.2392338-.5959327-.1376576-.9009053l5-15c.174522-.5246705.7413295-.8085219 1.266-.634.5246705.174522.808522.7413295.634 1.266l-5 15c-.1363037.4092423-.5196567.6849662-.951.684z" fill="#cb8252"/><path id="Shape" d="m22.8 60c-.067187.0004396-.1342304-.0062648-.2-.02-.5414488-.1080709-.8928546-.634508-.785-1.176l.6-3c.1148093-.5345276.63761-.8777704 1.173722-.7706027s.8867823.6250156.787278 1.1626027l-.6 3c-.0930947.4657866-.5010063.8018121-.976.804z" fill="#805333"/><path id="Shape" d="m24.2 53c-.067187.0004396-.1342304-.0062648-.2-.02-.2599387-.0529946-.4881678-.2071045-.6344551-.428411-.1462874-.2213065-.1986434-.4916715-.1455449-.751589l.8-4c.0593016-.3606322.3106176-.6601885.6554537-.7812685s.728259-.0443954 1 .2.388511.6175689.3045463.9732685l-.8 4c-.0917246.4688464-.5022659.8073335-.98.808z" fill="#805333"/><path id="Shape" d="m52 60c-.408945.0003137-.7768725-.2484037-.929-.628l-1.2-3c-.2054499-.5130725.0439275-1.09555.557-1.301.5130725-.2054499 1.0955501.0439275 1.301.557l1.2 3c.0984896.2463783.0950249.5217985-.0096313.7656213-.1046563.2438228-.3019233.4360571-.5483687.5343787-.1178745.0476729-.2438501.072121-.371.072z" fill="#805333"/><path id="Shape" d="m49.2 53c-.408945.0003137-.7768725-.2484037-.929-.628l-1.6-4c-.2054499-.5127964.0437037-1.09505.5565-1.3004999.5127964-.20545 1.0950501.0437035 1.3005.5564999l1.6 4c.0984896.2463783.0950249.5217985-.0096313.7656213-.1046563.2438228-.3019233.4360571-.5483687.5343787-.1175627.0475466-.2431865.0719924-.37.072z" fill="#805333"/><path id="Shape" d="m37.2 60c-.4748929-.000378-.8840215-.3347017-.979-.8l-.6-3c-.0995043-.5375871.251166-1.055435.787278-1.1626027s1.0589127.2360751 1.173722.7706027l.6 3c.1055235.5391495-.2436511 1.0624649-.782 1.172-.0657696.0137352-.132813.0204396-.2.02z" fill="#805333"/><path id="Shape" d="m35.8 53c-.4752686.000097-.8849463-.3343337-.98-.8l-.8-4c-.0839647-.3556996.0328053-.7288731.3045463-.9732685s.6551639-.32108 1-.2.5961521.4206363.6554537.7812685l.8 4c.1056223.5385096-.2424637 1.0615311-.78 1.172-.0657696.0137352-.132813.0204396-.2.02z" fill="#805333"/><g fill="#2fa8cc"><path id="Shape" d="m1 25c-.55228475 0-1-.4477153-1-1v-2c0-.5522847.44771525-1 1-1s1 .4477153 1 1v2c0 .5522847-.44771525 1-1 1z"/><path id="Shape" d="m5 25c-.55228475 0-1-.4477153-1-1v-2c0-.5522847.44771525-1 1-1s1 .4477153 1 1v2c0 .5522847-.44771525 1-1 1z"/><path id="Shape" d="m9 25c-.55228475 0-1-.4477153-1-1v-2c0-.5522847.44771525-1 1-1s1 .4477153 1 1v2c0 .5522847-.44771525 1-1 1z"/><path id="Shape" d="m1 31c-.55228475 0-1-.4477153-1-1v-2c0-.5522847.44771525-1 1-1s1 .4477153 1 1v2c0 .5522847-.44771525 1-1 1z"/><path id="Shape" d="m5 31c-.55228475 0-1-.4477153-1-1v-2c0-.5522847.44771525-1 1-1s1 .4477153 1 1v2c0 .5522847-.44771525 1-1 1z"/><path id="Shape" d="m9 31c-.55228475 0-1-.4477153-1-1v-2c0-.5522847.44771525-1 1-1s1 .4477153 1 1v2c0 .5522847-.44771525 1-1 1z"/><path id="Shape" d="m51 25c-.5522847 0-1-.4477153-1-1v-2c0-.5522847.4477153-1 1-1s1 .4477153 1 1v2c0 .5522847-.4477153 1-1 1z"/><path id="Shape" d="m55 25c-.5522847 0-1-.4477153-1-1v-2c0-.5522847.4477153-1 1-1s1 .4477153 1 1v2c0 .5522847-.4477153 1-1 1z"/><path id="Shape" d="m59 25c-.5522847 0-1-.4477153-1-1v-2c0-.5522847.4477153-1 1-1s1 .4477153 1 1v2c0 .5522847-.4477153 1-1 1z"/><path id="Shape" d="m51 31c-.5522847 0-1-.4477153-1-1v-2c0-.5522847.4477153-1 1-1s1 .4477153 1 1v2c0 .5522847-.4477153 1-1 1z"/><path id="Shape" d="m55 31c-.5522847 0-1-.4477153-1-1v-2c0-.5522847.4477153-1 1-1s1 .4477153 1 1v2c0 .5522847-.4477153 1-1 1z"/><path id="Shape" d="m59 31c-.5522847 0-1-.4477153-1-1v-2c0-.5522847.4477153-1 1-1s1 .4477153 1 1v2c0 .5522847-.4477153 1-1 1z"/><path id="Shape" d="m22 30c-.5522847 0-1-.4477153-1-1v-2c0-.5522847.4477153-1 1-1s1 .4477153 1 1v2c0 .5522847-.4477153 1-1 1z"/><path id="Shape" d="m26 30c-.5522847 0-1-.4477153-1-1v-2c0-.5522847.4477153-1 1-1s1 .4477153 1 1v2c0 .5522847-.4477153 1-1 1z"/><path id="Shape" d="m30 30c-.5522847 0-1-.4477153-1-1v-2c0-.5522847.4477153-1 1-1s1 .4477153 1 1v2c0 .5522847-.4477153 1-1 1z"/><path id="Shape" d="m38 30c-.5522847 0-1-.4477153-1-1v-2c0-.5522847.4477153-1 1-1s1 .4477153 1 1v2c0 .5522847-.4477153 1-1 1z"/><path id="Shape" d="m34 30c-.5522847 0-1-.4477153-1-1v-2c0-.5522847.4477153-1 1-1s1 .4477153 1 1v2c0 .5522847-.4477153 1-1 1z"/><path id="Shape" d="m2 37c-.55228475 0-1-.4477153-1-1v-2c0-.5522847.44771525-1 1-1s1 .4477153 1 1v2c0 .5522847-.44771525 1-1 1z"/><path id="Shape" d="m6 37c-.55228475 0-1-.4477153-1-1v-2c0-.5522847.44771525-1 1-1s1 .4477153 1 1v2c0 .5522847-.44771525 1-1 1z"/><path id="Shape" d="m10 37c-.55228475 0-1-.4477153-1-1v-2c0-.5522847.44771525-1 1-1 .5522847 0 1 .4477153 1 1v2c0 .5522847-.4477153 1-1 1z"/><path id="Shape" d="m14 37c-.5522847 0-1-.4477153-1-1v-2c0-.5522847.4477153-1 1-1s1 .4477153 1 1v2c0 .5522847-.4477153 1-1 1z"/><path id="Shape" d="m18 37c-.5522847 0-1-.4477153-1-1v-2c0-.5522847.4477153-1 1-1s1 .4477153 1 1v2c0 .5522847-.4477153 1-1 1z"/><path id="Shape" d="m50 37c-.5522847 0-1-.4477153-1-1v-2c0-.5522847.4477153-1 1-1s1 .4477153 1 1v2c0 .5522847-.4477153 1-1 1z"/><path id="Shape" d="m54 37c-.5522847 0-1-.4477153-1-1v-2c0-.5522847.4477153-1 1-1s1 .4477153 1 1v2c0 .5522847-.4477153 1-1 1z"/><path id="Shape" d="m42 37c-.5522847 0-1-.4477153-1-1v-2c0-.5522847.4477153-1 1-1s1 .4477153 1 1v2c0 .5522847-.4477153 1-1 1z"/><path id="Shape" d="m46 37c-.5522847 0-1-.4477153-1-1v-2c0-.5522847.4477153-1 1-1s1 .4477153 1 1v2c0 .5522847-.4477153 1-1 1z"/><path id="Shape" d="m58 37c-.5522847 0-1-.4477153-1-1v-2c0-.5522847.4477153-1 1-1s1 .4477153 1 1v2c0 .5522847-.4477153 1-1 1z"/><path id="Shape" d="m22 37c-.5522847 0-1-.4477153-1-1v-2c0-.5522847.4477153-1 1-1s1 .4477153 1 1v2c0 .5522847-.4477153 1-1 1z"/><path id="Shape" d="m26 37c-.5522847 0-1-.4477153-1-1v-2c0-.5522847.4477153-1 1-1s1 .4477153 1 1v2c0 .5522847-.4477153 1-1 1z"/><path id="Shape" d="m30 37c-.5522847 0-1-.4477153-1-1v-2c0-.5522847.4477153-1 1-1s1 .4477153 1 1v2c0 .5522847-.4477153 1-1 1z"/><path id="Shape" d="m38 37c-.5522847 0-1-.4477153-1-1v-2c0-.5522847.4477153-1 1-1s1 .4477153 1 1v2c0 .5522847-.4477153 1-1 1z"/><path id="Shape" d="m34 37c-.5522847 0-1-.4477153-1-1v-2c0-.5522847.4477153-1 1-1s1 .4477153 1 1v2c0 .5522847-.4477153 1-1 1z"/></g><circle id="Oval" cx="30" cy="16" fill="#e64c3c" r="6"/><path id="Shape" d="m37 24c-.2651948-.0000566-.5195073-.1054506-.707-.293l-5.59-5.59c-.2531227-.2525868-.3522643-.6210259-.260079-.96653.0921852-.345504.3616921-.6155827.707-.7085s.7139563.0054432.967079.25803l5.59 5.59c.2880627.285707.374949.7171479.219931 1.0920852-.155018.3749374-.5212128.6190517-.926931.6179148z" fill="#7f8c8d"/><path id="Shape" d="m28.59 15.59c-.2651948-.0000566-.5195073-.1054506-.707-.293l-5.59-5.59c-.3789722-.39237889-.3735524-1.01608478.0121814-1.40181858.3857338-.38573379 1.0094397-.39115363 1.4018186-.01218142l5.59 5.59c.2859079.2859943.3714219.7160366.216678 1.0896546-.1547439.3736179-.5192821.6172591-.923678.6173454z" fill="#7f8c8d"/><circle id="Oval" cx="30" cy="16" fill="#95a5a5" r="3"/><path id="Shape" d="m59 45h-32c-.5522847 0-1-.4477153-1-1s.4477153-1 1-1h32c.5522847 0 1 .4477153 1 1s-.4477153 1-1 1z" fill="#cf976a"/><path id="Shape" d="m23 45h-22c-.55228475 0-1-.4477153-1-1s.44771525-1 1-1h22c.5522847 0 1 .4477153 1 1s-.4477153 1-1 1z" fill="#cf976a"/></g></g></svg>