<svg height="512" viewBox="0 0 60 59" width="512" xmlns="http://www.w3.org/2000/svg"><g id="Page-1" fill="none" fill-rule="evenodd"><g id="016---Sheep" fill-rule="nonzero" transform="translate(0 -1)"><path id="Shape" d="m5.952 27.849c-2.623.832-4.952-1.885-4.952-5.349s2.329-6.181 4.952-5.349z" fill="#d1d4d1"/><path id="Shape" d="m34 45v-11h4v7.785c.0093303.098912.0759058.1831105.17.215 1.2589636.4167267 2.0215248 1.6940487 1.791 3z" fill="#fdd7ad"/><path id="Shape" d="m7 45v-11h4v7.785c.0093303.098912.0759058.1831105.17.215 1.2589636.4167267 2.0215248 1.6940487 1.791 3z" fill="#fdd7ad"/><path id="Shape" d="m59 9.88c-.0005518 1.170615-.949385 2.1194482-2.12 2.12h-3.88c-.0032948 1.1032019-.8967981 1.9967052-2 2-.0936381-.0013274-.1871239-.0080049-.28-.02.1842425.3082584.2810404.6608796.28 1.02-.0032948 1.1032019-.8967981 1.9967052-2 2-.0936381-.0013274-.1871239-.0080049-.28-.02.1842425.3082584.2810404.6608796.28 1.02-.0032948 1.1032019-.8967981 1.9967052-2 2-.0936381-.0013274-.1871239-.0080049-.28-.02.1842425.3082584.2810404.6608796.28 1.02-.0032948 1.1032019-.8967981 1.9967052-2 2-.0936381-.0013274-.1871239-.0080049-.28-.02.1842425.3082584.2810404.6608796.28 1.02-.0032948 1.1032019-.8967981 1.9967052-2 2-.3591204.0010404-.7117416-.0957575-1.02-.28.0119951.0928761.0186726.1863619.02.28-.0032948 1.1032019-.8967981 1.9967052-2 2v2.17c-.0003045 1.811413-.719648 3.5486274-2 4.83h-4c-1.280352-1.2813726-1.9996955-3.018587-2-4.83v-.8c-.6514192.2665025-1.3194989.4903092-2 .67-2.2788287.6367963-4.6338703.9597734-7 .96-2.7021872-.0022705-5.3921962-.3620592-8-1.07-.6784606-.1745522-1.3462449-.3882432-2-.64v.88c-.0003045 1.811413-.719648 3.5486274-2 4.83h-4c-1.28035204-1.2813726-1.99969548-3.018587-2-4.83v-13.17c.00066596-.8481051.53851128-1.6026941 1.34-1.88-.22395512-.3303753-.3425009-.7208791-.34-1.12.0032948-1.1032019.89679813-1.9967052 2-2 .35912037-.0010404.7117416.0957575 1.02.28-.01199509-.0928761-.01867265-.1863619-.02-.28.0032948-1.1032019.89679813-1.9967052 2-2h23.27c.356899-.61816808 1.0162016-.99926785 1.73-1 .3991209-.0025009.7896247.11604488 1.12.34.2773059-.80148872 1.0318949-1.33933404 1.88-1.34.0032948-1.10320187.8967981-1.9967052 2-2 .3591204-.00104045.7117416.09575754 1.02.28-.0119951-.09287614-.0186726-.18636188-.02-.28.0032948-1.10320187.8967981-1.9967052 2-2 .3591204-.00104045.7117416.09575754 1.02.28-.0119951-.09287614-.0186726-.18636188-.02-.28.0032948-1.10320187.8967981-1.9967052 2-2 .5112213-.00394123 1.0034186.19365623 1.37.55.6596651-1.20206949 2.0503908-1.8038982 3.3782369-1.46191297 1.3278461.34198522 2.254834 1.5407384 2.2517631 2.91191297l4.38 4.38c.3975569.39789649.6206053.93752978.62 1.5z" fill="#ecf0f1"/><g fill="#d1d4d1"><path id="Shape" d="m15 27v2.93c-.6784606-.1745522-1.3462449-.3882432-2-.64v-2.29c0-.5522847.4477153-1 1-1s1 .4477153 1 1z"/><path id="Shape" d="m18 17c-.5271521.0000449-1.0448371-.1400751-1.5-.406-.4551629.2659249-.9728479.4060449-1.5.406-1.6568542 0-3-1.3431458-3-3 0-.5522847.4477153-1 1-1s1 .4477153 1 1 .4477153 1 1 1c.2848756-.0003211.5554523-.1248375.741-.341.1955514-.2118158.4707184-.3322804.759-.3322804s.5634486.1204646.759.3322804c.1855477.2161625.4561244.3406789.741.341.5522847 0 1-.4477153 1-1s.4477153-1 1-1 1 .4477153 1 1c0 1.6568542-1.3431458 3-3 3z"/><path id="Shape" d="m26 22c-.5271521.0000449-1.0448371-.1400751-1.5-.406-.4551629.2659249-.9728479.4060449-1.5.406-1.6568542 0-3-1.3431458-3-3 0-.5522847.4477153-1 1-1s1 .4477153 1 1 .4477153 1 1 1c.2848756-.0003211.5554523-.1248375.741-.341.1955514-.2118158.4707184-.3322804.759-.3322804s.5634486.1204646.759.3322804c.1855477.2161625.4561244.3406789.741.341.5522847 0 1-.4477153 1-1s.4477153-1 1-1 1 .4477153 1 1c0 1.6568542-1.3431458 3-3 3z"/><path id="Shape" d="m25 28c-.5271521.0000449-1.0448371-.1400751-1.5-.406-.4551629.2659249-.9728479.4060449-1.5.406-1.6568542 0-3-1.3431458-3-3 0-.5522847.4477153-1 1-1s1 .4477153 1 1 .4477153 1 1 1c.2848756-.0003211.5554523-.1248375.741-.341.1955514-.2118158.4707184-.3322804.759-.3322804s.5634486.1204646.759.3322804c.1855477.2161625.4561244.3406789.741.341.5522847 0 1-.4477153 1-1s.4477153-1 1-1 1 .4477153 1 1c0 1.6568542-1.3431458 3-3 3z"/><path id="Shape" d="m34 17c-.5271521.0000449-1.0448371-.1400751-1.5-.406-.4551629.2659249-.9728479.4060449-1.5.406-1.6568542 0-3-1.3431458-3-3 0-.5522847.4477153-1 1-1s1 .4477153 1 1 .4477153 1 1 1c.2848756-.0003211.5554523-.1248375.741-.341.1955514-.2118158.4707184-.3322804.759-.3322804s.5634486.1204646.759.3322804c.1855477.2161625.4561244.3406789.741.341.5522847 0 1-.4477153 1-1s.4477153-1 1-1 1 .4477153 1 1c0 1.6568542-1.3431458 3-3 3z"/><path id="Shape" d="m45 15c-.5271521.0000449-1.0448371-.1400751-1.5-.406-.4551629.2659249-.9728479.4060449-1.5.406-1.6568542 0-3-1.3431458-3-3 0-.5522847.4477153-1 1-1s1 .4477153 1 1 .4477153 1 1 1c.2848756-.0003211.5554523-.1248375.741-.341.1955514-.2118158.4707184-.3322804.759-.3322804s.5634486.1204646.759.3322804c.1855477.2161625.4561244.3406789.741.341.5522847 0 1-.4477153 1-1s.4477153-1 1-1 1 .4477153 1 1c0 1.6568542-1.3431458 3-3 3z"/><path id="Shape" d="m14 24c-.5271521.0000449-1.0448371-.1400751-1.5-.406-.4551629.2659249-.9728479.4060449-1.5.406-1.65685425 0-3-1.3431458-3-3 0-.5522847.44771525-1 1-1s1 .4477153 1 1 .4477153 1 1 1c.2848756-.0003211.5554523-.1248375.741-.341.1955514-.2118158.4707184-.3322804.759-.3322804s.5634486.1204646.759.3322804c.1855477.2161625.4561244.3406789.741.341.5522847 0 1-.4477153 1-1s.4477153-1 1-1 1 .4477153 1 1c0 1.6568542-1.3431458 3-3 3z"/><path id="Shape" d="m39 24c-.5271521.0000449-1.0448371-.1400751-1.5-.406-.4551629.2659249-.9728479.4060449-1.5.406-1.6568542 0-3-1.3431458-3-3 0-.5522847.4477153-1 1-1s1 .4477153 1 1 .4477153 1 1 1c.2848756-.0003211.5554523-.1248375.741-.341.1955514-.2118158.4707184-.3322804.759-.3322804s.5634486.1204646.759.3322804c.1855477.2161625.4561244.3406789.741.341.5522847 0 1-.4477153 1-1s.4477153-1 1-1 1 .4477153 1 1c0 1.6568542-1.3431458 3-3 3z"/><path id="Shape" d="m32 27v2.37c-.6514192.2665025-1.3194989.4903092-2 .67v-3.04c0-.5522847.4477153-1 1-1s1 .4477153 1 1z"/></g><path id="Shape" d="m59 9.88c-.0005518 1.170615-.949385 2.1194482-2.12 2.12h-3.88c-1.1032019-.0032948-1.9967052-.8967981-2-2v-2.93c-.0021877-.66799801.3324286-1.29211376.89-1.66l2.11-1.41 4.38 4.38c.3975569.39789649.6206053.93752978.62 1.5z" fill="#fdd7ad"/><path id="Shape" d="m51 50h-44c-.55228475 0-1-.4477153-1-1s.44771525-1 1-1h44c.5522847 0 1 .4477153 1 1s-.4477153 1-1 1z" fill="#26b99a"/><path id="Shape" d="m38 55h-24c-.5522847 0-1-.4477153-1-1s.4477153-1 1-1h24c.5522847 0 1 .4477153 1 1s-.4477153 1-1 1z" fill="#14a085"/><path id="Shape" d="m28 60h-10c-.5522847 0-1-.4477153-1-1s.4477153-1 1-1h10c.5522847 0 1 .4477153 1 1s-.4477153 1-1 1z" fill="#33907c"/><path id="Shape" d="m59 46h-58c-.55228475 0-1-.4477153-1-1s.44771525-1 1-1h58c.5522847 0 1 .4477153 1 1s-.4477153 1-1 1z" fill="#81ccb8"/></g></g></svg>