<svg height="512" viewBox="0 0 60 59" width="512" xmlns="http://www.w3.org/2000/svg"><g id="Page-1" fill="none" fill-rule="evenodd"><g id="018---Horse" fill-rule="nonzero"><path id="Shape" d="m8.94 16c-4.3948286.0329621-7.94012361 3.6050478-7.94 8v9c0 .5522847.44771525 1 1 1h3.926z" fill="#a56a43"/><path id="Shape" d="m58.32 14.86c-.5803233.7133306-1.4504282 1.1281907-2.37 1.13-.4722645.0024212-.9383641-.1072493-1.36-.32l-5.59-2.68-.01.01-.98 1.78-3.01 5.42v3.8c.0281221 2.2920978-.8696269 4.4986135-2.49 6.12-.9494605.8858103-1.4950751 2.1215731-1.51 3.42v12.73c-.3038396-.1762535-.6487402-.2693767-1-.27h-3l-5.5-15h-15.5c-.12 0-1.24 0-1.36-.01-2-.04-6.64 15.28-6.64 15.28-.30383964-.1762535-.64874021-.2693767-1-.27h-3v-11.37c-.00634556-.8747552.18508993-1.7396334.56-2.53.58-1.21 1.42-3.83 1.44-8.91-.02021402-5.2518004 3.96250675-9.6548954 9.19-10.16 2.1720786-.1819511 4.3436966.3556825 6.18 1.53.4933641.2907124 1.0574345.4395162 1.63.43h8.35c.9981419.0025684 1.9319221-.4924476 2.49-1.32 3.289754-4.85228917 7.8203983-8.73372522 13.12-11.24l1.93-.85c.8067236-.39936944 1.5793159-.86426267 2.31-1.39.1902052-.12446536.412691-.19051584.64-.19.3065668-.00212944.6013376.11802627.8190547.33386651.2177172.21584024.3404204.50955972.3409453.81613349v1.64c.0013495.41547772.1305296.82047463.37 1.16.1.15.21.29.28.39l4.79 6.84c.7894656 1.1148718.7404202 2.6189288-.12 3.68z" fill="#cb8252"/><path id="Shape" d="m34.28 33c-.1895999.0003572-.3753067-.0537928-.535-.156-2.5941217-1.7590507-4.1231604-4.7102759-4.064-7.844 0-.5522847.4477153-1 1-1s1 .4477153 1 1c-.0618756 2.4500429 1.1177331 4.7656268 3.136 6.156.3754469.2385879.5481516.6965.4237737 1.1236003s-.5159316.720692-.9607737.7203997z" fill="#805333"/><path id="Shape" d="m42 48v1c0 .5522847-.4477153 1-1 1h-2c-1.1032019-.0032948-1.9967052-.8967981-2-2v-2h3c1.1045695 0 2 .8954305 2 2z" fill="#a56a43"/><path id="Shape" d="m15.64 30.99c-.3877056 1.3606824-1.1215837 2.5975944-2.13 3.59-.9494605.8858103-1.4950751 2.1215731-1.51 3.42v8.27c-.3038396-.1762535-.6487402-.2693767-1-.27h-3v-10c.01492489-1.2984269.56053947-2.5341897 1.51-3.42.7292341-.7107314 1.313396-1.5564076 1.72-2.49.01 0 .01.01.02.01.6066454.2897262 1.2488479.4981898 1.91.62.8164127.1673026 1.6467122.2576981 2.48.27z" fill="#a56a43"/><path id="Shape" d="m13 48v1c0 .5522847-.4477153 1-1 1h-2c-.43260047-.0008598-.85340377-.1411275-1.2-.4.12657289-.1747813.19638951-.3842312.2-.6v-1c-.00073215-.7137984-.38183192-1.373101-1-1.73v-.27h3c1.1045695 0 2 .8954305 2 2z" fill="#805333"/><path id="Shape" d="m9 48v1c-.00361049.2157688-.07342711.4252187-.2.6-.18885438.2518058-.4852427.4-.8.4h-2c-1.10320187-.0032948-1.9967052-.8967981-2-2v-2h3c1.1045695 0 2 .8954305 2 2z" fill="#a56a43"/><path id="Shape" d="m13.91 26.93c.0035157 1.300541-.2514205 2.5888182-.75 3.79-.6611521-.1218102-1.3033546-.3302738-1.91-.62.4396588-.9987579.664518-2.0787636.66-3.17 0-.5522847.4477153-1 1-1s1 .4477153 1 1z" fill="#805333"/><path id="Shape" d="m37 35.07v10.93h-4v-8.93c-.0313097-1.6704658-.9289872-3.2044716-2.37-4.05-.8259244-.5288127-1.5395233-1.2152269-2.1-2.02h6.07c.01.01.02.01.03.02 1.4410128.8455284 2.3386903 2.3795342 2.37 4.05z" fill="#a56a43"/><path id="Shape" d="m39 50h-4c-1.1032019-.0032948-1.9967052-.8967981-2-2v-2h4v2c.0032948 1.1032019.8967981 1.9967052 2 2z" fill="#805333"/><path id="Shape" d="m48.99 13-.98 1.78c-.0897378-.0414873-.1710885-.0991108-.24-.17l-3-3c-.3893607-.3921222-.3871221-1.0256392.005-1.415.3921222-.38936068 1.0256392-.38712213 1.415.005z" fill="#a56a43"/><path id="Shape" d="m10.875 20.994c-.3565462-.0014336-.6853584-.1925988-.8630104-.501738-.17765202-.3091392-.17726704-.6894831.0010104-.998262.9106454-1.6059205 2.4258036-2.7808792 4.2078661-3.2630711 1.7820624-.4821918 3.6829602-.2315523 5.2791339.6960711.4793832.2744855.6454855.8856168.371 1.365s-.8856168.6454855-1.365.371c-1.1379831-.6667226-2.4963143-.8476909-3.7691584-.5021589-1.2728441.3455319-2.3532078 1.1885192-2.9978416 2.3391589-.1797866.3064672-.5086901.4945208-.864.494z" fill="#cf976a"/><path id="Shape" d="m59 51h-58c-.55228475 0-1-.4477153-1-1s.44771525-1 1-1h58c.5522847 0 1 .4477153 1 1s-.4477153 1-1 1z" fill="#26b99a"/><path id="Shape" d="m50 55h-40c-.55228475 0-1-.4477153-1-1s.44771525-1 1-1h40c.5522847 0 1 .4477153 1 1s-.4477153 1-1 1z" fill="#14a085"/><path id="Shape" d="m41 59h-22c-.5522847 0-1-.4477153-1-1s.4477153-1 1-1h22c.5522847 0 1 .4477153 1 1s-.4477153 1-1 1z" fill="#33907c"/></g></g></svg>