<svg height="512" viewBox="0 0 60 59" width="512" xmlns="http://www.w3.org/2000/svg"><g id="Page-1" fill="none" fill-rule="evenodd"><g id="019---Tractor-Back-View" fill-rule="nonzero"><path id="Shape" d="m17.164 12h-5.164v-4h6z" fill="#c03a2b"/><path id="Shape" d="m42.836 12h5.164v-4h-6z" fill="#c03a2b"/><path id="Shape" d="m44.62 21.06h-29.24l.13-.85 2.49-16.21 12-2 6.56 1.09 5.44.91z" fill="#84b5cb"/><path id="Shape" d="m36.56 3.09c-2.2 7.33-7.68 17.64-21.05 17.12l2.49-16.21 12-2z" fill="#9fc9d3"/><path id="Rectangle-path" d="m20 20h20v17h-20z" fill="#e64c3c"/><path id="Shape" d="m24 20v2c-.0049422 1.6548028-1.3451972 2.9950578-3 3h-1v-5z" fill="#c03a2b"/><path id="Shape" d="m36 20v2c.0049422 1.6548028 1.3451972 2.9950578 3 3h1v-5z" fill="#c03a2b"/><path id="Rectangle-path" d="m21 28h4v4h-4z" fill="#f0c419"/><path id="Rectangle-path" d="m35 28h4v4h-4z" fill="#f0c419"/><path id="Shape" d="m39 33h-7c-.5522847 0-1-.4477153-1-1s.4477153-1 1-1h7c.5522847 0 1 .4477153 1 1s-.4477153 1-1 1z" fill="#c03a2b"/><path id="Shape" d="m28 29h-7c-.5522847 0-1-.4477153-1-1s.4477153-1 1-1h7c.5522847 0 1 .4477153 1 1s-.4477153 1-1 1z" fill="#c03a2b"/><path id="Shape" d="m39 29h-7c-.5522847 0-1-.4477153-1-1s.4477153-1 1-1h7c.5522847 0 1 .4477153 1 1s-.4477153 1-1 1z" fill="#c03a2b"/><path id="Shape" d="m28 33h-7c-.5522847 0-1-.4477153-1-1s.4477153-1 1-1h7c.5522847 0 1 .4477153 1 1s-.4477153 1-1 1z" fill="#c03a2b"/><rect id="Rectangle-path" fill="#e64c3c" height="4" rx="1" width="30" x="15"/><path id="Shape" d="m21 22v23c-.0032948 1.1032019-.8967981 1.9967052-2 2h-8c-1.10320187-.0032948-1.9967052-.8967981-2-2v-23z" fill="#35495e"/><g fill="#2c3e50"><path id="Shape" d="m13.71 27.71c-1.2896014 1.0469626-2.7854743 1.8102326-4.39 2.24-.10404198.0304958-.2116143.047304-.32.05v-2.06c1.1934145-.3439262 2.312446-.906833 3.3-1.66.4013357-.3714784 1.0248279-.3582126 1.41.03.3811429.3888435.3811429 1.0111565 0 1.4z"/><path id="Shape" d="m21 27.94v2.06c-.1083857-.002696-.215958-.0195042-.32-.05-1.6045257-.4297674-3.1003986-1.1930374-4.39-2.24-.3948836-.3893607-.3993607-1.0251164-.01-1.42s1.0251164-.3993607 1.42-.01c.9857153.7561029 2.1053244 1.3193002 3.3 1.66z"/><path id="Shape" d="m13.71 32.71c-1.2896014 1.0469626-2.7854743 1.8102326-4.39 2.24-.10404198.0304958-.2116143.047304-.32.05v-2.06c1.1934145-.3439262 2.312446-.906833 3.3-1.66.4013357-.3714784 1.0248279-.3582126 1.41.03.3811429.3888435.3811429 1.0111565 0 1.4z"/><path id="Shape" d="m21 32.94v2.06c-.1083857-.002696-.215958-.0195042-.32-.05-1.6045257-.4297674-3.1003986-1.1930374-4.39-2.24-.3948836-.3893608-.3993607-1.0251164-.01-1.42.3893608-.3948836 1.0251164-.3993607 1.42-.01.9857153.7561029 2.1053244 1.3193002 3.3 1.66z"/><path id="Shape" d="m13.71 37.71c-1.2896014 1.0469626-2.7854743 1.8102326-4.39 2.24-.10404198.0304958-.2116143.047304-.32.05v-2.06c1.1934145-.3439262 2.312446-.906833 3.3-1.66.4013357-.3714784 1.0248279-.3582126 1.41.03.3811429.3888435.3811429 1.0111565 0 1.4z"/><path id="Shape" d="m21 37.94v2.06c-.1083857-.002696-.215958-.0195042-.32-.05-1.6045257-.4297674-3.1003986-1.1930374-4.39-2.24-.3948836-.3893608-.3993607-1.0251164-.01-1.42.3893608-.3948836 1.0251164-.3993607 1.42-.01.9857153.7561029 2.1053244 1.3193002 3.3 1.66z"/><path id="Shape" d="m13.71 42.71c-1.2896014 1.0469626-2.7854743 1.8102326-4.39 2.24-.10404198.0304958-.2116143.047304-.32.05v-2.06c1.1934145-.3439262 2.312446-.906833 3.3-1.66.4013357-.3714784 1.0248279-.3582126 1.41.03.3811429.3888435.3811429 1.0111565 0 1.4z"/><path id="Shape" d="m21 42.94v2.06c-.1083857-.002696-.215958-.0195042-.32-.05-1.6045257-.4297674-3.1003986-1.1930374-4.39-2.24-.3948836-.3893608-.3993607-1.0251164-.01-1.42.3893608-.3948836 1.0251164-.3993607 1.42-.01.9857153.7561029 2.1053244 1.3193002 3.3 1.66z"/></g><path id="Shape" d="m51 22v23c-.0032948 1.1032019-.8967981 1.9967052-2 2h-8c-1.1032019-.0032948-1.9967052-.8967981-2-2v-23z" fill="#35495e"/><path id="Shape" d="m51 27.94v2.06c-.1083857-.002696-.215958-.0195042-.32-.05-1.6045257-.4297674-3.1003986-1.1930374-4.39-2.24-.3948836-.3893608-.3993607-1.0251164-.01-1.42.3893608-.3948836 1.0251164-.3993607 1.42-.01.9857153.7561029 2.1053244 1.3193002 3.3 1.66z" fill="#2c3e50"/><path id="Shape" d="m43.71 27.71c-1.2896014 1.0469626-2.7854743 1.8102326-4.39 2.24-.104042.0304958-.2116143.047304-.32.05v-2.06c1.1934145-.3439262 2.312446-.906833 3.3-1.66.4013357-.3714784 1.0248279-.3582126 1.41.03.3811429.3888435.3811429 1.0111565 0 1.4z" fill="#2c3e50"/><path id="Shape" d="m51 32.94v2.06c-.1083857-.002696-.215958-.0195042-.32-.05-1.6045257-.4297674-3.1003986-1.1930374-4.39-2.24-.3948836-.3893608-.3993607-1.0251164-.01-1.42.3893608-.3948835 1.0251164-.3993607 1.42-.01.9857153.7561029 2.1053244 1.3193002 3.3 1.66z" fill="#2c3e50"/><path id="Shape" d="m43.71 32.71c-1.2896014 1.0469626-2.7854743 1.8102326-4.39 2.24-.104042.0304958-.2116143.047304-.32.05v-2.06c1.1934145-.3439262 2.312446-.906833 3.3-1.66.4013357-.3714784 1.0248279-.3582126 1.41.03.3811429.3888435.3811429 1.0111565 0 1.4z" fill="#2c3e50"/><path id="Shape" d="m51 37.94v2.06c-.1083857-.002696-.215958-.0195042-.32-.05-1.6045257-.4297674-3.1003986-1.1930374-4.39-2.24-.3948836-.3893608-.3993607-1.0251164-.01-1.42.3893608-.3948835 1.0251164-.3993607 1.42-.01.9857153.7561029 2.1053244 1.3193002 3.3 1.66z" fill="#2c3e50"/><path id="Shape" d="m43.71 37.71c-1.2896014 1.0469626-2.7854743 1.8102326-4.39 2.24-.104042.0304958-.2116143.047304-.32.05v-2.06c1.1934145-.3439262 2.312446-.906833 3.3-1.66.4013357-.3714784 1.0248279-.3582126 1.41.03.3811429.3888435.3811429 1.0111565 0 1.4z" fill="#2c3e50"/><path id="Shape" d="m51 42.94v2.06c-.1083857-.002696-.215958-.0195042-.32-.05-1.6045257-.4297674-3.1003986-1.1930374-4.39-2.24-.3948836-.3893607-.3993607-1.0251164-.01-1.42s1.0251164-.3993607 1.42-.01c.9857153.7561029 2.1053244 1.3193002 3.3 1.66z" fill="#2c3e50"/><path id="Shape" d="m43.71 42.71c-1.2896014 1.0469626-2.7854743 1.8102326-4.39 2.24-.104042.0304958-.2116143.047304-.32.05v-2.06c1.1934145-.3439262 2.312446-.906833 3.3-1.66.4013357-.3714784 1.0248279-.3582126 1.41.03.3811429.3888435.3811429 1.0111565 0 1.4z" fill="#2c3e50"/><path id="Shape" d="m28 15h4c1.1045695 0 2 .8954305 2 2v3h-8v-3c0-1.1045695.8954305-2 2-2z" fill="#c03a2b"/><rect id="Rectangle-path" fill="#3f5c6c" height="4" rx="1" width="6" x="27" y="11"/><rect id="Rectangle-path" fill="#e64c3c" height="6" rx="1" width="4" x="9" y="7"/><rect id="Rectangle-path" fill="#e64c3c" height="6" rx="1" transform="matrix(-1 0 0 -1 98 20)" width="4" x="47" y="7"/><path id="Shape" d="m10 17h11c.5522847 0 1 .4477153 1 1v4c0 .5522847-.4477153 1-1 1h-12c-.55228475 0-1-.4477153-1-1v-3c0-1.1045695.8954305-2 2-2z" fill="#e64c3c"/><path id="Shape" d="m39 17h12c.5522847 0 1 .4477153 1 1v4c0 .5522847-.4477153 1-1 1h-11c-1.1045695 0-2-.8954305-2-2v-3c0-.5522847.4477153-1 1-1z" fill="#e64c3c" transform="matrix(-1 0 0 -1 90 40)"/><path id="Shape" d="m30 59c-.5522847 0-1-.4477153-1-1v-11c0-.5522847.4477153-1 1-1s1 .4477153 1 1v11c0 .5522847-.4477153 1-1 1z" fill="#a56a43"/><path id="Shape" d="m59 59c-.3423515.0004852-.6611574-.1741979-.845-.463l-7-11c-.2965769-.4661283-.1591283-1.0844231.307-1.381s1.0844231-.1591283 1.381.307l7 11c.1959532.3078261.2086774.6979488.0331992 1.0178894-.1754781.3199406-.5112958.5188982-.8761992.5191106z" fill="#a56a43"/><path id="Shape" d="m1 59c-.36490345-.0002124-.70072108-.19917-.87619924-.5191106s-.16275401-.7100633.03319924-1.0178894l7-11c.19185162-.3015322.52999532-.4778077.88705564-.4624254s.6787913.2200855.844.537c.1652087.3169144.14879598.6978932-.04305564.9994254l-7 11c-.18384259.2888021-.50264852.4634852-.845.463z" fill="#a56a43"/><path id="Shape" d="m10 53c-.55228475 0-1-.4477153-1-1s.44771525-1 1-1c1.4684478.0162538 2.923805-.2774755 4.271-.862.4760695-.2802845 1.0892155-.1215694 1.3695.3545.2802845.4760695.1215694 1.0892155-.3545 1.3695-1.6554463.7677128-3.4612963 1.1564864-5.286 1.138z" fill="#805333"/><path id="Shape" d="m24 53c-1.8884917.009482-3.7582362-.3746841-5.49-1.128-.4815923-.2706195-.6526194-.8804077-.3819999-1.362.2706195-.4815922.8804076-.6526195 1.3619999-.382 1.4291471.591828 2.9632449.8884429 4.51.872.5522847 0 1 .4477153 1 1s-.4477153 1-1 1z" fill="#805333"/><path id="Shape" d="m9 58c-.55228475 0-1-.4477153-1-1s.44771525-1 1-1c1.5470912.016578 3.0815425-.2800395 4.511-.872.4815923-.2706195 1.0913804-.0995922 1.3619999.382.2706195.4815923.0995924 1.0913804-.3819999 1.362-1.7320724.7534521-3.6021717 1.1376211-5.491 1.128z" fill="#805333"/><path id="Shape" d="m23 58c-.365 0-3.624-.032-5.507-1.138-.4760695-.2800084-.6350084-.8929305-.355-1.369s.8929305-.6350084 1.369-.355c1.4227275.592338 2.9520737.8857492 4.493.862.5522847 0 1 .4477153 1 1s-.4477153 1-1 1z" fill="#805333"/><path id="Shape" d="m50 53c-1.824367.0183375-3.6298591-.3704326-5.285-1.138-.4760694-.2802845-.6347845-.8934305-.3545-1.3695.2802845-.4760694.8934305-.6347845 1.3695-.3545 1.3465234.5855423 2.8017749.879319 4.27.862.5522847 0 1 .4477153 1 1s-.4477153 1-1 1z" fill="#805333"/><path id="Shape" d="m36 53c-.5522847 0-1-.4477153-1-1s.4477153-1 1-1c1.5470912.016578 3.0815425-.2800395 4.511-.872.4815923-.2706195 1.0913805-.0995923 1.362.382s.0995923 1.0913805-.382 1.362c-1.7320724.7534521-3.6021717 1.1376211-5.491 1.128z" fill="#805333"/><path id="Shape" d="m51 58c-1.8884917.009482-3.7582362-.3746841-5.49-1.128-.4815923-.2706195-.6526195-.8804077-.382-1.362s.8804077-.6526195 1.362-.382c1.4291471.591828 2.9632449.8884429 4.51.872.5522847 0 1 .4477153 1 1s-.4477153 1-1 1z" fill="#805333"/><path id="Shape" d="m37 58c-.5522847 0-1-.4477153-1-1s.4477153-1 1-1c1.5412621.0238866 3.0709626-.2695272 4.494-.862.3079629-.1811337.6891661-.1842118 1.0000139-.0080749s.5041151.5047295.507.862c.0028849.3572706-.185051.6889412-.4930139.8700749-1.884 1.106-5.143 1.138-5.508 1.138z" fill="#805333"/><path id="Shape" d="m59 48h-31c-.5522847 0-1-.4477153-1-1s.4477153-1 1-1h31c.5522847 0 1 .4477153 1 1s-.4477153 1-1 1z" fill="#cb8252"/><path id="Shape" d="m24 48h-23c-.55228475 0-1-.4477153-1-1s.44771525-1 1-1h23c.5522847 0 1 .4477153 1 1s-.4477153 1-1 1z" fill="#cb8252"/></g></g></svg>