<svg height="512" viewBox="0 0 60 59" width="512" xmlns="http://www.w3.org/2000/svg"><g id="Page-1" fill="none" fill-rule="evenodd"><g id="020---Farming-Drone" fill-rule="nonzero"><path id="Shape" d="m21 3h-9c-.5522847 0-1-.44771525-1-1s.4477153-1 1-1h9c.5522847 0 1 .44771525 1 1s-.4477153 1-1 1z" fill="#bdc3c7"/><path id="Shape" d="m10 3h-9c-.55228475 0-1-.44771525-1-1s.44771525-1 1-1h9c.5522847 0 1 .44771525 1 1s-.4477153 1-1 1z" fill="#bdc3c7"/><path id="Shape" d="m59 3h-9c-.5522847 0-1-.44771525-1-1s.4477153-1 1-1h9c.5522847 0 1 .44771525 1 1s-.4477153 1-1 1z" fill="#bdc3c7"/><path id="Shape" d="m47 3h-8c-.5522847 0-1-.44771525-1-1s.4477153-1 1-1h8c.5522847 0 1 .44771525 1 1s-.4477153 1-1 1z" fill="#bdc3c7"/><path id="Shape" d="m9 25h-1v-10c0-.5522847-.44771525-1-1-1s-1 .4477153-1 1v10h-1c-.55228475 0-1 .4477153-1 1s.44771525 1 1 1h4c.55228475 0 1-.4477153 1-1s-.44771525-1-1-1z" fill="#7f8c8d"/><path id="Shape" d="m55 25h-1v-10c0-.5522847-.4477153-1-1-1s-1 .4477153-1 1v10h-1c-.5522847 0-1 .4477153-1 1s.4477153 1 1 1h4c.5522847 0 1-.4477153 1-1s-.4477153-1-1-1z" fill="#7f8c8d"/><path id="Shape" d="m15 8h-8l1.515-6.061c.28507876-1.14010359 1.30979549-1.93967129 2.485-1.939 1.1748317-.0002122 2.1990115.79925826 2.484 1.939z" fill="#95a5a5"/><path id="Shape" d="m53 8h-8l1.515-6.061c.2850788-1.14010359 1.3097955-1.93967129 2.485-1.939 1.1748317-.0002122 2.1990115.79925826 2.484 1.939z" fill="#95a5a5"/><path id="Shape" d="m11 10v5c0 .5522847-.4477153 1-1 1h-6c-.55228475 0-1-.4477153-1-1v-5z" fill="#95a5a5"/><path id="Shape" d="m57 11v4c0 .5522847-.4477153 1-1 1h-6c-.5522847 0-1-.4477153-1-1v-5z" fill="#95a5a5"/><path id="Shape" d="m30 59c-.5522847 0-1-.4477153-1-1v-15c0-.5522847.4477153-1 1-1s1 .4477153 1 1v15c0 .5522847-.4477153 1-1 1z" fill="#a56a43"/><path id="Shape" d="m59 59c-.3887936.0003383-.7425404-.2247024-.907-.577l-7-15c-.1576822-.3246524-.1281887-.7090822.0771714-1.0058819s.5547181-.4599106.9141145-.4267886.6730585.2573369.8207141.5866705l7 15c.1444954.3095303.1209945.6714044-.0623214.9596459-.183316.2882415-.5010827.4629683-.8426786.4633541z" fill="#a56a43"/><path id="Shape" d="m45 59c-.4302393-.0003267-.8120445-.2758064-.948-.684l-5-15c-.174522-.5246705.1093295-1.091478.634-1.266s1.091478.1093295 1.266.634l5 15c.1017455.3054752.0501823.6412539-.138533.902125-.1887153.2608712-.4914947.414919-.813467.413875z" fill="#a56a43"/><path id="Shape" d="m1 59c-.34070687-.0020855-.65690791-.1774983-.83902908-.4654521-.18212118-.2879538-.20509901-.6488205-.06097092-.9575479l7-15c.23867641-.4914115.82755185-.7003313 1.32256448-.4692161.49501263.2311151.71293513.8167187.48943552 1.3152161l-7 15c-.1652199.3539434-.52140006.5792899-.912.577z" fill="#a56a43"/><path id="Shape" d="m8 59c-.12714991.000121-.25312547-.0243271-.371-.072-.24644543-.0983216-.44371242-.2905559-.54836866-.5343787-.10465625-.2438228-.10812097-.519243-.00963134-.7656213l1.2-3c.1329028-.3318997.43277645-.5676849.78666145-.6185376s.7080178.0909529.929.372c.22098225.2810471.27524135.6586379.14233855.9905376l-1.2 3c-.15212746.3795963-.52005501.6283137-.929.628z" fill="#805333"/><path id="Shape" d="m10.8 52c-.1271499.000121-.2531255-.0243271-.371-.072-.2464454-.0983216-.44371242-.2905559-.54836866-.5343787-.10465625-.2438228-.10812097-.519243-.00963134-.7656213l1.6-4c.2054499-.5127964.7877036-.7619499 1.3005-.5565s.7619499.7877036.5565 1.3005l-1.6 4c-.1519919.3792577-.5194196.6279049-.928.628z" fill="#805333"/><path id="Shape" d="m15 59c-.3212672-.0002439-.6228543-.1548257-.8106349-.4155001s-.2388857-.5956946-.1373651-.9004999l5-15c.1128959-.3394023.398285-.5927937.748664-.6647242.350379-.0719304.712517.0485281.95.316.2374831.2674719.3142319.6413219.201336.9807242l-5 15c-.1364192.4095928-.5202889.6853983-.952.684z" fill="#a56a43"/><path id="Shape" d="m22.8 59c-.0671895.0004929-.1342386-.006212-.2-.02-.5414488-.1080709-.8928546-.634508-.785-1.176l.6-3c.1148093-.5345276.63761-.8777704 1.173722-.7706027s.8867823.6250156.787278 1.1626027l-.6 3c-.0930947.4657866-.5010063.8018121-.976.804z" fill="#805333"/><path id="Shape" d="m24.2 52c-.0671846.000387-.1342224-.0063167-.2-.02-.2599387-.0529946-.4881678-.2071045-.6344551-.428411-.1462874-.2213065-.1986434-.4916715-.1455449-.751589l.8-4c.0593016-.3606322.3106176-.6601885.6554537-.7812685s.728259-.0443954 1 .2.388511.6175689.3045463.9732685l-.8 4c-.0917246.4688464-.5022659.8073335-.98.808z" fill="#805333"/><path id="Shape" d="m52 59c-.408945.0003137-.7768725-.2484037-.929-.628l-1.2-3c-.2054499-.5130725.0439275-1.09555.557-1.301.5130725-.2054499 1.0955501.0439275 1.301.557l1.2 3c.0984896.2463783.0950249.5217985-.0096313.7656213-.1046563.2438228-.3019233.4360571-.5483687.5343787-.1178745.0476729-.2438501.072121-.371.072z" fill="#805333"/><path id="Shape" d="m49.2 52c-.408945.0003137-.7768725-.2484037-.929-.628l-1.6-4c-.2054499-.5127964.0437037-1.09505.5565-1.3004999.5127964-.20545 1.0950501.0437035 1.3005.5564999l1.6 4c.0984896.2463783.0950249.5217985-.0096313.7656213-.1046563.2438228-.3019233.4360571-.5483687.5343787-.1175627.0475466-.2431865.0719924-.37.072z" fill="#805333"/><path id="Shape" d="m37.2 59c-.4748929-.000378-.8840215-.3347017-.979-.8l-.6-3c-.095773-.5343897.2523302-1.0475805.784259-1.1561928s1.0533524.2270334 1.174741.7561928l.6 3c.0530985.2599175.0007425.5302825-.1455449.751589-.1462873.2213065-.3745164.3754164-.6344551.428411-.0657614.013788-.1328105.0204929-.2.02z" fill="#805333"/><path id="Shape" d="m35.8 52c-.4752686.000097-.8849463-.3343337-.98-.8l-.8-4c-.0839647-.3556996.0328053-.7288731.3045463-.9732685s.6551639-.32108 1-.2.5961521.4206363.6554537.7812685l.8 4c.1056223.5385096-.2424637 1.0615311-.78 1.172-.0657776.0136833-.1328154.020387-.2.02z" fill="#805333"/><path id="Shape" d="m32.913 20c1.5896364.1777179 3.0159888 1.0584088 3.887 2.4.2252197.3001389.2634565.7011023.0990242 1.0383993s-.5038552.5541513-.8790242.5616007h-12.04c-.3753492-.0070828-.7151101-.2237965-.8797886-.561166s-.1265278-.7385513.0987886-1.038834c.8710112-1.3415912 2.2973636-2.2222821 3.887-2.4z" fill="#2980ba"/><g fill="#9fc9d3"><path id="Shape" d="m14 40c-.3759317-.0003235-.7199207-.2114573-.8904015-.5465111s-.1386466-.7374124.0824015-1.0414889l.889-1.222c.2100722-.2892065.5584767-.4443722.913973-.4070476.3554962.0373246.6640759.2614689.8095.588s.1055992.7058411-.104473.9950476l-.888 1.222c-.1888165.2597419-.4908824.4130069-.812.412z"/><path id="Shape" d="m17.555 35.111c-.3759317-.0003235-.7199207-.2114573-.8904015-.5465111s-.1386466-.7374124.0824015-1.0414889l.889-1.222c.2063664-.2986662.5583857-.4620352.9197011-.4268251.3613155.0352101.6751708.2634685.8199922.5963579s.09786.7181188-.1226933 1.0064672l-.889 1.223c-.1884098.2585066-.489119.4112772-.809.411z"/><path id="Shape" d="m21 30.375c-.3759317-.0003235-.7199207-.2114573-.8904015-.5465111s-.1386466-.7374124.0824015-1.0414889l1-1.375c.3247434-.4467984.9502016-.5457434 1.397-.221.4467983.3247434.5457434.9502016.221 1.397l-1 1.375c-.1884027.2591698-.4895871.4123648-.81.412z"/><path id="Shape" d="m23.668 40c-.0733431.0003191-.1464829-.007733-.218-.024-.5388984-.1194815-.8790676-.65301-.76-1.192l.222-1c.0771694-.3488698.3345967-.6300695.6753115-.7376738s.7129545-.0252656.9765.216.3783579.604804.3011885.9536738l-.221 1c-.1012842.457839-.5070917.7838155-.976.784z"/><path id="Shape" d="m24.778 35c-.0733189-.0001262-.1464096-.0081729-.218-.024-.5389724-.1199278-.8787472-.6539874-.759-1.193l.222-1c.1198458-.5395822.6544178-.8798457 1.194-.7599999.5395822.1198457.8798458.6544177.76 1.1939999l-.223 1c-.1016879.4574415-.5073923.7829196-.976.783z"/><path id="Shape" d="m25.778 30c-.0733189-.0001262-.1464096-.0081729-.218-.024-.5389724-.1199278-.8787472-.6539874-.759-1.193l.222-1c.0775266-.3490485.3353793-.6302226.6764275-.7376068s.7134785-.0246643.977.217.3780991.6055583.3005725.9546068l-.223 1c-.1016879.4574415-.5073923.7829196-.976.783z"/><path id="Shape" d="m46 40c-.3204129.0003648-.6215973-.1528302-.81-.412l-.89-1.222c-.2100722-.2893851-.2498018-.6688602-.104223-.9954806s.4543491-.5507648.81-.588c.355651-.0372353.7041508.1180954.914223.4074806l.889 1.222c.2211537.304222.2529042.7068054.0821743 1.0419342-.17073.3351287-.5150626.5461181-.8911743.5460658z"/><path id="Shape" d="m42.445 35.111c-.3200605.0000445-.6208045-.1531156-.809-.412l-.889-1.222c-.2102508-.2888492-.2504314-.6679244-.105406-.9944316.1450254-.3265071.4532238-.5508421.8085-.5885s.7036552.1170823.913906.4059316l.889 1.222c.2210481.3040765.2528823.7064351.0824015 1.0414889s-.5144698.5461876-.8904015.5465111z"/><path id="Shape" d="m39 30.375c-.3204129.0003648-.6215973-.1528302-.81-.412l-1-1.375c-.2100722-.2890279-.2499924-.6681728-.104723-.9946146s.4536585-.5505861.809-.588c.3553416-.0374139.7036508.1175867.913723.4066146l1 1.375c.2210481.3040765.2528823.7064351.0824015 1.0414889s-.5144698.5461876-.8904015.5465111z"/><path id="Shape" d="m36.332 40c-.4689083-.0001845-.8747158-.326161-.976-.784l-.221-1c-.1192935-.5393061.2211939-1.0732065.7605-1.1925s1.0732065.2211939 1.1925.7605l.222 1c.1190676.53899-.2211016 1.0725185-.76 1.192-.0715171.016267-.1446569.0243191-.218.024z"/><path id="Shape" d="m35.222 35c-.4686077-.0000804-.8743121-.3255585-.976-.783l-.223-1c-.1198458-.5395822.2204178-1.0741542.76-1.194.5395822-.1198457 1.0741542.2204178 1.194.76l.222 1c.1197472.5390126-.2200276 1.0730722-.759 1.193-.0715904.0158271-.1446811.0238738-.218.024z"/><path id="Shape" d="m34.222 30c-.4686077-.0000804-.8743121-.3255585-.976-.783l-.223-1c-.0775266-.3490485.037051-.7129425.3005725-.9546068s.6359518-.3243842.977-.217.5989009.3885583.6764275.7376068l.222 1c.1197472.5390126-.2200276 1.0730722-.759 1.193-.0715904.0158271-.1446811.0238738-.218.024z"/><path id="Shape" d="m30 40c-.5522847 0-1-.4477153-1-1v-1c0-.5522847.4477153-1 1-1s1 .4477153 1 1v1c0 .5522847-.4477153 1-1 1z"/><path id="Shape" d="m30 35c-.5522847 0-1-.4477153-1-1v-1c0-.5522847.4477153-1 1-1s1 .4477153 1 1v1c0 .5522847-.4477153 1-1 1z"/><path id="Shape" d="m30 30c-.5522847 0-1-.4477153-1-1v-1c0-.5522847.4477153-1 1-1s1 .4477153 1 1v1c0 .5522847-.4477153 1-1 1z"/></g><path id="Shape" d="m58 12h-3.185c-7.0524934-.000031-13.9471691 2.0876831-19.815 6l-2-10h25c.5522847 0 1 .44771525 1 1v2c0 .5522847-.4477153 1-1 1z" fill="#2980ba"/><path id="Shape" d="m2 12h3.185c7.0524934-.000031 13.9471691 2.0876831 19.815 6l2-10h-25c-.55228475 0-1 .44771525-1 1v2c0 .5522847.44771525 1 1 1z" fill="#2980ba"/><rect id="Rectangle-path" fill="#3b97d3" height="14" rx="2" width="10" x="25" y="6"/><circle id="Oval" cx="30" cy="11" fill="#2980ba" r="1"/><path id="Shape" d="m59 44h-32c-.5522847 0-1-.4477153-1-1s.4477153-1 1-1h32c.5522847 0 1 .4477153 1 1s-.4477153 1-1 1z" fill="#cb8252"/><path id="Shape" d="m23 44h-22c-.55228475 0-1-.4477153-1-1s.44771525-1 1-1h22c.5522847 0 1 .4477153 1 1s-.4477153 1-1 1z" fill="#cb8252"/></g></g></svg>