<svg height="512" viewBox="0 0 59 58" width="512" xmlns="http://www.w3.org/2000/svg"><g id="Page-1" fill="none" fill-rule="evenodd"><g id="021---Well" fill-rule="nonzero"><path id="Shape" d="m53 37v19c-.0032948 1.1032019-.8967981 1.9967052-2 2h-44c-1.10320187-.0032948-1.9967052-.8967981-2-2v-19z" fill="#a56a43"/><g fill="#805333"><path id="Shape" d="m13 42c0 .5522847-.4477153 1-1 1h-7v-2h7c.5522847 0 1 .4477153 1 1z"/><path id="Shape" d="m17 47h-7c-.55228475 0-1-.4477153-1-1s.44771525-1 1-1h7c.5522847 0 1 .4477153 1 1s-.4477153 1-1 1z"/><path id="Shape" d="m24 43h-7c-.5522847 0-1-.4477153-1-1s.4477153-1 1-1h7c.5522847 0 1 .4477153 1 1s-.4477153 1-1 1z"/><path id="Shape" d="m29 47h-7c-.5522847 0-1-.4477153-1-1s.4477153-1 1-1h7c.5522847 0 1 .4477153 1 1s-.4477153 1-1 1z"/><path id="Shape" d="m36 43h-7c-.5522847 0-1-.4477153-1-1s.4477153-1 1-1h7c.5522847 0 1 .4477153 1 1s-.4477153 1-1 1z"/><path id="Shape" d="m41 47h-7c-.5522847 0-1-.4477153-1-1s.4477153-1 1-1h7c.5522847 0 1 .4477153 1 1s-.4477153 1-1 1z"/><path id="Shape" d="m48 43h-7c-.5522847 0-1-.4477153-1-1s.4477153-1 1-1h7c.5522847 0 1 .4477153 1 1s-.4477153 1-1 1z"/><path id="Shape" d="m53 45v2h-7c-.5522847 0-1-.4477153-1-1s.4477153-1 1-1z"/><path id="Shape" d="m13 50c0 .5522847-.4477153 1-1 1h-7v-2h7c.5522847 0 1 .4477153 1 1z"/><path id="Shape" d="m17 55h-7c-.55228475 0-1-.4477153-1-1s.44771525-1 1-1h7c.5522847 0 1 .4477153 1 1s-.4477153 1-1 1z"/><path id="Shape" d="m24 51h-7c-.5522847 0-1-.4477153-1-1s.4477153-1 1-1h7c.5522847 0 1 .4477153 1 1s-.4477153 1-1 1z"/><path id="Shape" d="m29 55h-7c-.5522847 0-1-.4477153-1-1s.4477153-1 1-1h7c.5522847 0 1 .4477153 1 1s-.4477153 1-1 1z"/><path id="Shape" d="m36 51h-7c-.5522847 0-1-.4477153-1-1s.4477153-1 1-1h7c.5522847 0 1 .4477153 1 1s-.4477153 1-1 1z"/><path id="Shape" d="m41 55h-7c-.5522847 0-1-.4477153-1-1s.4477153-1 1-1h7c.5522847 0 1 .4477153 1 1s-.4477153 1-1 1z"/><path id="Shape" d="m48 51h-7c-.5522847 0-1-.4477153-1-1s.4477153-1 1-1h7c.5522847 0 1 .4477153 1 1s-.4477153 1-1 1z"/><path id="Shape" d="m53 53v2h-7c-.5522847 0-1-.4477153-1-1s.4477153-1 1-1z"/></g><path id="Shape" d="m58 11h-.88c-1.0624595.0006935-2.0344605-.5979074-2.512-1.547-.1375666-.27643709-.4192277-.4517015-.728-.453h-3.88c-.5522847 0-1-.44771525-1-1s.4477153-1 1-1h3.88c1.0624595-.0006935 2.0344605.59790742 2.512 1.547.1375666.27643709.4192277.4517015.728.453h.88c.5522847 0 1 .44771525 1 1 0 .5522847-.4477153 1-1 1z" fill="#95a5a5"/><path id="Rectangle-path" d="m7 15h4v19h-4z" fill="#7f8c8d"/><path id="Rectangle-path" d="m47 15h4v19h-4z" fill="#7f8c8d"/><path id="Shape" d="m29 22c-.5522847 0-1-.4477153-1-1v-6c0-.5522847.4477153-1 1-1s1 .4477153 1 1v6c0 .5522847-.4477153 1-1 1z" fill="#547580"/><path id="Shape" d="m24.11 33-1.05-4.51c-.1596246-.5759837-.0487021-1.1932998.3014547-1.6776834.3501568-.4843835.9015577-.7832815 1.4985453-.8123166h8.28c.5969876.0290351 1.1483885.3279331 1.4985453.8123166.3501568.4843836.4610793 1.1016997.3014547 1.6776834l-1.05 4.51-4.89 1z" fill="#95a5a5"/><path id="Shape" d="m31 29c-.5522847 0-1-.4477153-1-1v-5c0-.5522847-.4477153-1-1-1s-1 .4477153-1 1v5c0 .5522847-.4477153 1-1 1s-1-.4477153-1-1v-5c0-1.6568542 1.3431458-3 3-3s3 1.3431458 3 3v5c0 .5522847-.4477153 1-1 1z" fill="#7f8c8d"/><path id="Shape" d="m51.08 16h-44.16c-.60527314-.0173673-1.16944083-.3103307-1.53181834-.795449-.36237751-.4851182-.4832466-1.1092203-.32818166-1.694551l2.88-12c.19375702-.87441606.96442945-1.50006948 1.86-1.51h38.4c.8955705.00993052 1.666243.63558394 1.86 1.51l2.88 12c.1550649.5853307.0341959 1.2094328-.3281817 1.694551-.3623775.4851183-.9265452.7780817-1.5318183.795449z" fill="#cc6f56"/><path id="Shape" d="m25 0-1 16h-2l1-16z" fill="#a65a47"/><path id="Shape" d="m20.01 0-2 16h-2.02l2.01-16z" fill="#a65a47"/><path id="Shape" d="m15.02 0-3 16h-2.04l3-16z" fill="#a65a47"/><path id="Shape" d="m36 16h-2.01l-.99-16h2z" fill="#a65a47"/><path id="Shape" d="m42.01 16h-2.01l-2.01-16h2.02z" fill="#a65a47"/><path id="Shape" d="m48 16h-2.01l-2.97-15.82c-.011603-.05934826-.0182924-.11955225-.02-.18h2.01l2.97 15.82c.011603.0593483.0182924.1195523.02.18z" fill="#a65a47"/><rect id="Rectangle-path" fill="#cb8252" height="5" rx="2.5" width="58" y="33"/><path id="Rectangle-path" d="m28 0h2v16h-2z" fill="#a65a47"/></g></g></svg>