<svg height="512" viewBox="0 0 59 59" width="512" xmlns="http://www.w3.org/2000/svg"><g id="Page-1" fill="none" fill-rule="evenodd"><g id="022---Smart-Farm-House" fill-rule="nonzero" transform="translate(0 -1)"><path id="Shape" d="m57 60c-.3346327.0003846-.6472789-.1666353-.833-.445l-8-12c-.306518-.4595009-.1825009-1.0804819.277-1.3869999.4595009-.3065181 1.0804819-.182501 1.387.2769999l8 12c.2046328.3067094.2238907.701139.05011 1.0263244s-.5124026.5283622-.88111.5286756z" fill="#a56a43"/><path id="Shape" d="m48 35.4v11.6h-38v-11.6l11.65-10.1c.2209427-.1909039.3485576-.4680104.35-.76v-6.66l6.34-5.63c.3775063-.3316459.9424937-.3316459 1.32 0l6.34 5.63v6.66c.0014424.2919896.1290573.5690961.35.76z" fill="#cc4b4c"/><path id="Shape" d="m35 30h-12c-.5522847 0-1-.4477153-1-1s.4477153-1 1-1h12c.5522847 0 1 .4477153 1 1s-.4477153 1-1 1z" fill="#802f34"/><rect id="Rectangle-path" fill="#35495e" height="5" rx="1" width="6" x="26" y="20"/><path id="Shape" d="m18 40h-4c-.5522847 0-1-.4477153-1-1s.4477153-1 1-1h4c.5522847 0 1 .4477153 1 1s-.4477153 1-1 1z" fill="#802f34"/><path id="Shape" d="m18 44h-4c-.5522847 0-1-.4477153-1-1s.4477153-1 1-1h4c.5522847 0 1 .4477153 1 1s-.4477153 1-1 1z" fill="#802f34"/><path id="Shape" d="m44 40h-4c-.5522847 0-1-.4477153-1-1s.4477153-1 1-1h4c.5522847 0 1 .4477153 1 1s-.4477153 1-1 1z" fill="#802f34"/><path id="Shape" d="m44 44h-4c-.5522847 0-1-.4477153-1-1s.4477153-1 1-1h4c.5522847 0 1 .4477153 1 1s-.4477153 1-1 1z" fill="#802f34"/><path id="Shape" d="m7 39c-.41715093-.0003022-.79029078-.2595203-.93615201-.6503393-.14586122-.390819-.03379714-.8311245.28115201-1.1046607l14.655-12.701v-6.662c0-.5522847.4477153-1 1-1s1 .4477153 1 1v6.658c-.0008375.5835754-.2565201 1.1376762-.7 1.517l-14.645 12.698c-.18173152.1578357-.41429598.2448255-.655.245z" fill="#e57e25"/><path id="Shape" d="m51 39c-.240704-.0001745-.4732685-.0871643-.655-.245l-14.645-12.7c-.4429505-.378869-.6985797-.9321237-.7-1.515v-6.658c0-.5522847.4477153-1 1-1s1 .4477153 1 1v6.658l14.655 12.7c.3189179.2727155.4336528.7155309.2872937 1.1088011-.1463591.3932701-.5226774.6533357-.9422937.6511989z" fill="#e57e25"/><path id="Shape" d="m38 20.662c-.2450559.0003187-.4816982-.0893563-.665-.252l-8.335-7.41-8.335 7.41c-.4142136.3672694-1.0477306.3292136-1.415-.085s-.3292136-1.0477306.085-1.415l8.336-7.41c.7578571-.673898 1.9001429-.673898 2.658 0l8.336 7.41c.313986.2752089.423939.7165288.2757746 1.1068805-.1481643.3903517-.5232568.6475647-.9407746.6451195z" fill="#f29c1f"/><path id="Shape" d="m40 34v13h-22v-13c0-.5522847.4477153-1 1-1h20c.5522847 0 1 .4477153 1 1z" fill="#2c2f38"/><path id="Shape" d="m26 47c.0007696.2656541-.1034655.5208504-.29.71-.3943361.3867403-1.0256639.3867403-1.42 0l-6.29-6.29v-2.42h4.6l-4.6-4.64v-.36c0-.5522847.4477153-1 1-1h.46l6.25 6.3c.2813286.2870058.363505.7145455.208621 1.0853946-.1548841.3708491-.5167313.6129438-.918621.6146054h-4.59l5.3 5.29c.1865345.1891496.2907696.4443459.29.71z" fill="#802f34"/><path id="Shape" d="m40 34.38-4.6 4.62h4.6v2.42l-6.29 6.29c-.3943361.3867403-1.0256639.3867403-1.42 0-.3867403-.3943361-.3867403-1.0256639 0-1.42l5.3-5.29h-4.59c-.4047905.0015444-.769487-.2442294-.92-.62-.1565967-.3723971-.0737446-.8024393.21-1.09l6.25-6.29h.46c.5522847 0 1 .4477153 1 1z" fill="#802f34"/><path id="Rectangle-path" d="m25 33h8v14h-8z" fill="#fb7b76"/><path id="Shape" d="m59 9.723c.1015905 3.1715329-1.4788943 6.1610331-4.157 7.863-1.1274033.6866868-1.823326 1.9040796-1.843 3.224v2.19h-6v-2.188c-.0219978-1.3245017-.7209561-2.5454143-1.852-3.235-3.411817-2.1825279-4.9454935-6.375195-3.7472784-10.24407131 1.198215-3.86887633 4.8331218-6.46080107 8.8812784-6.33292869 4.7336263.19497406 8.52574 3.98926267 8.718 8.723z" fill="#f0c419"/><path id="Shape" d="m45 11c-.5522847 0-1-.4477153-1-1 .0033074-3.31233757 2.6876624-5.99669262 6-6 .5522847.00000001 1 .44771526 1 1s-.4477153.99999999-1 1c-2.209139 0-4 1.790861-4 4 0 .5522847-.4477153 1-1 1z" fill="#f3d55b"/><path id="Shape" d="m47 26v1c.0000001 1.6568542 1.3431458 2.9999999 3 2.9999999s2.9999999-1.3431457 3-2.9999999v-1l-3-1z" fill="#7f8c8d"/><g fill="#a56a43"><path id="Shape" d="m29 60c-.5522847 0-1-.4477153-1-1v-12c0-.5522847.4477153-1 1-1s1 .4477153 1 1v12c0 .5522847-.4477153 1-1 1z"/><path id="Shape" d="m20 60c-.0822727.0003241-.1642562-.0097558-.244-.03-.5357071-.1342174-.8611901-.677286-.727-1.213l3-12c.1373346-.5320593.6782442-.8536288 1.2112708-.7200974.5330265.1335314.8584506.6721308.7287292 1.2060974l-3 12c-.1113683.4445697-.5106935.7565296-.969.757z"/><path id="Shape" d="m11 60c-.3344418.0000279-.6467576-.1671352-.8322261-.4454385-.1854686-.2783033-.21953399-.6308996-.0907739-.9395615l5-12c.2126296-.5097588.7982412-.7506296 1.308-.538s.7506296.7982412.538 1.308l-5 12c-.1553781.3724703-.5194204.6150337-.923.615z"/><path id="Shape" d="m1 60c-.36870742-.0003134-.70732929-.2034902-.88111002-.5286756s-.15452281-.719615.05011002-1.0263244l8-12c.30651805-.4595009.92749908-.583518 1.38699998-.277.45950092.3065181.58351802.9274991.27700002 1.387l-8 12c-.18572108.2783647-.49836725.4453846-.833.445z"/><path id="Shape" d="m38 60c-.4583065-.0004704-.8576317-.3124303-.969-.757l-3-12c-.1297214-.5339666.1957027-1.072566.7287292-1.2060974.5330266-.1335314 1.0739362.1880381 1.2112708.7200974l3 12c.1341901.535714-.1912929 1.0787826-.727 1.213-.0797438.0202442-.1617273.0303241-.244.03z"/><path id="Shape" d="m47 60c-.4035796.0000337-.7676219-.2425297-.923-.615l-5-12c-.2126296-.5097588.0282412-1.0953703.538-1.3079999s1.0953703.0282411 1.308.5379999l5 12c.1287601.3086619.0946947.6612582-.0907739.9395615-.1854685.2783033-.4977843.4454664-.8322261.4454385z"/></g><path id="Shape" d="m57 48h-56c-.55228475 0-1-.4477153-1-1s.44771525-1 1-1h56c.5522847 0 1 .4477153 1 1s-.4477153 1-1 1z" fill="#cb8252"/><rect id="Rectangle-path" fill="#95a5a5" height="4" rx="1" width="8" x="46" y="22"/></g></g></svg>