<svg height="512" viewBox="0 0 58 50" width="512" xmlns="http://www.w3.org/2000/svg"><g id="Page-1" fill="none" fill-rule="evenodd"><g id="023---Eggs" fill-rule="nonzero"><path id="Shape" d="m27 19c.0484406 3.5223746-.8940617 6.9874565-2.72 10l-10.28 2-10.3-2c-1.81038239-3.0182605-2.74524639-6.4807197-2.7-10-.0020104-2.4197308.34145494-4.8273555 1.02-7.15 0 0-.01 0 0-.01 1.98-6.74 6.6-11.84 11.98-11.84s10 5.1 11.98 11.84c.01.01 0 .01 0 .01.6785451 2.3226445 1.0220104 4.7302692 1.02 7.15z" fill="#f9c795"/><path id="Shape" d="m57 19c.0468449 3.5208247-.8918362 6.9845927-2.71 10l-10.29 2-10.29-2c-1.8181638-3.0154073-2.7568449-6.4791753-2.71-10-.0020104-2.4197308.3414549-4.8273555 1.02-7.15 0 0-.01 0 0-.01 1.98-6.74 6.6-11.84 11.98-11.84s10 5.1 11.98 11.84c.01.01 0 .01 0 .01.6785451 2.3226445 1.0220104 4.7302692 1.02 7.15z" fill="#f9c795"/><path id="Shape" d="m26 12.5c0 8.01-5.37 14.5-12 14.5s-12-6.49-12-14.5c0-.22 0-.43.02-.65 0 0-.01 0 0-.01 1.98-6.74 6.6-11.84 11.98-11.84s10 5.1 11.98 11.84c.01.01 0 .01 0 .01.02.22.02.43.02.65z" fill="#fdd7ad"/><path id="Shape" d="m56 12.5c0 8.01-5.37 14.5-12 14.5s-12-6.49-12-14.5c0-.22 0-.43.02-.65 0 0-.01 0 0-.01 1.98-6.74 6.6-11.84 11.98-11.84s10 5.1 11.98 11.84c.01.01 0 .01 0 .01.02.22.02.43.02.65z" fill="#fdd7ad"/><path id="Shape" d="m25 35-3.208 12.031c-.4670753 1.7508966-2.0528746 2.9690695-3.865 2.969h-7.854c-1.81212539.0000695-3.39792468-1.2181034-3.865-2.969l-3.208-12.031 11-2z" fill="#f29c1f"/><path id="Shape" d="m55 35-3.208 12.031c-.4670753 1.7508966-2.0528746 2.9690695-3.865 2.969h-7.854c-1.8121254.0000695-3.3979247-1.2181034-3.865-2.969l-3.208-12.031 11-2z" fill="#f29c1f"/><path id="Shape" d="m8.866 43c-.452867-.0000656-.84916032-.3044648-.966-.742l-2.431-9.116c-.10681678-.3497389-.01421152-.7298925.2414859-.9913231.25569742-.2614307.63370448-.3624413.98572562-.2634047s.62191065.3823247.70378848.7387278l2.431 9.116c.14240652.5334961-.17454382 1.0814441-.708 1.224-.08385696.0222934-.17023073.0337203-.257.034z" fill="#e57e25"/><path id="Shape" d="m38.866 43c-.452867-.0000656-.8491603-.3044648-.966-.742l-2.051-7.694c-.0990438-.3474118-.0030122-.7212339.2512123-.9778941.2542246-.2566603.6271141-.3562519.9754544-.2605251.3483404.0957268.6179699.3718878.7053333.7224192l2.052 7.694c.1424065.5334961-.1745438 1.0814441-.708 1.224-.0845041.0224639-.1715611.0338922-.259.034z" fill="#e57e25"/><g fill="#ecf0f1"><path id="Shape" d="m5.1 18c-.032 0-.064 0-.1 0-.26575423-.025234-.51038752-.1556769-.67943007-.3622845-.16904255-.2066075-.24846021-.4722269-.22056993-.7377155.647-6.683 4.615-13.9 9.9-13.9.5522847 0 1 .44771525 1 1s-.4477153 1-1 1c-3.653 0-7.275 5.54-7.908 12.1-.0512396.5098505-.47958345.898469-.992.9z"/><circle id="Oval" cx="5.24" cy="21" r="1"/><path id="Shape" d="m34.992 18c-.033 0-.065 0-.1 0-.2642212-.0253028-.507543-.1546131-.6763577-.3594415-.1688146-.2048284-.2492706-.4683687-.2236423-.7325585.649-6.691 4.618-13.908 9.908-13.908.5522847 0 1 .44771525 1 1s-.4477153 1-1 1c-3.654 0-7.275 5.54-7.909 12.1-.0515058.5125183-.4839043.9020665-.999.9z"/><circle id="Oval" cx="35.135" cy="21" r="1"/></g><rect id="Rectangle-path" fill="#f0c419" height="6" rx="1" width="58" y="29"/></g></g></svg>