<svg height="512" viewBox="0 0 60 60" width="512" xmlns="http://www.w3.org/2000/svg"><g id="Page-1" fill="none" fill-rule="evenodd"><g id="024---Smart-Tractor" fill-rule="nonzero" transform="translate(0 -1)"><path id="Shape" d="m20 16c1.6568542 0 3 1.3431458 3 3v2h-6v-2c0-1.6568542 1.3431458-3 3-3z" fill="#95a5a5"/><path id="Shape" d="m58 27v11.89l-16.94 3.11h-11.06c-.5522847 0-1-.4477153-1-1 0 0-7.16-17-16-17v-1c0-1.6568542 1.3431458-3 3-3h35c3.8659932 0 7 3.1340068 7 7z" fill="#e64c3c"/><g fill="#c03a2b"><path id="Shape" d="m30 31h-6c-.5522847 0-1-.4477153-1-1s.4477153-1 1-1h6c.5522847 0 1 .4477153 1 1s-.4477153 1-1 1z"/><path id="Shape" d="m32 35h-6c-.5522847 0-1-.4477153-1-1s.4477153-1 1-1h6c.5522847 0 1 .4477153 1 1s-.4477153 1-1 1z"/><path id="Shape" d="m33 39h-5c-.5522847 0-1-.4477153-1-1s.4477153-1 1-1h5c.5522847 0 1 .4477153 1 1s-.4477153 1-1 1z"/></g><path id="Shape" d="m30 61c-.5522847 0-1-.4477153-1-1v-8c0-.5522847.4477153-1 1-1s1 .4477153 1 1v8c0 .5522847-.4477153 1-1 1z" fill="#a56a43"/><path id="Shape" d="m9 61c-.36334679-.0003624-.69790684-.1977813-.87388722-.515668-.17598039-.3178866-.16568685-.7062147.02688722-1.014332l5-8c.1893508-.3036758.5263272-.4832663.8839935-.4711216s.6816845.2141795.85.53c.1683155.3158204.1553573.6974458-.0339935 1.0011216l-5 8c-.18367862.2938946-.50643274.471731-.853.47z" fill="#a56a43"/><path id="Shape" d="m51 61c-.345146.0003459-.6660727-.1773168-.849-.47l-5-8c-.1893508-.3036758-.202309-.6853011-.0339935-1.0011216.1683156-.3158204.4923337-.5178553.85-.53s.6946427.1674458.8839935.4711216l5 8c.1929559.3087248.2028841.6979225.0259199 1.0160839-.1769643.3181613-.512857.5150102-.8769199.5139161z" fill="#a56a43"/><path id="Shape" d="m29 40v1h-4.04l-17.39-11.71-2.05-3.43c2.30183883-1.2272446 4.8714462-1.8662112 7.48-1.86 8.836556 0 16 7.163444 16 16z" fill="#2c3e50"/><path id="Shape" d="m54 28v-2c0-.5522847-.4477153-1-1-1s-1 .4477153-1 1v2h-3v-8h-2v4h-19c-.5522847 0-1 .4477153-1 1s.4477153 1 1 1h19v8.22c0 .5522847.4477153 1 1 1s1-.4477153 1-1v-4.22h9v-2z" fill="#c03a2b"/><path id="Shape" d="m11 6c-.424813.00019929-.8033866-.26802335-.9440546-.6688708-.14066795-.40084745-.0127245-.84682031.3190546-1.1121292 2.7526317-2.12938262 6.1451684-3.26398789 9.625-3.219 3.4804283-.04488842 6.8735656 1.08968197 9.627 3.219.4313344.34517797.501178.97466561.156 1.406s-.9746656.50117797-1.406.156c-2.3984727-1.84580698-5.3508381-2.8259345-8.377-2.781-3.0262712-.04564476-5.9788644.93455837-8.377 2.781-.1768763.14144068-.3965258.21865293-.623.219z" fill="#3b97d3"/><path id="Shape" d="m26 10c-.2268173-.00012049-.4468557-.0773455-.624-.219-1.5395253-1.1836029-3.4343166-1.81132301-5.376-1.781-1.9420246-.03054973-3.8372049.59718248-5.377 1.781-.4315746.3407114-1.0572621.2690699-1.4006534-.16037546-.3433912-.42944531-.275646-1.05556663.1516534-1.40162454 1.894674-1.46676136 4.2301107-2.24888241 6.626-2.219 2.3958893-.02988241 4.731326.75223864 6.626 2.219.3319233.26542335.4598195.71165099.3188902 1.11260176-.1409294.40095078-.5198935.66902314-.9448902.66839824z" fill="#3b97d3"/><path id="Shape" d="m17 14c-.424813.0001993-.8033866-.2680233-.9440546-.6688708-.1406679-.4008474-.0127245-.8468203.3190546-1.1121292 2.1434528-1.6251362 5.1065472-1.6251362 7.25 0 .4272994.3460579.4950446.9721792.1516534 1.4016245-.3433913.4294454-.9690788.5010869-1.4006534.1603755-1.4235421-1.0071422-3.3274579-1.0071422-4.751 0-.1774122.1418687-.3978397.2191065-.625.219z" fill="#3b97d3"/><path id="Shape" d="m29 42c-.5522847 0-1-.4477153-1-1v-1c-.0011037-5.5563859-3.0736085-10.6569745-7.9849073-13.2555453-4.9112987-2.5985708-10.85670992-2.2693663-15.4510927.8555453-.4561872.3114886-1.0785114.1941872-1.39-.262s-.1941872-1.0785114.262-1.39c5.2068604-3.5432279 11.9459519-3.9174497 17.5131007-.9725026s9.0499609 8.7264189 9.0508993 15.0245026v1c0 .5522847-.4477153 1-1 1z" fill="#e64c3c"/><circle id="Oval" cx="13" cy="40" fill="#35495e" r="12"/><circle id="Oval" cx="13" cy="40" fill="#547580" r="8"/><circle id="Oval" cx="13" cy="40" fill="#95a5a5" r="2"/><circle id="Oval" cx="50" cy="43" fill="#35495e" r="9"/><circle id="Oval" cx="50" cy="43" fill="#547580" r="5"/><circle id="Oval" cx="50" cy="43" fill="#95a5a5" r="1"/><path id="Shape" d="m59 53h-32c-.5522847 0-1-.4477153-1-1s.4477153-1 1-1h32c.5522847 0 1 .4477153 1 1s-.4477153 1-1 1z" fill="#cb8252"/><path id="Shape" d="m23 53h-22c-.55228475 0-1-.4477153-1-1s.44771525-1 1-1h22c.5522847 0 1 .4477153 1 1s-.4477153 1-1 1z" fill="#cb8252"/></g></g></svg>