<svg height="512" viewBox="0 0 59 59" width="512" xmlns="http://www.w3.org/2000/svg"><g id="Page-1" fill="none" fill-rule="evenodd"><g id="025---Chainsaw" fill-rule="nonzero"><path id="Shape" d="m6.869 35.525-1.676-2.889c-.58815759-1.0120007-.41882567-2.2934981.412-3.118l9.553-9.5c1.0093665-1.0030643 2.6407077-.9981398 3.644.011l1.816 1.826-5.618 9.145z" fill="#c03a2b"/><g fill="#7f8c8d"><path id="Shape" d="m32.463 21.984c-.2670363-.0007042-.5225584-.1088236-.709-.3l-1.817-1.826c-.3780144-.3934268-.370901-1.017241.0159864-1.4019456.3868873-.3847047 1.0107318-.3882886 1.4020136-.0080544l1.817 1.826c.2847376.2864369.3692174.7160365.2141418 1.0889616s-.5192587.6159547-.9231418.6160384z"/><path id="Shape" d="m36.117 18.353c-.2668986-.0013761-.522172-.1093902-.709-.3l-1.816-1.827c-.2591473-.2518304-.362276-.6238795-.269759-.973188.092517-.3493086.3662863-.6215334.7161127-.7120726.3498264-.0905393.7212861.0146927.9716463.2752606l1.816 1.827c.2847376.2864369.3692174.7160365.2141418 1.0889616s-.5192587.6159547-.9231418.6160384z"/><path id="Shape" d="m39.771 14.721c-.2661757-.0000552-.5213461-.1062262-.709-.295l-1.816-1.826c-.2591473-.2518304-.362276-.6238795-.269759-.973188.092517-.3493086.3662863-.6215334.7161127-.7120726.3498264-.0905393.7212861.0146927.9716463.2752606l1.816 1.826c.2847376.2864369.3692174.7160365.2141418 1.0889616s-.5192587.6159547-.9231418.6160384z"/><path id="Shape" d="m43.426 11.09c-.2663089.0006136-.5217266-.1056604-.709-.295l-1.817-1.827c-.2591473-.25183039-.362276-.62387947-.269759-.97318804.092517-.34930856.3662863-.6215334.7161127-.71207261.3498264-.0905392.7212861.01469274.9716463.27526065l1.817 1.827c.2847376.28643686.3692174.7160365.2141418 1.0889616s-.5192587.6159547-.9231418.6160384z"/><path id="Shape" d="m47.08 7.458c-.2663089.00061359-.5217266-.10566036-.709-.295l-1.817-1.826c-.2591473-.25183039-.362276-.62387947-.269759-.97318804.092517-.34930856.3662863-.6215334.7161127-.71207261.3498264-.0905392.7212861.01469274.9716463.27526065l1.817 1.826c.2847376.28643686.3692174.71603649.2141418 1.0889616s-.5192587.61595468-.9231418.6160384z"/><path id="Shape" d="m50.734 3.827c-.2661757-.00005518-.5213461-.10622624-.709-.295l-1.816-1.827c-.3479627-.39753018-.3266683-.99714761.0486175-1.36899284.3752858-.37184524.9750739-.38761634 1.3693825-.03600716l1.816 1.827c.2847376.28643686.3692174.71603649.2141418 1.0889616s-.5192587.61595468-.9231418.6160384z"/><path id="Shape" d="m39.729 29.291c-.2668986-.0013761-.522172-.1093902-.709-.3l-1.82-1.822c-.3780144-.3934268-.370901-1.017241.0159864-1.4019456.3868873-.3847047 1.0107318-.3882886 1.4020136-.0080544l1.816 1.826c.2853222.2862161.3703185.7160368.2154088 1.089308s-.5192697.6166064-.9234088.616692z"/><path id="Shape" d="m43.383 25.659c-.2663089.0006136-.5217266-.1056604-.709-.295l-1.817-1.827c-.2591473-.2518304-.362276-.6238795-.269759-.973188.092517-.3493086.3662863-.6215334.7161127-.7120726.3498264-.0905393.7212861.0146927.9716463.2752606l1.817 1.827c.2812046.2868755.3634474.7141762.2088184 1.0849369s-.5161103.6130023-.9178184.6150631z"/><path id="Shape" d="m47.037 22.027c-.2670363-.0007042-.5225584-.1088236-.709-.3l-1.816-1.826c-.2857065-.2455644-.4091555-.6308603-.319355-.9967373.0898004-.365877.3776083-.6502345.7445418-.7356157.3669334-.0853812.7507124.0427056.9928132.331353l1.816 1.826c.2847376.2864369.3692174.7160365.2141418 1.0889616s-.5192587.6159547-.9231418.6160384z"/><path id="Shape" d="m50.691 18.4c-.2668986-.0013761-.522172-.1093902-.709-.3l-1.816-1.827c-.2591473-.2518304-.362276-.6238795-.269759-.973188.092517-.3493086.3662863-.6215334.7161127-.7120726.3498264-.0905393.7212861.0146927.9716463.2752606l1.816 1.827c.2854509.2863449.3703835.7164081.2152173 1.08977-.1551662.3733618-.5198962.6165488-.9242173.61623z"/><path id="Shape" d="m54.346 14.764c-.2663089.0006136-.5217266-.1056604-.709-.295l-1.817-1.826c-.3896369-.3915699-.3880699-1.0248631.0035-1.4145s1.0248631-.3880699 1.4145.0035l1.817 1.827c.2847376.2864369.3692174.7160365.2141418 1.0889616s-.5192587.6159547-.9231418.6160384z"/><path id="Shape" d="m58 11.132c-.2663089.0006136-.5217266-.1056604-.709-.295l-1.816-1.826c-.3896369-.39156989-.3880699-1.02486311.0035-1.4145s1.0248631-.38806989 1.4145.0035l1.816 1.826c.2854509.28634492.3703835.7164081.2152173 1.08977-.1551662.3733618-.5198962.6165488-.9242173.61623z"/></g><path id="Shape" d="m57.331 5.575c-.0048614 1.02370789-.4155567 2.00369449-1.142 2.725l-21.925 21.79-5.264-1.09-.2-4.386 21.93-21.788c1.109728-1.1017321 2.7732315-1.42780259 4.2167695-.82654715 1.443538.60125543 2.3837156 2.01179854 2.3832305 3.57554715z" fill="#95a5a5"/><path id="Shape" d="m31.59 28.41c-.4043959-.0000863-.7689341-.2437275-.923678-.6173454-.1547439-.373618-.0692299-.8036603.216678-1.0896546l19.41-19.41c.2510745-.25995658.6228779-.3642126.9725073-.27269716.3496295.09151544.6226744.3645604.7141899.71418984.0915154.34962943-.0127406.72143285-.2726972.97250732l-19.407 19.41c-.1877844.1889486-.4436127.2945228-.71.293z" fill="#7f8c8d"/><path id="Shape" d="m28.809 24.616-2.725-2.74c-1.5054218-1.5127445-3.9517479-1.5199054-5.466-.016l-13.749 13.665c-1.17359134 1.1662704-2.08368326 2.5704511-2.669 4.118l-4.033 10.657c-.35779842.9444608-.13019771 2.0108992.582 2.727l5.188 5.213c1.00329232 1.0091398 2.63463352 1.0140643 3.644.011l24.666-24.513c.484551-.4816329.7579278-1.1360267.7599907-1.8192218.0020629-.6831952-.2673571-1.3392279-.7489907-1.8237782z" fill="#e64c3c"/><path id="Shape" d="m9.791 40.872-3.869 8.9c-.2106554.4837919-.10440206 1.0471725.268 1.421l.677.681c.50189941.5041557 1.31734112.5063935 1.822.005l6.4-6.355c.2416369-.2413961.3774074-.568944.3774074-.9105s-.1357705-.6691039-.3774074-.9105l-3.2-3.221c-.3002605-.3045191-.7320879-.4401472-1.1525394-.3619889s-.77469174.3599096-.9454606.7519889z" fill="#c03a2b"/><rect id="Rectangle-path" fill="#f0c419" height="7.728" rx="1" transform="matrix(.709 -.705 .705 .709 -17.506 24.948)" width="12.88" x="15.055" y="29.836"/><path id="Shape" d="m32.36 44.3-.73.71c-.5579931.5627455-1.3175112.8795113-2.11.88-.7984109-.000242-1.5642386-.3166403-2.13-.88l-2.23-2.24 1.43-1.41 2.22 2.23c.3930916.3802469 1.0169084.3802469 1.41 0l.73-.71c.1879965-.1890965.2926865-.4454436.2908087-.7120832-.0018777-.2666396-.1101676-.5214867-.3008087-.7079168l-2.22-2.23-11.61-11.66-1.11-1.12-3.64-3.65-2.16-2.17c-.39003745-.3877236-1.01996255-.3877236-1.41 0l-.71.71c-.19183364.1864103-.30007247.4425137-.30007247.71s.10823883.5235897.30007247.71l2.15 2.15v.01l-1.42 1.41-2.15-2.16c-1.16010031-1.1791668-1.16010031-3.0708332 0-4.25l.71-.71c1.17515137-1.1698661 3.0748486-1.1698661 4.25 0l2.17 2.18 3.63 3.65.77.77 11.95 12.01 2.22 2.23c1.1601003 1.1791668 1.1601003 3.0708332 0 4.25z" fill="#95a5a5"/></g></g></svg>