<svg height="512" viewBox="0 0 44 59" width="512" xmlns="http://www.w3.org/2000/svg"><g id="Page-1" fill="none" fill-rule="evenodd"><g id="026---Goose" fill-rule="nonzero" transform="translate(-1)"><path id="Shape" d="m26 59h-2c-1.6568542 0-3-1.3431458-3-3v-6c0-.5522847.4477153-1 1-1s1 .4477153 1 1v6c0 .5522847.4477153 1 1 1h2c.5522847 0 1 .4477153 1 1s-.4477153 1-1 1z" fill="#f0c419"/><path id="Shape" d="m41 34c0 7.95-6.42 14.62-15.09 16.49-1.0539977.9980116-2.4587914 1.5405279-3.91 1.51-1.2602937.0152767-2.4904638-.3854073-3.5-1.14-9.44-.99-16.87-7.57-17.5-15.73-.0193621-.2260933.08225728-.4455739.26718762-.5770799s.42560766-.1554364.63281238-.0629201c1.86515027.7916201 3.84878458 1.2680979 5.87 1.41.69.06 1.43.1 2.23.1.0834583.0016622.1669411-.0016771.25-.01 8.5-.13 15.17-7.4 17.68-10.55.6960532-.8792437 1.0732719-1.9685951 1.07-3.09v-17.35c0-2.76142375 2.2385763-5 5-5 3 0 6 3 6 3-.0387144 1.85396461-.7494383 3.63077432-2 5h-2c-1.1032019.0032948-1.9967052.89679813-2 2v6.41c.0338177 2.7016575 1.0669135 5.2950842 2.9 7.28 2.6076081 2.8031957 4.0704069 6.4815995 4.1 10.31z" fill="#ecf0f1"/><path id="Shape" d="m44.02 8h-6.02c-.5329662-1.92675088.2852652-3.97232953 2-5l4.59 3.25c.3439443.24415845.4892173.68356846.3585873 1.08462556-.1306301.40105711-.5068249.67061759-.9285873.66537444z" fill="#f0c419"/><circle id="Oval" cx="34" cy="4" fill="#3f5c6c" r="1"/><path id="Shape" d="m34.98 32.22c-.03.09-2.3 9.78-12.98 9.78-10.45 0-13.72-5.26-13.86-5.49l-.37-.61c.69.06 1.43.1 2.23.1.0834583.0016622.1669411-.0016771.25-.01 1.03 1.18 4.29 4.01 11.75 4.01 5.1537395.2067111 9.7491986-3.2211177 11.02-8.22.1287437-.5352674.662445-.8688307 1.2-.75.5379393.1195113.8778162.6516869.76 1.19z" fill="#d1d4d1"/><path id="Shape" d="m12.466 46c-.1575032.0000696-.3127683-.03729-.453-.109-2.0539191-1.0288954-3.86432297-2.4847192-5.31-4.27-.22186193-.2800962-.27744125-.6572777-.14580178-.9894639.13163948-.3321862.43049859-.5689101.784-.621.35350141-.05209.70793985.0883677.92980178.3684639 1.26689843 1.5603345 2.8522049 2.8323298 4.65 3.731.4109735.2105475.6243425.6751128.516264 1.1240543s-.5094965.7655026-.971264.7659457z" fill="#d1d4d1"/><path id="Shape" d="m25 35.064c-.4234643-.0002119-.8008842-.2671257-.9421859-.6663197s-.0158459-.8441093.3131859-1.1106803c2.1805563-1.7758695 4.1621362-3.7829316 5.91-5.986.343245-.4327151.9722849-.505245 1.405-.162s.505245.9722849.162 1.405c-1.8395881 2.3189237-3.9254734 4.4312975-6.221 6.3-.1774136.1433771-.3988961.2210903-.627.22z" fill="#fff"/><path id="Shape" d="m31 45.143c-.4424762.0003529-.8325798-.2901238-.9590678-.7141357-.1264881-.424012.0407149-.8807402.4110678-1.1228643 2.737532-1.6614924 4.6784978-4.3681536 5.374-7.494.0671659-.3510134.3164933-.6395306.6540628-.75687.3375695-.1173393.7120964-.0456741.9825.188.2704036.2336742.3956031.5938566.3284372.94487-.7959704 3.6595061-3.0517481 6.8352944-6.245 8.792-.1623413.1061337-.3520438.1627665-.546.163z" fill="#d1d4d1"/></g></g></svg>