<svg height="512" viewBox="0 0 36 58" width="512" xmlns="http://www.w3.org/2000/svg"><g id="Page-1" fill="none" fill-rule="evenodd"><g id="027---Sickle" fill-rule="nonzero"><path id="Shape" d="m23 55v2c0 .5522847-.4477153 1-1 1h-6c-.5522847 0-1-.4477153-1-1v-2c0-.5522847.4477153-1 1-1v-15h6v15c.5522847 0 1 .4477153 1 1z" fill="#e64c3c"/><path id="Shape" d="m18 53c0 .5522847-.4477153 1-1 1h-1v-2h1c.5522847 0 1 .4477153 1 1z" fill="#c03a2b"/><path id="Shape" d="m22 52v2h-1c-.5522847 0-1-.4477153-1-1s.4477153-1 1-1z" fill="#c03a2b"/><rect id="Rectangle-path" fill="#7f8c8d" height="4" rx="2" width="10" x="14" y="36"/><path id="Shape" d="m33.1 17.95c-.1408264.0199775-.283496-.0209686-.3922942-.1125881s-.1734263-.2252399-.1777058-.3674119c-.1633067-7.3977075-6.1415454-13.3450395-13.54-13.47-.5345905.00027727-1.0687507.03032378-1.6.09-7.0401331.80929856-12.36529481 6.7514945-12.40098175 13.8379015s5.22935675 13.081935 12.26098175 13.9620985c1.0075618.1506874 1.7497067 1.0212886 1.739 2.04v2.07c-9.56665911.0329681-17.48777447-7.4232446-18.03279572-16.9744229-.54502126-9.55117817 6.47648626-17.86006554 15.98479572-18.9155771.6802982-.07625902 1.3644475-.11298739 2.049-.11 8.1101929-.01887904 15.1365392 5.61851895 16.876 13.54.72 3.44-1.648 4.23-2.766 4.41z" fill="#95a5a5"/></g></g></svg>