<svg height="512" viewBox="0 0 60 60" width="512" xmlns="http://www.w3.org/2000/svg"><g id="Page-1" fill="none" fill-rule="evenodd"><g id="028---Wireless-Farm-House" fill-rule="nonzero" transform="translate(0 -1)"><path id="Shape" d="m38 34v26h-34v-26l5-9 12-7 12 7z" fill="#cc4b4c"/><path id="Shape" d="m12 46h18c.5522847 0 1 .4477153 1 1v13h-20v-13c0-.5522847.4477153-1 1-1z" fill="#802f34"/><path id="Rectangle-path" d="m15 46h12v14h-12z" fill="#fb7b76"/><path id="Shape" d="m28 43h-14c-.5522847 0-1-.4477153-1-1s.4477153-1 1-1h14c.5522847 0 1 .4477153 1 1s-.4477153 1-1 1z" fill="#802f34"/><path id="Shape" d="m27.564 29.7-6-4.1c-.3401201-.2323003-.7878799-.2323003-1.128 0l-6 4.1c-.2728862.1863799-.4360744.4955392-.436.826v6.474c0 .5522847.4477153 1 1 1h12c.5522847 0 1-.4477153 1-1v-6.472c.0007364-.3311681-.1625285-.6412215-.436-.828z" fill="#35495e"/><path id="Shape" d="m28 32h-6v-6.57c0-.5522847-.4477153-1-1-1s-1 .4477153-1 1v6.57h-6c-.5522847 0-1 .4477153-1 1s.4477153 1 1 1h6v4c0 .5522847.4477153 1 1 1s1-.4477153 1-1v-4h6c.5522847 0 1-.4477153 1-1s-.4477153-1-1-1z" fill="#cc4b4c"/><path id="Shape" d="m41 61h-40c-.55228475 0-1-.4477153-1-1s.44771525-1 1-1h40c.5522847 0 1 .4477153 1 1s-.4477153 1-1 1z" fill="#4fba6f"/><g fill="#802f34"><path id="Shape" d="m19 55c-.5522847 0-1-.4477153-1-1v-1c0-.5522847.4477153-1 1-1s1 .4477153 1 1v1c0 .5522847-.4477153 1-1 1z"/><path id="Shape" d="m11 42c0 .5522847-.4477153 1-1 1h-6v-2h6c.5522847 0 1 .4477153 1 1z"/><path id="Shape" d="m38 36v2h-6c-.5522847 0-1-.4477153-1-1s.4477153-1 1-1z"/><path id="Shape" d="m11 37c0 .5522847-.4477153 1-1 1h-6v-2h6c.5522847 0 1 .4477153 1 1z"/><path id="Shape" d="m36 33h-4c-.5522847 0-1-.4477153-1-1s.4477153-1 1-1h4c.5522847 0 1 .4477153 1 1s-.4477153 1-1 1z"/><path id="Shape" d="m10 33h-4c-.55228475 0-1-.4477153-1-1s.44771525-1 1-1h4c.5522847 0 1 .4477153 1 1s-.4477153 1-1 1z"/><path id="Shape" d="m38 41v2h-6c-.5522847 0-1-.4477153-1-1s.4477153-1 1-1z"/><path id="Shape" d="m38 46v2h-3c-.5522847 0-1-.4477153-1-1s.4477153-1 1-1z"/><path id="Shape" d="m38 50v2h-3c-.5522847 0-1-.4477153-1-1s.4477153-1 1-1z"/><path id="Shape" d="m38 54v2h-3c-.5522847 0-1-.4477153-1-1s.4477153-1 1-1z"/><path id="Shape" d="m8 47c0 .5522847-.44771525 1-1 1h-3v-2h3c.55228475 0 1 .4477153 1 1z"/><path id="Shape" d="m8 51c0 .5522847-.44771525 1-1 1h-3v-2h3c.55228475 0 1 .4477153 1 1z"/><path id="Shape" d="m8 55c0 .5522847-.44771525 1-1 1h-3v-2h3c.55228475 0 1 .4477153 1 1z"/></g><path id="Shape" d="m59 19.81c-.5235604.0015542-.959688-.4009915-1-.923-.3702397-4.0896944-2.1896122-7.9125044-5.13-10.779-2.8810012-2.93262269-6.71218-4.74345468-10.807-5.108-.5522847-.04224978-.9657498-.52421525-.9235-1.0765s.5242153-.96574978 1.0765-.9235c4.571757.40096939 8.8510185 2.41793035 12.07 5.689 3.2800041 3.20479451 5.3065613 7.4763826 5.714 12.044.0425083.5506221-.3693805 1.0314576-.92 1.074-.029.002-.056.003-.08.003z" fill="#3b97d3"/><path id="Shape" d="m52.872 20.905c-.5460962.0000699-.9912625-.4379737-1-.984-.1113779-6.0035401-4.9514599-10.84362211-10.955-10.955-.2652274-.00420968-.5179155-.1136256-.7024586-.30417004-.184543-.19054443-.285819-.44660361-.2815414-.71182996.0203363-.54683983.4677925-.98062994 1.015-.984 7.0836436.12800051 12.7954514 5.8393664 12.924 12.923.0089106.5519287-.4310779 1.0066879-.983 1.016z" fill="#3b97d3"/><path id="Shape" d="m46.85 20.905c-.5476322.0000394-.9934284-.4404072-1-.988-.032923-2.7082935-2.2206999-4.8956265-4.929-4.928-.5519067-.0065895-.9941107-.4590878-.988-1.011-.0023013-.2668448.1042048-.5231118.2949637-.7097197.1907588-.1866078.4493067-.2874509.7160363-.2792803 3.7926155.0457981 6.8569054 3.1074257 6.906 6.9.0029335.2652212-.0996202.5207433-.2850971.7103461s-.4386813.2977525-.7039029.3006539z" fill="#3b97d3"/><circle id="Oval" cx="40" cy="21" fill="#3b97d3" r="2"/><path id="Shape" d="m37.282 35.742-5.218-8c-.154366-.2409487-.3590513-.445634-.6-.6l-9.389-5.98c-.6552514-.417114-1.4927486-.417114-2.148 0l-9.389 5.98c-.2409487.154366-.445634.3590513-.6.6l-5.218 8c-.33268368.5106768-.87702618.8450541-1.48293782.9109351s-1.20939812-.1436923-1.64406218-.5709351c-.67694131-.6657584-.78169735-1.7200501-.249-2.506l6.674-9.843c.16134379-.2391106.37293503-.4401222.62-.589l11.329-6.855c.6363386-.3848448 1.4336614-.3848448 2.07 0l11.329 6.855c.247065.1488778.4586562.3498894.62.589l6.674 9.843c.5326974.7859499.4279413 1.8402416-.249 2.506-.4346963.4279944-1.0386796.6380484-1.6451427.5721496-.606463-.0658988-1.1512334-.4007775-1.4838573-.9121496z" fill="#f0c419"/></g></g></svg>