<svg height="512" viewBox="0 0 58 58" width="512" xmlns="http://www.w3.org/2000/svg"><g id="Page-1" fill="none" fill-rule="evenodd"><g id="029---Spade" fill-rule="nonzero" transform="translate(-1)"><path id="Shape" d="m58.12 8.89-8.01-8.01c-1.1751514-1.16986609-3.0748486-1.16986609-4.25 0l-2.7 2.71c-.2006301.19451004-.3278183.45241951-.36.73l-.76 6.86c-.041881.3722507.0867638.7434829.35 1.01l4.42 4.42c.2665171.2632362.6377493.391881 1.01.35l6.86-.76c.2775805-.0321817.53549-.1593699.73-.36l2.71-2.7c1.1698661-1.1751514 1.1698661-3.0748486 0-4.25zm-4.25 2.83-.35.36c-.162383.1604206-.3734118.2624179-.6.29l-3.74.41c-.3019748.0389789-.6049308-.0644695-.82-.28l-1.86-1.86c-.2138848-.2119755-.3173167-.5111894-.28-.81l.41-3.75c.0275821-.22658824.1295794-.43761703.29-.6l.36-.36c.1869842-.18816159.4418383-.29313583.7071011-.29125454.2652628.0018813.5186023.11045976.7028989.30125454l5.18 5.18c.191781.1843911.3001659.4389549.3001659.705s-.1083849.5206089-.3001659.705z" fill="#3b97d3"/><path id="Shape" d="m28.1576114 8.61599266h4.954v37.50000004c0 1.1045695-.8954305 2-2 2h-.953c-1.1045695 0-2-.8954305-2-2v-37.50000004z" fill="#35495e" transform="matrix(.707 .707 -.707 .707 29.03 -13.354)"/><path id="Shape" d="m22.781 39.722 4.378 4.378c.6976791.6960132 1.0897714 1.6410101 1.0897714 2.6265s-.3920923 1.9304868-1.0897714 2.6265l-4.291 4.291c-3.2549736 3.2551556-7.8335835 4.8200063-12.4 4.238l-6.392-.823c-1.11800029-.1382067-1.99879327-1.0189997-2.137-2.137l-.821-6.392c-.58200631-4.5664165.98284439-9.1450264 4.238-12.4l4.291-4.291c.6960132-.6976791 1.6410101-1.0897714 2.6265-1.0897714s1.9304868.3920923 2.6265 1.0897714l4.378 4.378z" fill="#95a5a5"/><path id="Shape" d="m27.16 35.34-7.33 7.33c-.3751365.3755541-.8841815.5865733-1.415.5865733s-1.0398635-.2110192-1.415-.5865733l-.67-.67c-.3755541-.3751365-.5865733-.8841815-.5865733-1.415s.2110192-1.0398635.5865733-1.415l7.33-7.33z" fill="#3b97d3"/><g fill="#7f8c8d"><path id="Shape" d="m6.032 48.909c-.50317623-.0005184-.92760003-.3748337-.991-.874-.43833394-3.3546605.71147408-6.7220082 3.11-9.108l3.415-3.415c.3923789-.3789722 1.0160848-.3735524 1.4018186.0121814s.3911536 1.0094397.0121814 1.4018186l-3.415 3.415c-1.95887144 1.950087-2.89784437 4.7012038-2.54 7.442.06897251.5474976-.31858403 1.0473829-.866 1.117-.04212407.0054495-.08452841.0084545-.127.009z"/><path id="Shape" d="m12.37 54.048c-.4680785-.0000518-.935683-.029778-1.4-.089-.3565888-.0424885-.6630151-.2729185-.8028071-.603704-.1397919-.3307855-.0914821-.711129.1265669-.996463.2180491-.2853339.5723524-.4318405.9282402-.383833 2.7405785.356792 5.4910742-.5824647 7.441-2.541l3.415-3.414c.3923789-.3789722 1.0160848-.3735524 1.4018186.0121814s.3911536 1.0094397.0121814 1.4018186l-3.415 3.414c-2.0392949 2.052015-4.813996 3.2040902-7.707 3.2z"/></g></g></g></svg>