<svg height="512" viewBox="0 0 58 58" width="512" xmlns="http://www.w3.org/2000/svg"><g id="Page-1" fill="none" fill-rule="evenodd"><g id="030---Axe" fill-rule="nonzero" transform="translate(0 -1)"><path id="Shape" d="m36.816 7.754-3.816.246-2.084-3.822 1.35-2.218c.2757258-.45364851.7204978-.77906416 1.2363223-.9045502.5158245-.12548603 1.0603763-.04074588 1.5136777.2355502l2.479 1.5c.4533022.2742491.7788257.71762387.9047166 1.23225672.1258908.51463285.041798 1.05820907-.2337166 1.51074328z" fill="#cb8252"/><path id="Shape" d="m30.841 17.564-.841-3.564-5.059-.012-24.65 40.476c-.27551455.4525342-.35960745.9961104-.23371658 1.5107433.12589086.5146328.45141435.9580076.90471658 1.2322567l2.48 1.5c.45321594.2759785.99752773.3605389 1.51311031.2350661s.96016968-.4506929 1.23588969-.9040661z" fill="#cb8252"/><path id="Shape" d="m58 14.315c-.1841007 3.925244-1.2771375 7.7541249-3.193 11.185-2.1736923 3.2815098-5.0779222 6.0149429-8.485 7.986-.1452749.0750525-.3163803.0817037-.4670429.018155-.1506627-.0635487-.2653173-.1907321-.3129571-.347155-2.792-8.1-9.3-13.382-11.412-14.889-.4469124-.316494-1.0096127-.4223882-1.541-.29-.1471538.0363539-.2984552.0531652-.45.05-.3456085.0029648-.6852425-.0901662-.981-.269l-6.558-3.978c-.4316042-.2883994-.7359036-.7316026-.85-1.238-.1387514-.4798908-.4533418-.8898225-.881-1.148l-3.228-1.967c-1.0815225-.65983087-1.4258003-2.07002881-.77-3.154l2.381-3.923c.6642888-1.08074454 2.075584-1.42397224 3.162-.769l3.292 2c.4590698.24808679.9952681.31243059 1.5.18.488055-.10327721.9971397-.01407094 1.421.249l6.5 3.933c.4278036.26035038.7338275.68086328.85 1.168.1263719.53267373.4818221.982203.971 1.228 2.321 1.178 9.911 4.7 18.386 3.429.1627539-.0272006.3293255.0172104.4569347.1218269s.2038221.2592452.2090653.4241731z" fill="#95a5a5"/><path id="Shape" d="m48.425 19.291c-.0488652-.0002188-.0976537-.0038947-.146-.011-2.6450896-.3185485-5.2241818-1.0483466-7.644-2.163-.3310252-.1529141-.5525777-.4738863-.5781738-.8376242s.1488222-.7125744.4551702-.9103403c.306348-.1977658.6960571-.2131072 1.0170036-.0400355 2.2302866 1.0170614 4.6048569 1.6819681 7.039 1.971.5199716.0740848.8940191.5378043.856374 1.0616764-.0376451.523872-.4741521.9293456-.999374.9283236z" fill="#d1d4d1"/><g fill="#7f8c8d"><path id="Shape" d="m27.234 11.221c-.3612138-.0004211-.6941253-.1956077-.8708996-.51061-.1767742-.3150022-.1699319-.7008533.0178996-1.00939l1.387-2.277c.2871881-.47192729.9025727-.62168802 1.3745-.33449996s.621688.90257264.3345 1.37449996l-1.387 2.277c-.1818043.298638-.5063758.4806408-.856.48z"/><path id="Shape" d="m33.134 14.8c-.3613927-.0000601-.6946349-.1951049-.8716543-.5101745-.1770193-.3150696-.1702699-.7011361.0176543-1.0098255l1.387-2.28c.2874642-.4719273.9030727-.6214642 1.375-.334s.6214642.9030727.334 1.375l-1.387 2.276c-.1808827.2994838-.5051301.4826551-.855.483z"/><path id="Shape" d="m58 14.32c-.1862909 3.9229101-1.2781221 7.7494532-3.19 11.18-2.1762189 3.2795691-5.0820683 6.0108622-8.49 7.98-.1454096.0750233-.3166412.0815402-.4673326.0177862s-.2652533-.1911836-.3126674-.3477862c-.4181811-1.2048245-.9228271-2.3778756-1.51-3.51 2.7513328-1.6180467 5.092084-3.8492891 6.84-6.52 1.5751996-2.7809622 2.4856072-5.8886693 2.66-9.08 1.2748683.0025468 2.5482317-.0876915 3.81-.27.1624949-.0253596.3280433.0204504.4543864.1257363.1263431.105286.2012551.2598596.2056136.4242637z"/></g></g></g></svg>