<svg height="512" viewBox="0 0 60 59" width="512" xmlns="http://www.w3.org/2000/svg"><g id="Page-1" fill="none" fill-rule="evenodd"><g id="031---Scarecrow" fill-rule="nonzero"><path id="Shape" d="m30 55c-.5522847 0-1-.4477153-1-1v-16c0-.5522847.4477153-1 1-1s1 .4477153 1 1v16c0 .5522847-.4477153 1-1 1z" fill="#5f5346"/><path id="Shape" d="m8 22h-7c-.55228475 0-1-.4477153-1-1s.44771525-1 1-1h7c.55228475 0 1 .4477153 1 1s-.44771525 1-1 1z" fill="#f9eab0"/><path id="Shape" d="m59 22h-7c-.5522847 0-1-.4477153-1-1s.4477153-1 1-1h7c.5522847 0 1 .4477153 1 1s-.4477153 1-1 1z" fill="#f9eab0"/><path id="Shape" d="m53 21c.0518834 1.0896371-.3047111 2.1594204-1 3h-12v19c0 .5522847-.4477153 1-1 1h-4c-.5522847 0-1-.4477153-1-1v-4h-8v4c0 .5522847-.4477153 1-1 1h-4c-.5522847 0-1-.4477153-1-1v-19h-12c-.69528894-.8405796-1.05188338-1.9103629-1-3-.05188338-1.0896371.30471106-2.1594204 1-3l12.41-.89c1.0478649-.0705394 2.071147-.3493073 3.01-.82l1.04-.52h11.08l1.04.52c.938853.4706927 1.9621351.7494606 3.01.82l12.41.89c.6952889.8405796 1.0518834 1.9103629 1 3z" fill="#e64c3c"/><path id="Rectangle-path" d="m27 15.77h6v23.23h-6z" fill="#a59078"/><path id="Shape" d="m34 8s0-8-4-8-4 8-4 8l4 2z" fill="#805333"/><path id="Shape" d="m28 17.57v21.43h-2v-21.43c0-.5522847.4477153-1 1-1s1 .4477153 1 1z" fill="#c03a2b"/><path id="Shape" d="m34 17.57v21.43h-2v-21.43c0-.5522847.4477153-1 1-1s1 .4477153 1 1z" fill="#c03a2b"/><path id="Shape" d="m35.58 12.32c.2721158.5184383.4161312 1.0945.42 1.68 0 2.76-3.24 5-6 5s-6-2.24-6-5c.0038688-.5855.1478842-1.1615617.42-1.68z" fill="#cbb292"/><g fill="#a56a43"><path id="Shape" d="m38.738 10.5c.1733931.0892584.2762783.2738617.260987.4682799-.0152913.1944181-.1457716.3606669-.330987.4217201-2.7741177 1.035227-5.7071682 1.5800137-8.668 1.61-2.9607727-.0296662-5.8938214-.5741142-8.668-1.609-.1852154-.0610532-.3156957-.227302-.330987-.4217201-.0152913-.1944182.0875939-.3790215.260987-.4682799l4.738-2.501h8z"/><path id="Shape" d="m37 55h-36c-.55228475 0-1-.4477153-1-1s.44771525-1 1-1h36c.5522847 0 1 .4477153 1 1s-.4477153 1-1 1z"/><path id="Shape" d="m59 54.944h-18c-.5522847 0-1-.4477153-1-1s.4477153-1 1-1h18c.5522847 0 1 .4477153 1 1s-.4477153 1-1 1z"/><path id="Shape" d="m51 59h-42c-.55228475 0-1-.4477153-1-1s.44771525-1 1-1h42c.5522847 0 1 .4477153 1 1s-.4477153 1-1 1z"/></g><path id="Shape" d="m20 22v2h-2v-2c0-.5522847.4477153-1 1-1s1 .4477153 1 1z" fill="#c03a2b"/><path id="Shape" d="m42 22v2h-2v-2c0-.5522847.4477153-1 1-1s1 .4477153 1 1z" fill="#c03a2b"/></g></g></svg>