<svg height="512" viewBox="0 0 58 60" width="512" xmlns="http://www.w3.org/2000/svg"><g id="Page-1" fill="none" fill-rule="evenodd"><g id="032---Bee-Farming" fill-rule="nonzero"><path id="Shape" d="m39 6c-.5522847 0-1-.44771525-1-1v-2c0-.55228475-.4477153-1-1-1h-18c-.5522847 0-1 .44771525-1 1v2c0 .55228475-.4477153 1-1 1s-1-.44771525-1-1v-2c0-1.65685425 1.3431458-3 3-3h18c1.6568542 0 3 1.34314575 3 3v2c0 .55228475-.4477153 1-1 1z" fill="#f29c1f"/><path id="Shape" d="m54.0000025 11-.0000025 29c.0010105.6320847-.2999763 1.2266264-.81 1.6l-22.76.4h-26.43c-1.10320187-.0032948-1.9967052-.8967981-2-2v-29z" fill="#f29c1f"/><path id="Shape" d="m54 20.3v-2.31l-5 2.86-6-3.43v-5.42c0-.5522847-.4477153-1-1-1s-1 .4477153-1 1v5.42l-6 3.43-6-3.43v-5.42c0-.5522847-.4477153-1-1-1s-1 .4477153-1 1v5.42l-6 3.43-6-3.43v-5.42c-.0048866-.550248-.449752-.9951134-1-1h-.01c-.2644729-.0005549-.5181273.1049474-.7041962.2928958-.1860689.1879483-.2890166.4426502-.2858038.7071042v5.42l-6 3.43-5-2.86v2.3l4 2.29v6.84l-4 2.29v2.3l5-2.86 6 3.43v7.42h2v-7.42l6-3.43 6 3.43v7.42h2v-7.42l6-3.43 4.57 2.6c.2305237.133545.5048063.1695837.7620037.1001217.2571973-.0694621.4760451-.238682.6079963-.4701217.2683033-.4838614.0992124-1.0934787-.38-1.37l-4.56-2.59v-6.84l6-3.43 5.99 3.43v6.84l-4.55 2.6c-.3962127.2245181-.5906881.688381-.4730546 1.1283301.1176334.4399491.5176617.7448538.9730546.7416699.1725813-.0042372.3412302-.0524226.49-.14l4.56-2.6 5.01 2.87v-2.32l-4.01-2.29v-6.82zm-34.01 9.12-5.99 3.43-6-3.43v-6.84l6-3.43 5.99 3.43zm14.01 0-6 3.43-5.99-3.43v-6.84l5.99-3.43 6 3.43z" fill="#e57e25"/><rect id="Rectangle-path" fill="#f0c419" height="7" rx="1" width="56" y="5"/><path id="Shape" d="m42 60c-.5522847 0-1-.4477153-1-1v-3c0-.5522847.4477153-1 1-1s1 .4477153 1 1v3c0 .5522847-.4477153 1-1 1z" fill="#35495e"/><path id="Shape" d="m47.913 49.014c.405386 2.354542-.6247894 4.7252125-2.6226875 6.0354068s-4.5827269 1.3101943-6.580625 0-3.0280735-3.6808648-2.6226875-6.0354068l3.913-13.014h4z" fill="#f0c419"/><path id="Shape" d="m47.91 49h-11.82l1.51-5h8.8z" fill="#3f5c6c"/><path id="Shape" d="m40.41 36.66c.25 3.66-3.93 13.09-5.22 15.06-.93372 1.5822896-2.659998 2.5250444-4.4959203 2.4553116s-3.4857135-1.140719-4.296718-2.7892775c-.8110044-1.6485586-.6525656-3.6090992.4126383-5.1060341 1.32-2.04 8.6-10.07 11.92-10.98z" fill="#67b9cc"/><path id="Shape" d="m45.269 35.3c3.32.91 10.6 8.94 11.92 10.98 1.3612394 2.3067676.6629287 5.2764936-1.5836663 6.7349037-2.246595 1.4584102-5.2434083.8874281-6.7963337-1.2949037-1.29-1.97-5.47-11.4-5.22-15.06z" fill="#67b9cc"/><path id="Shape" d="m42 30c-.5522847 0-1-.4477153-1-1 0-2.415-2.532-4.152-2.557-4.169-.4592248-.3070703-.5825703-.9282752-.2755-1.3875s.9282752-.5825703 1.3875-.2755c.9714904.6883978 1.801558 1.5571679 2.445 2.559.643442-1.0018321 1.4735096-1.8706022 2.445-2.559.4592248-.3070703 1.0804297-.1837248 1.3875.2755s.1837248 1.0804297-.2755 1.3875c-.025.017-2.557 1.754-2.557 4.169 0 .5522847-.4477153 1-1 1z" fill="#35495e"/><circle id="Oval" cx="42" cy="33" fill="#3f5c6c" r="4"/></g></g></svg>