<svg height="512" viewBox="0 0 60 59" width="512" xmlns="http://www.w3.org/2000/svg"><g id="Page-1" fill="none" fill-rule="evenodd"><g id="033---Boundaries" fill-rule="nonzero" transform="translate(0 -1)"><g fill="#a56a43"><path id="Shape" d="m27 15h31c.5522847 0 1-.4477153 1-1v-2c0-.5522847-.4477153-1-1-1h-56c-.55228475 0-1 .4477153-1 1v2c0 .5522847.44771525 1 1 1z"/><path id="Shape" d="m27 35h31c.5522847 0 1-.4477153 1-1v-2c0-.5522847-.4477153-1-1-1h-56c-.55228475 0-1 .4477153-1 1v2c0 .5522847.44771525 1 1 1z"/><path id="Shape" d="m27 55h31c.5522847 0 1-.4477153 1-1v-2c0-.5522847-.4477153-1-1-1h-56c-.55228475 0-1 .4477153-1 1v2c0 .5522847.44771525 1 1 1z"/></g><path id="Shape" d="m27.0000027 59h-8.0000027v-51.219c.0015122-.52236561.1393934-1.03528343.4-1.488l2.732-4.793c.1781085-.31133575.5093183-.5034358.868-.5034358s.6898915.19210005.868.5034358l2.737 4.789c.2595336.4543736.3957068.96872898.395 1.492z" fill="#cb8252"/><circle id="Oval" cx="23" cy="13" fill="#95a5a5" r="1"/><circle id="Oval" cx="23" cy="33" fill="#95a5a5" r="1"/><circle id="Oval" cx="23" cy="53" fill="#95a5a5" r="1"/><path id="Shape" d="m13.0000027 59h-8.0000027v-51.219c.00151222-.52236561.13939335-1.03528343.4-1.488l2.732-4.793c.17810851-.31133575.50931826-.5034358.868-.5034358s.68989149.19210005.868.5034358l2.737 4.789c.2595336.4543736.3957068.96872898.395 1.492z" fill="#cb8252"/><circle id="Oval" cx="9" cy="13" fill="#95a5a5" r="1"/><circle id="Oval" cx="9" cy="33" fill="#95a5a5" r="1"/><circle id="Oval" cx="9" cy="53" fill="#95a5a5" r="1"/><path id="Shape" d="m41 59h-8v-51.219c.0015122-.52236561.1393934-1.03528343.4-1.488l2.732-4.793c.1781085-.31133575.5093183-.5034358.868-.5034358s.6898915.19210005.868.5034358l2.732 4.793c.2606066.45271657.3984878.96563439.4 1.488z" fill="#cb8252"/><circle id="Oval" cx="37" cy="13" fill="#95a5a5" r="1"/><circle id="Oval" cx="37" cy="33" fill="#95a5a5" r="1"/><circle id="Oval" cx="37" cy="53" fill="#95a5a5" r="1"/><path id="Shape" d="m55.0000027 59h-8.0000027v-51.219c.0015122-.52236561.1393934-1.03528343.4-1.488l2.732-4.793c.1781085-.31133575.5093183-.5034358.868-.5034358s.6898915.19210005.868.5034358l2.737 4.789c.2595336.4543736.3957068.96872898.395 1.492z" fill="#cb8252"/><circle id="Oval" cx="51" cy="13" fill="#95a5a5" r="1"/><circle id="Oval" cx="51" cy="33" fill="#95a5a5" r="1"/><circle id="Oval" cx="51" cy="53" fill="#95a5a5" r="1"/><path id="Shape" d="m59 60h-58c-.55228475 0-1-.4477153-1-1s.44771525-1 1-1h58c.5522847 0 1 .4477153 1 1s-.4477153 1-1 1z" fill="#4fba6f"/></g></g></svg>