<svg height="512" viewBox="0 0 58 58" width="512" xmlns="http://www.w3.org/2000/svg"><g id="Page-1" fill="none" fill-rule="evenodd"><g id="034---Farm-Hoe" fill-rule="nonzero" transform="translate(0 -2)"><path id="Shape" d="m13 47c-.5522847 0-1-.4477153-1-1v-6.04c.0004453-.9090772.4130805-1.7689177 1.122-2.338l5.478-4.378c.4320352-.3258441 1.0448892-.2489015 1.3829675.1736288.3380784.4225303.2787115 1.0373357-.1339675 1.3873712l-5.469 4.376c-.2384642.188429-.3782937.4750794-.38.779v6.04c0 .5522847-.4477153 1-1 1z" fill="#547580"/><path id="Shape" d="m26 48v11c0 .5522847-.4477153 1-1 1h-24c-.55228475 0-1-.4477153-1-1v-11c0-2.209139 1.790861-4 4-4h18c.180796-.0016091.3614143.01177.54.04 1.9791081.2731551 3.4548348 1.9621372 3.46 3.96z" fill="#7f8c8d"/><g fill="#ecf0f1"><path id="Shape" d="m17.42 44-13.71 13.71c-.3943361.3867403-1.0256639.3867403-1.42 0-.38997787-.3930079-.38997787-1.0269921 0-1.42l12.29-12.29z"/><path id="Shape" d="m24.52 44.9-6.81 6.81c-.3943361.3867403-1.0256639.3867403-1.42 0-.3899779-.3930079-.3899779-1.0269921 0-1.42l6.25-6.25c.7264971.09924 1.4115851.3968034 1.98.86z"/><path id="Shape" d="m11 58c-.4043959-.0000863-.7689341-.2437275-.923678-.6173454-.15474391-.373618-.0692299-.8036603.216678-1.0896546l3-3c.3923789-.3789722 1.0160848-.3735524 1.4018186.0121814s.3911536 1.0094397.0121814 1.4018186l-3 3c-.1874927.1875494-.4418052.2929434-.707.293z"/></g><rect id="Rectangle-path" fill="#cb8252" height="52.113" rx="3" transform="matrix(.631 .776 -.776 .631 28.853 -21.578)" width="6" x="34.118" y="-6.502"/><path id="Shape" d="m26 56v3c0 .5522847-.4477153 1-1 1h-24c-.55228475 0-1-.4477153-1-1v-3z" fill="#95a5a5"/><path id="Shape" d="m27.27 31.44-6.14 5c-1.2868235 1.0465796-3.1784204.8518235-4.225-.435s-.8518235-3.1784204.435-4.225l6.13-4.99z" fill="#95a5a5"/></g></g></svg>