<svg height="512" viewBox="0 0 42 58" width="512" xmlns="http://www.w3.org/2000/svg"><g id="Page-1" fill="none" fill-rule="evenodd"><g id="035---Beehive" fill-rule="nonzero"><path id="Shape" d="m6.382 58h-3.382c-.55228475 0-1-.4477153-1-1v-5l7 2-1.724 3.447c-.16926354.3387294-.51533429.5527978-.894.553z" fill="#603e26"/><path id="Shape" d="m35.618 58h3.382c.5522847 0 1-.4477153 1-1v-5l-7 2 1.724 3.447c.1692635.3387294.5153343.5527978.894.553z" fill="#603e26"/><path id="Shape" d="m7.306 12c-.4043959-.0000863-.76893405-.2437275-.92367798-.6173454-.15474393-.373618-.06922994-.8036603.21667798-1.0896546l2.347-2.347c.39237889-.37897221 1.01608478-.37355237 1.4018186.01218142.3857338.3857338.3911536 1.00943969.0121814 1.40181858l-2.347 2.347c-.18749273.1875494-.44180519.2929434-.707.293z" fill="#95a5a5"/><path id="Shape" d="m34.306 14c-.2651948-.0000566-.5195073-.1054506-.707-.293l-2.153-2.153c-.3789722-.3923789-.3735524-1.0160848.0121814-1.4018186.3857338-.38573377 1.0094397-.39115361 1.4018186-.0121814l2.153 2.153c.2859079.2859943.3714219.7160366.216678 1.0896546-.1547439.3736179-.5192821.6172591-.923678.6173454z" fill="#95a5a5"/><path id="Rectangle-path" d="m2 21h38v10h-38z" fill="#a56a43"/><path id="Rectangle-path" d="m2 37h38v10h-38z" fill="#a56a43"/><rect id="Rectangle-path" fill="#cb8252" height="4" rx="1" width="42" y="18"/><g fill="#805333"><path id="Rectangle-path" d="m2 30h38v8h-38z"/><path id="Rectangle-path" d="m2 46h38v8h-38z"/><circle id="Oval" cx="6" cy="26" r="1"/><circle id="Oval" cx="36" cy="26" r="1"/><path id="Shape" d="m27 27h-12c-.5522847 0-1-.4477153-1-1s.4477153-1 1-1h12c.5522847 0 1 .4477153 1 1s-.4477153 1-1 1z"/></g><circle id="Oval" cx="6" cy="34" fill="#603e26" r="1"/><circle id="Oval" cx="36" cy="34" fill="#603e26" r="1"/><path id="Shape" d="m27 35h-12c-.5522847 0-1-.4477153-1-1s.4477153-1 1-1h12c.5522847 0 1 .4477153 1 1s-.4477153 1-1 1z" fill="#603e26"/><circle id="Oval" cx="6" cy="42" fill="#805333" r="1"/><circle id="Oval" cx="36" cy="42" fill="#805333" r="1"/><path id="Shape" d="m27 43h-12c-.5522847 0-1-.4477153-1-1s.4477153-1 1-1h12c.5522847 0 1 .4477153 1 1s-.4477153 1-1 1z" fill="#805333"/><circle id="Oval" cx="6" cy="50" fill="#603e26" r="1"/><circle id="Oval" cx="36" cy="50" fill="#603e26" r="1"/><path id="Shape" d="m27 51h-12c-.5522847 0-1-.4477153-1-1s.4477153-1 1-1h12c.5522847 0 1 .4477153 1 1s-.4477153 1-1 1z" fill="#603e26"/><path id="Shape" d="m16.033 1.846c-6.319-.181-9.578 5.859-7.506 7.932 1.989 1.989 7.633-.932 7.924-6.755z" fill="#f0c419"/><path id="Shape" d="m25.161 5.044c.3 5.809 5.936 8.721 7.923 6.734 1.91-1.91-.707-7.188-6.073-7.864" fill="#f0c419"/><path id="Shape" d="m14.361 1.54c-1.359746-.86405562-2.9233293-1.35420603-4.533-1.421-1.781 0-3.2 1.153-3.217 2.581.18443449 1.59141107 1.60453458 2.74524239 3.2 2.6 1.8418849-.10744375 3.6097346-.76242217 5.077-1.881z" fill="#9fc9d3"/><path id="Shape" d="m14.891 3.414c-1.1185778 1.46726535-1.7735563 3.23511514-1.881 5.077-.1457896 1.5956321 1.0083138 3.016067 2.6 3.2 1.428-.014 2.58-1.435 2.58-3.217-.0664987-1.60941004-.5566795-3.17274548-1.421-4.532z" fill="#9fc9d3"/><path id="Shape" d="m26.72 5.414c1.4675136 1.12092607 3.2365409 1.77769487 5.08 1.886 1.5956321.14578961 3.016067-1.00831375 3.2-2.6-.014-1.428-1.435-2.581-3.217-2.581-1.6096462.06693469-3.1731938.55707392-4.533 1.421z" fill="#9fc9d3"/><path id="Shape" d="m24.846 5.945c-.8643205 1.35925452-1.3545013 2.92258996-1.421 4.532 0 1.782 1.152 3.2 2.581 3.217 1.5896746-.18642 2.7409463-1.6060999 2.595-3.2-.1068549-1.84292325-.7618638-3.61189979-1.881-5.08z" fill="#9fc9d3"/><circle id="Oval" cx="16.306" cy="2" fill="#35495e" r="2"/><circle id="Oval" cx="25.306" cy="4" fill="#35495e" r="2"/></g></g></svg>