<svg height="512" viewBox="0 0 59 59" width="512" xmlns="http://www.w3.org/2000/svg"><g id="Page-1" fill="none" fill-rule="evenodd"><g id="036---Rake" fill-rule="nonzero"><g fill="#7f8c8d"><path id="Shape" d="m1 42.024c-.4043959-.0000863-.76893405-.2437275-.92367798-.6173454-.15474393-.373618-.06922994-.8036603.21667798-1.0896546l2.829-2.829c.39425229-.3633867 1.00494187-.3511685 1.38434381.0276968.37940193.3788653.39248447.989537.02965619 1.3843032l-2.829 2.831c-.18705309.1882061-.44165142.2937185-.707.293z"/><path id="Shape" d="m3.829 44.854c-.40483568.000319-.76992374-.24348-.92475857-.6175364s-.0688653-.8045636.21775857-1.0904636l2.829-2.829c.39237889-.3789722 1.01608478-.3735524 1.40181858.0121814.38573379.3857338.39115363 1.0094397.01218142 1.4018186l-2.829 2.83c-.18749273.1875494-.44180519.2929434-.707.293z"/><path id="Shape" d="m6.658 47.683c-.4043959-.0000863-.76893405-.2437275-.92367798-.6173454-.15474393-.373618-.06922994-.8036603.21667798-1.0896546l2.83-2.83c.2527654-.2534799.62156021-.3528563.96746297-.260695.34590273.0921613.61636263.3618587.70950003.7075.0931373.3456412-.0051976.7147151-.257963.968195l-2.835 2.829c-.18749273.1875494-.44180519.2929434-.707.293z"/><path id="Shape" d="m9.488 50.512c-.4043959-.0000863-.76893405-.2437275-.92367798-.6173454-.15474393-.373618-.06922994-.8036603.21667798-1.0896546l2.829-2.829c.2510745-.2599566.6228779-.3642126.9725073-.2726972.3496295.0915155.6226744.3645604.7141899.7141899.0915154.3496294-.0127406.7214328-.2726972.9725073l-2.824 2.829c-.1882712.1894456-.44492059.2950612-.712.293z"/><path id="Shape" d="m12.317 53.341c-.4043959-.0000863-.7689341-.2437275-.923678-.6173454-.1547439-.373618-.0692299-.8036603.216678-1.0896546l2.829-2.829c.3904653-.3907414 1.0237585-.3909653 1.4145-.0005.3907414.3904653.3909653 1.0237585.0005 1.4145l-2.83 2.829c-.1870531.1882061-.4416514.2937185-.707.293z"/><path id="Shape" d="m15.146 56.171c-.4043959-.0000863-.7689341-.2437275-.923678-.6173454-.1547439-.373618-.0692299-.8036603.216678-1.0896546l2.83-2.83c.3923789-.3789722 1.0160848-.3735524 1.4018186.0121814s.3911536 1.0094397.0121814 1.4018186l-2.829 2.83c-.1877377.1877946-.4424587.2932088-.708.293z"/><path id="Shape" d="m17.976 59c-.4043959-.0000863-.7689341-.2437275-.923678-.6173454-.1547439-.373618-.0692299-.8036603.216678-1.0896546l2.831-2.829c.3923789-.3789722 1.0160848-.3735524 1.4018186.0121814s.3911536 1.0094397.0121814 1.4018186l-2.829 2.829c-.1879825.1880401-.4431123.2934746-.709.293z"/></g><path id="Shape" d="m17.976 41.025c-.7807639-.7809997-.7807639-2.0470003 0-2.828l26.045-26.047 2.979-.15-.15 2.979-26.05 26.046c-.7805395.7781018-2.0434605.7781018-2.824 0z" fill="#f29c1f"/><path id="Shape" d="m20.805 56.171c-.2651948-.0000566-.5195073-.1054506-.707-.293l-16.976-16.978c-.39038194-.3904999-.39038194-1.0235001 0-1.414l.707-.707c.75019204-.750496 1.76785327-1.1721459 2.829-1.1721459s2.07880796.4216499 2.829 1.1721459l2.829 2.829c2.707 2.707 4.729.921 4.957.7.3918481-.361994.9988536-.3526658 1.3793934.0211978.3805397.3738637.4006091.980609.0456066 1.3788022-.208.216-2 2.24.707 4.952l2.829 2.83c.750496.750192 1.1721459 1.7678533 1.1721459 2.829s-.4216499 2.078808-1.1721459 2.829l-.707.707c-.1872612.1997284-.4482228.3139443-.722.316z" fill="#95a5a5"/><path id="Shape" d="m25.91 35.91-5.11 5.11c-.7787215.7787214-2.0412785.7787214-2.8199999-.0000001-.7787215-.7787214-.7787215-2.0412784-.0000001-2.8199999l5.11-5.11z" fill="#7f8c8d"/><path id="Shape" d="m58.706 4.558-10.425 10.415c-.1869991.1926337-.4440295.3013406-.7125.3013406s-.5255009-.1087069-.7125-.3013406l-2.829-2.829c-.1926337-.1869991-.3013406-.4440295-.3013406-.7125s.1087069-.5255009.3013406-.7125l10.415-10.426c.3944929-.39110557 1.0305071-.39110557 1.425 0l2.839 2.84c.3921976.39404263.3921976 1.03095737 0 1.425z" fill="#f0c419"/></g></g></svg>