<svg height="512" viewBox="0 0 60 60" width="512" xmlns="http://www.w3.org/2000/svg"><g id="Page-1" fill="none" fill-rule="evenodd"><g id="037---Sprinkler" fill-rule="nonzero" transform="translate(0 -1)"><path id="Rectangle-path" d="m28 30h4v22h-4z" fill="#95a5a5"/><path id="Shape" d="m14 61c-.3633468-.0003624-.6979068-.1977813-.8738872-.515668-.1759804-.3178866-.1656869-.7062147.0268872-1.014332l5-8c.2927109-.469442.910558-.6127109 1.38-.32s.6127109.910558.32 1.38l-5 8c-.1836786.2938946-.5064327.471731-.853.47z" fill="#a56a43"/><path id="Shape" d="m46 61c-.345146.0003459-.6660727-.1773168-.849-.47l-5-8c-.1893508-.3036758-.202309-.6853011-.0339935-1.0011216.1683156-.3158204.4923337-.5178553.85-.53s.6946427.1674458.8839935.4711216l5 8c.1929559.3087248.2028841.6979225.0259199 1.0160839-.1769643.3181613-.512857.5150102-.8769199.5139161z" fill="#a56a43"/><path id="Shape" d="m8 53c-.55228475 0-1-.4477153-1-1v-19c0-.5522847.44771525-1 1-1s1 .4477153 1 1v19c0 .5522847-.44771525 1-1 1z" fill="#24ae5f"/><path id="Shape" d="m52 53c-.5522847 0-1-.4477153-1-1v-19c0-.5522847.4477153-1 1-1s1 .4477153 1 1v19c0 .5522847-.4477153 1-1 1z" fill="#24ae5f"/><path id="Shape" d="m8 52h-2.037c-2.303168.0126707-4.32678974-1.5254624-4.931-3.748-.07494242-.3035633-.00506165-.62472.18923847-.8696986s.49110801-.3861524.80376153-.3823014h.883c2.78642848-.0244133 5.06561057 2.2135895 5.092 5z" fill="#4fba6f"/><path id="Shape" d="m13.975 47c.3126535-.003851.6094614.1373228.8037615.3823014.1943002.2449786.2641809.5661353.1892385.8696986-.6042103 2.2225376-2.627832 3.7606707-4.931 3.748h-2.037c.02638943-2.7864105 2.3055715-5.0244133 5.092-5z" fill="#4fba6f"/><path id="Shape" d="m52 52h-2.037c-2.303168.0126707-4.3267897-1.5254624-4.931-3.748-.0749424-.3035633-.0050617-.62472.1892385-.8696986.1943001-.2449786.491108-.3861524.8037615-.3823014h.883c2.7864285-.0244133 5.0656106 2.2135895 5.092 5z" fill="#4fba6f"/><path id="Shape" d="m57.975 47c.3126535-.003851.6094614.1373228.8037615.3823014.1943002.2449786.2641809.5661353.1892385.8696986-.6042103 2.2225376-2.627832 3.7606707-4.931 3.748h-2.037c.0263894-2.7864105 2.3055715-5.0244133 5.092-5z" fill="#4fba6f"/><path id="Shape" d="m8 43h-2.037c-2.303168.0126707-4.32678974-1.5254624-4.931-3.748-.07494242-.3035633-.00506165-.62472.18923847-.8696986s.49110801-.3861524.80376153-.3823014h.883c2.78642848-.0244133 5.06561057 2.2135895 5.092 5z" fill="#4fba6f"/><path id="Shape" d="m13.975 38c.3126535-.003851.6094614.1373228.8037615.3823014.1943002.2449786.2641809.5661353.1892385.8696986-.6042103 2.2225376-2.627832 3.7606707-4.931 3.748h-2.037c.02638943-2.7864105 2.3055715-5.0244133 5.092-5z" fill="#4fba6f"/><path id="Shape" d="m52 43h-2.037c-2.303168.0126707-4.3267897-1.5254624-4.931-3.748-.0749424-.3035633-.0050617-.62472.1892385-.8696986.1943001-.2449786.491108-.3861524.8037615-.3823014h.883c2.7864285-.0244133 5.0656106 2.2135895 5.092 5z" fill="#4fba6f"/><path id="Shape" d="m57.975 38c.3126535-.003851.6094614.1373228.8037615.3823014.1943002.2449786.2641809.5661353.1892385.8696986-.6042103 2.2225376-2.627832 3.7606707-4.931 3.748h-2.037c.0263894-2.7864105 2.3055715-5.0244133 5.092-5z" fill="#4fba6f"/><path id="Rectangle-path" d="m26 18h8v8h-8z" fill="#2980ba"/><path id="Shape" d="m59 53h-58c-.55228475 0-1-.4477153-1-1s.44771525-1 1-1h58c.5522847 0 1 .4477153 1 1s-.4477153 1-1 1z" fill="#cb8252"/><path id="Shape" d="m34.0000041 24-.0000041 2.53c.0006263.3090143-.0713035.6138597-.21.89l-1.79 3.58h-4l-1.79-3.58c-.1386965-.2761403-.2106263-.5809857-.21-.89l-.0000041-2.53z" fill="#3b97d3"/><rect id="Rectangle-path" fill="#95a5a5" height="4" rx="2" width="14" x="23" y="15"/><g fill="#2fa8cc"><path id="Shape" d="m27.317 11c-.4253479-.0001403-.8040606-.2693312-.944-.671-.1113333-.3213333-.2356667-.63466667-.373-.94-.1518031-.32669594-.1161561-.70979117.093317-1.00287039s.5603926-.45083907.9186404-.41298528c.3582479.0378538.6684471.26546991.8120426.59585567.1606667.35933333.3066667.726.438 1.1.10739.30615148.0595796.645375-.1282445.9099188-.1878242.2645438-.4923158.4215255-.8167555.4210812z"/><path id="Shape" d="m23.271 11.672c-.4235725-.0003926-.8009505-.2676019-.942-.667-.071-.2-.149-.4-.237-.587-.1616016-.3262303-.1331405-.7145101.0743038-1.0136892.2074444-.29917911.5610919-.4619816.9232742-.42503148.3621822.03695011.6756676.26781402.818422.60272068.113.247.215.5.306.756.1084949.3061808.0615109.6459829-.1259955.9112359-.1875065.265253-.4921695.4229028-.8170045.4227641z"/><path id="Shape" d="m23.937 5.894c-.2468897.00044445-.4850728-.09119186-.668-.257-.275099-.24760171-.5624611-.48122939-.861-.7-.4454177-.32695257-.5414526-.95308235-.2145-1.3985s.9530823-.54145257 1.3985-.2145c.352.25933333.69.535 1.014.827.3075413.2770319.412623.71490145.2643025 1.10133297s-.5193843.64154643-.9333025.64166703z"/><path id="Shape" d="m19 3.217c-.0864129.00030002-.1724881-.01079561-.256-.033-.3-.079-.6-.145-.914-.2-.5286477-.1086713-.8756878-.61722303-.7841605-1.14910707.0915272-.53188403.588596-.89518049 1.1231605-.82089293.368.064.729.142 1.086.236.4860817.12806834.8015499.59706492.736925 1.09556324-.0646248.49849831-.4892552.87154922-.991925.87143676z"/><path id="Shape" d="m18 7.252c-.0840343.00014185-.1677322-.01061451-.249-.032-.191-.049-.383-.09-.579-.122-.3524425-.05894882-.646664-.30144562-.7718341-.63614419-.12517-.33469858-.0622724-.71075025.165-.9865.2272725-.27574975.5843916-.40930463.9368341-.35035581.253.042.5.095.745.158.4885053.12455157.8079117.59325582.7451628 1.09346887s-.4880294.87550052-.9921628.87553113z"/><path id="Shape" d="m13 3.217c-.5026698.00011246-.9273002-.37293845-.991925-.87143676-.0646249-.49849832.2508433-.9674949.736925-1.09556324.357-.094.718-.172 1.086-.236.5445528-.09333612 1.0616639.27244724 1.155.817s-.2724472 1.06166388-.817 1.155c-.31.053-.614.119-.914.2-.0833695.02095439-.1690382.03136901-.255.031z"/><path id="Shape" d="m8.062 5.894c-.41373554-.00053392-.7844205-.25579784-.93248248-.64213322-.14806198-.38633539-.04292363-.82395729.26448248-1.10086678.324-.292.662-.56766667 1.014-.827.2881347-.21150123.6672167-.25321839.99444949-.10943704.32723278.14378135.55290191.45121742.592.8065.03909811.35528258-.11431479.70443581-.40244949.91593704-.29853894.21877061-.58590098.45239829-.861.7-.18318248.16604065-.42176562.25769367-.669.257z"/><path id="Shape" d="m10.71 9c-.4159975.00023394-.78869058-.25709482-.93587729-.64618356s-.03812095-.82865999.27387729-1.10381644c.224-.2.4573333-.38633333.7-.559.2895549-.2174322.6740307-.26134645 1.0051579-.11480765.3311271.14653881.5571674.46063417.5909505.82115812s-.1299696.71114505-.4281084.91664953c-.188.137-.37.282-.544.436-.182821.16123307-.4182386.25013699-.662.25z"/><path id="Shape" d="m5.087 9.979c-.33933972-.00021557-.65541576-.17250444-.83947761-.45758816-.18406185-.28508373-.21099111-.64405772-.07152239-.95341184.17-.378.35633333-.74466667.559-1.1.1759533-.3109997.50445722-.50450531.86176751-.50762513.3573103-.00311982.68914303.18462012.87050002.4925.18135698.30787989.18468578.68912543.00873247 1.00012513-.172.304-.33066667.617-.476.939-.16242589.35817773-.51971554.5878919-.913.587z"/><path id="Shape" d="m4 15c-.55228475 0-1-.4477153-1-1 0-.3646667.015-.7256667.045-1.083.0182666-.3647031.233871-.6904528.56244149-.8497746.32857048-.1593218.71785921-.126881 1.01552718.0846273s.45638133.5684512.41403133.9311473c-.024.3-.037.608-.037.917 0 .5522847-.44771525 1-1 1z"/><path id="Shape" d="m8 15c-.55228475 0-1-.4477153-1-1 0-.254.01033333-.505.031-.753.01955521-.3640074.23563712-.6885361.56393993-.8469692.32830282-.1584331.71680856-.1256675 1.01393915.085513.29713059.2111804.45580713.5673153.41412092.9294562-.015.192-.023.385-.023.585 0 .5522847-.44771525 1-1 1z"/><path id="Shape" d="m36.729 11.672c-.324835.0001387-.629498-.1575111-.8170045-.4227641-.1875064-.265253-.2344904-.6050551-.1259955-.9112359.091-.258.193-.509.306-.756.1427544-.33490666.4562398-.56577057.818422-.60272068.3621823-.03695012.7158298.12585237.9232742.42503148.2074443.2991791.2359054.6874589.0743038 1.0136892-.088.191-.166.387-.237.587-.1410495.3993981-.5184275.6666074-.942.667z"/><path id="Shape" d="m42 7.252c-.5041334-.00003061-.9294139-.37531808-.9921628-.87553113s.2566575-.9689173.7451628-1.09346887c.245-.063.492-.116.745-.158.3524425-.05894883.7095616.07460605.9368341.3503558.2272724.27574975.2901701.65180143.165.98650001s-.4193916.57719537-.7718341.63614419c-.2.032-.388.073-.579.122-.0812678.02138549-.1649657.03214185-.249.032z"/><path id="Shape" d="m49.29 9c-.2437614.00013699-.479179-.08876693-.662-.25-.174-.154-.356-.3-.544-.436-.4484552-.32253429-.5505343-.94754478-.228-1.396s.9475448-.55053429 1.396-.228c.2426667.17533333.476.36166667.7.559.3127791.27500375.422366.71507062.2750812 1.10464094-.1472847.38957031-.5205991.64706685-.9370812.64635906z"/><path id="Shape" d="m52 15c-.5522847 0-1-.4477153-1-1 0-.2-.008-.393-.023-.585-.0416862-.3621409.1169903-.7182758.4141209-.9294562.2971306-.2111805.6856364-.2439461 1.0139392-.085513s.5443847.4829618.5639399.8469692c.0206667.248.031.499.031.753 0 .5522847-.4477153 1-1 1z"/><path id="Shape" d="m32.683 11c-.3239424.0002171-.6279212-.1564983-.8156448-.4205031-.1877235-.2640049-.2359323-.60258838-.1293552-.9084969.1333333-.376.2793333-.74266667.438-1.1.2363011-.48569513.8155855-.69597385 1.3084223-.47495384s.7211011.79345601.5155777 1.29295384c-.138.306-.2623333.6193333-.373.94-.1399394.4016688-.5186521.6708597-.944.671z"/><path id="Shape" d="m36.062 5.894c-.4137355-.00053392-.7844205-.25579784-.9324825-.64213322-.148062-.38633539-.0429236-.82395729.2644825-1.10086678.324-.292.662-.56766667 1.014-.827.4454177-.32695253 1.0715474-.2309176 1.3985.21450003.3269525.44541764.2309176 1.07154739-.2145 1.39849997-.2985389.21877061-.585901.45239829-.861.7-.1831825.16604065-.4217656.25769367-.669.257z"/><path id="Shape" d="m41 3.217c-.5026698.00011246-.9273002-.37293845-.991925-.87143676-.0646249-.49849832.2508433-.9674949.736925-1.09556324.357-.094.718-.172 1.086-.236.5445528-.09333611 1.0616639.27244724 1.155.817s-.2724472 1.06166387-.817 1.155c-.31.053-.614.119-.914.2-.0833695.02095439-.1690382.03136901-.255.031z"/><path id="Shape" d="m47 3.217c-.0864129.00030002-.1724881-.01079561-.256-.033-.3-.079-.6-.145-.914-.2-.5286477-.1086713-.8756878-.61722303-.7841605-1.14910707.0915272-.53188403.588596-.89518049 1.1231605-.82089293.368.064.729.142 1.086.236.4860817.12806834.8015499.59706492.736925 1.09556324-.0646248.49849831-.4892552.87154922-.991925.87143676z"/><path id="Shape" d="m51.937 5.894c-.2468897.00044445-.4850728-.09119186-.668-.257-.275099-.24760171-.5624611-.48122939-.861-.7-.4454177-.32695257-.5414526-.95308235-.2145-1.3985s.9530823-.54145257 1.3985-.2145c.352.25933333.69.535 1.014.827.3075413.2770319.412623.71490145.2643025 1.10133297s-.5193843.64154643-.9333025.64166703z"/><path id="Shape" d="m54.913 9.979c-.3939868.00036022-.7514655-.23065014-.913-.59-.1453333-.322-.304-.635-.476-.939-.2720002-.48076387-.1027639-1.09099976.378-1.363s1.0909998-.10276387 1.363.378c.2.358.3863333.72466667.559 1.1.1394687.30935412.1125395.66832811-.0715224.95341184-.1840618.28508372-.5001379.45737259-.8394776.45758816z"/><path id="Shape" d="m56 15c-.5522847 0-1-.4477153-1-1 0-.309-.013-.615-.037-.917-.04235-.3626961.1163634-.719639.4140313-.9311473.297668-.2115083.6869567-.2439491 1.0155272-.0846273s.5441749.4850715.5624415.8497746c.03.3566667.045.7176667.045 1.083 0 .5522847-.4477153 1-1 1z"/><path id="Shape" d="m19.873 14c-.4555344-.0005676-.8531167-.3089303-.967-.75-.0684486-.2625655-.1716967-.5148003-.307-.75-.2716903-.47786-.1067416-1.0854205.3693057-1.3602745.4760473-.2748541 1.0846885-.1139391 1.3626943.3602745.2260204.3916688.397918.812162.511 1.25.1379304.5345918-.1834739 1.0798152-.718 1.218-.0819493.0213806-.1663076.0321354-.251.032z"/><path id="Shape" d="m15 11.126c-.5043244.0004746-.9300793-.3746633-.9931022-.8750346s.2564114-.96936747.7451022-1.0939654c.4078275-.10415981.8270814-.15690249 1.248-.157.5522847 0 1 .44771525 1 1 0 .5522847-.4477153 1-1 1-.2535475.0015482-.5058818.035148-.751.1-.0816258.0188085-.1652494.0275402-.249.026z"/><path id="Shape" d="m12 15c-.5522847 0-1-.4477153-1-1 .0001292-.4212461.0528707-.8408268.157-1.249.1380712-.5351639.6838361-.8570711 1.219-.719.5351639.1380712.8570712.6838361.719 1.219-.0629982.2446859-.0949162.4963343-.095.749 0 .5522847-.4477153 1-1 1z"/><path id="Shape" d="m40.127 14c-.0846924.0001354-.1690507-.0106194-.251-.032-.5345261-.1381848-.8559304-.6834082-.718-1.218.113082-.437838.2849796-.8583312.511-1.25.2780058-.4742136.886647-.6351286 1.3626943-.3602745.4760473.274854.640996.8824145.3693057 1.3602745-.1353033.2351997-.2385514.4874345-.307.75-.1138833.4410697-.5114656.7494324-.967.75z"/><path id="Shape" d="m45 11.126c-.084291-.0000146-.1682583-.0104266-.25-.031-.24501-.0630816-.4969996-.0950003-.75-.095-.5522847 0-1-.4477153-1-1 0-.55228475.4477153-1 1-1 .4212533.0000141.8408483.05275743 1.249.157.4888783.12464267.8083425.59393189.7450453 1.0944628-.0632972.5005309-.4895289.8755193-.9940453.8745372z"/><path id="Shape" d="m48 15c-.5522847 0-1-.4477153-1-1 .0000844-.253335-.0318349-.5056659-.095-.751-.1380712-.5351639.1838361-1.0809288.719-1.219s1.0809288.1838361 1.219.719c.1042946.4088217.1570375.8290847.157 1.251 0 .5522847-.4477153 1-1 1z"/><path id="Shape" d="m4 20c-.55228475 0-1-.4477153-1-1v-1c0-.5522847.44771525-1 1-1s1 .4477153 1 1v1c0 .5522847-.44771525 1-1 1z"/><path id="Shape" d="m8 20c-.55228475 0-1-.4477153-1-1v-1c0-.5522847.44771525-1 1-1s1 .4477153 1 1v1c0 .5522847-.44771525 1-1 1z"/><path id="Shape" d="m12 20c-.5522847 0-1-.4477153-1-1v-1c0-.5522847.4477153-1 1-1s1 .4477153 1 1v1c0 .5522847-.4477153 1-1 1z"/><path id="Shape" d="m48 20c-.5522847 0-1-.4477153-1-1v-1c0-.5522847.4477153-1 1-1s1 .4477153 1 1v1c0 .5522847-.4477153 1-1 1z"/><path id="Shape" d="m52 20c-.5522847 0-1-.4477153-1-1v-1c0-.5522847.4477153-1 1-1s1 .4477153 1 1v1c0 .5522847-.4477153 1-1 1z"/><path id="Shape" d="m56 20c-.5522847 0-1-.4477153-1-1v-1c0-.5522847.4477153-1 1-1s1 .4477153 1 1v1c0 .5522847-.4477153 1-1 1z"/><path id="Shape" d="m4 25c-.55228475 0-1-.4477153-1-1v-1c0-.5522847.44771525-1 1-1s1 .4477153 1 1v1c0 .5522847-.44771525 1-1 1z"/><path id="Shape" d="m8 25c-.55228475 0-1-.4477153-1-1v-1c0-.5522847.44771525-1 1-1s1 .4477153 1 1v1c0 .5522847-.44771525 1-1 1z"/><path id="Shape" d="m12 25c-.5522847 0-1-.4477153-1-1v-1c0-.5522847.4477153-1 1-1s1 .4477153 1 1v1c0 .5522847-.4477153 1-1 1z"/><path id="Shape" d="m48 25c-.5522847 0-1-.4477153-1-1v-1c0-.5522847.4477153-1 1-1s1 .4477153 1 1v1c0 .5522847-.4477153 1-1 1z"/><path id="Shape" d="m52 25c-.5522847 0-1-.4477153-1-1v-1c0-.5522847.4477153-1 1-1s1 .4477153 1 1v1c0 .5522847-.4477153 1-1 1z"/><path id="Shape" d="m56 25c-.5522847 0-1-.4477153-1-1v-1c0-.5522847.4477153-1 1-1s1 .4477153 1 1v1c0 .5522847-.4477153 1-1 1z"/><path id="Shape" d="m4 30c-.55228475 0-1-.4477153-1-1v-1c0-.5522847.44771525-1 1-1s1 .4477153 1 1v1c0 .5522847-.44771525 1-1 1z"/><path id="Shape" d="m8 30c-.55228475 0-1-.4477153-1-1v-1c0-.5522847.44771525-1 1-1s1 .4477153 1 1v1c0 .5522847-.44771525 1-1 1z"/><path id="Shape" d="m12 30c-.5522847 0-1-.4477153-1-1v-1c0-.5522847.4477153-1 1-1s1 .4477153 1 1v1c0 .5522847-.4477153 1-1 1z"/><path id="Shape" d="m48 30c-.5522847 0-1-.4477153-1-1v-1c0-.5522847.4477153-1 1-1s1 .4477153 1 1v1c0 .5522847-.4477153 1-1 1z"/><path id="Shape" d="m52 30c-.5522847 0-1-.4477153-1-1v-1c0-.5522847.4477153-1 1-1s1 .4477153 1 1v1c0 .5522847-.4477153 1-1 1z"/><path id="Shape" d="m56 30c-.5522847 0-1-.4477153-1-1v-1c0-.5522847.4477153-1 1-1s1 .4477153 1 1v1c0 .5522847-.4477153 1-1 1z"/></g></g></g></svg>