<svg height="512" viewBox="0 0 58 58" width="512" xmlns="http://www.w3.org/2000/svg"><g id="Page-1" fill="none" fill-rule="evenodd"><g id="038---Sheers" fill-rule="nonzero"><path id="Shape" d="m22.422 41.981c2.1506162.4140182 4.3765006-.0863801 6.143-1.381l2.2-1.6-3.488-4-2.416 1.811c-1.0412548.787601-2.5042983.6846539-3.425-.241z" fill="#7f8c8d"/><path id="Shape" d="m57.53 19.53-27.73 20.17-3.16-4.22 27.6-20.7c.2500433-.1885601.5668851-.2654265.8755361-.2124067s.5816789.2312135.7544639.4924067l1.94 2.91c.330287.5129497.2080592 1.193933-.28 1.56z" fill="#c03a2b"/><path id="Shape" d="m1.333 56.67c-.85320852-.8527917-1.33257112-2.0096756-1.33257112-3.216s.4793626-2.3632083 1.33257112-3.216l14.472-14.472c.4-.4.791-.791 4.933 2.558z" fill="#7f8c8d"/><path id="Shape" d="m23.549 30-2.359 3.147c-.7826793 1.0429077-.6804382 2.5024.24 3.426l.812.8c1.281914 1.3505795 1.281914 3.4684205 0 4.819l-14.477 14.478c-1.77749079 1.7729024-4.65450921 1.7729024-6.432 0l16.14-16.14c.40192-.3994997.4406224-1.0367993.09-1.482-2.1900978-2.8085872-2.2553678-6.7280478-.16-9.608l1.6-2.2z" fill="#95a5a5"/><path id="Shape" d="m43.22 3.76-20.69 27.6-4.22-3.16 20.17-27.73c.3610731-.48894584 1.0406788-.61171333 1.55-.28l2.91 1.95c.2608363.17066232.4390899.44197694.492178.74912972.0530882.30715279-.023757.62255856-.212178.87087028z" fill="#e64c3c"/><path id="Shape" d="m46.22 27.76-3.27-4.52 3.745-2.798 3.305 4.559z" fill="#f0c419"/><path id="Shape" d="m34.92 14.83-4.51-3.27 2.593-3.556 4.559 3.304z" fill="#f3d55b"/></g></g></svg>