<svg height="512" viewBox="0 0 58 58" width="512" xmlns="http://www.w3.org/2000/svg"><g id="Page-1" fill="none" fill-rule="evenodd"><g id="039---Greenhouse" fill-rule="nonzero"><path id="Shape" d="m57 19.36.0000094 32.64h-27.0000094c.5522847 0 1-.4477153 1-1l-4.53-22-.65-2-8.82-27.00001457 23.53.00001457c.2976809-.00161159.58035.13054538.77.36l15.46 18.36c.1556468.1767616.2410414.4044804.24.64z" fill="#2fa8cc"/><path id="Shape" d="m56.93 19h-33.73l-6.2-19.00001457 23.53.00001457c.2976809-.00161159.58035.13054538.77.36l15.46 18.36c.0751219.0807987.1329683.1760751.17.28z" fill="#67b9cc"/><path id="Shape" d="m33 19.36v29.64c0 .5522847-.4477153 1-1 1l-31.00000941 2 .00000941-32.64c-.00104137-.2355196.08435318-.4632384.24-.64l15.76-18.72 15.76 18.72c.1556468.1767616.2410414.4044804.24.64z" fill="#84b5cb"/><path id="Shape" d="m24 33v17h-14v-17c0-.5522847.4477153-1 1-1h12c.5522847 0 1 .4477153 1 1z" fill="#3b97d3"/><path id="Shape" d="m57 27h-11v-7.64c-.0000506-.1206222-.0100848-.2410332-.03-.36-.0698157-.3378355-.2208309-.6535944-.44-.92l-15.22-18.08h-2.62l16.01 19 .3.36v7.64h-15v-8c0-.5522847-.4477153-1-1-1s-1 .4477153-1 1v8h-20v-8c0-.5522847-.44771525-1-1-1s-1 .4477153-1 1v8h-4v2h4v21c0 .5522847.44771525 1 1 1s1-.4477153 1-1v-21h20v21c0 .5522847.4477153 1 1 1s1-.4477153 1-1v-21h15v21c0 .5522847.4477153 1 1 1s1-.4477153 1-1v-21h11z" fill="#285680"/><path id="Shape" d="m11 25h-1c-.55228475 0-1-.4477153-1-1s.44771525-1 1-1h1c.5522847 0 1 .4477153 1 1s-.4477153 1-1 1z" fill="#ecf0f1"/><path id="Shape" d="m24 25h-9c-.5522847 0-1-.4477153-1-1s.4477153-1 1-1h9c.5522847 0 1 .4477153 1 1s-.4477153 1-1 1z" fill="#ecf0f1"/><path id="Shape" d="m50 44-1 6h-8l-1-6z" fill="#a56a43"/><path id="Shape" d="m51 45h-12c-.5522847 0-1-.4477153-1-1s.4477153-1 1-1h12c.5522847 0 1 .4477153 1 1s-.4477153 1-1 1z" fill="#cb8252"/><circle id="Oval" cx="45" cy="36" fill="#2980ba" r="4"/><path id="Shape" d="m18 38v6h6v2h-6v4c0 .5522847-.4477153 1-1 1s-1-.4477153-1-1v-4h-6v-2h6v-6h-6v-2h6v-4h2v4h6v2z" fill="#2980ba"/><rect id="Rectangle-path" fill="#cb8252" height="8" rx="1" width="58" y="50"/><g fill="#a56a43"><path id="Shape" d="m26 54c0 .5522847-.4477153 1-1 1h-25v-2h25c.5522847 0 1 .4477153 1 1z"/><path id="Shape" d="m45 55h-16c-.5522847 0-1-.4477153-1-1s.4477153-1 1-1h16c.5522847 0 1 .4477153 1 1s-.4477153 1-1 1z"/><path id="Shape" d="m58 53v2h-9c-.5522847 0-1-.4477153-1-1s.4477153-1 1-1z"/></g><path id="Shape" d="m32.93 19h-31.86c.03703169-.1039249.09487811-.1992013.17-.28l15.76-18.72 15.76 18.72c.0751219.0807987.1329683.1760751.17.28z" fill="#9fc9d3"/><path id="Shape" d="m22.773 13.4-5.039-6.054c-.180851-.21895758-.4500114-.34574263-.734-.34574263s-.553149.12678505-.734.34574263l-5.039 6.054c-.2427732.2880517-.2974578.6903585-.1403807 1.0327609.157077.3424024.4976877.5633676.8743807.5672391h10.078c.376693-.0038715.7173037-.2248367.8743807-.5672391.1570771-.3424024.1023925-.7447092-.1403807-1.0327609z" fill="#2980ba"/></g></g></svg>