<svg height="512" viewBox="0 0 56 58" width="512" xmlns="http://www.w3.org/2000/svg"><g id="Page-1" fill="none" fill-rule="evenodd"><g id="040---Fruit-Production" fill-rule="nonzero"><path id="Shape" d="m28 51h22v5c0 1.1045695-.8954305 2-2 2h-18c-1.1045695 0-2-.8954305-2-2z" fill="#2980ba"/><path id="Shape" d="m26 46v5c0 .5522847.4477153 1 1 1h24c.5522847 0 1-.4477153 1-1v-5z" fill="#3b97d3"/><path id="Rectangle-path" d="m9 7h4v29.35h-4z" fill="#7f8c8d"/><path id="Shape" d="m45 28c.0008681 1.0138247-.2354267 2.0137967-.69 2.92-.2986645.6195519-.6860733 1.1922432-1.15 1.7-2.1195666 2.2300075-5.0843864 3.4580824-8.16 3.38-3.0756136.0780824-6.0404334-1.1499925-8.16-3.38-.4639267-.5077568-.8513355-1.0804481-1.15-1.7-.9199292-1.8379848-.9199292-4.0020152 0-5.84.2986645-.6195519.6860733-1.1922432 1.15-1.7 2.1195666-2.2300075 5.0843864-3.4580824 8.16-3.38 3.0756136-.0780824 6.0404334 1.1499925 8.16 3.38.4639267.5077568.8513355 1.0804481 1.15 1.7.4545733.9062033.6908681 1.9061753.69 2.92z" fill="#26b99a"/><path id="Shape" d="m44.31 25.08c-.4422181.133784-.8465462.3702132-1.18.69-.8436745.8014449-1.9664105 1.2426478-3.13 1.23-1.1576672.0068525-2.2740474-.4296808-3.12-1.22-.4893339-.5064069-1.1658538-.7885917-1.87-.78-.7089754-.0032943-1.3897064.2776423-1.89.78-1.7661013 1.6297739-4.489123 1.6254171-6.25-.01-.3334538-.3197868-.7377819-.556216-1.18-.69.2986645-.6195519.6860733-1.1922432 1.15-1.7.4628257.2164508.8935575.4957535 1.28.83.4906301.5117293 1.1711095.7976754 1.88.79.7066256.0062859 1.3853704-.275321 1.88-.78 1.7696257-1.6267254 4.4903743-1.6267254 6.26 0 .49403.5007507 1.168669.7818099 1.8720987.7799291.7034298-.0018809 1.3765561-.2865437 1.8679013-.7899291.3864425-.3342465.8171743-.6135492 1.28-.83.4639267.5077568.8513355 1.0804481 1.15 1.7z" fill="#35495e"/><path id="Shape" d="m44.31 30.92c-.2986645.6195519-.6860733 1.1922432-1.15 1.7-.4628257-.2164508-.8935575-.4957535-1.28-.83-.4913452-.5033854-1.1644715-.7880482-1.8679013-.7899291-.7034297-.0018808-1.3780687.2791784-1.8720987.7799291-1.7696257 1.6267254-4.4903743 1.6267254-6.26 0-.4946296-.504679-1.1733744-.7862859-1.88-.78-.7088905-.0076754-1.3893699.2782707-1.88.79-.3864425.3342465-.8171743.6135492-1.28.83-.4639267-.5077568-.8513355-1.0804481-1.15-1.7.4422181-.133784.8465462-.3702132 1.18-.69 1.760877-1.6354171 4.4838987-1.6397739 6.25-.01.5002936.5023577 1.1810246.7832943 1.89.78.7041462.0085917 1.3806661-.2735931 1.87-.78.8459526-.7903192 1.9623328-1.2268525 3.12-1.22 1.1635895-.0126478 2.2863255.4285551 3.13 1.23.3334538.3197868.7377819.556216 1.18.69z" fill="#35495e"/><path id="Shape" d="m25 35c-.5522847 0-1-.4477153-1-1v-14c.0023461-.9437165.4464344-1.8318932 1.2-2.4l5.76-4.32c.4418278-.3313708 1.0686292-.2418278 1.4.2s.2418278 1.0686292-.2 1.4l-5.76 4.32c-.2510659.189471-.3990627.4854647-.4.8v14c0 .5522847-.4477153 1-1 1z" fill="#7f8c8d"/><path id="Shape" d="m45 35c-.5522847 0-1-.4477153-1-1v-14c-.0010922-.3144985-.1490565-.6104272-.4-.8l-5.759-4.32c-.4418278-.3313708-.5313708-.9581722-.2-1.4s.9581722-.5313708 1.4-.2l5.759 4.32c.7533202.568311 1.1973433 1.4563572 1.2 2.4v14c0 .5522847-.4477153 1-1 1z" fill="#7f8c8d"/><path id="Shape" d="m39.6 12.533-2 2.667c-.3777088.5036117-.9704854.8-1.6.8h-2c-.6295146 0-1.2222912-.2963883-1.6-.8l-2-2.667c-.2596443-.3461923-.4-.7672596-.4-1.2v-4.333h10v4.333c0 .4327404-.1403557.8538077-.4 1.2z" fill="#95a5a5"/><path id="Shape" d="m11 36c3.3137085 0 6 2.6862915 6 6v11h-12v-11c0-3.3137085 2.6862915-6 6-6z" fill="#3b97d3"/><circle id="Oval" cx="11" cy="42" fill="#2980ba" r="2"/><path id="Rectangle-path" d="m14 2h13.89v4h-13.89z" fill="#7f8c8d"/><path id="Shape" d="m42 2h13c.5522847 0 1 .44771525 1 1v2c0 .55228475-.4477153 1-1 1h-13z" fill="#7f8c8d"/><rect id="Rectangle-path" fill="#bdc3c7" height="8" rx="1" width="16.107" x="26.893"/><path id="Rectangle-path" d="m26 40h26v8h-26z" fill="#35495e"/><circle id="Oval" cx="26" cy="44" fill="#7f8c8d" r="4"/><circle id="Oval" cx="39" cy="44" fill="#7f8c8d" r="4"/><circle id="Oval" cx="52" cy="44" fill="#7f8c8d" r="4"/><g fill="#95a5a5"><circle id="Oval" cx="26" cy="44" r="1"/><circle id="Oval" cx="39" cy="44" r="1"/><circle id="Oval" cx="52" cy="44" r="1"/><rect id="Rectangle-path" height="8" rx="1" width="8" x="7"/></g><circle id="Oval" cx="11" cy="4" fill="#7f8c8d" r="1"/><path id="Shape" d="m4 52h14c2.209139 0 4 1.790861 4 4v1c0 .5522847-.4477153 1-1 1h-20c-.55228475 0-1-.4477153-1-1v-1c0-2.209139 1.790861-4 4-4z" fill="#67b9cc"/></g></g></svg>