<svg height="512" viewBox="0 0 58 58" width="512" xmlns="http://www.w3.org/2000/svg"><g id="Page-1" fill="none" fill-rule="evenodd"><g id="041---Fruit-Crate" fill-rule="nonzero"><path id="Rectangle-path" d="m26 41h6v6h-6z" fill="#a56a43"/><path id="Shape" d="m26 53h6v4c0 .5522847-.4477153 1-1 1h-4c-.5522847 0-1-.4477153-1-1z" fill="#a56a43"/><path id="Shape" d="m49 7c-1.0665199-.02520504-2.1146261.28084199-3 .876v-1.876c0-.55228475-.4477153-1-1-1s-1 .44771525-1 1v7c0 .5522847.4477153 1 1 1s1-.4477153 1-1v-1.874c.3579519-1.33836103 1.618641-2.23176935 3-2.126.5522847 0 1-.44771525 1-1s-.4477153-1-1-1z" fill="#24ae5f"/><path id="Shape" d="m15.974 22c-6.5-6.807-1.689-14 4.316-14 .8991056.00365111 1.678486-.62152033 1.87-1.5.67203-3.06667896 3.3036266-5.31085132 6.4379517-5.49015521 3.1343252-.17930389 6.0046788 1.75012095 7.0220483 4.72015521.3226121.92057962.9696458 1.69204287 1.82 2.17 4.22 2.38 5.732 9.078-1.4 14.155l-10.04 1.945z" fill="#26b99a"/><path id="Shape" d="m21 13.957c-.5267519-.0027045-.961088-.4135659-.993026-.9393556s.3494743-.9862021.872026-1.0526444c2.0734853-.2480691 3.7631988-1.7805253 4.212-3.82.3834141-1.75783737 1.8932578-3.04338501 3.6897407-3.1416083 1.7964829-.09822328 3.437483 1.01505096 4.0102593 2.7206083.3828198 1.09220622 1.0304763 2.07245235 1.885 2.853.2716023.2388288.3930804.6057001.3176845.9594267-.0753959.3537265-.3359146.6391762-.6812977.7464961-.3453831.1073198-.7217988.019783-.9843868-.2289228-1.1021905-1.0069595-1.9365771-2.27228551-2.428-3.682-.2650652-.82368615-1.0347471-1.37947756-1.9-1.372-.9379022.00346038-1.7491353.65418883-1.956 1.569-.6285999 2.8704722-3.0045484 5.0289665-5.922 5.38-.0404271.0055409-.0811955.0082143-.122.008z" fill="#14a085"/><path id="Shape" d="m22.991 18.957c-.5265727-.0032079-.960434-.4142199-.9920985-.9398495-.0316644-.5256296.3497189-.9857527.8720985-1.0521505 1.3511234-.174014 2.4504644-1.1719633 2.754-2.5.3007627-1.3786333 1.4847309-2.386971 2.8936632-2.4644156 1.4089324-.0774447 2.6962842.7950523 3.1463368 2.1324156.1577086.4534495.3851022.8795596.674 1.263.2143594.2858125.2599564.6642734.1196152.9928203-.1403411.3285469-.4452994.5572656-.8.6-.3547005.0427344-.7052558-.1070078-.9196152-.3928203-.4144717-.5521016-.7410028-1.165022-.968-1.817-.1515917-.4669728-.5880477-.7820786-1.079-.779-.5335599.0019247-.9949367.3724368-1.112.893-.4748409 2.1640505-2.26636 3.7910997-4.466 4.056-.0407576.0055882-.0818619.0082616-.123.008z" fill="#14a085"/><path id="Shape" d="m35.189 22c-.1262634-.6591672-.1895483-1.3288491-.189-2 0-4.42 2.69-8 6-8 .760751.0021648 1.5095769.1891997 2.182.545 1.1372506.6019841 2.4987494.6019841 3.636 0 .6724231-.3558003 1.421249-.5428352 2.182-.545 3.31 0 6 3.58 6 8 .0005483.6711509-.0627366 1.3408328-.189 2l-9.811 2z" fill="#e64c3c"/><path id="Shape" d="m40.622 24.885c-.1705058-.0001229-.3381484-.0438408-.487-.127-1.028-.574-2.135-2.309-2.135-4.758-.0343269-1.4082101.3911503-2.7892556 1.212-3.934.2204329-.2813467.5742179-.4237221.9280877-.373495s.6540631.2854262.7875.617.0798452.7091483-.1405877.990495c-.5506422.7896695-.8271035 1.738139-.787 2.7-.0977232 1.1194902.3097254 2.2241123 1.111 3.012.3976265.2221417.5949062.6849129.4798491 1.125612-.115057.4406991-.5133785.7479716-.9688491.747388z" fill="#fb7b76"/><path id="Shape" d="m52 5h2v1c0 1.65685425-1.3431458 3-3 3h-2v-1c0-1.65685425 1.3431458-3 3-3z" fill="#4fba6f"/><path id="Shape" d="m15.46 11.24c.4492536-.3245385.8528645-.7079688 1.2-1.14 1.2710451-1.76566972 1.6787874-4.01008904 1.11-6.11-.1875755-.50391375-.7373574-.77220728-1.25-.61-.9969664.2127233-1.9738727.51047899-2.92.89h-7.2c-.94612734-.37952101-1.92303363-.6772767-2.92-.89-.51264261-.16220728-1.06242445.10608625-1.25.61-.56878736 2.09991096-.16104506 4.34433028 1.11 6.11.34713551.4320312.75074636.8154615 1.2 1.14z" fill="#24ae5f"/><path id="Shape" d="m12.99 9.6c.6277866-.98524664.9768249-2.12221303 1.01-3.29-.0051719-.69897205-.1408306-1.39083138-.4-2.04-.6444027-1.5292079-1.6214026-2.89564129-2.86-4-.4276466-.36003034-1.05235341-.36003034-1.48 0-1.2385974 1.10435871-2.21559727 2.4707921-2.86 4-.25916941.64916862-.3948281 1.34102795-.4 2.04.03317506 1.16778697.38221338 2.30475336 1.01 3.29z" fill="#4fba6f"/><path id="Shape" d="m18 17.31c0 2.6-.711 5.551-2 12.69-.36 1.08-.98 2.56-1.64 4h-9.36l-2-10c-.5808329-2.185925-.91623644-4.4297747-1-6.69-.0836428-4.5031128 3.49696116-8.22246518 8-8.31 4.5030388.08753482 8.0836428 3.8068872 8 8.31z" fill="#f29c1f"/><path id="Shape" d="m9 14c0 .5522847-.44771525 1-1 1h-5.68c.19045179-.7008358.47290891-1.3733527.84-2h4.84c.55228475 0 1 .4477153 1 1z" fill="#e57e25"/><path id="Shape" d="m17.68 15h-5.68c-.5522847 0-1-.4477153-1-1s.4477153-1 1-1h4.84c.3670911.6266473.6495482 1.2991642.84 2z" fill="#e57e25"/><path id="Shape" d="m9 18c0 .5522847-.44771525 1-1 1h-5.91c-.06-.61-.09-1.17-.09-1.69 0-.1 0-.21.01-.31h5.99c.55228475 0 1 .4477153 1 1z" fill="#e57e25"/><path id="Shape" d="m18 17.31c0 .52-.03 1.08-.09 1.69h-5.91c-.5522847 0-1-.4477153-1-1s.4477153-1 1-1h5.99c.01.1.01.21.01.31z" fill="#e57e25"/><g fill="#a56a43"><path id="Shape" d="m2 53h6v4c0 .5522847-.44771525 1-1 1h-4c-.55228475 0-1-.4477153-1-1z"/><path id="Rectangle-path" d="m2 41h6v6h-6z"/><path id="Shape" d="m51 53h6v4c0 .5522847-.4477153 1-1 1h-4c-.5522847 0-1-.4477153-1-1z"/><path id="Rectangle-path" d="m51 41h6v6h-6z"/></g><rect id="Rectangle-path" fill="#cb8252" height="8" rx="1" width="58" y="46"/><circle id="Oval" cx="4" cy="50" fill="#d1d4d1" r="1"/><circle id="Oval" cx="54" cy="50" fill="#d1d4d1" r="1"/><path id="Rectangle-path" d="m2 29h6v6h-6z" fill="#a56a43"/><path id="Rectangle-path" d="m51 29h6v6h-6z" fill="#a56a43"/><path id="Rectangle-path" d="m26 29h6v6h-6z" fill="#a56a43"/><rect id="Rectangle-path" fill="#cb8252" height="8" rx="1" width="58" y="34"/><circle id="Oval" cx="4" cy="38" fill="#d1d4d1" r="1"/><circle id="Oval" cx="54" cy="38" fill="#d1d4d1" r="1"/><rect id="Rectangle-path" fill="#cb8252" height="8" rx="1" width="58" y="22"/><circle id="Oval" cx="4" cy="26" fill="#d1d4d1" r="1"/><circle id="Oval" cx="54" cy="26" fill="#d1d4d1" r="1"/></g></g></svg>