<svg height="512" viewBox="0 0 58 58" width="512" xmlns="http://www.w3.org/2000/svg"><g id="Page-1" fill="none" fill-rule="evenodd"><g id="042---Planting-Seeds" fill-rule="nonzero"><path id="Shape" d="m35.43 2h16.97c1.4359403 0 2.6 1.16405965 2.6 2.6v.01c-.0003509 1.35039817-1.0344447 2.47573558-2.38 2.59l-7.726.66z" fill="#f09372"/><path id="Shape" d="m42.7 6 13.06 1.82c.6830319.09241192 1.3007996.45397868 1.7158535 1.00425381.415054.55027513.5929641 1.24361159.4941465 1.92574619v.01c-.1850588 1.33685-1.3622106 2.3098463-2.71 2.24l-7.237-.406z" fill="#f9c795"/><path id="Shape" d="m56.45 21.07c-.8280195 1.1056361-2.3491951 1.4227262-3.55.74 0 0-10.88-6.15-15.67-8.86-1.2571091-.7032879-2.794385-.6804004-4.03.06-.267.148-.5.341-2.4 1.7-1.0708887.76615-1.5170207 2.1410476-1.1 3.39l1.58 4.74c.4062505 1.2235654-.1339697 2.5612598-1.2759747 3.1595712-1.142005.5983113-2.5493257.280959-3.3240253-.7495712l-3.48-4.65c-.7554175-1.0072234-1.9409708-1.6-3.2-1.6 0 0-5 0-8-2l-2-15h25.43c1.6605458.0002646 3.2666343.59235463 4.53 1.67l16.07 13.66c1.1080232.9388954 1.2921756 2.5787293.42 3.74z" fill="#fdd7ad"/><path id="Shape" d="m36.76 12.73c-1.1647867-.470939-2.4831605-.3672466-3.56.28l-.55-.31c-.6007728-.3404739-1.2794565-.5196188-1.97-.52h-.68c-.5522847 0-1-.4477153-1-1s.4477153-1 1-1h.68c1.0374804-.0000642 2.0572798.2686667 2.96.78z" fill="#f9c795"/><rect id="Rectangle-path" fill="#2fa8cc" height="20" rx="2" width="12"/><circle id="Oval" cx="6" cy="6" fill="#ecf0f1" r="2"/><path id="Shape" d="m43 25.581c.1080282 1.7699411-1.2310345 3.2960262-3 3.419-1.7689655-.1229738-3.1080282-1.6490589-3-3.419 0-1.855 1.57-4.157 2.438-5.288.1280886-.1838066.3379653-.2933611.562-.2933611s.4339114.1095545.562.2933611c.868 1.131 2.438 3.433 2.438 5.288z" fill="#f0c419"/><path id="Shape" d="m37 36.581c.1080282 1.7699411-1.2310345 3.2960262-3 3.419-1.7689655-.1229738-3.1080282-1.6490589-3-3.419 0-1.855 1.57-4.157 2.438-5.288.1280886-.1838066.3379653-.2933611.562-.2933611s.4339114.1095545.562.2933611c.868 1.131 2.438 3.433 2.438 5.288z" fill="#f0c419"/><path id="Shape" d="m47 39.581c.1538563 1.1660988-.3819486 2.3157037-1.3738901 2.947772s-2.2602783.6320683-3.2522198 0-1.5277464-1.7816732-1.3738901-2.947772c0-1.855 1.57-4.157 2.438-5.288.1280886-.1838066.3379653-.2933611.562-.2933611s.4339114.1095545.562.2933611c.868 1.131 2.438 3.433 2.438 5.288z" fill="#f0c419"/><path id="Shape" d="m58 50.933v6.067c0 .5522847-.4477153 1-1 1h-56c-.55228475 0-1-.4477153-1-1v-8c0-.5522847.44771525-1 1-1h25c3.2 0 3.2 2 6.4 2s3.21-2 6.41-2 3.2 2 6.4 2 3.2-2 6.39-2c2.871 0 3.166 1.61 5.508 1.941.5038321.0605678.8851076.4845872.892.992z" fill="#cb8252"/><g fill="#a56a43"><path id="Shape" d="m8 53h-4c-.55228475 0-1-.4477153-1-1s.44771525-1 1-1h4c.55228475 0 1 .4477153 1 1s-.44771525 1-1 1z"/><path id="Shape" d="m17 55h-5c-.5522847 0-1-.4477153-1-1s.4477153-1 1-1h5c.5522847 0 1 .4477153 1 1s-.4477153 1-1 1z"/><path id="Shape" d="m26 53h-5c-.5522847 0-1-.4477153-1-1s.4477153-1 1-1h5c.5522847 0 1 .4477153 1 1s-.4477153 1-1 1z"/><path id="Shape" d="m36 55h-5c-.5522847 0-1-.4477153-1-1s.4477153-1 1-1h5c.5522847 0 1 .4477153 1 1s-.4477153 1-1 1z"/><path id="Shape" d="m48 55h-5c-.5522847 0-1-.4477153-1-1s.4477153-1 1-1h5c.5522847 0 1 .4477153 1 1s-.4477153 1-1 1z"/></g></g></g></svg>