<svg height="512" viewBox="0 0 60 58" width="512" xmlns="http://www.w3.org/2000/svg"><g id="Page-1" fill="none" fill-rule="evenodd"><g id="043---Hay-Bales" fill-rule="nonzero" transform="translate(0 -1)"><path id="Shape" d="m46 21.67c-.1080955-.0002556-.2154534-.017811-.318-.052l-2.6-.872c-.3394023-.1136104-.5924126-.3996598-.6637242-.7503961-.0713116-.3507362.0499093-.7128742.318-.95s.6423219-.3132144.9817242-.1996039l2.6.872c.4711033.1513496.7606814.6244838.6811195 1.1128637s-.5043377.8451389-.9991195.8391363z" fill="#f0c419"/><path id="Shape" d="m37.76 5.359c-.3683723-.00055842-.7066083-.20359536-.8803181-.52843895s-.1547608-.71888492.0493181-1.02556105l1.571-2.36c.306518-.45977705.9277229-.58401804 1.3875-.2775s.584018.92772295.2775 1.3875l-1.572 2.359c-.1857211.2783647-.4983673.44538456-.833.445z" fill="#f0c419"/><path id="Shape" d="m15.5 17h-2.5c-.5522847 0-1-.4477153-1-1s.4477153-1 1-1h2.5c.5522847 0 1 .4477153 1 1s-.4477153 1-1 1z" fill="#f0c419"/><path id="Shape" d="m25.93 30.43c2.6601175.7599794 5.4798825.7599794 8.14 0h.01l6.59-3.91.01-.01c2.7759679-2.7923635 4.3297813-6.5725902 4.32-10.51 0-8.28427125-6.7157288-15-15-15s-15 6.71572875-15 15c-.0097813 3.9374098 1.5440321 7.7176365 4.32 10.51z" fill="#f3d55b"/><path id="Shape" d="m21.521 24c-.2981108.0002872-.5808054-.1324436-.771-.362-3.3709081-4.0788997-3.6721998-9.8843404-.741639-14.29027476 2.9305608-4.40593439 8.4011618-6.37226148 13.4660565-4.84017598 5.0648947 1.53208549 8.5284224 6.20090694 8.5255825 11.49245074 0 .5522847-.4477153 1-1 1s-1-.4477153-1-1c.0038665-4.410102-2.881705-8.30207465-7.1026456-9.57983627-4.2209407-1.27776161-8.7805913.36039611-11.2232819 4.03221817-2.4426906 3.671822-2.191647 8.5103085.6179275 11.9096181.2473392.2985265.2998485.713113.1347452 1.0638773-.1651034.3507643-.5180667.5744964-.9057452.5741227z" fill="#f0c419"/><path id="Shape" d="m30 27c-.7318981-.0002572-1.4622506-.0672006-2.182-.2-.543172-.1005158-.9020158-.622328-.8015-1.1655.1005159-.543172.622328-.9020158 1.1655-.8015.5996624.110823 1.2081831.1667212 1.818.167 3.3137084-.0000001 5.9999999-2.6862916 5.9999999-6s-2.6862915-5.9999999-5.9999999-6c-2.209139 0-4 1.790861-4 4s1.790861 4 4 4c.5522847 0 1 .4477153 1 1s-.4477153 1-1 1c-3.3137085 0-6-2.6862915-6-6s2.6862915-6 6-6c4.418278 0 8 3.581722 8 8s-3.581722 8-8 8z" fill="#f0c419"/><g fill="#f29c1f"><path id="Shape" d="m49.9 29.226c-.3469322.0015523-.6698794-.176825-.8532967-.4713117-.1834174-.2944868-.2010931-.6629985-.0467033-.9736883l1.1-2.225c.1571307-.3226931.4751467-.5364279.8332854-.5600413.3581386-.0236134.7014642.1465168.8996032.4457856s.2206983.6817708.0591114 1.0022557l-1.1 2.226c-.1681026.339252-.5133867.5544739-.892.556z"/><path id="Shape" d="m55.777 34.145c-.4413038.0007631-.8309339-.2878403-.9588195-.7102085s.0362123-.8786307.4038195-1.1227915l2.654-1.765c.2976022-.1979251.6781899-.2220466.9983992-.0632781s.5313929.4763064.554.833c.0226071.3566937-.146797.698353-.4443992.8962781l-2.654 1.765c-.1638911.1088554-.3562519.1669463-.553.167z"/><path id="Shape" d="m10.009 29.033c-.38127275.0017022-.73033574-.2135533-.9-.555l-1.009-2.034c-.24521443-.4970563-.04105627-1.0987856.456-1.344s1.09878557-.0410563 1.344.456l1 2.033c.1535161.309807.1361016.6769363-.04605.9708211-.1821517.2938849-.5031937.472824-.84895.4731789z"/><path id="Shape" d="m4.068 34.041c-.19674808-.0000537-.38910885-.0581446-.553-.167l-2.5-1.661c-.29760224-.1979251-.46700625-.5395844-.44439917-.8962781.02260707-.3566936.23379068-.6742315.554-.833s.70079693-.134647.99839917.0632781l2.5 1.661c.36760724.2441608.53170513.7004233.40381951 1.1227915-.12788561.4223682-.51751575.7109716-.95881951.7102085z"/><path id="Shape" d="m32 52c-.4251537.0003069-.8040208-.2682439-.9445307-.6695078s-.0119397-.8475031.3205307-1.1124922l2.209-1.761c.2793817-.2229337.6564747-.2798846.9892319-.1493999.3327571.1304848.5706245.4285815.624.782.0533754.3534186-.0858502.7084662-.3652319.9313999l-2.209 1.761c-.1772772.1412956-.3973028.2181635-.624.218z"/></g><circle id="Oval" cx="15.5" cy="40.5" fill="#f0c419" r="14.5"/><path id="Shape" d="m15.5 52c-4.6513158 0-8.84463312-2.801885-10.62461462-7.0991405-1.77998151-4.2972555-.79609032-9.2436105 2.49288664-12.5325875 3.28897698-3.2889769 8.23533198-4.2728681 12.53258748-2.4928866s7.0991405 5.9732988 7.0991405 10.6246146c0 .5522847-.4477153 1-1 1s-1-.4477153-1-1c0-3.8423913-2.3146007-7.3064361-5.8645074-8.7768556s-7.6360261-.6576398-10.35300702 2.0593412c-2.71698096 2.7169809-3.52976064 6.8031003-2.05934114 10.353007s4.93446426 5.8645074 8.77685556 5.8645074c3.0375661 0 5.5-2.4624339 5.5-5.5s-2.4624339-5.5-5.5-5.5c-1.9329966 0-3.5 1.5670034-3.5 3.5s1.5670034 3.5 3.5 3.5c.5522847 0 1 .4477153 1 1s-.4477153 1-1 1c-3.0375661 0-5.5-2.4624339-5.5-5.5s2.4624339-5.5 5.5-5.5c4.1421356 0 7.5 3.3578644 7.5 7.5s-3.3578644 7.5-7.5 7.5z" fill="#f29c1f"/><circle id="Oval" cx="44.5" cy="40.5" fill="#f0c419" r="14.5"/><path id="Shape" d="m44.5 52c-6.3512746 0-11.5-5.1487254-11.5-11.5s5.1487254-11.5 11.5-11.5 11.5 5.1487254 11.5 11.5c0 .5522847-.4477153 1-1 1s-1-.4477153-1-1c0-5.2467051-4.2532949-9.5-9.5-9.5s-9.5 4.2532949-9.5 9.5 4.2532949 9.5 9.5 9.5c3.0375661 0 5.5-2.4624339 5.5-5.5s-2.4624339-5.5-5.5-5.5c-1.9329966 0-3.5 1.5670034-3.5 3.5s1.5670034 3.5 3.5 3.5c.5522847 0 1 .4477153 1 1s-.4477153 1-1 1c-3.0375661 0-5.5-2.4624339-5.5-5.5s2.4624339-5.5 5.5-5.5c4.1421355.0000001 7.4999998 3.3578645 7.4999998 7.5s-3.3578643 7.4999999-7.4999998 7.5z" fill="#f29c1f"/><rect id="Rectangle-path" fill="#4fba6f" height="4" rx="1" width="58" x="1" y="55"/></g></g></svg>