<svg height="512" viewBox="0 0 59 58" width="512" xmlns="http://www.w3.org/2000/svg"><g id="Page-1" fill="none" fill-rule="evenodd"><g id="044---Farm-Review" fill-rule="nonzero"><path id="Shape" d="m13 9h-6c-.55228475 0-1-.44771525-1-1s.44771525-1 1-1h6c.5522847 0 1 .44771525 1 1s-.4477153 1-1 1z" fill="#7f8c8d"/><path id="Shape" d="m12 14h-5c-.55228475 0-1-.4477153-1-1s.44771525-1 1-1h5c.5522847 0 1 .4477153 1 1s-.4477153 1-1 1z" fill="#7f8c8d"/><path id="Shape" d="m12 19h-5c-.55228475 0-1-.4477153-1-1s.44771525-1 1-1h5c.5522847 0 1 .4477153 1 1s-.4477153 1-1 1z" fill="#7f8c8d"/><path id="Shape" d="m12 24h-5c-.55228475 0-1-.4477153-1-1s.44771525-1 1-1h5c.5522847 0 1 .4477153 1 1s-.4477153 1-1 1z" fill="#7f8c8d"/><path id="Shape" d="m12 29h-5c-.55228475 0-1-.4477153-1-1s.44771525-1 1-1h5c.5522847 0 1 .4477153 1 1s-.4477153 1-1 1z" fill="#7f8c8d"/><path id="Shape" d="m12 35v-27c0-4.418278 3.581722-8 8-8s8 3.581722 8 8v27z" fill="#f0c419"/><path id="Shape" d="m16 31c-.5522847 0-1-.4477153-1-1v-22c0-.55228475.4477153-1 1-1s1 .44771525 1 1v22c0 .5522847-.4477153 1-1 1z" fill="#f29c1f"/><path id="Shape" d="m21 31c-.5522847 0-1-.4477153-1-1v-9c0-.5522847.4477153-1 1-1s1 .4477153 1 1v9c0 .5522847-.4477153 1-1 1z" fill="#f29c1f"/><path id="Shape" d="m21 15c-.5522847 0-1-.4477153-1-1v-6c0-.55228475.4477153-1 1-1s1 .44771525 1 1v6c0 .5522847-.4477153 1-1 1z" fill="#f29c1f"/><path id="Shape" d="m28 8h-16c0-4.418278 3.581722-8 8-8s8 3.581722 8 8z" fill="#95a5a5"/><path id="Shape" d="m8 35c-.55228475 0-1-.4477153-1-1v-28c0-.55228475.44771525-1 1-1s1 .44771525 1 1v28c0 .5522847-.44771525 1-1 1z" fill="#95a5a5"/><path id="Shape" d="m56 14.08v20.92h-14.27l-15.73-1v-19.92l.05-.08 2.18-3.18 1.25-1.82 1.28-1.86c.1596755-.23459627.367656-.43234819.61-.58l8.6-5.27c.6313068-.38994253 1.4286932-.38994253 2.06 0l8.6 5.27c.242344.14765181.4503245.34540373.61.58l1.28 1.86 1.25 1.82 2.18 3.18z" fill="#cc4b4c"/><path id="Shape" d="m47 10.33v4.67c0 .5522847-.4477153 1-1 1h-10c-.5522847 0-1-.4477153-1-1v-4.67c.0031474-.33415425.1716936-.64502837.45-.83l5-3.33c.3305929-.23001792.7694071-.23001792 1.1 0l5 3.33c.2783064.18497163.4468526.49584575.45.83z" fill="#2fa8cc"/><path id="Shape" d="m47 11v2h-5v3h-2v-3h-5v-2h5v-4.53l.45-.3c.3305929-.23001792.7694071-.23001792 1.1 0l.45.3v4.53z" fill="#9fc9d3"/><g fill="#802f34"><path id="Shape" d="m52 21h-22c-.5522847 0-1-.4477153-1-1s.4477153-1 1-1h22c.5522847 0 1 .4477153 1 1s-.4477153 1-1 1z"/><path id="Shape" d="m34 25c0 .5522847-.4477153 1-1 1h-7v-2h7c.5522847 0 1 .4477153 1 1z"/><path id="Shape" d="m32 15c0 .5522847-.4477153 1-1 1h-5v-1.92l.05-.08h4.95c.5522847 0 1 .4477153 1 1z"/><path id="Shape" d="m32 10c0 .5522847-.4477153 1-1 1h-2.2c-.2037606-.0014248-.4023752-.0641452-.57-.18l1.25-1.82h1.52c.5522847 0 1 .44771525 1 1z"/><path id="Shape" d="m56 14.08v1.92h-5c-.5522847 0-1-.4477153-1-1s.4477153-1 1-1h4.95z"/><path id="Shape" d="m53.77 10.82c-.1676248.1158548-.3662394.1785752-.57.18h-2.2c-.5522847 0-1-.4477153-1-1 0-.55228475.4477153-1 1-1h1.52z"/><path id="Shape" d="m34 30c0 .5522847-.4477153 1-1 1h-7v-2h7c.5522847 0 1 .4477153 1 1z"/><path id="Shape" d="m56 24v2h-7c-.5522847 0-1-.4477153-1-1s.4477153-1 1-1z"/><path id="Shape" d="m56 29v2h-7c-.5522847 0-1-.4477153-1-1s.4477153-1 1-1z"/><path id="Shape" d="m58 18c-.330274.0003002-.6393952-.1624937-.826-.435l-6.755-9.855c-.0804049-.11832603-.1850526-.21820146-.307-.293l-8.606-5.273c-.3103887-.19194648-.7026113-.19194648-1.013 0l-8.605 5.273c-.1216799.07472496-.2262784.17421272-.307.292l-6.756 9.856c-.1998645.2996447-.5454291.4686553-.9046593.4424559s-.6766158-.2435605-.8308892-.5690332-.1215953-.7087632.0855485-1.0034227l6.756-9.856c.2392897-.35022335.5501266-.64572282.912-.867l8.606-5.274c.9507818-.58413423 2.1492182-.58413423 3.1 0l8.606 5.274c.3622362.22122629.6731465.51713652.912.868l6.756 9.855c.2094191.3058209.2325057.7023899.0599882 1.0304456-.1725174.3280557-.5123371.53378-.8829882.5345544z"/><path id="Shape" d="m50 35v-10c0-.5522847-.4477153-1-1-1h-16c-.5522847 0-1 .4477153-1 1v10z"/></g><path id="Rectangle-path" d="m36 24h10v11h-10z" fill="#fb7b76"/><circle id="Oval" cx="40" cy="29" fill="#3f5c6c" r="1"/><path id="Shape" d="m58 35.978h-18c-.5522847 0-1-.4477153-1-1s.4477153-1 1-1h18c.5522847 0 1 .4477153 1 1s-.4477153 1-1 1z" fill="#4fba6f"/><path id="Shape" d="m42 36v14c-.0021685 1.1052968-.8947277 2.0023188-2 2.01h-13l-4.58 5.34c-.3554516.4143016-.8741139.6527057-1.42.6527057s-1.0645484-.2384041-1.42-.6527057l-4.58-5.34h-13c-1.10527227-.0076812-1.99783146-.9047032-2-2.01v-14c.0032948-1.1032019.89679813-1.9967052 2-2h38c1.1032019.0032948 1.9967052.8967981 2 2z" fill="#955ba5"/><path id="Shape" d="m21.481 39.312.945 2 2.114.321c.2064101.0382631.3747875.1874397.4376419.3877358s.0098984.4189288-.1376419.5682642l-1.529 1.557.361 2.2c.042105.2041699-.0368455.4143675-.20295.5403337-.1661045.1259661-.3898073.1452871-.57505.0496663l-1.894-1.036-1.891 1.037c-.1852427.0956208-.4089455.0762998-.57505-.0496663-.1661045-.1259662-.245055-.3361638-.20295-.5403337l.361-2.2-1.529-1.557c-.1475403-.1493354-.2004963-.3679681-.1376419-.5682642s.2312318-.3494727.4376419-.3877358l2.114-.321.945-2c.0854516-.1879131.2727487-.308633.4791785-.3088483.2064297-.0002152.3939782.1201138.4798215.3078483z" fill="#f0c419"/><path id="Shape" d="m33.481 39.312.945 2 2.114.321c.2064101.0382631.3747875.1874397.4376419.3877358s.0098984.4189288-.1376419.5682642l-1.529 1.557.361 2.2c.042105.2041699-.0368455.4143675-.20295.5403337-.1661045.1259661-.3898073.1452871-.57505.0496663l-1.894-1.036-1.891 1.037c-.1852427.0956208-.4089455.0762998-.57505-.0496663-.1661045-.1259662-.245055-.3361638-.20295-.5403337l.361-2.2-1.529-1.557c-.1475403-.1493354-.2004963-.3679681-.1376419-.5682642s.2312318-.3494727.4376419-.3877358l2.114-.321.945-2c.0854516-.1879131.2727487-.308633.4791785-.3088483.2064297-.0002152.3939782.1201138.4798215.3078483z" fill="#f0c419"/><path id="Shape" d="m9.481 39.312.945 2 2.114.321c.2064101.0382631.3747875.1874397.4376419.3877358s.0098984.4189288-.1376419.5682642l-1.529 1.557.361 2.2c.042105.2041699-.0368455.4143675-.20295.5403337-.1661045.1259661-.3898073.1452871-.57505.0496663l-1.894-1.036-1.891 1.034c-.18524268.0956208-.40894546.0762998-.57504998-.0496663-.16610451-.1259662-.24505501-.3361638-.20295002-.5403337l.361-2.2-1.529-1.555c-.1475403-.1493354-.20049635-.3679681-.13764192-.5682642.06285442-.2002961.23123179-.3494727.43764192-.3877358l2.114-.321.945-2c.08564759-.1878236.27307036-.3083479.4795-.3083479s.39385241.1205243.4795.3083479z" fill="#f0c419"/><path id="Shape" d="m25.29 54h-2.29c-.553442-.006562-.9989451-.4565201-1-1.01.0010575-.2639741.1070737-.5166863.2946687-.7024054.187595-.185719.4413599-.2891901.7053313-.2875946h4c.03 0-1.71 2-1.71 2z" fill="#894b9d"/><path id="Shape" d="m20 53c0 .5522847-.4477153 1-1 1h-2.29l-1.71-1.99 4-.01c.5522847 0 1 .4477153 1 1z" fill="#894b9d"/></g></g></svg>