<svg height="512" viewBox="0 0 58 59" width="512" xmlns="http://www.w3.org/2000/svg"><g id="Page-1" fill="none" fill-rule="evenodd"><g id="046---Give-Crops" fill-rule="nonzero"><path id="Shape" d="m34 39c-.5522847 0-1-.4477153-1-1v-37c0-.55228475.4477153-1 1-1s1 .44771525 1 1v37c0 .5522847-.4477153 1-1 1z" fill="#24ae5f"/><path id="Shape" d="m18.534 50.957c-9.534-7.142-5.052-15.957 1.466-15.957.9009457.003018 1.7932281.1760462 2.63.51 1.4394018-1.7239328 3.6193793-2.6513831 5.8596275-2.4929217s4.2679692 1.3835385 5.4503725 3.2929217c2.9718538-2.1339992 7.0873243-1.6102914 9.43 1.2.8367719-.3339538 1.7290543-.506982 2.63-.51 1.8557606-.0059225 3.6368156.7305761 4.9464108 2.0454308 1.3095953 1.3148547 2.0389495 3.0988472 2.0255892 4.9545692z" fill="#cb8252"/><path id="Shape" d="m37 42c-.3252328-.0001641-.6300701-.1584822-.8172592-.4244459-.1871891-.2659636-.2333443-.6063459-.1237408-.9125541.2706403-.743599.856401-1.3293597 1.6-1.6.339676-.1374812.7273424-.078164 1.0103671.1545973.2830248.2327613.4160717.6016818.3467574.96151s-.3298867.6529252-.6791245.7638927c-.1845162.0698167-.3301833.2154838-.4.4-.1437712.3937335-.5178398.6560207-.937.657z" fill="#a56a43"/><g fill="#4fba6f"><path id="Shape" d="m39 3h2c.5522847 0 1 .44771525 1 1 0 2.76142375-2.2385763 5-5 5h-3v-1c0-2.76142375 2.2385763-5 5-5z"/><path id="Shape" d="m26 3h3c2.7614237 0 5 2.23857625 5 5 0 .55228475-.4477153 1-1 1h-2c-2.7614237 0-5-2.23857625-5-5z" transform="matrix(-1 0 0 -1 60 12)"/><path id="Shape" d="m39 13h3c.5522847 0 1 .4477153 1 1 0 2.7614237-2.2385763 5-5 5h-4v-1c0-2.7614237 2.2385763-5 5-5z"/><path id="Shape" d="m25 13h4c2.7614237 0 5 2.2385763 5 5 0 .5522847-.4477153 1-1 1h-3c-2.7614237 0-5-2.2385763-5-5z" transform="matrix(-1 0 0 -1 59 32)"/><path id="Shape" d="m39 23h4c.5522847 0 1 .4477153 1 1 0 2.7614237-2.2385763 5-5 5h-5v-1c0-2.7614237 2.2385763-5 5-5z"/><path id="Shape" d="m24 23h5c2.7614237 0 5 2.2385763 5 5 0 .5522847-.4477153 1-1 1h-4c-2.7614237 0-5-2.2385763-5-5z" transform="matrix(-1 0 0 -1 58 52)"/></g><path id="Shape" d="m56.68 45.57-18.74 11.41c-1.0968305.667384-2.3560847 1.020252-3.64 1.02l-27.3.0000001v-22.0000001h4.8c2.0715011.0028959 4.0808416.7079276 5.7 2s3.6284989 1.9971041 5.7 2h5.23c3.117 0 5.219 2.779 4.84 5-.1123578.7580836-.4666159 1.4595847-1.01 2h2.35c.4319935.0002223.8610725-.0707278 1.27-.21l18.51-6.17c1.120338-.3678364 2.3505552.0181141 3.06.96v.01c.4649441.6171961.6465512 1.4025179.4997758 2.1611752s-.608183 1.4195768-1.2697758 1.8188248z" fill="#fdd7ad"/><path id="Shape" d="m33.27 45c-.1123578.7580836-.4666159 1.4595847-1.01 2h-5.8c-1.5797578-.0009418-3.1245213.4652706-4.44 1.34l-.72.49c-.1646841.1130289-.3602737.1724043-.56.17-.3321039-.0015914-.6422908-.1660278-.83-.44-.1488534-.2200282-.2040417-.4902421-.1533875-.7510177.0506543-.2607756.2029878-.4906795.4233875-.6389823l.73-.49c1.6447009-1.0932483 3.5751008-1.6775856 5.55-1.68z" fill="#f9c795"/><rect id="Rectangle-path" fill="#955ba5" height="25" rx="2" width="9" y="34"/></g></g></svg>