<svg height="512" viewBox="0 0 58 58" width="512" xmlns="http://www.w3.org/2000/svg"><g id="Page-1" fill="none" fill-rule="evenodd"><g id="047---Wheelbarrow" fill-rule="nonzero" transform="translate(0 -1)"><path id="Shape" d="m54 13-13.29 20.38-26.71-11.99v-10.39z" fill="#c03a2b"/><path id="Shape" d="m40.094 28c-.3667856-.0002879-.7039796-.2013516-.8786062-.5238998-.1746267-.3225482-.1586589-.7148126.0416062-1.0221002l5.869-9c.3101877-.439788.9127997-.5552145 1.3635468-.2611788.450747.2940357.5879501.8920656.3104532 1.3531788l-5.869 9c-.1844218.2829779-.4992311.4537347-.837.454z" fill="#e64c3c"/><path id="Shape" d="m52.929 9c-.2531156-1.84663895-1.2380907-3.51395546-2.7333125-4.62681425-1.4952218-1.11285878-3.3751048-1.57778949-5.2166875-1.29018575-2.4022532-2.43952808-6.2186199-2.77827139-9.013-.8-1.5204023-.44913844-3.148605-.36552327-4.615.237-1.5195969-1.20978695-3.4740573-1.73272945-5.3947526-1.44343954-1.9206953.28928992-3.6344127 1.36472339-4.7302474 2.96843954-2.7934844.31137391-5.1304454 2.2621222-5.936 4.955l18.71 2z" fill="#cb8252"/><path id="Shape" d="m16.9999979 22.73.0000021 13.27c-.0011638.7982573.4724631 1.520761 1.2049358 1.8380933.7324727.3173324 1.5834996.1687144 2.1650642-.3780933l9.74-8.84z" fill="#7f8c8d"/><circle id="Oval" cx="51" cy="38" fill="#547580" r="7"/><circle id="Oval" cx="51" cy="38" fill="#7f8c8d" r="3"/><path id="Shape" d="m49 38.1c-.1406758-.0003089-.2797037-.0302953-.408-.088l-40.054-17.982c-.33727952-.1387771-.57225795-.4501702-.61317724-.8125818s.11871078-.7183593.41655538-.9288472c.29784459-.2104879.68666244-.2421303 1.01462186-.082571l40.053 17.983c.4285.1939732.6639001.6603472.5654612 1.1202902-.0984389.4599431-.5041047.7891136-.9744612.7907098z" fill="#95a5a5"/><rect id="Rectangle-path" fill="#cb8252" height="14" rx="1" width="58" y="45"/><g fill="#a56a43"><path id="Shape" d="m26 49c0 .5522847-.4477153 1-1 1h-25v-2h25c.5522847 0 1 .4477153 1 1z"/><path id="Shape" d="m45 50h-16c-.5522847 0-1-.4477153-1-1s.4477153-1 1-1h16c.5522847 0 1 .4477153 1 1s-.4477153 1-1 1z"/><path id="Shape" d="m58 48v2h-9c-.5522847 0-1-.4477153-1-1s.4477153-1 1-1z"/><path id="Shape" d="m58 53v2h-25c-.5522847 0-1-.4477153-1-1s.4477153-1 1-1z"/><path id="Shape" d="m29 55h-16c-.5522847 0-1-.4477153-1-1s.4477153-1 1-1h16c.5522847 0 1 .4477153 1 1s-.4477153 1-1 1z"/><path id="Shape" d="m10 54c0 .5522847-.44771525 1-1 1h-9v-2h9c.55228475 0 1 .4477153 1 1z"/></g><path id="Shape" d="m8 20.7c-.28207134.0000892-.56092592-.0599088-.818-.176l-6-2.695c-.97988327-.4682969-1.40697657-1.6330012-.96211915-2.6237459.44485741-.9907448 1.59907357-1.4454203 2.60011915-1.0242541l6 2.694c.86112837.3860456 1.3352313 1.3214973 1.13741591 2.2442336-.19781537.9227363-1.01371443 1.5816386-1.95741591 1.5807664z" fill="#f0c419"/><rect id="Rectangle-path" fill="#e64c3c" height="4" rx="2" width="46" x="11" y="9"/></g></g></svg>