<svg height="512" viewBox="0 0 58 58" width="512" xmlns="http://www.w3.org/2000/svg"><g id="Page-1" fill="none" fill-rule="evenodd"><g id="048---Live-Produce-Data" fill-rule="nonzero" transform="translate(-1)"><path id="Shape" d="m59 2.18v43.64c.0452102 1.152631-.8477494 2.1259569-2 2.18h-54c-.84665694-.0218895-1.58773156-.5746911-1.85-1.38-.10057628-.2546561-.15149191-.5262061-.15-.8v-43.64c-.04521019-1.152631.84774936-2.12595691 2-2.18h54c1.1522506.05404309 2.0452102 1.027369 2 2.18z" fill="#84b5cb"/><path id="Shape" d="m49.93 0c-3.83 14.1-15.91 44.76-48.78 46.62-.10057628-.2546561-.15149191-.5262061-.15-.8v-43.64c-.04521019-1.152631.84774936-2.12595691 2-2.18z" fill="#9fc9d3"/><path id="Shape" d="m38 48 3 6-11 2-11-2 3-6 8-2z" fill="#2980ba"/><rect id="Rectangle-path" fill="#3b97d3" height="4" rx="2" width="34" x="13" y="54"/><path id="Shape" d="m13 29h-3.5c-2.48528137 0-4.5-2.0147186-4.5-4.5s2.01471863-4.5 4.5-4.5h.5c.5522847 0 1 .4477153 1 1s-.4477153 1-1 1h-.5c-1.38071187 0-2.5 1.1192881-2.5 2.5s1.11928813 2.5 2.5 2.5h3.5c.5522847 0 1 .4477153 1 1s-.4477153 1-1 1z" fill="#ff5364"/><path id="Shape" d="m23 21c-.2651948-.0000566-.5195073-.1054506-.707-.293l-7.5-7.5c-.3789722-.3923789-.3735524-1.0160848.0121814-1.4018186s1.0094397-.3911536 1.4018186-.0121814l7.5 7.5c.2859079.2859943.3714219.7160366.216678 1.0896546-.1547439.3736179-.5192821.6172591-.923678.6173454z" fill="#35495e"/><path id="Shape" d="m35.269 23.32c-.3975837-.0000843-.7573506-.2356889-.9163455-.6000972-.1589948-.3644083-.0870114-.7883896.1833455-1.0799028l9.655-10.391c.3783833-.3920347 1.0009696-.4090051 1.4001472-.038165s.4280149.9929896.0648528 1.399165l-9.656 10.39c-.1887087.2034771-.4534868.3193855-.731.32z" fill="#35495e"/><path id="Shape" d="m50.78 29.86-.57 2.31c-.1286974.498149-.6103759.8207016-1.12.75-.5307749-.0823047-1.0529376-.2128453-1.56-.39-.6555427.5346381-1.4254584.9110414-2.25 1.1-1.0728413.2640477-2.1752961.38841-3.28.37h-3.29c-.127892.2888493-.2854016.5636532-.47.82-.1518046.1829458-.2364891.4122996-.24.65v3.29c.0179097.8016233.3395984 1.5665275.9 2.14.1102735.1198889.1710187.2771118.17.44.0002659.1751243-.0691842.3431524-.1930159.4669841s-.2918598.1932818-.4669841.1930159h-1.96c-.9367813.005585-1.7498139-.6448411-1.95-1.56-.3087413-1.6458324-.4727015-3.3155489-.49-4.99-.0112331-.1619561-.0591038-.3192457-.14-.46-.6729273.2120407-1.3573648.3856541-2.05.52-1.5852741.330383-3.2006712.4946039-4.82.49-2.2143001.0425754-4.4155714-.3480823-6.48-1.15-.6-.23-1.21-.5-1.83-.8-.1161138.2750251-.267373.5338463-.45.77-.1518046.1829458-.2364891.4122996-.24.65v3.29c.0179097.8016233.3395984 1.5665275.9 2.14.1102735.1198889.1710187.2771118.17.44.0002659.1751243-.0691842.3431524-.1930159.4669841s-.2918598.1932818-.4669841.1930159h-1.96c-.9491612-.0036564-1.7663956-.6707865-1.96-1.6-.2667588-1.4660434-.4205443-2.9504072-.46-4.44-.0192341-.5922197-.1695052-1.1728125-.44-1.7-1.0579078-1.9158485-1.6054368-4.0715288-1.59-6.26 0-4.97 6.72-10 15-10 5.0331177.2592964 9.9169832 1.7977656 14.19 4.47l4.02 2.85c.27.22.53.45.79.68 1.2311945 1.1462669 2.6568152 2.0639468 4.21 2.71.4533581.1841613.6979802.6776971.57 1.15z" fill="#fb7b76"/><g fill="#ff5364"><path id="Shape" d="m47.53 32.53c-.6528694.5329111-1.4191298.9091996-2.24 1.1h-.01c-.3966185-.2576074-.7652804-.5558884-1.1-.89-.3877236-.3900375-.3877236-1.0199625 0-1.41.3930079-.3899779 1.0269921-.3899779 1.42 0 .5459896.5386753 1.2053634.9486487 1.93 1.2z"/><path id="Shape" d="m20.84 31.58v1.5c.0029587.6046471-.105519 1.204664-.32 1.77-.6-.23-1.21-.5-1.83-.8.102316-.3130489.1529789-.6406684.15-.97v-1.5c0-.5522847.4477153-1 1-1s1 .4477153 1 1z"/><path id="Shape" d="m35 24.814c-.1263171.0001816-.2515251-.0235706-.369-.07-2.4438133-.9977443-5.0350337-1.5869344-7.67-1.744-1.2517568-.002394-2.4988555.1524854-3.712.461-.3461904.0893164-.7137332-.0128422-.9641786-.2679936-.2504455-.2551515-.3457449-.6245322-.25-.9690001.0957449-.3444678.3679882-.6116899.7141786-.7010063 1.3825306-.3508074 2.8036605-.5265169 4.23-.523 2.8812673.1628903 5.7159576.7997665 8.39 1.885.4453915.1774269.7021904.645992.6121129 1.1168847-.0900774.4708928-.5016823.8115983-.9811129.8121153z"/><path id="Shape" d="m40.78 31.8v1.5c-.0013687.2341746-.0180711.4680083-.05.7h-2.02c-.01.02.07-.44.07-.7v-1.5c0-.5522847.4477153-1 1-1s1 .4477153 1 1z"/><path id="Shape" d="m33.87 34.99c-.6729273.2120407-1.3573648.3856541-2.05.52-.4674728-.7645125-.7132852-1.6438976-.71-2.54v-1.5c0-.5522847.4477153-1 1-1s1 .4477153 1 1v1.5c-.006229.6191123.1904608 1.2232309.56 1.72.0829911.0880985.1505979.1895088.2.3z"/><path id="Shape" d="m46.69 20.564c.0576379-.1216956.0476916-.2646318-.0262457-.3771716-.0739372-.1125399-.2011776-.1784154-.3357543-.1738284-4.419.187-5.328 2.171-5.328 3.487-.0000036.6978031.2916355 1.3638514.8044128 1.8371258.5127772.4732744 1.2000206.7106984 1.8955872.6548742 1.3034607-.1353814 2.2952609-1.2315362 2.3-2.542.0182631-1.0006201.2536922-1.9853282.69-2.886z"/></g><path id="Shape" d="m59 42v3.82c.0452102 1.152631-.8477494 2.1259569-2 2.18h-54c-1.15225064-.0540431-2.04521019-1.027369-2-2.18v-3.82z" fill="#3b97d3"/><rect id="Rectangle-path" fill="#3b97d3" height="12" rx="2" width="12" x="5" y="4"/><rect id="Rectangle-path" fill="#3b97d3" height="12" rx="2" width="12" x="43" y="4"/><path id="Shape" d="m13 9h-4c-.55228475 0-1-.44771525-1-1s.44771525-1 1-1h4c.5522847 0 1 .44771525 1 1s-.4477153 1-1 1z" fill="#ecf0f1"/><path id="Shape" d="m11 13h-2c-.55228475 0-1-.4477153-1-1s.44771525-1 1-1h2c.5522847 0 1 .4477153 1 1s-.4477153 1-1 1z" fill="#ecf0f1"/><path id="Shape" d="m51 9h-4c-.5522847 0-1-.44771525-1-1s.4477153-1 1-1h4c.5522847 0 1 .44771525 1 1s-.4477153 1-1 1z" fill="#ecf0f1"/><path id="Shape" d="m49 13h-2c-.5522847 0-1-.4477153-1-1s.4477153-1 1-1h2c.5522847 0 1 .4477153 1 1s-.4477153 1-1 1z" fill="#ecf0f1"/></g></g></svg>