<svg height="512" viewBox="0 0 60 31" width="512" xmlns="http://www.w3.org/2000/svg"><g id="Page-1" fill="none" fill-rule="evenodd"><g id="049---Harvester" fill-rule="nonzero"><path id="Shape" d="m47.95 26.29 1.35 2.6c.3701514.687296 1.0893784 1.1142169 1.87 1.11h3.66c.7806216.0042169 1.4998486-.422704 1.87-1.11l2.08-4c.289944-.5579116.289944-1.2220884 0-1.78l-2.08-4c-.3701514-.687296-1.0893784-1.1142169-1.87-1.11h-3.66c-.7806216-.0042169-1.4998486.422704-1.87 1.11l-1.13 2.18z" fill="#95a5a5"/><path id="Shape" d="m7 18-3.79 4.55c-.21948139.2620036-.26804808.6271402-.12468401.9374057s.45290797.5099304.79468401.5125943h42.12l-.21-2.82-4.06-6.09z" fill="#35495e"/><circle id="Oval" cx="36" cy="24" fill="#2c3e50" r="6"/><circle id="Oval" cx="11" cy="26" fill="#2c3e50" r="4"/><path id="Shape" d="m42 14-.621 2.485c-.2225301.8902592-1.0223502 1.5148611-1.94 1.515h-32.439v-5c.0032948-1.1032019.89679813-1.9967052 2-2h4z" fill="#c03a2b"/><path id="Shape" d="m37 14h-23c-.5522847 0-1-.4477153-1-1v-6l24-1z" fill="#e64c3c"/><path id="Shape" d="m37 3v4h-31l-2-4z" fill="#f0c419"/><rect id="Rectangle-path" fill="#2c3e50" height="4" rx="2" transform="matrix(-1 0 0 -1 44 48)" width="8" x="18" y="22"/><circle id="Oval" cx="11" cy="26" fill="#547580" r="1"/><circle id="Oval" cx="36" cy="24" fill="#547580" r="2"/><path id="Shape" d="m47 4-1.678 8.392c-.1869347.93525-1.0082511 1.6083778-1.962 1.608l-7.36.0000002v-10.0000002z" fill="#2fa8cc"/><path id="Shape" d="m38 0h13v2c0 1.1045695-.8954305 2-2 2h-11c-1.1045695 0-2-.8954305-2-2s.8954305-2 2-2z" fill="#e64c3c" transform="matrix(-1 0 0 -1 87 4)"/><path id="Shape" d="m6 7-3.01 1.81c-.40671119.2417871-.91186771.24681977-1.32331535.01318367-.41144765-.2336361-.66594488-.67002995-.66668465-1.14318367v-3.68c0-.55228475.44771525-1 1-1h4z" fill="#f29c1f"/><path id="Shape" d="m45.092 26.635 6.993-.851c1.1202718-.1360122 1.9490855-1.1083245 1.906-2.236v-.007c-.043034-1.1274544-.9428857-2.0338267-2.07-2.085l-7.038-.318c-.7711209-.0349575-1.5216432.2546069-2.0694595.7984328-.5478163.543826-.8428597 1.2922114-.8135405 2.0635672.0289881.7714973.3799021 1.4955553.9675129 1.9963168.5876107.5007614 1.3581557.7324099 2.1244871.6386832z" fill="#3f5c6c"/><path id="Shape" d="m22 31h-21c-.55228475 0-1-.4477153-1-1s.44771525-1 1-1h21c.5522847 0 1 .4477153 1 1s-.4477153 1-1 1z" fill="#a56a43"/><path id="Shape" d="m59 31h-33c-.5522847 0-1-.4477153-1-1s.4477153-1 1-1h33c.5522847 0 1 .4477153 1 1s-.4477153 1-1 1z" fill="#a56a43"/><path id="Shape" d="m42 11c-.2651948-.0000566-.5195073-.1054506-.707-.293l-2-2c-.3789722-.39237889-.3735524-1.01608478.0121814-1.40181858.3857338-.38573379 1.0094397-.39115363 1.4018186-.01218142l2 2c.2859079.28599425.3714219.7160366.216678 1.0896546-.1547439.3736179-.5192821.6172591-.923678.6173454z" fill="#67b9cc"/></g></g></svg>