<svg height="512" viewBox="0 0 60 57" width="512" xmlns="http://www.w3.org/2000/svg"><g id="Page-1" fill="none" fill-rule="evenodd"><g id="050---Apple-Bucket" fill-rule="nonzero"><g fill="#24ae5f"><path id="Shape" d="m34 2c-1.0665199-.02520504-2.1146261.28084199-3 .876v-1.876c0-.55228475-.4477153-1-1-1s-1 .44771525-1 1v7c0 .55228475.4477153 1 1 1s1-.44771525 1-1v-1.876c.3597919-1.33683471 1.6195638-2.22875329 3-2.124.5522847 0 1-.44771525 1-1s-.4477153-1-1-1z"/><path id="Shape" d="m47 4c-1.0665199-.02520504-2.1146261.28084199-3 .876v-1.876c0-.55228475-.4477153-1-1-1s-1 .44771525-1 1v7c0 .5522847.4477153 1 1 1s1-.4477153 1-1v-1.876c.3597919-1.33683471 1.6195638-2.22875329 3-2.124.5522847 0 1-.44771525 1-1s-.4477153-1-1-1z"/><path id="Shape" d="m17 2c-.5522847 0-1 .44771525-1 1v1.876c-.8853739-.59515801-1.9334801-.90120504-3-.876-.5522847.00000002-1 .44771526-1 1s.4477153.99999998 1 1c1.381651-.10566487 2.6424467.78823926 3 2.127v1.873c0 .5522847.4477153 1 1 1s1-.4477153 1-1v-7c0-.55228475-.4477153-1-1-1z"/></g><path id="Shape" d="m7.05 18c-.03-.33-.05-.66-.05-1 0-4.42 2.69-8 6-8 .7596764.0007875 1.5077917.18610046 2.18.54 1.1366707.6099747 2.5033293.6099747 3.64 0 .6722083-.35389954 1.4203236-.5392125 2.18-.54.3226957-.00190705.6446251.03162726.96.1h16.08c.3153749-.06837274.6373043-.10190705.96-.1.7596764.0007875 1.5077917.18610046 2.18.54 1.1366707.6099747 2.5033293.6099747 3.64 0 .6722083-.35389954 1.4203236-.5392125 2.18-.54 3.31 0 6 3.58 6 8 0 .34-.02.67-.05 1l-22.95 2z" fill="#c03a2b"/><path id="Shape" d="m20.835 19.073c-.5589417-1.284702-.8433494-2.6719985-.835-4.073 0-4.42 2.69-8 6-8 .760751.00216477 1.5095769.18919966 2.182.545 1.1372506.60198413 2.4987494.60198413 3.636 0 .6724231-.35580034 1.421249-.54283523 2.182-.545 3.31 0 6 3.58 6 8 .0083494 1.4010015-.2760583 2.788298-.835 4.073z" fill="#e64c3c"/><path id="Shape" d="m26 20c-1.419 0-3-2.054-3-5-.0347675-1.408734.3911236-2.7903344 1.213-3.935.3410358-.4346481.9698519-.5105358 1.4045-.1695s.5105358.9698519.1695 1.4045c-.5511829.7894107-.8276985 1.7380668-.787 2.7-.1017628 1.1143576.3020086 2.2155523 1.1 3 .5522847.0276142.9776142.4977153.95 1.05-.0276143.5522847-.4977153.9776142-1.05.95z" fill="#fb7b76"/><path id="Shape" d="m37 0h2v1c0 1.65685425-1.3431458 3-3 3h-2v-1c0-1.65685425 1.3431458-3 3-3z" fill="#4fba6f"/><path id="Shape" d="m50 2h2v1c0 1.65685425-1.3431458 3-3 3h-2v-1c0-1.65685425 1.3431458-3 3-3z" fill="#4fba6f"/><path id="Shape" d="m8 2h2c1.6568542 0 3 1.34314575 3 3v1h-2c-1.65685425 0-3-1.34314575-3-3z" fill="#4fba6f" transform="matrix(-1 0 0 -1 21 8)"/><path id="Shape" d="m43.221 57h-26.442c-1.5682733.074275-2.9783308-.948993-3.394-2.463l-6.385-30.537 23-2 23 2c-2.128 10.1793333-4.2563333 20.3583333-6.385 30.537-.4156692 1.514007-1.8257267 2.537275-3.394 2.463z" fill="#2980ba"/><path id="Shape" d="m17.148 54c-.4741412-.001326-.8821732-.3354362-.977-.8l-4.182-20c-.082384-.3531836.0329083-.7232895.3012952-.9672039.2683868-.2439145.6477973-.3234026.9915197-.2077277s.5978765.4083802.6641851.7649316l4.182 20c.0544338.2596528.0034588.5302945-.1417048.7523535-.1451635.2220589-.372617.3773337-.6322952.4316465-.0676227.0155432-.1366359.0242536-.206.026z" fill="#3b97d3"/><path id="Shape" d="m49 40h-38c-6.07216255-.0071635-10.9928365-4.9278374-11-11v-5c0-2.209139 1.790861-4 4-4 .55228475 0 1 .4477153 1 1s-.44771525 1-1 1c-1.1045695 0-2 .8954305-2 2v5c.00551113 4.9682782 4.03172183 8.9944889 9 9h38c4.9682782-.0055111 8.9944889-4.0317218 9-9v-5c0-1.1045695-.8954305-2-2-2-.5522847 0-1-.4477153-1-1s.4477153-1 1-1c2.209139 0 4 1.790861 4 4v5c-.0071635 6.0721626-4.9278374 10.9928365-11 11z" fill="#f0c419"/><circle id="Oval" cx="12" cy="29" fill="#3b97d3" r="1"/><rect id="Rectangle-path" fill="#3b97d3" height="6" rx="2" width="52" x="4" y="18"/></g></g></svg>