<svg height="512" viewBox="0 0 60 59" width="512" xmlns="http://www.w3.org/2000/svg"><g id="Page-1" fill="none" fill-rule="evenodd"><g id="051---Digger" fill-rule="nonzero"><path id="Rectangle-path" d="m12 32h24v6h-24z" fill="#2c3e50"/><path id="Shape" d="m23 23v10h-17c-1.10320187-.0032948-1.9967052-.8967981-2-2v-6c.0032948-1.1032019.89679813-1.9967052 2-2z" fill="#f0c419"/><g fill="#f29c1f"><path id="Shape" d="m9 27v6h-2v-6c0-.5522847.44771525-1 1-1s1 .4477153 1 1z"/><path id="Shape" d="m13 27v6h-2v-6c0-.5522847.4477153-1 1-1s1 .4477153 1 1z"/><path id="Shape" d="m17 27v6h-2v-6c0-.5522847.4477153-1 1-1s1 .4477153 1 1z"/><path id="Shape" d="m36 29v4h-14v-10z"/><path id="Shape" d="m31.82 13.07 1.66-3.86c.3189876-.73263529 1.0409376-1.20739584 1.84-1.21h14.68v-5h-16.33c-1.6160931.00039605-3.0743377.9699316-3.7 2.46l-3.14 7.54z"/></g><path id="Shape" d="m45 25.27v-3.27c.0020295-.6290338.2979907-1.2209561.8-1.6l3.2-2.4 1 7z" fill="#e57e25"/><path id="Shape" d="m29 13-2 15.65c-.3443951-.182827-.6500435-.4307418-.9-.73l-4.1-4.92v-9c0-.5522847.4477153-1 1-1z" fill="#e64c3c"/><rect id="Rectangle-path" fill="#35495e" height="8" rx="4" width="34" x="7" y="37"/><path id="Shape" d="m36 22v7.0000011l-7.6-.0000011c-.4883696.0004118-.9692795-.1198156-1.4-.35v-7.65z" fill="#c03a2b"/><path id="Shape" d="m55.571 39h-5.566c-1.061732.0013272-2.0804326-.4195142-2.8316599-1.1698036s-1.1733409-1.7684636-1.1733401-2.8301964v-3c0-1.6568542 1.3431458-3 3-3h5v5.17c.1305028 1.5565949.8028668 3.0181019 1.9 4.13.1086763.1266891.1329119.3053518.0619127.456414-.0709992.1510621-.2240215.2464136-.3909127.243586z" fill="#f0c419"/><path id="Shape" d="m49 26v-23.5c0-1.38071187 1.1192881-2.5 2.5-2.5s2.5 1.11928813 2.5 2.5v23.5z" fill="#f0c419"/><path id="Shape" d="m46 25h8v4h-8c-1.1045695 0-2-.8954305-2-2s.8954305-2 2-2z" fill="#f29c1f"/><path id="Shape" d="m50 36c-.5522847 0-1-.4477153-1-1v-2c0-.5522847.4477153-1 1-1s1 .4477153 1 1v2c0 .5522847-.4477153 1-1 1z" fill="#f29c1f"/><path id="Shape" d="m36 42h-24c-.5522847 0-1-.4477153-1-1s.4477153-1 1-1h24c.5522847 0 1 .4477153 1 1s-.4477153 1-1 1z" fill="#547580"/><path id="Shape" d="m36 18v4h-9v-9h4c2.7614237 0 5 2.2385763 5 5z" fill="#2fa8cc"/><path id="Shape" d="m31 19c-.4043959-.0000863-.7689341-.2437275-.923678-.6173454-.1547439-.373618-.0692299-.8036603.216678-1.0896546l1-1c.3923789-.3789722 1.0160848-.3735524 1.4018186.0121814s.3911536 1.0094397.0121814 1.4018186l-1 1c-.1874927.1875494-.4418052.2929434-.707.293z" fill="#67b9cc"/><path id="Shape" d="m30 59c-.5522847 0-1-.4477153-1-1v-13c0-.5522847.4477153-1 1-1s1 .4477153 1 1v13c0 .5522847-.4477153 1-1 1z" fill="#a56a43"/><path id="Shape" d="m8 59c-.34101585.0000047-.65852541-.1737711-.84232829-.4610137s-.20855735-.6483486-.06567171-.9579863l6-13c.1496943-.3243972.4610813-.5442916.8168646-.5768511.3557834-.0325595.701911.1271624.9080001.419.206089.2918376.2408296.6714539.0911353.9958511l-6 13c-.16344315.3541865-.51792088.5810054-.908.581z" fill="#a56a43"/><path id="Shape" d="m52 59c-.3900791.0000054-.7445568-.2268135-.908-.581l-6-13c-.2314073-.5014746-.0124746-1.0955927.489-1.327s1.0955927-.0124746 1.327.489l6 13c.1428856.3096377.1181312.6707437-.0656717.9579863s-.5013124.4610184-.8423283.4610137z" fill="#a56a43"/><path id="Shape" d="m53 46h-52c-.55228475 0-1-.4477153-1-1s.44771525-1 1-1h52c.5522847 0 1 .4477153 1 1s-.4477153 1-1 1z" fill="#cb8252"/><path id="Shape" d="m59 46h-2c-.5522847 0-1-.4477153-1-1s.4477153-1 1-1h2c.5522847 0 1 .4477153 1 1s-.4477153 1-1 1z" fill="#cb8252"/></g></g></svg>