<svg height="512" viewBox="0 0 48 58" width="512" xmlns="http://www.w3.org/2000/svg"><g id="Page-1" fill="none" fill-rule="evenodd"><g id="052---Weather-Vane" fill-rule="nonzero"><path id="Shape" d="m29 8h-1.78c-.8543058.00042527-1.6329904-.48962166-2.0021894-1.26003113-.369199-.77040946-.26334-1.6843512.2721894-2.34996887l2.01-2.51c.9456273-1.18818491 2.38145-1.88032508 3.9-1.88h2.57c.671764.00266243 1.2976503.34123534 1.6674931.90202962.3698429.56079428.4345926 1.26943578.1725069 1.88797038l-1.47 3.42z" fill="#e64c3c"/><path id="Shape" d="m25 30c-.5522847 0-1 .4477153-1 1v21c0 .5522847.4477153 1 1 1s1-.4477153 1-1v-21c0-.5522847-.4477153-1-1-1z" fill="#3f5c6c"/><path id="Shape" d="m34.406 48.086-6.943-3.086 6.943-3.086c.5047883-.2242276.7322276-.8152117.508-1.32s-.8152117-.7322276-1.32-.508l-8.594 3.819-8.594-3.819c-.5047883-.2242276-1.0957724.0032117-1.32.508s.0032117 1.0957724.508 1.32l6.943 3.086-6.943 3.086c-.3265407.1450498-.5508937.4532888-.5885472.8086063-.0376536.3553175.1171128.7037323.406.914s.6680065.2504435.9945472.1053937l8.594-3.814 8.594 3.819c.1281214.0552826.2664733.0828849.406.081.4724216.0001351.8804906-.3303568.97852-.7924958.0980295-.4621389-.1407266-.9298361-.57252-1.1215042z" fill="#547580"/><path id="Shape" d="m18 21-2 1-2-1c0-3.16-9.74 2.09-8.89 3.14l-2.28 1.84c-.22179645.1818648-.51100719.259736-.79413356.2138236-.28312636-.0459124-.53290795-.2111877-.68586644-.4538236-.87709562-1.4075017-1.34458331-3.0315886-1.35-4.69.02271201-4.8653998 3.86856848-8.8522269 8.73-9.05 2.4329841-.0716291 4.7913411.8447034 6.5377108 2.5402079 1.7463696 1.6955045 2.7319919 4.0257538 2.7322892 6.4597921z" fill="#e64c3c"/><path id="Shape" d="m35 8 4.561 1.513c.2464496.07988727.4198105.30127934.4382688.5596951.0184583.2584157-.1216757.5022003-.3542688.6163049l-4.645 2.311-1-3z" fill="#f0c419"/><path id="Shape" d="m35 16.1c-.0081254.5230278.0866728 1.0425492.279 1.529.4592448 1.0654569.7042365 2.2109038.721 3.371 0 5.52-4.92 10-11 10s-11-4.48-11-10h12l2.89-10.61c.072953-.2679103.1099441-.54433459.11-.822v-1.568c-.0000216-.83388546.3470372-1.63015526.9579138-2.19777725s1.430446-.85537435 2.2620862-.79422275c1.6061355.17339316 2.8131884 1.54587305 2.78 3.161z" fill="#ecf0f1"/><path id="Shape" d="m14 21c-3.2150463.1111569-6.31834712 1.2072609-8.89 3.14-1.38071313-1.709782-1.48313487-4.1206796-.25240759-5.9414029 1.23072729-1.8207234 3.50604199-2.6243778 5.60727319-1.9805217 2.1012311.6438561 3.5357151 2.5842616 3.5351344 4.7819246z" fill="#c03a2b"/><path id="Shape" d="m26 21v1c0 2.7614237-2.2385763 5-5 5h-4.8c-1.4127341-1.6810067-2.1912394-3.804203-2.2-6z" fill="#d1d4d1"/><path id="Shape" d="m46 37h-43c-.55228475 0-1-.4477153-1-1s.44771525-1 1-1h43c.5522847 0 1 .4477153 1 1s-.4477153 1-1 1z" fill="#cbb292"/><path id="Shape" d="m44 40c-.4043959-.0000863-.7689341-.2437275-.923678-.6173454-.1547439-.373618-.0692299-.8036603.216678-1.0896546l2.293-2.293-2.293-2.293c-.3789722-.3923789-.3735524-1.0160848.0121814-1.4018186s1.0094397-.3911536 1.4018186-.0121814l3 3c.3903819.3904999.3903819 1.0235001 0 1.414l-3 3c-.1874927.1875494-.4418052.2929434-.707.293z" fill="#3f5c6c"/><path id="Shape" d="m12.833 35.447-2-3c-.306518-.4595009-.92749909-.583518-1.387-.277s-.58351804.9274991-.277 1.387l1.631 2.443-1.63 2.445c-.1982824.297245-.22292459.6776931-.0646441.9980331.1582805.3203401.4754371.5319049.832.555s.6983617-.1457881.8966441-.4430331l2-3c.2120888-.3389893.2117004-.7693941-.001-1.108z" fill="#e64c3c"/><path id="Shape" d="m7.833 35.447-2-3c-.30651804-.4595009-.92749909-.583518-1.387-.277s-.58351804.9274991-.277 1.387l1.631 2.443-1.63 2.445c-.30651804.4595009-.18250091 1.080482.277 1.387s1.08048196.1825009 1.387-.277l2-3c.22300835-.3357795.22261409-.7726236-.001-1.108z" fill="#e64c3c"/><circle id="Oval" cx="25" cy="55" fill="#547580" r="3"/></g></g></svg>