<svg height="512" viewBox="0 0 58 59" width="512" xmlns="http://www.w3.org/2000/svg"><g id="Page-1" fill="none" fill-rule="evenodd"><g id="053---Small-Windmill" fill-rule="nonzero"><path id="Shape" d="m29 40c-.5522847 0-1-.4477153-1-1v-8c0-.5522847.4477153-1 1-1s1 .4477153 1 1v8c0 .5522847-.4477153 1-1 1z" fill="#805333"/><g fill="#a56a43"><path id="Rectangle-path" d="m29 1h4v9h-4z"/><path id="Rectangle-path" d="m18.042 5.018h3.996v9.005h-3.996z" transform="matrix(.5 -.866 .866 .5 1.769 22.106)"/><path id="Rectangle-path" d="m13.538 19.022h9.005v3.996h-9.005z" transform="matrix(.866 -.5 .5 .866 -8.09 11.828)"/><path id="Rectangle-path" d="m25 24h4v9h-4z"/><path id="Rectangle-path" d="m35.962 19.977h3.996v9.005h-3.996z" transform="matrix(.5 -.866 .866 .5 -2.231 45.093)"/><path id="Rectangle-path" d="m35.457 10.982h9.005v3.996h-9.005z" transform="matrix(.866 -.5 .5 .866 -1.139 21.706)"/></g><path id="Shape" d="m34 11c.5522847 0 1-.4477153 1-1 0-.55228475-.4477153-1-1-1h-4v-7h4c.5522847 0 1-.44771525 1-1s-.4477153-1-1-1h-5c-.5522847 0-1 .44771525-1 1v13c0 .5522847.4477153 1 1 1s1-.4477153 1-1v-3z" fill="#cb8252"/><path id="Shape" d="m14.644 9.866 11.258 6.5c.3095704.1814844.6926495.1831833 1.0038174.0044519.311168-.1787315.5027136-.5104885.5019247-.8693336s-.1937913-.6897567-.5057421-.8671183l-2.6-1.5 2-3.464c.1814844-.30957042.1831833-.69264947.0044519-1.00381742-.1787315-.31116795-.5104885-.50271357-.8693336-.50192468-.3588451.00078888-.6897567.19379132-.8671183.5057421l-2 3.464-6.062-3.5 2-3.464c.2761424-.47855473.1120547-1.09035761-.3665-1.36649998s-1.0903576-.11205474-1.3665.36649998l-2.5 4.33c-.1325192.22980008-.1683016.50283816-.0994724.75902552.0688293.25618736.2366296.47452935.4664724.60697448z" fill="#cb8252"/><path id="Shape" d="m23.438 21.366 3.464-2c.3119508-.1773616.5049532-.5082732.5057421-.8671183s-.1907567-.6906021-.5019247-.8693336c-.3111679-.1787314-.694247-.1770325-1.0038174.0044519l-2.6 1.5-2-3.464c-.2780058-.4742136-.886647-.6351286-1.3626943-.3602745-.4760473.274854-.640996.8824145-.3693057 1.3602745l2 3.464-6.062 3.5-2-3.464c-.1786328-.3095706-.5088503-.5003262-.8662627-.500411s-.6877204.1905141-.8665.5c-.1787796.3094858-.1788701.6908404-.0002373 1.000411l2.5 4.33c.1326158.2299444.3512138.3977275.607628.4663798.2564142.0686522.5296031.0325399.759372-.1003798l7.793-4.5z" fill="#cb8252"/><path id="Shape" d="m29 19c-.5522847 0-1 .4477153-1 1v3h-4c-.5522847 0-1 .4477153-1 1s.4477153 1 1 1h4v7h-4c-.5522847 0-1 .4477153-1 1s.4477153 1 1 1h5c.5522847 0 1-.4477153 1-1v-13c0-.5522847-.4477153-1-1-1z" fill="#cb8252"/><path id="Shape" d="m43.356 24.134-11.256-6.5c-.47786-.2716903-1.0854205-.1067416-1.3602745.3693057-.2748541.4760473-.1139391 1.0846885.3602745 1.3626943l2.6 1.5-2 3.464c-.1814844.3095704-.1831833.6926495-.0044519 1.0038174.1787315.311168.5104885.5027136.8693336.5019247s.6897567-.1937913.8671183-.5057421l2-3.464 6.062 3.5-2 3.464c-.2761423.4785547-.1120547 1.0903576.3665 1.3665.4785547.2761423 1.0903576.1120547 1.3665-.3665l2.5-4.33c.1325192-.2298001.1683016-.5028382.0994724-.7590255-.0688293-.2561874-.2366296-.4745294-.4664724-.6069745z" fill="#cb8252"/><path id="Shape" d="m46.223 12.83-2.5-4.33c-.1326158-.22994444-.3512138-.39772752-.607628-.46637976s-.5296031-.03253998-.759372.10037976l-7.793 4.5-3.464 2c-.3119508.1773616-.5049532.5082732-.5057421.8671183s.1907567.6906021.5019247.8693336c.3111679.1787314.694247.1770325 1.0038174-.0044519l2.6-1.5 2 3.464c.1773616.3119508.5082732.5049532.8671183.5057421s.6906021-.1907567.8693336-.5019247c.1787314-.3111679.1770325-.694247-.0044519-1.0038174l-2-3.464 6.062-3.5 2 3.464c.2761424.4785547.8879453.6426424 1.3665.3665s.6426424-.8879453.3665-1.3665z" fill="#cb8252"/><circle id="Oval" cx="29" cy="17" fill="#805333" r="3"/><path id="Shape" d="m42 55-13 2-13-2c8.516-15.344 7.83-14.1 9.71-17.49.18294-.3132216.5172801-.5069869.88-.51h4.82c.3627199.0030131.69706.1967784.88.51 2.671 4.814-1.159-2.093 9.71 17.49z" fill="#95a5a5"/><path id="Shape" d="m37.56 47h-4.56v8c0 .5522847-.4477153 1-1 1s-1-.4477153-1-1v-8h-4v8c0 .5522847-.4477153 1-1 1s-1-.4477153-1-1v-8h-4.56l1.11-2h3.45v-6.21l.71-1.28c.18294-.3132216.5172801-.5069869.88-.51h.41v8h4v-8h.41c.3627199.0030131.69706.1967784.88.51l.71 1.28v6.21h3.45z" fill="#7f8c8d"/><rect id="Rectangle-path" fill="#4fba6f" height="4" rx="1" width="58" y="55"/></g></g></svg>