<svg height="512" viewBox="0 0 60 45" width="512" xmlns="http://www.w3.org/2000/svg"><g id="Page-1" fill="none" fill-rule="evenodd"><g id="054---Farm-Truck" fill-rule="nonzero"><g fill="#a56a43"><path id="Rectangle-path" d="m4 15h4v6h-4z"/><path id="Rectangle-path" d="m19 15h4v6h-4z"/><path id="Rectangle-path" d="m4 7h4v6h-4z"/><path id="Rectangle-path" d="m19 7h4v6h-4z"/><path id="Shape" d="m5 0h2c.55228475 0 1 .44771525 1 1v4h-4v-4c0-.55228475.44771525-1 1-1z"/><path id="Shape" d="m20 0h2c.5522847 0 1 .44771525 1 1v4h-4v-4c0-.55228475.4477153-1 1-1z"/></g><path id="Shape" d="m2 12h27v4h-27c-.55228475 0-1-.4477153-1-1v-2c0-.5522847.44771525-1 1-1z" fill="#cb8252"/><path id="Shape" d="m2 4h27v4h-27c-.55228475 0-1-.44771525-1-1v-2c0-.55228475.44771525-1 1-1z" fill="#cb8252"/><path id="Shape" d="m4.46 27h4.35 10.38 4.35 12.92 4.35 10.38 4.35v8h-4.35-10.38-4.35-12.92-4.35-10.38-4.35z" fill="#35495e"/><circle id="Oval" cx="46" cy="38" fill="#3f5c6c" r="6"/><circle id="Oval" cx="46" cy="38" fill="#547580" r="2"/><circle id="Oval" cx="14" cy="38" fill="#3f5c6c" r="6"/><circle id="Oval" cx="14" cy="38" fill="#547580" r="2"/><path id="Shape" d="m3.43 36c.44936303-.0070826.83880226-.3130706.952-.748 1.22327546-4.2978375 5.14946445-7.262469 9.618-7.262469 4.4685356 0 8.3947245 2.9646315 9.618 7.262469.1131977.4349294.502637.7409174.952.748h3.43l2-16h-28c-.55228475 0-1 .4477153-1 1v14.02c0 .5412391.43876095.98.98.98z" fill="#95a5a5"/><path id="Shape" d="m24 28c-.5522847 0-1-.4477153-1-1v-2h-17v2c0 .5522847-.44771525 1-1 1s-1-.4477153-1-1v-2c0-1.1045695.8954305-2 2-2h17c1.1045695 0 2 .8954305 2 2v2c0 .5522847-.4477153 1-1 1z" fill="#7f8c8d"/><path id="Shape" d="m59 45h-31c-.5522847 0-1-.4477153-1-1s.4477153-1 1-1h31c.5522847 0 1 .4477153 1 1s-.4477153 1-1 1z" fill="#cb8252"/><path id="Shape" d="m24 45h-23c-.55228475 0-1-.4477153-1-1s.44771525-1 1-1h23c.5522847 0 1 .4477153 1 1s-.4477153 1-1 1z" fill="#cb8252"/><path id="Shape" d="m59 22v13.02c-.0011003.5407827-.4392173.9788997-.98.98h-1.45c-.4502892-.005119-.8405168-.3131934-.95-.75-1.2362565-4.2879936-5.1573582-7.2430859-9.62-7.25-.6722749-.0020509-1.3428131.0683557-2 .21-.6886539.1324754-1.3597474.3438699-2 .63-2.7330625 1.1949948-4.7926822 3.5441339-5.62 6.41-.1094832.4368066-.4997108.744881-.95.75h-7.43v-32c.0032948-1.10320187.8967981-1.9967052 2-2h8.59c.8461681-.00293692 1.601075.53111956 1.88 1.33l4.53 12.67h8c3.3137085 0 6 2.6862915 6 6z" fill="#e64c3c"/><path id="Shape" d="m45 16h-11c-.5522847 0-1-.4477153-1-1v-8c0-.55228475.4477153-1 1-1h7.42l.81 2.26.68 1.9z" fill="#2fa8cc"/><path id="Shape" d="m33 20v16h-2v-16c0-.5522847.4477153-1 1-1s1 .4477153 1 1z" fill="#c03a2b"/><path id="Shape" d="m44 20v8.21c-.6886539.1324754-1.3597474.3438699-2 .63v-8.84c0-.5522847.4477153-1 1-1s1 .4477153 1 1z" fill="#c03a2b"/><path id="Shape" d="m39 21h-3c-.5522847 0-1-.4477153-1-1s.4477153-1 1-1h3c.5522847 0 1 .4477153 1 1s-.4477153 1-1 1z" fill="#95a5a5"/><path id="Shape" d="m42.91 10.16-5.46 2.73c-.1383827.0738739-.2931427.1117042-.45.11-.3778306.0033632-.7240094-.2105675-.89-.55-.1205304-.2358372-.1418525-.5100523-.0592264-.7616863s.2623528-.459833.4992264-.5783137l5.68-2.85z" fill="#9fc9d3"/><path id="Shape" d="m59 22 .0000211 2h-5.0000211c-1.1032019-.0032948-1.9967052-.8967981-2-2v-1c0-.5522847.4477153-1 1-1h5.65c.2333562.6409013.3518379 1.3179398.35 2z" fill="#f0c419"/></g></g></svg>