<svg height="512" viewBox="0 0 46 58" width="512" xmlns="http://www.w3.org/2000/svg"><g id="Page-1" fill="none" fill-rule="evenodd"><g id="055---Sunflower" fill-rule="nonzero"><path id="Shape" d="m41.3 49.217c.272898.0823175.4969464.2784864.6145947.5381176.1176484.2596312.1174316.5574228-.0005947.8168824-.875 1.891-2.945 5.894-5.175 6.863-2.947 1.289-6.246.3-7.363-2.2s.372-5.578 3.32-6.868c2.227-.967 6.592.213 8.604.85z" fill="#4fba6f"/><path id="Shape" d="m23.8 57.6c-.4684292.0057459-.8780642-.3144677-.985575-.7704286-.1075108-.455961.1159217-.9254452.537575-1.1295714l1.2-.6c3.8983804-1.8926942 8.0273169-3.2679979 12.282-4.091.5374655-.0766956 1.037947.2894592 1.1275532.8249237.0896061.5354644-.2643999 1.0446116-.7975532 1.1470763-4.0564044.8028516-7.9938418 2.1198113-11.717 3.919l-1.2.6c-.13934.0672281-.2922965.1014466-.447.1z" fill="#24ae5f"/><path id="Shape" d="m4.705 48.217c-.272898.0823175-.49694637.2784864-.61459475.5381176-.11764837.2596312-.11743156.5574228.00059475.8168824.875 1.891 2.945 5.894 5.175 6.863 2.947 1.289 6.246.3 7.363-2.2s-.372-5.578-3.32-6.868c-2.232-.967-6.597.213-8.604.85z" fill="#4fba6f"/><path id="Shape" d="m22.2 56.6c-.154839-.0005741-.30746-.0368473-.446-.106l-1.2-.6c-3.7239512-1.7958231-7.6617132-3.1094185-11.718-3.909-.53315325-.1024647-.88715927-.6116119-.79755315-1.1470763.08960611-.5354645.59008762-.9016193 1.12755315-.8249237 4.2546831.8230021 8.3836196 2.1983058 12.282 4.091l1.2.6c.4216533.2041262.6450858.6736104.537575 1.1295714-.1075108.4559609-.5171458.7761745-.985575.7704286z" fill="#24ae5f"/><path id="Shape" d="m25 44.75v12.25c0 .5522847-.4477153 1-1 1h-2c-.5522847 0-1-.4477153-1-1v-12.25z" fill="#4fba6f"/><path id="Shape" d="m27.93 41.39c1.8687319.9858031 3.929937 1.5522932 6.04 1.66.3797477.0119709.733038-.1937916.91-.53.9584126-1.8820831 1.4974565-3.949555 1.58-6.06l4.93-8.53c1.7853202-1.1336503 3.3062948-2.6375736 4.46-4.41.2000807-.3177972.2000807-.7222028 0-1.04-1.1537052-1.7724264-2.6746798-3.2763497-4.46-4.41l-4.93-8.53c-.0825435-2.11044498-.6215874-4.17791693-1.58-6.06-.176962-.33620845-.5302523-.54197092-.91-.53-2.110063.10770679-4.1712681.67419691-6.04 1.66h-9.86c-1.8687319-.98580309-3.929937-1.55229321-6.04-1.66-.3797477-.01197092-.733038.19379155-.91.53-.9584126 1.88208307-1.49745647 3.94955502-1.58 6.06l-4.93 8.53c-1.78532022 1.1336503-3.30629476 2.6375736-4.46 4.41-.20008071.3177972-.20008071.7222028 0 1.04 1.15370524 1.7724264 2.67467978 3.2763497 4.46 4.41l4.93 8.53c.08254353 2.110445.6215874 4.1779169 1.58 6.06.176962.3362084.5302523.5419709.91.53 2.110063-.1077068 4.1712681-.6741969 6.04-1.66z" fill="#f0c419"/><path id="Shape" d="m29.96 10.86c-.1533375-2.21838939-.8505243-4.3649003-2.03-6.25-1.1336503-1.78532022-2.6375736-3.30629476-4.41-4.46-.3177972-.20008071-.7222028-.20008071-1.04 0-1.7724264 1.15370524-3.2763497 2.67467978-4.41 4.46-1.1794757 1.8850997-1.8766625 4.03161061-2.03 6.25z" fill="#f3d55b"/><path id="Shape" d="m15.95 10.91c-1.9898905-.98146657-4.1927561-1.45228185-6.41-1.37-2.11044498.08254353-4.17791693.6215874-6.06 1.58-.33620845.176962-.54197092.5302523-.53.91.10770679 2.110063.67419691 4.1712681 1.66 6.04 1.03956244 1.9630657 2.54746707 3.6392786 4.39 4.88z" fill="#f3d55b"/><path id="Shape" d="m9 23.05c-1.84253293 1.2407214-3.35043756 2.9169343-4.39 4.88-.98580309 1.8687319-1.55229321 3.929937-1.66 6.04-.01197092.3797477.19379155.733038.53.91 1.88208307.9584126 3.94955502 1.4974565 6.06 1.58 2.2172439.0822818 4.4201095-.3885334 6.41-1.37z" fill="#f3d55b"/><path id="Shape" d="m16.04 35.14c.1533375 2.2183894.8505243 4.3649003 2.03 6.25 1.1336503 1.7853202 2.6375736 3.3062948 4.41 4.46.3177972.2000807.7222028.2000807 1.04 0 1.7724264-1.1537052 3.2763497-2.6746798 4.41-4.46 1.1794757-1.8850997 1.8766625-4.0316106 2.03-6.25z" fill="#f3d55b"/><path id="Shape" d="m30.05 35.09c1.9898905.9814666 4.1927561 1.4522818 6.41 1.37 2.110445-.0825435 4.1779169-.6215874 6.06-1.58.3362084-.176962.5419709-.5302523.53-.91-.1077068-2.110063-.6741969-4.1712681-1.66-6.04-1.0395624-1.9630657-2.5474671-3.6392786-4.39-4.88z" fill="#f3d55b"/><path id="Shape" d="m37 22.95c1.8425329-1.2407214 3.3504376-2.9169343 4.39-4.88.9858031-1.8687319 1.5522932-3.929937 1.66-6.04.0119709-.3797477-.1937916-.733038-.53-.91-1.8820831-.9584126-3.949555-1.49745647-6.06-1.58-2.2172439-.08228185-4.4201095.38853343-6.41 1.37z" fill="#f3d55b"/><g fill="#f0c419"><path id="Shape" d="m23 10c-.5522847 0-1-.44771525-1-1v-4c0-.55228475.4477153-1 1-1s1 .44771525 1 1v4c0 .55228475-.4477153 1-1 1z"/><path id="Shape" d="m10.875 17c-.175539-.0000077-.3479833-.0462228-.5-.134l-3.463-2c-.31195078-.1773616-.50495322-.5082732-.5057421-.8671183-.00078889-.3588451.19075673-.6906021.50192468-.8693336.31116795-.1787314.694247-.1770325 1.00381742.0044519l3.463 2c.3919413.2263139.5830208.6876562.4658809 1.1248223-.1171398.4371661-.5132928.7411578-.9658809.7411777z"/><path id="Shape" d="m7.413 33c-.45258806-.0000199-.84874105-.3040116-.96588095-.7411777s.07393969-.8985084.46588095-1.1248223l3.463-2c.3095704-.1814844.6926495-.1831833 1.0038174-.0044519.311168.1787315.5027136.5104885.5019247.8693336s-.1937913.6897567-.5057421.8671183l-3.463 2c-.15201675.0877772-.32446103.1339923-.5.134z"/><path id="Shape" d="m23 42c-.5522847 0-1-.4477153-1-1v-4c0-.5522847.4477153-1 1-1s1 .4477153 1 1v4c0 .5522847-.4477153 1-1 1z"/><path id="Shape" d="m38.587 33c-.175539-.0000077-.3479833-.0462228-.5-.134l-3.463-2c-.3119508-.1773616-.5049532-.5082732-.5057421-.8671183s.1907567-.6906021.5019247-.8693336c.3111679-.1787314.694247-.1770325 1.0038174.0044519l3.463 2c.3919413.2263139.5830208.6876562.4658809 1.1248223-.1171398.4371661-.5132928.7411578-.9658809.7411777z"/><path id="Shape" d="m35.125 17c-.4525881-.0000199-.8487411-.3040116-.9658809-.7411777-.1171399-.4371661.0739396-.8985084.4658809-1.1248223l3.463-2c.3095704-.1814844.6926495-.1831833 1.0038174-.0044519.311168.1787315.5027136.5104885.5019247.8693336s-.1937913.6897567-.5057421.8671183l-3.463 2c-.1520167.0877772-.324461.1339923-.5.134z"/></g><circle id="Oval" cx="23" cy="23" fill="#a65a47" r="14"/><path id="Shape" d="m33 20h3.68c-.1502907-.6817052-.3542599-1.3504568-.61-2h-3.07v-4.79c-.6075119-.6298262-1.2776421-1.1960862-2-1.69v6.48h-4v-8.42c-.655735-.19256304-1.3239936-.33957993-2-.44v8.86h-4v-8.86c-.6760064.10042007-1.344265.24743696-2 .44v8.42h-4v-6.48c-.7223579.4939138-1.3924881 1.0601738-2 1.69v4.79h-3.07c-.25574011.6495432-.45970935 1.3182948-.61 2h3.68v6h-3.68c.15029065.6817052.35425989 1.3504568.61 2h3.07v4.79c.6075119.6298262 1.2776421 1.1960862 2 1.69v-6.48h4v8.42c.655735.192563 1.3239936.3395799 2 .44v-8.86h4v8.86c.6760064-.1004201 1.344265-.247437 2-.44v-8.42h4v6.48c.7223579-.4939138 1.3924881-1.0601738 2-1.69v-4.79h3.07c.2557401-.6495432.4597093-1.3182948.61-2h-3.68zm-14 6h-4v-6h4zm6 0h-4v-6h4zm6 0h-4v-6h4z" fill="#804537"/></g></g></svg>