<svg height="512" viewBox="0 0 60 60" width="512" xmlns="http://www.w3.org/2000/svg"><g id="Page-1" fill="none" fill-rule="evenodd"><g id="057---Wind-Farm" fill-rule="nonzero" transform="translate(-1)"><path id="Shape" d="m31 35c-.5522847 0-1-.4477153-1-1v-20c0-.5522847.4477153-1 1-1s1 .4477153 1 1v20c0 .5522847-.4477153 1-1 1z" fill="#547580"/><path id="Shape" d="m8 35c-.55228475 0-1-.4477153-1-1v-20c0-.5522847.44771525-1 1-1s1 .4477153 1 1v20c0 .5522847-.44771525 1-1 1z" fill="#547580"/><path id="Shape" d="m54 35c-.5522847 0-1-.4477153-1-1v-20c0-.5522847.4477153-1 1-1s1 .4477153 1 1v20c0 .5522847-.4477153 1-1 1z" fill="#547580"/><path id="Shape" d="m35 39v-3.172c-.0001133-.5303896-.2109013-1.0390145-.586-1.414l-1.414-1.414h-4l-1.414 1.414c-.3750987.3749855-.5858867.8836104-.586 1.414v3.172z" fill="#95a5a5"/><g fill="#7f8c8d"><path id="Shape" d="m31 40c-.5522847 0-1-.4477153-1-1v-6c0-.5522847.4477153-1 1-1s1 .4477153 1 1v6c0 .5522847-.4477153 1-1 1z"/><path id="Shape" d="m31 11c-.5522847 0-1-.4477153-1-1v-9c0-.55228475.4477153-1 1-1s1 .44771525 1 1v9c0 .5522847-.4477153 1-1 1z"/><path id="Shape" d="m21.474 18.5c-.4525881-.0000199-.8487411-.3040116-.9658809-.7411777-.1171399-.4371661.0739396-.8985084.4658809-1.1248223l7.594-4.384c.3095704-.1814844.6926495-.1831833 1.0038174-.0044519.311168.1787315.5027136.5104885.5019247.8693336s-.1937913.6897567-.5057421.8671183l-7.594 4.384c-.1520167.0877772-.324461.1339923-.5.134z"/><path id="Shape" d="m40.526 18.5c-.175539-.0000077-.3479833-.0462228-.5-.134l-8.343-4.816c-.3095706-.1786328-.5003263-.5088503-.500411-.8662627-.0000848-.3574124.1905141-.6877204.5-.8665.3094858-.1787797.6908404-.1788701 1.000411-.0002373l8.344 4.818c.3919413.2263139.5830208.6876562.4658809 1.1248223-.1171398.4371661-.5132928.7411578-.9658809.7411777z"/><path id="Shape" d="m35 34h-8c-.5522847 0-1-.4477153-1-1s.4477153-1 1-1h8c.5522847 0 1 .4477153 1 1s-.4477153 1-1 1z"/></g><path id="Shape" d="m12 39v-3.172c-.0001133-.5303896-.2109013-1.0390145-.586-1.414l-1.414-1.414h-4l-1.414 1.414c-.37509875.3749855-.58588673.8836104-.586 1.414v3.172z" fill="#95a5a5"/><path id="Shape" d="m8 40c-.55228475 0-1-.4477153-1-1v-6c0-.5522847.44771525-1 1-1s1 .4477153 1 1v6c0 .5522847-.44771525 1-1 1z" fill="#7f8c8d"/><path id="Shape" d="m7.241 11.844c-.33902558.00053-.65523125-.1707481-.84-.455l-5.24-8.064c-.30099519-.46336691-.1693669-1.08300481.294-1.384.46336691-.30099519 1.08300481-.16936691 1.384.294l5.24 8.065c.19981577.3073995.21539097.6994977.04058779 1.021778-.17480318.3222804-.51195345.5230622-.87858779.523222z" fill="#7f8c8d"/><path id="Shape" d="m3.014 22.808c-.34793024-.0000006-.67085049-.1808463-.85264171-.4775067-.18179121-.2966604-.19631862-.6664869-.03835829-.9764933l3.977-7.814c.25154478-.489775.8516831-.6840697 1.34254268-.434648.49085958.2494216.68775114.848713.44045732 1.340648l-3.977 7.815c-.17060657.3357563-.51538501.5471843-.892.547z" fill="#7f8c8d"/><path id="Shape" d="m9.993 12.9c-.55228474.0146355-1.01186442-.4212153-1.02649997-.9735s.42121523-1.0118644.97349997-1.0265l8.992-.48c.2654872-.0169112.5266094.0737358.7245127.2515101.1979034.1777744.3159333.4277156.3274873.6934899.0144452.2649819-.0770283.5248393-.2542751.7223428-.1772468.1975036-.4257298.316455-.6907249.3306572l-8.991.48z" fill="#7f8c8d"/><path id="Shape" d="m12 34h-8c-.55228475 0-1-.4477153-1-1s.44771525-1 1-1h8c.5522847 0 1 .4477153 1 1s-.4477153 1-1 1z" fill="#7f8c8d"/><path id="Shape" d="m50 39v-3.172c.0001133-.5303896.2109013-1.0390145.586-1.414l1.414-1.414h4l1.414 1.414c.3750987.3749855.5858867.8836104.586 1.414v3.172z" fill="#95a5a5"/><path id="Shape" d="m54 40c-.5522847 0-1-.4477153-1-1v-6c0-.5522847.4477153-1 1-1s1 .4477153 1 1v6c0 .5522847-.4477153 1-1 1z" fill="#7f8c8d"/><path id="Shape" d="m55.212 11.139c-.366455-.000526-.7032701-.2014504-.8778268-.5236608s-.1588918-.71409001.0408268-1.0213392l4.787-7.359c.307535-.44600424.9143027-.56600516 1.3684587-.27064116.4541561.29536401.5905183.8986654.3075413 1.36064116l-4.787 7.359c-.1845756.2839539-.5003291.455191-.839.455z" fill="#7f8c8d"/><path id="Shape" d="m58.981 22.808c-.376615.0001843-.7213934-.2112437-.892-.547l-3.973-7.815c-.250185-.492638-.053638-1.094815.439-1.345s1.094815-.053638 1.345.439l3.973 7.814c.1579603.3100064.1434329.6798329-.0383583.9764933s-.5047115.4775061-.8526417.4775067z" fill="#7f8c8d"/><path id="Shape" d="m52.007 12.9h-.055l-9-.48c-.5522847-.0295472-.9760472-.5012153-.9465-1.0535.0295473-.5522847.5012153-.9760472 1.0535-.9465l9 .48c.5522847.0146356.9881355.4742153.9735 1.0265-.0146356.5522847-.4742153.9881355-1.0265.9735z" fill="#7f8c8d"/><path id="Shape" d="m58 34h-8c-.5522847 0-1-.4477153-1-1s.4477153-1 1-1h8c.5522847 0 1 .4477153 1 1s-.4477153 1-1 1z" fill="#7f8c8d"/><path id="Shape" d="m60 39c-10.0330988 1.1127026-19.8235249 3.8236378-29 8.03-9.1764751-4.2063622-18.9669012-6.9172974-29-8.03z" fill="#24ae5f"/><path id="Shape" d="m2.086 42c-.55228474-.0477726-1.03872735.3612153-1.08649998.9135s.36121524 1.0387274.91349998 1.0865c.229.021 22.987 2.146 40.472 15.792.280485.2322221.6650304.293622 1.0038832.1602887.3388527-.1333333.5784434-.440321.6254684-.8014132s-.1059498-.7192037-.3993516-.9348755c-17.963-14.025-41.295-16.192-41.529-16.216z" fill="#4fba6f"/><path id="Shape" d="m2.1 46.006c-.26498089-.0336483-.53221501.0423218-.73986787.2103318-.20765286.1680101-.33772959.4135006-.36013213.6796682-.02799078.2639182.05007912.5281387.21701338.7344619.16693425.2063232.40903914.3378245.67298662.3655381.189.021 19.059 2.1 33.546 11.836.4583963.3081749 1.0798251.1863963 1.388-.272s.1863963-1.0798251-.272-1.388c-14.905-10.026-33.652-12.084-34.452-12.166z" fill="#4fba6f"/><path id="Shape" d="m28.467 58.115c-11.401-6.015-25.727-8.023-26.331-8.106-.54731419-.0751107-1.05188927.3076858-1.127.855s.30768581 1.0518893.855 1.127c.145.02 14.588 2.048 25.669 7.894.31618.166843.6973522.1523323.9999325-.0380661.3025803-.1903985.4805997-.5277586.467-.885-.0135997-.3572415-.2167524-.6800909-.5329325-.8469339z" fill="#4fba6f"/><path id="Shape" d="m18.352 58.063c-5.2526744-1.9153481-10.69176577-3.2744506-16.228-4.055-.54031437-.054588-1.02543739.3320292-1.0927963.8709005-.0673589.5388712.30766994 1.0330074.8447963 1.1130995 5.37834341.77251 10.6633103 2.0944219 15.772 3.945.1128053.0412049.2319056.0625211.352.063.4843297.0012981.8999699-.3446733.9865664-.8212004.0865966-.476527-.1807461-.9466131-.6345664-1.1157996z" fill="#4fba6f"/><path id="Shape" d="m60.087 44c.2656107-.0220956.5114109-.1493094.6828309-.3533987s.2542745-.4681655.2301691-.7336013c-.0155452-.2681832-.1409399-.5181022-.3466413-.6908762-.2057013-.172774-.4735202-.2531255-.7403587-.2221238-8.2894449.9714316-16.4042885 3.0868841-24.113 6.286-.807-.421-1.612-.829-2.414-1.217 8.5001284-3.6554643 17.4928682-6.0374216 26.688-7.069.3572656-.0132188.6803404-.2160324.8475254-.5320429s.1530806-.6972084-.037-1c-.1900806-.3027917-.5272598-.4811759-.8845254-.4679571h-58c-.55228475-.0204345-1.01656546.4107153-1.037.963s.41071525 1.0165655.963 1.037c.266.021 26.929 2.2 47.424 19.762.4212323.3340753 1.0312217.2753078 1.3809275-.133041.3497059-.4083488.3139582-1.020119-.0809275-1.384959-.091-.078-.185-.151-.277-.229 3.2050551-.875908 6.4617422-1.5505576 9.751-2.02.5371264-.0800921.9121552-.5742283.8447963-1.1130995-.0673589-.5388713-.5524819-.9254885-1.0927963-.8709005-3.8490275.5425114-7.6536646 1.3633291-11.384 2.456-.66-.522-1.324-1.03-1.992-1.524 4.4742307-1.2789085 9.0272689-2.2640083 13.63-2.949.3631119-.0358858.6778539-.2666971.8212231-.6022315.1433691-.3355344.0926039-.7225218-.1324564-1.0097254s-.5886847-.4290263-.9487667-.3700431c-5.2235027.7769277-10.3837261 1.9319621-15.44 3.456-.656-.4513333-1.3143333-.889-1.975-1.313 5.7261163-1.9791108 11.6379461-3.3732239 17.645-4.161.5339611-.0742326.9129711-.5583643.8568728-1.094534-.0560982-.5361696-.5271103-.9313654-1.0648728-.893466-6.6943688.8629988-13.2710259 2.4730337-19.607 4.8-.7333333-.4406667-1.4666667-.8666667-2.2-1.278 7.0705688-2.7661543 14.4636493-4.6236649 22.002-5.528zm-11.605-4c-2.178.523-4.594 1.186-7.153 2h-20.735c-2.559-.814-4.971-1.477-7.143-2zm-22.182 4h9.329c-1.526.59-3.082 1.236-4.656 1.944-1.582-.708-3.1396667-1.356-4.673-1.944z" fill="#4fba6f"/><circle id="Oval" cx="31" cy="12.001" fill="#95a5a5" r="3"/><circle id="Oval" cx="8" cy="12.001" fill="#95a5a5" r="3"/><circle id="Oval" cx="53.995" cy="12.001" fill="#95a5a5" r="3"/></g></g></svg>