<svg height="512" viewBox="0 0 58 58" width="512" xmlns="http://www.w3.org/2000/svg"><g id="Page-1" fill="none" fill-rule="evenodd"><g id="058---Coffee-Bean-Data" fill-rule="nonzero"><ellipse id="Oval" cx="29" cy="29" fill="#a56a43" rx="17" ry="13"/><path id="Shape" d="m46 29c-1.8507051-1.8777035-4.3639354-2.9548022-7-3-3.5401534.0969922-6.9910689 1.1322669-10 3s-6.4598466 2.9030078-10 3c-2.6360646-.0451978-5.1492949-1.1222965-7-3 0-7.18 7.61-13 17-13s17 5.82 17 13z" fill="#cb8252"/><g fill="#f29c1f"><path id="Shape" d="m25 20c-.5522847 0-1-.4477153-1-1v-10c0-1.1045695-.8954305-2-2-2h-4c-.5522847 0-1-.44771525-1-1s.4477153-1 1-1h4c2.209139 0 4 1.790861 4 4v10c0 .5522847-.4477153 1-1 1z"/><path id="Shape" d="m33 20c-.5522847 0-1-.4477153-1-1v-10c0-2.209139 1.790861-4 4-4h4c.5522847 0 1 .44771525 1 1s-.4477153 1-1 1h-4c-1.1045695 0-2 .8954305-2 2v10c0 .5522847-.4477153 1-1 1z"/><path id="Shape" d="m22 53h-4c-.5522847 0-1-.4477153-1-1s.4477153-1 1-1h4c1.1045695 0 2-.8954305 2-2v-10c0-.5522847.4477153-1 1-1s1 .4477153 1 1v10c0 2.209139-1.790861 4-4 4z"/><path id="Shape" d="m40 53h-4c-2.209139 0-4-1.790861-4-4v-10c0-.5522847.4477153-1 1-1s1 .4477153 1 1v10c0 1.1045695.8954305 2 2 2h4c.5522847 0 1 .4477153 1 1s-.4477153 1-1 1z"/></g><rect id="Rectangle-path" fill="#f0c419" height="12" rx="2" width="18"/><path id="Shape" d="m13 5h-8c-.55228475 0-1-.44771525-1-1s.44771525-1 1-1h8c.5522847 0 1 .44771525 1 1s-.4477153 1-1 1z" fill="#ecf0f1"/><path id="Shape" d="m9 9h-4c-.55228475 0-1-.44771525-1-1s.44771525-1 1-1h4c.55228475 0 1 .44771525 1 1s-.44771525 1-1 1z" fill="#ecf0f1"/><rect id="Rectangle-path" fill="#f0c419" height="12" rx="2" transform="matrix(-1 0 0 -1 98 12)" width="18" x="40"/><path id="Shape" d="m53 5h-8c-.5522847 0-1-.44771525-1-1s.4477153-1 1-1h8c.5522847 0 1 .44771525 1 1s-.4477153 1-1 1z" fill="#ecf0f1"/><path id="Shape" d="m49 9h-4c-.5522847 0-1-.44771525-1-1s.4477153-1 1-1h4c.5522847 0 1 .44771525 1 1s-.4477153 1-1 1z" fill="#ecf0f1"/><rect id="Rectangle-path" fill="#f0c419" height="12" rx="2" width="18" y="46"/><path id="Shape" d="m13 51h-8c-.55228475 0-1-.4477153-1-1s.44771525-1 1-1h8c.5522847 0 1 .4477153 1 1s-.4477153 1-1 1z" fill="#ecf0f1"/><path id="Shape" d="m9 55h-4c-.55228475 0-1-.4477153-1-1s.44771525-1 1-1h4c.55228475 0 1 .4477153 1 1s-.44771525 1-1 1z" fill="#ecf0f1"/><rect id="Rectangle-path" fill="#f0c419" height="12" rx="2" transform="matrix(-1 0 0 -1 98 104)" width="18" x="40" y="46"/><path id="Shape" d="m53 51h-8c-.5522847 0-1-.4477153-1-1s.4477153-1 1-1h8c.5522847 0 1 .4477153 1 1s-.4477153 1-1 1z" fill="#ecf0f1"/><path id="Shape" d="m49 55h-4c-.5522847 0-1-.4477153-1-1s.4477153-1 1-1h4c.5522847 0 1 .4477153 1 1s-.4477153 1-1 1z" fill="#ecf0f1"/></g></g></svg>