<svg height="512" viewBox="0 0 46 58" width="512" xmlns="http://www.w3.org/2000/svg"><g id="Page-1" fill="none" fill-rule="evenodd"><g id="059---Seed-Bag" fill-rule="nonzero"><path id="Shape" d="m30 48h-28.989c-.40781136.0005318-.77559699-.245191-.93120184-.6221492-.15560486-.3769583-.06823942-.8105632.22120184-1.0978508 2.47270839-2.4447111 3.82295819-5.8040457 3.73-9.28h-.031v-26h.031c.09269567-3.47610265-1.25792482-6.83545889-3.731-9.28-.28957179-.28741566-.37687482-.72126443-.22101291-1.09831435.15586192-.37704992.52401941-.62262402.93201291-.62168565h39.978c.4078114-.00053183.775597.245191.9312018.62214924.1556049.37695824.0682395.8105632-.2212018 1.09785076-2.4727084 2.44471112-3.8229582 5.80404574-3.73 9.28h.031v37z" fill="#f0c419"/><g fill="#f29c1f"><path id="Shape" d="m22 8h-2c-.5522847 0-1-.44771525-1-1s.4477153-1 1-1h2c.5522847 0 1 .44771525 1 1s-.4477153 1-1 1z"/><path id="Shape" d="m16 8h-2c-.5522847 0-1-.44771525-1-1s.4477153-1 1-1h2c.5522847 0 1 .44771525 1 1s-.4477153 1-1 1z"/><path id="Shape" d="m10 8h-2c-.55228475 0-1-.44771525-1-1s.44771525-1 1-1h2c.5522847 0 1 .44771525 1 1s-.4477153 1-1 1z"/><path id="Shape" d="m34 8h-2c-.5522847 0-1-.44771525-1-1s.4477153-1 1-1h2c.5522847 0 1 .44771525 1 1s-.4477153 1-1 1z"/><path id="Shape" d="m28 8h-2c-.5522847 0-1-.44771525-1-1s.4477153-1 1-1h2c.5522847 0 1 .44771525 1 1s-.4477153 1-1 1z"/><path id="Shape" d="m22 42h-2c-.5522847 0-1-.4477153-1-1s.4477153-1 1-1h2c.5522847 0 1 .4477153 1 1s-.4477153 1-1 1z"/><path id="Shape" d="m27 42h-1c-.5522847 0-1-.4477153-1-1s.4477153-1 1-1h1c.5522847 0 1 .4477153 1 1s-.4477153 1-1 1z"/><path id="Shape" d="m16 42h-2c-.5522847 0-1-.4477153-1-1s.4477153-1 1-1h2c.5522847 0 1 .4477153 1 1s-.4477153 1-1 1z"/><path id="Shape" d="m10 42h-2c-.55228475 0-1-.4477153-1-1s.44771525-1 1-1h2c.5522847 0 1 .4477153 1 1s-.4477153 1-1 1z"/></g><path id="Shape" d="m24 32.118c0 2.209139-1.790861 4-4 4s-4-1.790861-4-4c0-2.07 2.021-5.121 3.19-6.712.1908489-.2555181.4910755-.4060033.81-.4060033s.6191511.1504852.81.4060033c1.169 1.594 3.19 4.642 3.19 6.712z" fill="#a65a47"/><path id="Shape" d="m20 33c-.5522847 0-1-.4477153-1-1v-1c0-.5522847.4477153-1 1-1s1 .4477153 1 1v1c0 .5522847-.4477153 1-1 1z" fill="#804537"/><path id="Shape" d="m17.159 16.23c1.5621374 1.5626897 1.5616896 4.0958626-.001 5.658-1.5626897 1.5621374-4.0958626 1.5616897-5.658-.001-1.463-1.464-2.192-5.05-2.49-7-.04542095-.3155111.0604677-.6339821.28576931-.8594805.22530162-.2254984.54368003-.331665.85923069-.2865195 1.954.297 5.545 1.025 7.004 2.489z" fill="#a65a47"/><path id="Shape" d="m14.247 19.976c-.2651948-.0000566-.5195073-.1054506-.707-.293l-.707-.707c-.2599566-.2510745-.3642126-.6228779-.2726972-.9725073.0915155-.3496295.3645604-.6226744.7141899-.7141899.3496294-.0915154.7214328.0127406.9725073.2726972l.707.707c.2859079.2859943.3714219.7160366.216678 1.0896546-.1547439.3736179-.5192821.6172591-.923678.6173454z" fill="#804537"/><path id="Shape" d="m24.841 16.23c-1.5621374 1.5626897-1.5616896 4.0958626.001 5.658 1.5626897 1.5621374 4.0958626 1.5616897 5.658-.001 1.463-1.464 2.192-5.05 2.49-7 .045421-.3155111-.0604677-.6339821-.2857693-.8594805s-.54368-.331665-.8592307-.2865195c-1.954.297-5.54 1.025-7.004 2.489z" fill="#a65a47"/><path id="Shape" d="m27.753 19.976c-.4043959-.0000863-.7689341-.2437275-.923678-.6173454-.1547439-.373618-.0692299-.8036603.216678-1.0896546l.707-.707c.2510745-.2599566.6228779-.3642126.9725073-.2726972.3496295.0915155.6226744.3645604.7141899.7141899.0915154.3496294-.0127406.7214328-.2726972.9725073l-.707.707c-.1874927.1875494-.4418052.2929434-.707.293z" fill="#804537"/><path id="Shape" d="m40 41h4c1.1045695 0 2 .8954305 2 2v5.191c.0000073 3.1031138-1.5985668 5.9873497-4.23 7.632l-3.24 2.025c-.3242708.2026698-.7357292.2026698-1.06 0l-3.24-2.025c-2.6314332-1.6446503-4.2300073-4.5288862-4.23-7.632v-5.191c0-1.1045695.8954305-2 2-2z" fill="#7f8c8d"/><path id="Shape" d="m36 36h4v13c0 1.1045695-.8954305 2-2 2s-2-.8954305-2-2z" fill="#95a5a5"/><rect id="Rectangle-path" fill="#3b97d3" height="14" rx="1" width="6" x="35" y="23"/></g></g></svg>