<svg height="512" viewBox="0 0 59 59" width="512" xmlns="http://www.w3.org/2000/svg"><g id="Page-1" fill="none" fill-rule="evenodd"><g id="060---Natural-Crop-Growth" fill-rule="nonzero"><path id="Shape" d="m30 52c-.5522847 0-1-.4477153-1-1v-25c0-.5522847.4477153-1 1-1s1 .4477153 1 1v25c0 .5522847-.4477153 1-1 1z" fill="#24ae5f"/><path id="Shape" d="m11 52c-.5522847 0-1-.4477153-1-1v-19c0-.5522847.4477153-1 1-1s1 .4477153 1 1v19c0 .5522847-.4477153 1-1 1z" fill="#24ae5f"/><path id="Shape" d="m49 52c-.5522847 0-1-.4477153-1-1v-37c0-.5522847.4477153-1 1-1s1 .4477153 1 1v37c0 .5522847-.4477153 1-1 1z" fill="#24ae5f"/><rect id="Rectangle-path" fill="#cb8252" height="8" rx="1" width="58" x="1" y="51"/><path id="Shape" d="m27 55c0 .5522847-.4477153 1-1 1h-25v-2h25c.5522847 0 1 .4477153 1 1z" fill="#a56a43"/><path id="Shape" d="m46 56h-16c-.5522847 0-1-.4477153-1-1s.4477153-1 1-1h16c.5522847 0 1 .4477153 1 1s-.4477153 1-1 1z" fill="#a56a43"/><path id="Shape" d="m59 54v2h-9c-.5522847 0-1-.4477153-1-1s.4477153-1 1-1z" fill="#a56a43"/><circle id="Oval" cx="14" cy="14" fill="#f0c419" r="7"/><path id="Shape" d="m14 4c-.5522847 0-1-.44771525-1-1v-2c0-.55228475.4477153-1 1-1s1 .44771525 1 1v2c0 .55228475-.4477153 1-1 1z" fill="#f29c1f"/><path id="Shape" d="m8.5 5.474c-.35761373.00034843-.68819322-.19029718-.867-.5l-1-1.733c-.27169029-.47785996-.10674157-1.08542045.3693057-1.36027453.47604726-.27485408 1.08468853-.11393908 1.3626943.36027453l1 1.733c.17854148.30924248.17863929.6902222.00025662.99955632-.17838268.30933411-.50817422.50007763-.86525662.50044368z" fill="#f29c1f"/><path id="Shape" d="m4.473 9.5c-.17558875.00037182-.34812995-.04586922-.5-.134l-1.733-1c-.31195078-.17736158-.50495322-.50827321-.5057421-.8671183-.00078889-.35884509.19075673-.69060211.50192468-.86933356s.694247-.17703252 1.00381742.00445186l1.733 1c.39194126.22631394.58302085.68765624.46588095 1.12482233-.1171399.4371661-.51329289.74115776-.96588095.74117767z" fill="#f29c1f"/><path id="Shape" d="m3 15h-2c-.55228475 0-1-.4477153-1-1s.44771525-1 1-1h2c.55228475 0 1 .4477153 1 1s-.44771525 1-1 1z" fill="#f29c1f"/><path id="Shape" d="m2.742 21.5c-.45258806-.0000199-.84874105-.3040116-.96588095-.7411777s.07393969-.8985084.46588095-1.1248223l1.733-1c.30957042-.1814844.69264947-.1831833 1.00381742-.0044519.31116795.1787315.50271357.5104885.50192468.8693336-.00078888.3588451-.19379132.6897567-.5057421.8671183l-1.733 1c-.15187005.0881308-.32441125.1343718-.5.134z" fill="#f29c1f"/><path id="Shape" d="m7.5 26.259c-.3570824-.000366-.68687394-.1911096-.86525662-.5004437-.17838267-.3093341-.17828486-.6903138.00025662-.9995563l1-1.733c.27800577-.4742136.88664704-.6351286 1.3626943-.3602745.47604727.274854.64099599.8824145.3693057 1.3602745l-1 1.733c-.17880678.3097028-.50938627.5003484-.867.5z" fill="#f29c1f"/><path id="Shape" d="m14 28c-.5522847 0-1-.4477153-1-1v-2c0-.5522847.4477153-1 1-1s1 .4477153 1 1v2c0 .5522847-.4477153 1-1 1z" fill="#f29c1f"/><path id="Shape" d="m20.5 26.259c-.3576137.0003484-.6881932-.1902972-.867-.5l-1-1.733c-.2716903-.47786-.1067416-1.0854205.3693057-1.3602745.4760473-.2748541 1.0846885-.1139391 1.3626943.3602745l1 1.733c.1785415.3092425.1786393.6902222.0002566.9995563s-.5081742.5000777-.8652566.5004437z" fill="#f29c1f"/><path id="Shape" d="m25.258 21.5c-.1755887.0003718-.3481299-.0458692-.5-.134l-1.733-1c-.4742136-.2780058-.6351286-.886647-.3602745-1.3626943.274854-.4760473.8824145-.640996 1.3602745-.3693057l1.733 1c.3919413.2263139.5830208.6876562.4658809 1.1248223-.1171398.4371661-.5132928.7411578-.9658809.7411777z" fill="#f29c1f"/><path id="Shape" d="m27 15h-2c-.5522847 0-1-.4477153-1-1s.4477153-1 1-1h2c.5522847 0 1 .4477153 1 1s-.4477153 1-1 1z" fill="#f29c1f"/><path id="Shape" d="m23.527 9.5c-.4525881-.00001991-.8487411-.30401157-.9658809-.74117767-.1171399-.43716609.0739396-.89850839.4658809-1.12482233l1.733-1c.3095704-.18148438.6926495-.18318331 1.0038174-.00445186.311168.17873145.5027136.51048847.5019247.86933356s-.1937913.68975672-.5057421.8671183l-1.733 1c-.1518701.08813078-.3244113.13437182-.5.134z" fill="#f29c1f"/><path id="Shape" d="m19.5 5.474c-.3570824-.00036605-.6868739-.19110957-.8652566-.50044368-.1783827-.30933412-.1782849-.69031384.0002566-.99955632l1-1.733c.1773616-.31195078.5082732-.50495322.8671183-.5057421.3588451-.00078889.6906021.19075673.8693336.50192468.1787314.31116795.1770325.694247-.0044519 1.00381742l-1 1.733c-.1788068.30970282-.5093863.50034843-.867.5z" fill="#f29c1f"/><g fill="#4fba6f"><path id="Shape" d="m30 51h-2.037c-2.303168.0126707-4.3267897-1.5254624-4.931-3.748-.0749424-.3035633-.0050617-.62472.1892385-.8696986.1943001-.2449786.491108-.3861524.8037615-.3823014h.883c2.7864285-.0244133 5.0656106 2.2135895 5.092 5z"/><path id="Shape" d="m35.975 46c.3126535-.003851.6094614.1373228.8037615.3823014.1943002.2449786.2641809.5661353.1892385.8696986-.6042103 2.2225376-2.627832 3.7606707-4.931 3.748h-2.037c.0263894-2.7864105 2.3055715-5.0244133 5.092-5z"/><path id="Shape" d="m30 42h-2.037c-2.303168.0126707-4.3267897-1.5254624-4.931-3.748-.0749424-.3035633-.0050617-.62472.1892385-.8696986.1943001-.2449786.491108-.3861524.8037615-.3823014h.883c2.7864285-.0244133 5.0656106 2.2135895 5.092 5z"/><path id="Shape" d="m35.975 37c.3126535-.003851.6094614.1373228.8037615.3823014.1943002.2449786.2641809.5661353.1892385.8696986-.6042103 2.2225376-2.627832 3.7606707-4.931 3.748h-2.037c.0263894-2.7864105 2.3055715-5.0244133 5.092-5z"/><path id="Shape" d="m30 33h-2.037c-2.303168.0126707-4.3267897-1.5254624-4.931-3.748-.0749424-.3035633-.0050617-.62472.1892385-.8696986.1943001-.2449786.491108-.3861524.8037615-.3823014h.883c2.7864285-.0244133 5.0656106 2.2135895 5.092 5z"/><path id="Shape" d="m35.975 28c.3126535-.003851.6094614.1373228.8037615.3823014.1943002.2449786.2641809.5661353.1892385.8696986-.6042103 2.2225376-2.627832 3.7606707-4.931 3.748h-2.037c.0263894-2.7864105 2.3055715-5.0244133 5.092-5z"/><path id="Shape" d="m11 51h-2.037c-2.30303027.0129145-4.32649585-1.5254119-4.93-3.748-.07531961-.3034354-.00572324-.6246453.1884359-.869693.19415914-.2450476.4909452-.3862478.8035641-.382307h.883c2.78642848-.0244133 5.0656106 2.2135895 5.092 5z"/><path id="Shape" d="m16.975 46c.3126535-.003851.6094614.1373228.8037615.3823014.1943002.2449786.2641809.5661353.1892385.8696986-.6042103 2.2225376-2.627832 3.7606707-4.931 3.748h-2.037c.0263894-2.7864105 2.3055715-5.0244133 5.092-5z"/><path id="Shape" d="m11 42h-2.037c-2.30303027.0129145-4.32649585-1.5254119-4.93-3.748-.07531961-.3034354-.00572324-.6246453.1884359-.869693.19415914-.2450476.4909452-.3862478.8035641-.382307h.883c2.78642848-.0244133 5.0656106 2.2135895 5.092 5z"/><path id="Shape" d="m16.975 37c.3126535-.003851.6094614.1373228.8037615.3823014.1943002.2449786.2641809.5661353.1892385.8696986-.6042103 2.2225376-2.627832 3.7606707-4.931 3.748h-2.037c.0263894-2.7864105 2.3055715-5.0244133 5.092-5z"/><path id="Shape" d="m49 51h-2.037c-2.303168.0126707-4.3267897-1.5254624-4.931-3.748-.0749424-.3035633-.0050617-.62472.1892385-.8696986.1943001-.2449786.491108-.3861524.8037615-.3823014h.883c2.7864285-.0244133 5.0656106 2.2135895 5.092 5z"/><path id="Shape" d="m54.975 46c.3126535-.003851.6094614.1373228.8037615.3823014.1943002.2449786.2641809.5661353.1892385.8696986-.6042103 2.2225376-2.627832 3.7606707-4.931 3.748h-2.037c.0263894-2.7864105 2.3055715-5.0244133 5.092-5z"/><path id="Shape" d="m49 42h-2.037c-2.303168.0126707-4.3267897-1.5254624-4.931-3.748-.0749424-.3035633-.0050617-.62472.1892385-.8696986.1943001-.2449786.491108-.3861524.8037615-.3823014h.883c2.7864285-.0244133 5.0656106 2.2135895 5.092 5z"/><path id="Shape" d="m54.975 37c.3126535-.003851.6094614.1373228.8037615.3823014.1943002.2449786.2641809.5661353.1892385.8696986-.6042103 2.2225376-2.627832 3.7606707-4.931 3.748h-2.037c.0263894-2.7864105 2.3055715-5.0244133 5.092-5z"/><path id="Shape" d="m49 33h-2.037c-2.303168.0126707-4.3267897-1.5254624-4.931-3.748-.0749424-.3035633-.0050617-.62472.1892385-.8696986.1943001-.2449786.491108-.3861524.8037615-.3823014h.883c2.7864285-.0244133 5.0656106 2.2135895 5.092 5z"/><path id="Shape" d="m54.975 28c.3126535-.003851.6094614.1373228.8037615.3823014.1943002.2449786.2641809.5661353.1892385.8696986-.6042103 2.2225376-2.627832 3.7606707-4.931 3.748h-2.037c.0263894-2.7864105 2.3055715-5.0244133 5.092-5z"/><path id="Shape" d="m49 24h-2.037c-2.303168.0126707-4.3267897-1.5254624-4.931-3.748-.0749424-.3035633-.0050617-.62472.1892385-.8696986.1943001-.2449786.491108-.3861524.8037615-.3823014h.883c2.7864285-.0244133 5.0656106 2.2135895 5.092 5z"/><path id="Shape" d="m54.975 19c.3126535-.003851.6094614.1373228.8037615.3823014.1943002.2449786.2641809.5661353.1892385.8696986-.6042103 2.2225376-2.627832 3.7606707-4.931 3.748h-2.037c.0263894-2.7864105 2.3055715-5.0244133 5.092-5z"/></g></g></g></svg>