<svg height="512" viewBox="0 0 60 58" width="512" xmlns="http://www.w3.org/2000/svg"><g id="Page-1" fill="none" fill-rule="evenodd"><g id="061---Tractor-Rake" fill-rule="nonzero"><g fill="#7f8c8d"><path id="Shape" d="m2 58c-.55228475 0-1-.4477153-1-1v-8c0-.5522847.44771525-1 1-1s1 .4477153 1 1v8c0 .5522847-.44771525 1-1 1z"/><path id="Shape" d="m6 58c-.55228475 0-1-.4477153-1-1v-8c0-.5522847.44771525-1 1-1s1 .4477153 1 1v8c0 .5522847-.44771525 1-1 1z"/><path id="Shape" d="m10 58c-.55228475 0-1-.4477153-1-1v-8c0-.5522847.44771525-1 1-1 .5522847 0 1 .4477153 1 1v8c0 .5522847-.4477153 1-1 1z"/><path id="Shape" d="m14 58c-.5522847 0-1-.4477153-1-1v-8c0-.5522847.4477153-1 1-1s1 .4477153 1 1v8c0 .5522847-.4477153 1-1 1z"/><path id="Shape" d="m18 58c-.5522847 0-1-.4477153-1-1v-8c0-.5522847.4477153-1 1-1s1 .4477153 1 1v8c0 .5522847-.4477153 1-1 1z"/><path id="Shape" d="m22 58c-.5522847 0-1-.4477153-1-1v-8c0-.5522847.4477153-1 1-1s1 .4477153 1 1v8c0 .5522847-.4477153 1-1 1z"/><path id="Shape" d="m26 58c-.5522847 0-1-.4477153-1-1v-8c0-.5522847.4477153-1 1-1s1 .4477153 1 1v8c0 .5522847-.4477153 1-1 1z"/><path id="Shape" d="m30 58c-.5522847 0-1-.4477153-1-1v-8c0-.5522847.4477153-1 1-1s1 .4477153 1 1v8c0 .5522847-.4477153 1-1 1z"/><path id="Shape" d="m34 58c-.5522847 0-1-.4477153-1-1v-8c0-.5522847.4477153-1 1-1s1 .4477153 1 1v8c0 .5522847-.4477153 1-1 1z"/><path id="Shape" d="m38 58c-.5522847 0-1-.4477153-1-1v-8c0-.5522847.4477153-1 1-1s1 .4477153 1 1v8c0 .5522847-.4477153 1-1 1z"/><path id="Shape" d="m42 58c-.5522847 0-1-.4477153-1-1v-8c0-.5522847.4477153-1 1-1s1 .4477153 1 1v8c0 .5522847-.4477153 1-1 1z"/><path id="Shape" d="m46 58c-.5522847 0-1-.4477153-1-1v-8c0-.5522847.4477153-1 1-1s1 .4477153 1 1v8c0 .5522847-.4477153 1-1 1z"/><path id="Shape" d="m50 58c-.5522847 0-1-.4477153-1-1v-8c0-.5522847.4477153-1 1-1s1 .4477153 1 1v8c0 .5522847-.4477153 1-1 1z"/><path id="Shape" d="m54 58c-.5522847 0-1-.4477153-1-1v-8c0-.5522847.4477153-1 1-1s1 .4477153 1 1v8c0 .5522847-.4477153 1-1 1z"/><path id="Shape" d="m58 58c-.5522847 0-1-.4477153-1-1v-8c0-.5522847.4477153-1 1-1s1 .4477153 1 1v8c0 .5522847-.4477153 1-1 1z"/></g><path id="Shape" d="m14 29h-4c-.55228475 0-1-.4477153-1-1s.44771525-1 1-1h4c.5522847 0 1 .4477153 1 1s-.4477153 1-1 1z" fill="#e57e25"/><path id="Shape" d="m50 29h-4c-.5522847 0-1-.4477153-1-1s.4477153-1 1-1h4c.5522847 0 1 .4477153 1 1s-.4477153 1-1 1z" fill="#e57e25"/><path id="Shape" d="m46 31-12.673 4.526c-.7956898.2843308-1.326845 1.0380348-1.327 1.883v6.591h-4v-6.591c-.000155-.8449652-.5313102-1.5986692-1.327-1.883l-12.673-4.526 16-2z" fill="#e57e25"/><path id="Shape" d="m46 25v-3.68c.000106-.8411329-.3529107-1.6436746-.973-2.212l-10.054-9.216c-.6200893-.56832545-.973106-1.37086712-.973-2.212v-6.68h-8v6.68c.000106.84113288-.3529107 1.64367455-.973 2.212l-10.054 9.216c-.6200893.5683254-.973106 1.3708671-.973 2.212v3.68l16 2z" fill="#f0c419"/><path id="Shape" d="m30 26c-.5522847 0-1-.4477153-1-1v-20c0-.55228475.4477153-1 1-1s1 .44771525 1 1v20c0 .5522847-.4477153 1-1 1z" fill="#f3d55b"/><path id="Shape" d="m37 7h-14c-.5522847 0-1-.44771525-1-1s.4477153-1 1-1h14c.5522847 0 1 .44771525 1 1s-.4477153 1-1 1z" fill="#f3d55b"/><path id="Shape" d="m37 2h-14c-.5522847 0-1-.44771525-1-1s.4477153-1 1-1h14c.5522847 0 1 .44771525 1 1s-.4477153 1-1 1z" fill="#f3d55b"/><path id="Shape" d="m4 43h52c2.209139 0 4 1.790861 4 4v1c0 .5522847-.4477153 1-1 1h-58c-.55228475 0-1-.4477153-1-1v-1c0-2.209139 1.790861-4 4-4z" fill="#95a5a5"/><path id="Rectangle-path" d="m14 25h32v6h-32z" fill="#f29c1f"/></g></g></svg>