<svg height="512" viewBox="0 0 58 58" width="512" xmlns="http://www.w3.org/2000/svg"><g id="Page-1" fill="none" fill-rule="evenodd"><g id="062---Tractor-Simulator" fill-rule="nonzero" transform="translate(-1)"><path id="Shape" d="m59 2.18v43.64c.0452102 1.152631-.8477494 2.1259569-2 2.18h-54c-.67443289-.0110123-1.29660581-.3654623-1.65-.94-.22942266-.3728686-.35060601-.8022039-.35-1.24v-43.64c-.04521019-1.152631.84774936-2.12595691 2-2.18h54c1.1522506.05404309 2.0452102 1.027369 2 2.18z" fill="#84b5cb"/><path id="Shape" d="m1.35 47.06c-.22942266-.3728686-.35060601-.8022039-.35-1.24v-43.64c-.04521019-1.152631.84774936-2.12595691 2-2.18h44.65c.19 14.74-4.59 44.88-46.3 47.06z" fill="#9fc9d3"/><path id="Shape" d="m38 48 3 6-11 2-11-2 3-6 8-2z" fill="#2980ba"/><rect id="Rectangle-path" fill="#3b97d3" height="4" rx="2" width="34" x="13" y="54"/><path id="Shape" d="m59 42v3.82c.0452102 1.152631-.8477494 2.1259569-2 2.18h-54c-1.15225064-.0540431-2.04521019-1.027369-2-2.18v-3.82z" fill="#3b97d3"/><path id="Shape" d="m34 33v4c0 .5522847-.4477153 1-1 1h-3c-.5522847 0-1-.4477153-1-1v-4z" fill="#c03a2b"/><path id="Shape" d="m54 21v9.14l-15 3.86h-10v-2c.0023301-1.3544523-.1930631-2.7019914-.58-4l6.58-10h16c1.6568542 0 3 1.3431458 3 3z" fill="#e64c3c"/><path id="Shape" d="m35 7v19c-.0032948 1.1032019-.8967981 1.9967052-2 2h-4.59l-14.14-9.98 2.73-10.02z" fill="#2fa8cc"/><path id="Shape" d="m25 26c-.5522847 0-1-.4477153-1-1v-17c0-.55228475.4477153-1 1-1s1 .44771525 1 1v17c0 .5522847-.4477153 1-1 1z" fill="#e64c3c"/><g fill="#9fc9d3"><path id="Shape" d="m29 15c-.4643791.0008998-.868272-.3180058-.9751118-.7699285-.1068397-.4519226.1114908-.9179291.5271118-1.1250715l2-1c.4942948-.2468713 1.0951287-.0462948 1.342.448.2468713.4942949.0462948 1.0951287-.448 1.342l-2 1c-.1385366.0690463-.2912105.1049898-.446.105z"/><path id="Shape" d="m19 16c-.4043959-.0000863-.7689341-.2437275-.923678-.6173454-.1547439-.373618-.0692299-.8036603.216678-1.0896546l2-2c.3923789-.3789722 1.0160848-.3735524 1.4018186.0121814s.3911536 1.0094397.0121814 1.4018186l-2 2c-.1874927.1875494-.4418052.2929434-.707.293z"/><path id="Shape" d="m29 20c-.4643791.0008998-.868272-.3180058-.9751118-.7699285-.1068397-.4519226.1114908-.9179291.5271118-1.1250715l2-1c.4942948-.2468713 1.0951287-.0462948 1.342.448.2468713.4942949.0462948 1.0951287-.448 1.342l-2 1c-.1385366.0690463-.2912105.1049898-.446.105z"/></g><path id="Shape" d="m29 32 .0000206 1h-4.0500206l-14.49-9.9-2.07-3.44c1.8140007-.9762688 3.8225784-1.5364844 5.88-1.64.24-.01.48-.02.73-.02 6.1901789-.0007936 11.6448543 4.0668241 13.41 10h.01c.3869369 1.2980086.5823301 2.6455477.58 4z" fill="#2c3e50"/><path id="Shape" d="m50 29c-.5522847 0-1-.4477153-1-1v-6c0-.5522847.4477153-1 1-1s1 .4477153 1 1v6c0 .5522847-.4477153 1-1 1z" fill="#000"/><path id="Shape" d="m29 35c-.5522847 0-1-.4477153-1-1v-2c-.008266-7.1762751-5.8237249-12.991734-13-13-2.9188338-.0117847-5.75472543.9704262-8.041 2.785-.43354353.3421404-1.0623596.2680435-1.4045-.1655s-.26804353-1.0623596.1655-1.4045c2.63816158-2.0949928 5.9112172-3.2289232 9.28-3.215 8.2803876.0093685 14.9906315 6.7196124 15 15v2c0 .5522847-.4477153 1-1 1z" fill="#e64c3c"/><path id="Shape" d="m54 22v8.14l-10 2.57v-10.71z" fill="#35495e"/><circle id="Oval" cx="15" cy="32" fill="#3f5c6c" r="10"/><circle id="Oval" cx="15" cy="32" fill="#547580" r="6"/><circle id="Oval" cx="15" cy="32" fill="#95a5a5" r="2"/><circle id="Oval" cx="39" cy="22" fill="#c03a2b" r="1"/><path id="Shape" d="m54 21v2h-11c-.5522847 0-1-.4477153-1-1s.4477153-1 1-1z" fill="#c03a2b"/><circle id="Oval" cx="47" cy="34" fill="#3f5c6c" r="8"/><circle id="Oval" cx="47" cy="34" fill="#547580" r="4"/><circle id="Oval" cx="47" cy="34" fill="#95a5a5" r="1"/><rect id="Rectangle-path" fill="#c03a2b" height="4" rx="2" width="24" x="14" y="4"/></g></g></svg>