<svg height="512" viewBox="0 0 58 58" width="512" xmlns="http://www.w3.org/2000/svg"><g id="Page-1" fill="none" fill-rule="evenodd"><g id="063---Hay-Baler" fill-rule="nonzero"><path id="Shape" d="m46 14h-30c.029-.1 3.2-11.217 3.17-11.1.4914398-1.71815649 2.0629434-2.90188644 3.85-2.9h17.29c1.7841399.00022107 3.3516291 1.18400204 3.84 2.9l2.81 9.83c.0843562.300822.02327.6237825-.1651261.8730149-.1883962.2492323-.4824494.3960918-.7948739.3969851z" fill="#e64c3c"/><path id="Shape" d="m35 14v-3h2c.5522847 0 1-.4477153 1-1 0-.55228475-.4477153-1-1-1h-2c0-.55228475-.4477153-1-1-1s-1 .44771525-1 1h-6c0-.55228475-.4477153-1-1-1s-1 .44771525-1 1h-15c-1.6548028.0049422-2.9950578 1.3451972-3 3v2c0 .5522847.44771525 1 1 1s1-.4477153 1-1v-2c0-.5522847.44771525-1 1-1h15v3h2v-3h6v3z" fill="#95a5a5"/><path id="Shape" d="m14.71 56h-8.89l-3.82-3.82v-5.18l12-1z" fill="#35495e"/><circle id="Oval" cx="3" cy="55" fill="#3f5c6c" r="3"/><path id="Shape" d="m16 14v29.08l-3.42 3.92h-10.58c-.55228475 0-1-.4477153-1-1v-28c0-2.209139 1.790861-4 4-4z" fill="#e64c3c"/><path id="Shape" d="m16 39v2h-11c-.55228475 0-1-.4477153-1-1s.44771525-1 1-1z" fill="#c03a2b"/><path id="Shape" d="m12 30h4v6h-4c-.5522847 0-1-.4477153-1-1v-4c0-.5522847.4477153-1 1-1z" fill="#c03a2b"/><g fill="#f29c1f"><path id="Shape" d="m51.307 35.538c-.3687074-.0003134-.7073293-.2034902-.88111-.5286756s-.1545228-.719615.05011-1.0263244l1.692-2.538c.306518-.4595009.9274991-.583518 1.387-.277s.583518.9274991.277 1.387l-1.692 2.538c-.1857211.2783647-.4983673.4453846-.833.445z"/><path id="Shape" d="m35.868 39.159c-.2328415.000271-.4584792-.080718-.638-.229l-2.968-2.459c-.2752731-.2279354-.4080339-.585413-.3482726-.9377742.0597613-.3523613.3029656-.6460742.638-.7705.3350345-.1244258.7109995-.0606612.9862726.1672742l2.968 2.459c.3245722.2689498.4456444.7125479.3027079 1.1090959-.1429364.3965479-.5191855.6608856-.9407079.6609041z"/><path id="Shape" d="m56.53 56c-.2537866.0004916-.4981495-.0961087-.683-.27l-2.347-2.193c-.270999-.2414018-.3899346-.6106817-.3107586-.9648659.0791759-.3541842.3440335-.6376692.6920282-.7406984.3479947-.1030291.7244945-.0094279.9837304.2445643l2.349 2.194c.299711.280598.3974612.7158768.2465052 1.0976807s-.5199423.6325463-.9305052.6323193z"/></g><circle id="Oval" cx="45" cy="45" fill="#f0c419" r="13"/><path id="Shape" d="m45 55c-4.9135129.0005095-9.0994268-3.5686772-9.8755101-8.4205123-.7760833-4.8518352 2.0876277-9.5486563 6.7561368-11.0808549 4.6685091-1.5321985 9.7584757.554236 12.0083733 4.9223672.1639849.3174305.1461661.6982332-.0467443.9989636-.1929104.3007303-.5316047.4757001-.8885.459-.3568954-.0167002-.6777708-.2225331-.8417557-.5399636-1.7989993-3.4953765-5.8709897-5.1657243-9.6063693-3.9405734s-6.0270967 4.9827034-5.4064667 8.8645681c.62063 3.8818648 3.9696714 6.7375765 7.900836 6.7370053 2.7614237 0 5-2.2385763 5-5s-2.2385763-5-5-5c-1.6568542.0000001-2.9999999 1.3431458-2.9999999 3s1.3431457 2.9999999 2.9999999 3c.5522847 0 1 .4477153 1 1s-.4477153 1-1 1c-2.7614237 0-5-2.2385763-5-5s2.2385763-5 5-5c3.8659932 0 7 3.1340068 7 7s-3.1340068 7-7 7z" fill="#f29c1f"/><circle id="Oval" cx="20" cy="50" fill="#3f5c6c" r="8"/><circle id="Oval" cx="20" cy="50" fill="#547580" r="3"/></g></g></svg>