<svg height="512" viewBox="0 0 59 59" width="512" xmlns="http://www.w3.org/2000/svg"><g id="Page-1" fill="none" fill-rule="evenodd"><g id="064---Watering-Can" fill-rule="nonzero"><path id="Shape" d="m50.068 23.991c-.5051962-.0008963-.9303772-.3784535-.991-.88l-1.99-16.471c-.186866-1.51829795-1.0206472-2.88180537-2.287-3.74-1.2498309-.84369024-2.8029981-1.10686478-4.261-.722l-11.622 3.079c-2.6650464.68539099-4.3369889 3.32580741-3.817 6.028.5157428 2.5811031 1.3176981 5.0966467 2.391 7.5.1561038.3294859.1205152.7178184-.0928767 1.0134419-.2133918.2956236-.5707638.4516812-.9326433.4072679-.3618795-.0444134-.670908-.2822581-.80648-.6207098-1.1318364-2.5379339-1.9777092-5.1939478-2.522-7.919-.7215197-3.73603388 1.5848465-7.38953158 5.268-8.345l11.618-3.078c2.0296112-.53200212 4.1901345-.15990825 5.9248448 1.02040024s2.8739486 3.05339436 3.1241552 5.13659976l1.99 16.475c.0664284.5481086-.3239196 1.0463395-.872 1.113-.040569.0034582-.08131.00446-.122.003z" fill="#802f34"/><path id="Shape" d="m22.59 22.65 6.03 10.14c.208305.3434861.1807182.7803484-.0691405 1.0949026-.2498586.3145542-.6691479.440277-1.0508595.3150974l-6.82-1.77-1.014 3.687 12.134 3.425c.6762485.2142367 1.2502579.6693874 1.613 1.279l3.987 6.712c.816 1.378 6.293-.4 12.227-3.955s10.086-7.551 9.27-8.93l-14.815-24.881z" fill="#e64c3c"/><path id="Shape" d="m15.038 25.7c2.8.713 6.5 4.6 5.513 8.54-.989 3.955-6.007 5.288-8.81 4.575z" fill="#e64c3c"/><path id="Shape" d="m15.605 32.861c-.6643038 2.3285228-2.0150551 4.4027414-3.876 5.952-.790709-2.2606855-.9293251-4.6982486-.4-7.034.6526699-2.327522 1.9326406-4.4308252 3.7-6.08.889649 2.2793154 1.089945 4.7698013.576 7.162z" fill="#c03a2b"/><rect id="Rectangle-path" fill="#cb8252" height="5" rx="1" width="58" x="1" y="54"/><g fill="#2fa8cc"><path id="Shape" d="m7 30.071c-.52483271-.0000353-.96033826-.4058027-.9974319-.9293229-.03709365-.5235203.33684751-.9866403.8564319-1.0606771.37793788-.0539616.75922927-.0810296 1.141-.081.55228475 0 1 .4477153 1 1s-.44771525 1-1 1c-.28711505.0001113-.57385181.0208312-.858.062-.04710363.0059129-.09452677.0089186-.142.009z"/><path id="Shape" d="m2.254 33c-.37232972-.0004666-.71356987-.2077506-.88560322-.5379539-.17203336-.3302032-.14636984-.7286413.06660322-1.0340461.28545101-.4098493.60851767-.7921728.965-1.142.25391185-.2561473.62608319-.3557194.97397903-.2605819s.61760612.370242.70583659.7199533c.08823047.3497114-.01869109.7198383-.27981562.9686286-.26806098.2628884-.51110638.5501239-.726.858-.18696076.2681036-.49314551.4279171-.82.428z"/><path id="Shape" d="m1 38c-.55228475 0-1-.4477153-1-1v-1c0-.5522847.44771525-1 1-1s1 .4477153 1 1v1c0 .5522847-.44771525 1-1 1z"/><path id="Shape" d="m1 43c-.55228475 0-1-.4477153-1-1v-1c0-.5522847.44771525-1 1-1s1 .4477153 1 1v1c0 .5522847-.44771525 1-1 1z"/><path id="Shape" d="m1 48c-.55228475 0-1-.4477153-1-1v-1c0-.5522847.44771525-1 1-1s1 .4477153 1 1v1c0 .5522847-.44771525 1-1 1z"/><path id="Shape" d="m5 41c-.55228475 0-1-.4477153-1-1v-1c0-.5522847.44771525-1 1-1s1 .4477153 1 1v1c0 .5522847-.44771525 1-1 1z"/><path id="Shape" d="m5 46c-.55228475 0-1-.4477153-1-1v-1c0-.5522847.44771525-1 1-1s1 .4477153 1 1v1c0 .5522847-.44771525 1-1 1z"/><path id="Shape" d="m5 51c-.55228475 0-1-.4477153-1-1v-1c0-.5522847.44771525-1 1-1s1 .4477153 1 1v1c0 .5522847-.44771525 1-1 1z"/><path id="Shape" d="m9 44c-.55228475 0-1-.4477153-1-1v-1c0-.5522847.44771525-1 1-1s1 .4477153 1 1v1c0 .5522847-.44771525 1-1 1z"/><path id="Shape" d="m9 49c-.55228475 0-1-.4477153-1-1v-1c0-.5522847.44771525-1 1-1s1 .4477153 1 1v1c0 .5522847-.44771525 1-1 1z"/><path id="Shape" d="m5.416 36c-.13776136.0004847-.27407098-.0281403-.4-.084-.50568966-.2211094-.73663197-.8101018-.516-1.316.18625853-.4256651.42115453-.828344.7-1.2.33137085-.4418278.9581722-.5313708 1.4-.2s.53137085.9581722.2 1.4c-.18625658.2474109-.34267116.5159337-.466.8-.15926415.3649212-.51983898.600591-.918.6z"/></g><ellipse id="Oval" cx="33.334" cy="16.211" fill="#c03a2b" rx="12.529" ry="2.896" transform="matrix(.858 -.514 .514 .858 -3.592 19.442)"/><path id="Shape" d="m27.524 30.943c.818 1.374 6.293-.4 12.229-3.951s10.084-7.553 9.266-8.927l-1.975-3.317c.818 1.374-3.33 5.371-9.266 8.927s-11.411 5.325-12.229 3.951z" fill="#f0c419"/></g></g></svg>