<svg height="512" viewBox="0 0 58 59" width="512" xmlns="http://www.w3.org/2000/svg"><g id="Page-1" fill="none" fill-rule="evenodd"><g id="065---Plant-Data" fill-rule="nonzero"><g fill="#4fba6f"><path id="Shape" d="m4 24h4c3.8659932 0 7 3.1340068 7 7v2h-5c-3.86599325 0-7-3.1340068-7-7v-1c0-.5522847.44771525-1 1-1z"/><path id="Shape" d="m22 24h5v2c0 1.8565154-.7374979 3.6369928-2.0502525 4.9497475-1.3127547 1.3127546-3.0932321 2.0502525-4.9497475 2.0502525h-4c-.5522847 0-1-.4477153-1-1v-1c0-3.8659932 3.1340068-7 7-7z" transform="matrix(-1 0 0 -1 42 57)"/><path id="Shape" d="m22 11h4v1c0 3.8659932-3.1340068 7-7 7h-3c-.5522847 0-1-.4477153-1-1 0-3.8659932 3.1340068-7 7-7z" transform="matrix(-1 0 0 -1 41 30)"/><path id="Shape" d="m6.875 4h2c3.3827441 0 6.125 2.74225591 6.125 6.125v.875h-2.875c-3.38274409 0-6.125-2.74225591-6.125-6.125 0-.48324916.39175084-.875.875-.875z"/></g><rect id="Rectangle-path" fill="#84b5cb" height="40" rx="2" width="24" x="34" y="1"/><path id="Shape" d="m55.53 1c-1.21 10.96-5.62 31.42-21.53 36.14v-34.14c.0032948-1.10320187.8967981-1.9967052 2-2z" fill="#9fc9d3"/><path id="Shape" d="m15 34c-.5522847 0-1-.4477153-1-1v-32c0-.55228475.4477153-1 1-1s1 .44771525 1 1v32c0 .5522847-.4477153 1-1 1z" fill="#24ae5f"/><path id="Shape" d="m23.139 59h-16.278c-.49513179.0000063-.9157205-.3623209-.989-.852l-2.872-19.148 12-2 12 2-2.872 19.148c-.0732795.4896791-.4938682.8520063-.989.852z" fill="#e57e25"/><path id="Shape" d="m9.443 56c-.494373-.0009826-.91383363-.3630702-.987-.852l-1.8-12c-.06113594-.3566351.07515207-.7184768.35637312-.9461629.28122105-.227686.66350204-.2856953.99960863-.1516856.33610659.1340096.57360301.4391313.62101825.7978485l1.8 12c.0817779.5458747-.2941922 1.054777-.84 1.137-.04959816.0084242-.09971582.013436-.15.015z" fill="#f29c1f"/><rect id="Rectangle-path" fill="#f29c1f" height="6" rx="1" width="30" y="33"/><path id="Shape" d="m51 14c-.0000388 1.3265125-.5249046 2.5991323-1.46 3.54l-3.54-3.54v-5c2.7614237 0 5 2.2385763 5 5z" fill="#ff5364"/><path id="Shape" d="m49.54 17.54c-1.6008875 1.5968384-4.0742064 1.9205523-6.032127.7894994s-2.9130937-3.4353405-2.3295522-5.6198801c.5835415-2.1845395 2.5605473-3.70557374 4.8216792-3.7096193v5z" fill="#955ba5"/><path id="Shape" d="m49 25h-10c-.5522847 0-1-.4477153-1-1s.4477153-1 1-1h10c.5522847 0 1 .4477153 1 1s-.4477153 1-1 1z" fill="#e57e25"/><path id="Shape" d="m45 29h-6c-.5522847 0-1-.4477153-1-1s.4477153-1 1-1h6c.5522847 0 1 .4477153 1 1s-.4477153 1-1 1z" fill="#e57e25"/><path id="Shape" d="m44 50h-12c-.5522847 0-1-.4477153-1-1s.4477153-1 1-1h12c.5522847 0 1-.4477153 1-1v-6c0-.5522847.4477153-1 1-1s1 .4477153 1 1v6c0 1.6568542-1.3431458 3-3 3z" fill="#35495e"/><path id="Shape" d="m58 35v4c-.0032948 1.1032019-.8967981 1.9967052-2 2h-20c-1.1032019-.0032948-1.9967052-.8967981-2-2v-4c.0032948 1.1032019.8967981 1.9967052 2 2h20c1.1032019-.0032948 1.9967052-.8967981 2-2z" fill="#3b97d3"/><path id="Shape" d="m54 1-2.861 3.052c-.5672653.60498515-1.3596648.94815313-2.189.948h-5.9c-.8293352.00015313-1.6217347-.34301485-2.189-.948l-2.861-3.052z" fill="#3b97d3"/><path id="Shape" d="m53 33h-13c-1.1045695 0-2-.8954305-2-2v-10c0-.5522847.4477153-1 1-1s1 .4477153 1 1v10h13c.5522847 0 1 .4477153 1 1s-.4477153 1-1 1z" fill="#f29c1f"/></g></g></svg>