<svg height="512" viewBox="0 0 60 60" width="512" xmlns="http://www.w3.org/2000/svg"><g id="Page-1" fill="none" fill-rule="evenodd"><g id="066---Manure-Spreader" fill-rule="nonzero" transform="translate(0 -1)"><path id="Shape" d="m54 35-1 5h-18.58l-15.17-1h-5.25l5.485-18.45z" fill="#35495e"/><path id="Shape" d="m56 25v9c0 .5522847-.4477153 1-1 1h-20l-13 4h-9l3.53-12 1.05-.05 1.07-.06z" fill="#c03a2b"/><path id="Shape" d="m40 32c-.5522847 0-1-.4477153-1-1v-4c0-.5522847.4477153-1 1-1s1 .4477153 1 1v4c0 .5522847-.4477153 1-1 1z" fill="#802f34"/><path id="Shape" d="m47 32c-.5522847 0-1-.4477153-1-1v-4c0-.5522847.4477153-1 1-1s1 .4477153 1 1v4c0 .5522847-.4477153 1-1 1z" fill="#802f34"/><path id="Shape" d="m55 23c-.5522847 0-1-.4477153-1-1v-7c0-.5522847.4477153-1 1-1s1 .4477153 1 1v7c0 .5522847-.4477153 1-1 1z" fill="#c03a2b"/><path id="Shape" d="m20.53 17.03c.155842-.0202679.3128458-.0302894.47-.03.3374204.0019072.6733073.0455725 1 .13.5792818.1392055 1.1904258.0066683 1.66-.36.67804-.4994221 1.4978836-.7691997 2.34-.77.3374204.0019072.6733073.0455725 1 .13.5792818.1392055 1.1904258.0066683 1.66-.36 1.3911269-1.0265321 3.2888731-1.0265321 4.68 0 .4695742.3666683 1.0807182.4992055 1.66.36.3266927-.0844275.6625796-.1280928 1-.13.8421164.0008003 1.66196.2705779 2.34.77.4695742.3666683 1.0807182.4992055 1.66.36.3266927-.0844275.6625796-.1280928 1-.13.6794415.0028148 1.3470151.178311 1.94.51.6555969.3799435 1.4644031.3799435 2.12 0 1.2369117-.6935932 2.7490625-.6783556 3.9717461.0400225 1.2226835.718378 1.9720509 2.0318775 1.9682539 3.4499775l.0000144 2h-33.0000144z" fill="#cb8252"/><path id="Shape" d="m56 22v5h-39.47l1.47-5z" fill="#e64c3c"/><path id="Shape" d="m20.54 17-2.96 9.95-3.58 12.05h-3c-.6318673.0009306-1.22701248-.2967898-1.6051872-.8029924-.37817472-.5062027-.49489587-1.1613449-.3148128-1.7670076l5.36-18c.2492035-.8474157 1.0267019-1.4295219 1.91-1.43z" fill="#35495e"/><g fill="#805333"><path id="Shape" d="m7 23.289c-.48627562-.0007825-.90149776-.3512597-.98392111-.8304997-.08242336-.47924.19184826-.9483015.64992111-1.1115003.36434123-.129411.73598393-.2372642 1.113-.323.34869122-.0789557.71301755.0341108.95574079.2966084.24272325.2624976.32696797.6345467.221.976s-.38604957.6004359-.73474079.6793916c-.3003352.0678298-.5964963.152972-.887.255-.10711352.0386086-.22014099.0582361-.334.058z"/><path id="Shape" d="m2.515 26.776c-.36886363-.0004359-.70753501-.2038957-.88113972-.5293522-.17360472-.3254566-.15394886-.7200548.05113972-1.0266478.26077767-.3901951.54882987-.761455.862-1.111.36975143-.4053627.99706872-.4370992 1.40584291-.0711229.40877419.3659764.44632689.9929724.08415709 1.4051229-.25048174.2802059-.48104507.5775992-.69.89-.18598208.2773086-.4981001.4434964-.832.443z"/><path id="Shape" d="m1 31.777c-.55228475 0-1-.4477153-1-1 .00004928-.3705037.02041317-.740726.061-1.109.03912058-.355122.26472482-.6623977.59182978-.8060793.32710496-.1436815.70601563-.1019404.99400001.1095.28798438.2114405.4412908.5604573.40217021.9155793-.03252037.2955537-.04887805.5926626-.049.89 0 .5522847-.44771525 1-1 1z"/><path id="Shape" d="m1 36.777c-.55228475 0-1-.4477153-1-1v-1c0-.5522847.44771525-1 1-1s1 .4477153 1 1v1c0 .5522847-.44771525 1-1 1z"/><path id="Shape" d="m5 36.777c-.55228475 0-1-.4477153-1-1v-1c0-.5522847.44771525-1 1-1s1 .4477153 1 1v1c0 .5522847-.44771525 1-1 1z"/><path id="Shape" d="m1 41.777c-.55228475 0-1-.4477153-1-1v-1c0-.5522847.44771525-1 1-1s1 .4477153 1 1v1c0 .5522847-.44771525 1-1 1z"/><path id="Shape" d="m5 41.777c-.55228475 0-1-.4477153-1-1v-1c0-.5522847.44771525-1 1-1s1 .4477153 1 1v1c0 .5522847-.44771525 1-1 1z"/><path id="Shape" d="m7.5 27.351c-.47307728-.0005567-.88103942-.3325436-.97771864-.795637-.09667922-.4630935.14437922-.9305753.57771864-1.120363.3853509-.1689736.78762652-.2963609 1.2-.38.54151519-.1104569 1.07004302.2389848 1.18049996.7805.11045695.5415152-.23898478 1.070043-.78049996 1.1805-.27504077.0541689-.54331119.1383388-.8.251-.12603897.0555184-.26227529.084128-.4.084z"/><path id="Shape" d="m5 31.777c-.55228475 0-1-.4477153-1-1-.00020326-.4029554.03965949-.8049327.119-1.2.11045695-.5415152.6389848-.8909569 1.1805-.7805s.89095695.6389848.7805 1.1805c-.05392442.2632338-.08073112.5313007-.08.8 0 .5522847-.44771525 1-1 1z"/></g><path id="Shape" d="m25.96 2.29-7.31 24.6-3.6 12.11h-2.05c-.0021448-.0981771.0113576-.1960694.04-.29l6.45-21.71 4.55-15.29c.1601626-.53019336.7198066-.83016258 1.25-.67s.8301626.71980664.67 1.25z" fill="#e64c3c"/><path id="Shape" d="m59 41h-24.58c-.5522847 0-1-.4477153-1-1s.4477153-1 1-1h24.58c.5522847 0 1 .4477153 1 1s-.4477153 1-1 1z" fill="#7f8c8d"/><circle id="Oval" cx="27" cy="37" fill="#3f5c6c" r="8"/><circle id="Oval" cx="27" cy="37" fill="#547580" r="3"/><path id="Shape" d="m30 61c-.5522847 0-1-.4477153-1-1v-15c0-.5522847.4477153-1 1-1s1 .4477153 1 1v15c0 .5522847-.4477153 1-1 1z" fill="#a56a43"/><path id="Shape" d="m8 61c-.12708668.000464-.25306465-.023645-.371-.071-.24644543-.0983216-.44371242-.2905559-.54836866-.5343787-.10465625-.2438228-.10812097-.519243-.00963134-.7656213l6-15c.1325455-.3318997.432089-.5678756.7857954-.6190376.3537064-.0511621.7078392.0902623.9290001.371.2211608.2807376.2757501.6581379.1432045.9900376l-6 15c-.15181018.3799891-.51980808.6291502-.929.629z" fill="#a56a43"/><path id="Shape" d="m52 61c-.4091919.0001502-.7771898-.2490109-.929-.629l-6-15c-.1325456-.3318997-.0779563-.7093.1432045-.9900376.2211609-.2807377.5752937-.4221621.9290001-.3710001.3537064.0511621.6532499.2871379.7857954.6190377l6 15c.0984896.2463783.0950249.5217985-.0096313.7656213-.1046563.2438228-.3019233.4360571-.5483687.5343787-.1179353.047355-.2439133.071464-.371.071z" fill="#a56a43"/><path id="Shape" d="m59 46h-18c-.5522847 0-1-.4477153-1-1s.4477153-1 1-1h18c.5522847 0 1 .4477153 1 1s-.4477153 1-1 1z" fill="#cb8252"/><path id="Shape" d="m37 46h-36c-.55228475 0-1-.4477153-1-1s.44771525-1 1-1h36c.5522847 0 1 .4477153 1 1s-.4477153 1-1 1z" fill="#cb8252"/></g></g></svg>