<svg height="512" viewBox="0 0 58 58" width="512" xmlns="http://www.w3.org/2000/svg"><g id="Page-1" fill="none" fill-rule="evenodd"><g id="067---Picking-Carrots" fill-rule="nonzero"><path id="Shape" d="m25.173 42.491-10.4-7c-2.8579116-1.934101-4.1784671-5.4652125-3.291-8.8l1.984-7.511c.3449056-1.3030001.1570867-2.6896932-.522-3.854l-7.759-13.302c-.24276708-.41634521-.24440184-.93071556-.00428607-1.34859545.24011577-.4178799.68533256-.67548723 1.16728607-.67540455h16.914c.460475-.00000964.8889993.23537695 1.136.624l4.612 7.256 5.99 2.69c1.5467535.9882534 2.978878 2.1453563 4.27 3.45l3.6 5.05c3.0396272 4.038599 5.3200102 8.5959765 6.73 13.45 0 0-22.929 10.98-24.427 9.971z" fill="#fdd7ad"/><path id="Shape" d="m39.25 23.43 6.23-7.5c1.0442802-1.2742553.8655818-3.152217-.4002858-4.2066491-1.2658677-1.054432-3.1451977-.89075-4.2097142.3666491l-5.87 7.06-6 .54-6.32-7.6c-1.0645165-1.2573991-2.9438465-1.4210811-4.2097142-.3666491-1.2658676 1.0544321-1.444566 2.9323938-.4002858 4.2066491l6.41 7.71z" fill="#24ae5f"/><path id="Shape" d="m29 21.38v-13.38c0-1.65685425 1.3431458-3 3-3s3 1.34314575 3 3v13.38z" fill="#4fba6f"/><path id="Shape" d="m43.32 37.11c-5.348 13.5-4.424 11.171-5.39 13.6-.067.1-.67 1.086-2.17 3.29l-3.76 1-3.74-1c-2.9398825-4.3864743-5.2900382-9.1405804-6.99-14.14l-1.11-8.81c.2900836-1.8241996 1.0061153-3.554324 2.09-5.05 2.2555791-3.1390888 5.8845744-5.0001784 9.75-5.0001784s7.4944209 1.8610896 9.75 5.0001784c2.2974262 3.2282535 2.8829327 7.3715517 1.57 11.11z" fill="#f29c1f"/><g fill="#e57e25"><path id="Shape" d="m31 27c0 .5522847-.4477153 1-1 1h-8.92c.3247775-.7027398.7165924-1.3725088 1.17-2h7.75c.5522847 0 1 .4477153 1 1z"/><path id="Shape" d="m42.91 28h-8.91c-.5522847 0-1-.4477153-1-1s.4477153-1 1-1h7.75c.4517174.6267544.8402788 1.2966879 1.16 2z"/><path id="Shape" d="m31 50c0 .5522847-.4477153 1-1 1h-3.6c-.38-.64-.75-1.31-1.13-2h4.73c.5522847 0 1 .4477153 1 1z"/><path id="Shape" d="m38.61 49-.68 1.71c-.06.09-.12.19-.18.29h-3.75c-.5522847 0-1-.4477153-1-1s.4477153-1 1-1z"/><path id="Shape" d="m31 39h-3.415c-.5522847 0-1-.4477153-1-1s.4477153-1 1-1h3.415c.5522847 0 1 .4477153 1 1s-.4477153 1-1 1z"/><path id="Shape" d="m42 39h-7c-.5522847 0-1-.4477153-1-1s.4477153-1 1-1h7c.5522847 0 1 .4477153 1 1s-.4477153 1-1 1z"/></g><path id="Shape" d="m19 30.268 9.244 6.219c1.5764655 1.0601002 2.1238621 3.1239563 1.28 4.826l-.013.027c-.3817957.7707366-1.0775978 1.3392423-1.908975 1.5597296-.8313773.2204874-1.7174613.0715096-2.431025-.4087296l-10.4-7z" fill="#fdd7ad"/><rect id="Rectangle-path" fill="#cb8252" height="4" rx="2" width="58" y="54"/><path id="Shape" d="m40.78 47.15c.072286.6052314-.1379299 1.2100631-.57 1.64l-1.42 1.42c-.3751365.3755541-.8841815.5865733-1.415.5865733s-1.0398635-.2110192-1.415-.5865733l-2.96-2.97c-.9556462-.9628123-1.1462686-2.4471195-.4649199-3.6201631.6813487-1.1730435 2.0651034-1.7428922 3.3749199-1.3898369z" fill="#fdd7ad"/><path id="Shape" d="m39.99 38.15c-1.1713074-.6790076-2.6527031-.486227-3.6112175.4699438-.9585143.9561708-1.1549208 2.4370901-.4787825 3.6100562h.01c.235.45.115.274 4.43 4.6.3751365.3755541.8841815.5865733 1.415.5865733s1.0398635-.2110192 1.415-.5865733l1.42-1.42c.3744562-.3736892.5848881-.8809811.5848881-1.41s-.2104319-1.0363108-.5848881-1.41c-.09-.09.17.162-4.6-4.44z" fill="#f9c795"/><path id="Shape" d="m47.608 38.156c.5126493.7319456.4512432 1.7210813-.148 2.384l-1.41 1.41c-.7825945.7787947-2.0474055.7787947-2.83 0-2.356-2.356-2.95-2.743-3.23-3.8-.2740909-1.0044392-.0077948-2.0791685.7035544-2.8394357s1.7660217-1.0973467 2.7864456-.8905643z" fill="#fdd7ad"/><path id="Shape" d="m50.408 36.16-1.408 1.41c-.375096.375248-.8839266.5860729-1.4145.5860729s-1.039404-.2108249-1.4145-.5860729l-1.961-1.96c-.7591894-.7570458-1.0568302-1.8616077-.780804-2.8976079s1.0837844-1.8460456 2.119-2.125 2.1406146.0155621 2.899804.7726079l1.96 1.97c.3785272.3735502.591605.8831893.591605 1.415s-.2130778 1.0414498-.591605 1.415z" fill="#f9c795"/></g></g></svg>