<svg height="512" viewBox="0 0 34 58" width="512" xmlns="http://www.w3.org/2000/svg"><g id="Page-1" fill="none" fill-rule="evenodd"><g id="068---Smart-Plant-App" fill-rule="nonzero"><rect id="Rectangle-path" fill="#84b5cb" height="58" rx="3" width="34"/><path id="Shape" d="m28.89 0c-.95 14.64-5.94 41.4-28.89 52.67v-49.67c0-1.65685425 1.34314575-3 3-3z" fill="#9fc9d3"/><circle id="Oval" cx="17" cy="36" fill="#2980ba" r="13"/><path id="Shape" d="m17 44c-.5522847 0-1-.4477153-1-1 0-1.092-1.638-3.24-2.8-4.417l-1.39-1.4c-.3890846-.3923983-.3863983-1.0259154.006-1.415s1.0259154-.3863983 1.415.006l1.391 1.405c.6644369.677083 1.2774693 1.4027609 1.834 2.171.3996098-1.699501.9844408-3.350039 1.744-4.922l.946-1.863c.2566098-.4794737.8493461-.6659856 1.3342788-.4198476s.6842713.8346846.4487212 1.3248476l-.946 1.862c-1.1640617 2.3988023-1.8382007 5.0056091-1.983 7.668 0 .2652165-.1053568.5195704-.2928932.7071068s-.4418903.2928932-.7071068.2928932z" fill="#24ae5f"/><path id="Shape" d="m27 0-2.861 3.052c-.5672653.60498515-1.3596648.94815313-2.189.948h-9.9c-.8293352.00015313-1.6217347-.34301485-2.189-.948l-2.861-3.052z" fill="#3b97d3"/><g fill="#ff5364"><path id="Shape" d="m26 12c-.226899.0003595-.4470919-.0769197-.624-.219-2.3978658-1.84622704-5.35007-2.82641805-8.376-2.781-3.0262712-.04564476-5.9788644.93455837-8.377 2.781-.27902442.223291-.65597796.2807626-.98886586.1507659s-.57113656-.4277123-.62500001-.781c-.05386346-.3532878.08484143-.7084749.36386587-.9317659 2.7538104-2.1286138 6.1466949-3.26309965 9.627-3.219 3.4803051-.04409965 6.8731896 1.0903862 9.627 3.219.3320683.2655376.4599178.7120206.3187268 1.1130751s-.5205463.6689763-.9457268.6679249z"/><path id="Shape" d="m23 16c-.2270891.0004815-.4474263-.0772015-.624-.22-3.1910537-2.3734529-7.5609463-2.3734529-10.752 0-.4318457.3244183-1.0432686.2472849-1.3810132-.1742202-.33774447-.4215052-.27974035-1.0350385.1310132-1.3857798 3.921665-2.9594135 9.330335-2.9594135 13.252 0 .3310896.265627.4584082.7113343.3175821 1.1117665-.1408262.4004322-.5191083.6683271-.9435821.6682335z"/><path id="Shape" d="m20 20c-.2266246.000535-.4465584-.0767772-.623-.219-1.4243841-1.0079573-3.3296159-1.0079573-4.754 0-.2779793.2340759-.661065.2989225-1.0005964.1693755-.3395315-.129547-.582058-.4330938-.6334644-.7928456-.0514065-.3597519.0963997-.7190749.3860608-.9385299 2.1434528-1.6251362 5.1065472-1.6251362 7.25 0 .3317791.2653089.4597225.7112818.3190546 1.1121292-.140668.4008475-.5192416.6690701-.9440546.6688708z"/></g><path id="Shape" d="m34 50v5c0 1.6568542-1.3431458 3-3 3h-28c-1.65685425 0-3-1.3431458-3-3v-5c0 1.6568542 1.34314575 3 3 3h28c1.6568542 0 3-1.3431458 3-3z" fill="#3b97d3"/><path id="Shape" d="m26.21 45.17c-2.4379447 2.4514799-5.7526415 3.8298504-9.21 3.8298504s-6.7720553-1.3783705-9.21-3.8298504c.89851192-.7563994 2.03549457-1.1708136 3.21-1.17.3561338.0009195.711266.0377728 1.06.11.7998417.1790454 1.6379179.0429475 2.34-.38 1.5970033-.9722249 3.6029967-.9722249 5.2 0 .7020821.4229475 1.5401583.5590454 2.34.38.348734-.0722272.7038662-.1090805 1.06-.11 1.1745054-.0008136 2.3114881.4136006 3.21 1.17z" fill="#cb8252"/><path id="Shape" d="m13.789 37.96c-1.2903155.6010616-2.8240824.0528101-3.441-1.23-.65-1.23-.24-3.25.03-4.27.0429787-.1691413.156233-.3118319.3112011-.3920867s.3368581-.0904131.4997989-.0279133c.99.35 2.891 1.15 3.541 2.38.7118589 1.2381684.2917136 2.8187364-.941 3.54z" fill="#4fba6f"/><path id="Shape" d="m22.652 33.73c-.3678449.8607958-1.188213 1.44184-2.1222998 1.5031668-.9340869.0613268-1.8233816-.4074707-2.3006136-1.2127836-.4772321-.8053128-.4614172-1.8104824.0409134-2.6003832.65-1.23 2.551-2.03 3.541-2.38.1629408-.0624998.3448308-.0523415.4997989.0279133s.2682224.2229454.3112011.3920867c.27 1.02.678 3.04.03 4.27z" fill="#4fba6f"/></g></g></svg>