<svg height="512" viewBox="0 0 60 59" width="512" xmlns="http://www.w3.org/2000/svg"><g id="Page-1" fill="none" fill-rule="evenodd"><g id="069---Cloud-Farming" fill-rule="nonzero"><path id="Shape" d="m10 42h-3c-.55228475 0-1-.4477153-1-1s.44771525-1 1-1h3v-6c0-.5522847.4477153-1 1-1s1 .4477153 1 1v6c0 1.1045695-.8954305 2-2 2z" fill="#2980ba"/><circle id="Oval" cx="5" cy="41" fill="#f0c419" r="2"/><path id="Shape" d="m53 42h-3c-1.1045695 0-2-.8954305-2-2v-6c0-.5522847.4477153-1 1-1s1 .4477153 1 1v6h3c.5522847 0 1 .4477153 1 1s-.4477153 1-1 1z" fill="#2980ba"/><circle id="Oval" cx="55" cy="41" fill="#f0c419" r="2"/><path id="Shape" d="m30 59c-.5522847 0-1-.4477153-1-1v-6c0-.5522847.4477153-1 1-1s1 .4477153 1 1v6c0 .5522847-.4477153 1-1 1z" fill="#a56a43"/><path id="Shape" d="m8 59c-.4043959-.0000863-.76893405-.2437275-.92367798-.6173454-.15474393-.373618-.06922994-.8036603.21667798-1.0896546l6-6c.3923789-.3789722 1.0160848-.3735524 1.4018186.0121814s.3911536 1.0094397.0121814 1.4018186l-6 6c-.18749273.1875494-.44180519.2929434-.707.293z" fill="#a56a43"/><path id="Shape" d="m52 59c-.2651948-.0000566-.5195073-.1054506-.707-.293l-6-6c-.3789722-.3923789-.3735524-1.0160848.0121814-1.4018186s1.0094397-.3911536 1.4018186-.0121814l6 6c.2859079.2859943.3714219.7160366.216678 1.0896546-.1547439.3736179-.5192821.6172591-.923678.6173454z" fill="#a56a43"/><path id="Shape" d="m45 35h2.45c6.0461201-.1049676 11.0260372-4.7802392 11.5119572-10.8077153.4859201-6.0274761-3.6807345-11.4401213-9.6319572-12.5122847-.9693517-6.66826631-6.6618307-11.6300689-13.4-11.68-4.6281919.00838815-8.9284331 2.39069914-11.39 6.31-.9440319-.26433528-1.9196592-.39890456-2.9-.4-5.4192786.04657684-9.9916375 4.04526613-10.76 9.41h-.2c-5.37977992.0766996-9.70071101 4.4596734-9.70071101 9.84s4.32093109 9.7633004 9.70071101 9.84z" fill="#67b9cc"/><path id="Shape" d="m45 28.08v23.92h-30v-23.92l4.76-6.94c.1596755-.2345963.367656-.4323482.61-.58l8.6-5.27c.6313068-.3899425 1.4286932-.3899425 2.06 0l8.6 5.27c.242344.1476518.4503245.3454037.61.58z" fill="#cc4b4c"/><path id="Shape" d="m22 39h16c.5522847 0 1 .4477153 1 1v12h-18v-12c0-.5522847.4477153-1 1-1z" fill="#802f34"/><path id="Rectangle-path" d="m25 39h10v13h-10z" fill="#fb7b76"/><circle id="Oval" cx="29" cy="46" fill="#3f5c6c" r="1"/><path id="Shape" d="m36 24.33v5.67c0 .5522847-.4477153 1-1 1h-10c-.5522847 0-1-.4477153-1-1v-5.67c.0031474-.3341542.1716936-.6450284.45-.83l5-3.33c.3305929-.2300179.7694071-.2300179 1.1 0l5 3.33c.2783064.1849716.4468526.4958458.45.83z" fill="#2fa8cc"/><g fill="#802f34"><path id="Shape" d="m36 25v2h-5v4h-2v-4h-5v-2h5v-4.53l.45-.3c.3305929-.2300179.7694071-.2300179 1.1 0l.45.3v4.53z"/><path id="Shape" d="m41 36h-22c-.5522847 0-1-.4477153-1-1s.4477153-1 1-1h22c.5522847 0 1 .4477153 1 1s-.4477153 1-1 1z"/><path id="Shape" d="m23 40c0 .5522847-.4477153 1-1 1h-7v-2h7c.5522847 0 1 .4477153 1 1z"/><path id="Shape" d="m21 30c0 .5522847-.4477153 1-1 1h-5v-2h5c.5522847 0 1 .4477153 1 1z"/><path id="Shape" d="m20 26h-2.89c-.5522847 0-1-.4477153-1-1s.4477153-1 1-1h2.89c.5522847 0 1 .4477153 1 1s-.4477153 1-1 1z"/><path id="Shape" d="m45 29v2h-5c-.5522847 0-1-.4477153-1-1s.4477153-1 1-1z"/><path id="Shape" d="m42.89 26h-2.89c-.5522847 0-1-.4477153-1-1s.4477153-1 1-1h2.89c.5522847 0 1 .4477153 1 1s-.4477153 1-1 1z"/><path id="Shape" d="m23 46c0 .5522847-.4477153 1-1 1h-7v-2h7c.5522847 0 1 .4477153 1 1z"/><path id="Shape" d="m45 39v2h-7c-.5522847 0-1-.4477153-1-1s.4477153-1 1-1z"/><path id="Shape" d="m45 45v2h-7c-.5522847 0-1-.4477153-1-1s.4477153-1 1-1z"/></g><path id="Shape" d="m59 53h-51c-.55228475 0-1-.4477153-1-1s.44771525-1 1-1h51c.5522847 0 1 .4477153 1 1s-.4477153 1-1 1z" fill="#cb8252"/><path id="Shape" d="m4 53h-3c-.55228475 0-1-.4477153-1-1s.44771525-1 1-1h3c.55228475 0 1 .4477153 1 1s-.44771525 1-1 1z" fill="#cb8252"/><path id="Shape" d="m47 32c-.330274.0003002-.6393952-.1624937-.826-.435l-6.755-9.855c-.079774-.1182404-.1841559-.2178467-.306-.292l-8.606-5.274c-.3108072-.193008-.7041928-.193008-1.015 0l-8.6 5.272c-.121902.0744358-.226556.1739765-.307.292l-6.756 9.856c-.3148744.447905-.9313943.5593221-1.3831221.249957-.4517277-.3093651-.5706873-.9244742-.2668779-1.379957l6.756-9.856c.2394703-.3506903.5506636-.6465456.913-.868l8.6-5.273c.951043-.5832097 2.148957-.5832097 3.1 0l8.606 5.274c.362255.2212018.67317.5171166.912.868l6.756 9.855c.2098815.3056998.2333715.70244.0610295 1.0307703-.1723419.3283303-.5122172.5343385-.8830295.5352297z" fill="#f0c419"/></g></g></svg>