<svg height="512" viewBox="0 0 48 59" width="512" xmlns="http://www.w3.org/2000/svg"><g id="Page-1" fill="none" fill-rule="evenodd"><g id="070---Pesticide" fill-rule="nonzero"><path id="Shape" d="m45 7c-.5522847 0-1-.44771525-1-1v-5c0-.55228475.4477153-1 1-1s1 .44771525 1 1v5c0 .55228475-.4477153 1-1 1z" fill="#e57e25"/><path id="Shape" d="m47 17 .791-3.164c.1391224-.5559508.2093164-1.1269064.209-1.7v-5.136c0-.55228475-.4477153-1-1-1h-4c-.5522847 0-1 .44771525-1 1v5.138c-.0003164.5730936.0698776 1.1440492.209 1.7l.791 3.162 2 2z" fill="#f29c1f"/><path id="Shape" d="m36 32v7h-4v-6c0-.5522847-.4477153-1-1-1h-4v-4h5c2.209139 0 4 1.790861 4 4z" fill="#285680"/><path id="Shape" d="m43 24v27.5c0 1.9329966-1.5670034 3.5-3.5 3.5s-3.5-1.5670034-3.5-3.5v-4.5h-4v4.5c0 4.1421356 3.3578644 7.5 7.5 7.5s7.5-3.3578644 7.5-7.5v-27.5z" fill="#285680"/><path id="Shape" d="m27 37h9c1.1045695 0 2 .8954305 2 2v7c0 1.1045695-.8954305 2-2 2h-9z" fill="#2980ba"/><path id="Rectangle-path" d="m12 7h4v6h-4z" fill="#285680"/><path id="Shape" d="m28 26.66v29.34c0 1.6568542-1.3431458 3-3 3h-22c-1.65685425 0-3-1.3431458-3-3v-29.34c-.00083446-1.0611852.42004572-2.0792116 1.17-2.83l6.83-6.83 6-1 6 1 6.83 6.83c.7499543.7507884 1.1708345 1.7688148 1.17 2.83z" fill="#3b97d3"/><path id="Shape" d="m21 53c0 .5522847-.4477153 1-1 1h-20v-2h20c.5522847 0 1 .4477153 1 1z" fill="#2980ba"/><path id="Shape" d="m28 52v2h-4c-.5522847 0-1-.4477153-1-1s.4477153-1 1-1z" fill="#2980ba"/><path id="Shape" d="m24 38c-.0032306 3.8618725-2.228143 7.3772906-5.7170454 9.0330772-3.4889025 1.6557865-7.6191643 1.1564492-10.6129546-1.2830772-.5172655-.4272619-.99273809-.9027345-1.42-1.42-3.24144834-3.9800316-2.94627809-9.7671268.68329756-13.3967024 3.62957564-3.6295757 9.41667084-3.9247459 13.39670244-.6832976.5172655.4272619.9927381.9027345 1.42 1.42 1.4566421 1.7878965 2.2514084 4.0238391 2.25 6.33z" fill="#e64c3c"/><path id="Shape" d="m19 23h-10c-.55228475 0-1-.4477153-1-1s.44771525-1 1-1h10c.5522847 0 1 .4477153 1 1s-.4477153 1-1 1z" fill="#2980ba"/><rect id="Rectangle-path" fill="#f0c419" height="8" rx="1" width="6" x="42" y="17"/><g fill="#f29c1f"><path id="Shape" d="m11.13 39h-2.13c-.55228475 0-1-.4477153-1-1s.44771525-1 1-1h2.13c.5522847 0 1 .4477153 1 1s-.4477153 1-1 1z"/><path id="Shape" d="m14 44c-.5522847 0-1-.4477153-1-1v-2.12c0-.5522847.4477153-1 1-1s1 .4477153 1 1v2.12c0 .5522847-.4477153 1-1 1z"/><path id="Shape" d="m19 39h-2.12c-.5522847 0-1-.4477153-1-1s.4477153-1 1-1h2.12c.5522847 0 1 .4477153 1 1s-.4477153 1-1 1z"/><path id="Shape" d="m14 36.12c-.5522847 0-1-.4477153-1-1v-2.12c0-.5522847.4477153-1 1-1s1 .4477153 1 1v2.12c0 .5522847-.4477153 1-1 1z"/><path id="Shape" d="m11.6 36.6c-.2651948-.0000566-.5195073-.1054506-.707-.293l-1.6-1.6c-.37897221-.3923789-.37355237-1.0160848.01218142-1.4018186.3857338-.3857338 1.00943968-.3911536 1.40181858-.0121814l1.6 1.6c.2859079.2859943.3714219.7160366.216678 1.0896546-.1547439.3736179-.5192821.6172591-.923678.6173454z"/></g><path id="Shape" d="m17.2 41.2c-1.323 1.323-3.834.961-5.6-.8s-2.126-4.276-.8-5.6 3.834-.973 5.6.8 2.124 4.268.8 5.6z" fill="#f0c419"/><path id="Shape" d="m21.75 31.67-14.08 14.08c-.5172655-.4272619-.99273809-.9027345-1.42-1.42l14.08-14.08c.5172655.4272619.9927381.9027345 1.42 1.42z" fill="#ecf0f1"/><path id="Shape" d="m17 8h-6c-2.209139 0-4-1.790861-4-4v-3c0-.55228475.44771525-1 1-1h12c.5522847 0 1 .44771525 1 1v3c0 2.209139-1.790861 4-4 4zm-8-6v2c0 1.1045695.8954305 2 2 2h6c1.1045695 0 2-.8954305 2-2v-2z" fill="#2980ba"/><path id="Shape" d="m10 11h8c1.1045695 0 2 .8954305 2 2v4h-12v-4c0-1.1045695.8954305-2 2-2z" fill="#2980ba"/></g></g></svg>