<svg height="512" viewBox="0 0 60 46" width="512" xmlns="http://www.w3.org/2000/svg"><g id="Page-1" fill="none" fill-rule="evenodd"><g id="072---Autonomous-Lawn-Mower" fill-rule="nonzero" transform="translate(0 -1)"><path id="Shape" d="m54.292 39.293c-.8781313 1.0118943-1.510277 2.2132108-1.847 3.51-.305465-.2708102-.6409924-.5056793-1-.7-.4934664-.2485281-1.0949719-.0499664-1.3435.4435s-.0499664 1.0949719.4435 1.3435c.8061387.4171196 1.351674 1.2082395 1.455 2.11 0 .5522847.4477153 1 1 1s1-.4477153 1-1c-.1013046-1.9170241.5078937-3.8040791 1.711-5.3.3893607-.391846.387346-1.0251393-.0045-1.4145s-1.0251393-.387346-1.4145.0045z" fill="#4fba6f"/><path id="Shape" d="m59.9 42.553c-.1184679-.2374485-.3264554-.4180742-.5781614-.5021012-.251706-.0840271-.5264889-.0645647-.7638386.0541012-1.4815758.7544955-2.4542825 2.2356106-2.558 3.895 0 .5522847.4477153 1 1 1s1-.4477153 1-1c.1026838-.9009337.6475722-1.691453 1.453-2.108.4923714-.2470292.6922378-.8457339.447-1.339z" fill="#4fba6f"/><circle id="Oval" cx="44" cy="43" fill="#3f5c6c" r="3"/><path id="Shape" d="m44 43c-.5522847 0-1-.4477153-1-1v-6c0-.5522847.4477153-1 1-1s1 .4477153 1 1v6c0 .5522847-.4477153 1-1 1z" fill="#35495e"/><path id="Shape" d="m33 22v-3c0-1.6568542-1.3431458-3-3-3s-3 1.3431458-3 3v3z" fill="#547580"/><path id="Shape" d="m25 39-1 2h-4.29l-12.01-6.56-2.59-3.11c.89-3.33 4.8-4.33 7.89-4.33 11 0 12 9.34 12 12z" fill="#35495e"/><path id="Shape" d="m50.89 32-15.89 2-13.51-2c-1.9916483-2.4119352-4.915124-3.8629769-8.0404642-3.9908143-3.1253403-.1278375-6.15755703 1.0795952-8.3395358 3.3208143-.17.18-.34.36-.5.55-.17272371.2000433-.4191909.3214862-.68305348.3365641-.26386259.0150778-.52255944-.0774986-.71694652-.2565641l-1.54-1.36c-.42785766-.3809655-.67180586-.9271182-.67-1.5v-1.69c-.00293692-.8461681.53111956-1.601075 1.33-1.88l10.88-3.89c1.1876937-.423221 2.4391541-.6396899 3.7-.64h25.19c2.3693453.0005764 4.5164663 1.3954214 5.48 3.56z" fill="#e64c3c"/><g fill="#f0c419"><path id="Shape" d="m39 6c-.226899.00035951-.4470919-.07691975-.624-.219-2.3978658-1.84622704-5.35007-2.82641805-8.376-2.781-3.0262712-.04564476-5.9788644.93455837-8.377 2.781-.278788.22578269-.6571601.28492703-.9915513.15499201-.3343913-.12993501-.5735586-.42903779-.6267553-.78382041s.0877292-.71087722.3693066-.9331716c2.7532776-2.12889232 6.1459502-3.26342515 9.626-3.219 3.4800498-.04442515 6.8727224 1.09010768 9.626 3.219.3319233.26542335.4598195.71165099.3188902 1.11260176-.1409294.40095078-.5198935.66902313-.9448902.66839824z"/><path id="Shape" d="m36 10c-.2269263.000521-.4471715-.07677662-.624-.219-3.1913562-2.37477332-7.5626438-2.37477332-10.754 0-.4315746.3407114-1.0572621.2690699-1.4006534-.16037546-.3433912-.42944531-.275646-1.05556663.1516534-1.40162454 3.921665-2.95941353 9.330335-2.95941353 13.252 0 .3317791.26530889.4597225.71128175.3190546 1.1121292-.140668.40084745-.5192416.6690701-.9440546.6688708z"/><path id="Shape" d="m33 14c-.2269263.000521-.4471715-.0767766-.624-.219-1.4236637-1.0079142-3.3283363-1.0079142-4.752 0-.4315746.3407114-1.0572621.2690699-1.4006534-.1603755-.3433912-.4294453-.275646-1.0555666.1516534-1.4016245 2.1434528-1.6251362 5.1065472-1.6251362 7.25 0 .3317791.2653089.4597225.7112818.3190546 1.1121292-.140668.4008475-.5192416.6690701-.9440546.6688708z"/></g><path id="Shape" d="m52.99 33.82c.04741.5584101-.1404629 1.1112582-.5182913 1.5251607s-.9113009.651272-1.4717087.6548393h-10.83c-1.2923955-.0018905-2.4407424.8241134-2.85 2.05l-.63 1.9c-.4092576 1.2258866-1.5576045 2.0518905-2.85 2.05h-8.84c-.5522847 0-1-.4477153-1-1v-2c.0055198-2.5546905-.8823805-5.0309066-2.51-7h29.4c1.0626957-.0203758 1.9691259.7651971 2.1 1.82z" fill="#c03a2b"/><path id="Shape" d="m42 26h-22c-.5522847 0-1-.4477153-1-1s.4477153-1 1-1h22c.5522847 0 1 .4477153 1 1s-.4477153 1-1 1z" fill="#fb7b76"/><circle id="Oval" cx="13" cy="39" fill="#3f5c6c" r="7"/><circle id="Oval" cx="13" cy="39" fill="#547580" r="2"/><path id="Shape" d="m32 39h-4c-.5522847 0-1-.4477153-1-1s.4477153-1 1-1h4c.5522847 0 1 .4477153 1 1s-.4477153 1-1 1z" fill="#802f34"/><path id="Shape" d="m59 47h-58c-.55228475 0-1-.4477153-1-1s.44771525-1 1-1h58c.5522847 0 1 .4477153 1 1s-.4477153 1-1 1z" fill="#a56a43"/></g></g></svg>