<svg height="512" viewBox="0 0 58 58" width="512" xmlns="http://www.w3.org/2000/svg"><g id="Page-1" fill="none" fill-rule="evenodd"><g id="073---Free-Range" fill-rule="nonzero"><path id="Shape" d="m44.0000537 50-.0000537-33c.0021256-.3415766-.0588994-.6806042-.18-1l-18.82-2h-22c-1.65685425 0-3 1.3431458-3 3v33z" fill="#f0c419"/><rect id="Rectangle-path" fill="#955ba5" height="16" rx="5" width="34" x="24"/><path id="Shape" d="m22 50c-.5522847 0-1-.4477153-1-1v-4c0-.5522847.4477153-1 1-1s1 .4477153 1 1v4c0 .5522847-.4477153 1-1 1z" fill="#f29c1f"/><g fill="#f5efca"><path id="Shape" d="m39 27.25c-.5047125-.0005564-.929899-.377126-.9914367-.8780733-.0615377-.5009472.259865-.9692298.7494367-1.0919267l1-.25c.5339666-.1297214 1.072566.1957027 1.2060974.7287292.1335314.5330266-.1880381 1.0739362-.7200974 1.2112708l-1 .25c-.0798352.0197527-.1617577.0298251-.244.03z"/><path id="Shape" d="m5 45c-.46842924.0057459-.87806423-.3144677-.98557503-.7704286-.10751079-.455961.11592176-.9254452.53757503-1.1295714l4-2c.49429485-.2468713 1.09512872-.0462949 1.342.448.2468713.4942949.04629485 1.0951287-.448 1.342l-4 2c-.1381167.0707786-.29081172.1084388-.446.11z"/><path id="Shape" d="m4 39c-.48962048-.0011079-.90643367-.3565688-.98483412-.8398729s.20467147-.9522988.66883412-1.1081271l3-1c.33940231-.1128959.71325224-.0361471.98072413.201336.2674719.237483.38793042.599621.316.95-.07193041.350379-.32532182.6357681-.66472413.748664l-3 1c-.10207852.032839-.20877441.0490459-.316.048z"/><path id="Shape" d="m12 23c-.3346327.0003846-.6472789-.1666353-.833-.445l-2-3c-.19828242-.297245-.22292462-.6776931-.06464412-.9980332.15828049-.32034.47543711-.5319049.83200001-.555.35656291-.0230951.69836171.1457882.89664411.4430332l2 3c.2046328.3067094.2238907.701139.05011 1.0263244s-.5124026.5283622-.88111.5286756z"/><path id="Shape" d="m8 28c-.19719163-.000153-.38993657-.0586028-.554-.168l-3-2c-.29724497-.1982824-.46612825-.5400812-.44303314-.8966441.02309512-.3565629.23465992-.6737195.555-.832.32034009-.1582805.70078817-.1336383.99803314.0646441l3 2c.36681022.2445875.53016342.700538.40212681 1.122414-.12803661.4218761-.51724987.7101263-.95812681.709586z"/><path id="Shape" d="m6 33h-2c-.55228475 0-1-.4477153-1-1s.44771525-1 1-1h2c.55228475 0 1 .4477153 1 1s-.44771525 1-1 1z"/><path id="Shape" d="m39 45c-.1273904.000244-.2536543-.0238547-.372-.071l-5-2c-.5130725-.2054499-.7624499-.7879275-.557-1.301.20545-.5130725.7879275-.7624499 1.301-.557l5 2c.4459179.1776349.702724.6470461.6118332 1.118359-.0908908.4713128-.5038373.811565-.9838332.810641z"/><path id="Shape" d="m40 39c-.0822423-.0001749-.1641648-.0102473-.244-.03l-4-1c-.5320593-.1373346-.8536288-.6782442-.7200974-1.2112708.1335314-.5330265.6721308-.8584506 1.2060974-.7287292l4 1c.4895717.1226969.8109744.5909795.7494367 1.0919267-.0615377.5009473-.4867242.8775169-.9914367.8780733z"/><path id="Shape" d="m40 33h-2c-.5522847 0-1-.4477153-1-1s.4477153-1 1-1h2c.5522847 0 1 .4477153 1 1s-.4477153 1-1 1z"/><path id="Shape" d="m18 22c-.5522847 0-1-.4477153-1-1v-3c0-.5522847.4477153-1 1-1s1 .4477153 1 1v3c0 .5522847-.4477153 1-1 1z"/><path id="Shape" d="m38 23c-.4043959-.0000863-.7689341-.2437275-.923678-.6173454-.1547439-.373618-.0692299-.8036603.216678-1.0896546l2-2c.3923789-.3789722 1.0160848-.3735524 1.4018186.0121814s.3911536 1.0094397.0121814 1.4018186l-2 2c-.1874927.1875494-.4418052.2929434-.707.293z"/></g><path id="Shape" d="m31 35.14v.86c-.0065509 4.264612-3.0052435 7.9391607-7.1819431 8.8006352-4.1766997.8614746-8.3846131-1.3266595-10.0780569-5.2406352-2.661038-1.0793953-4.18419902-3.8929489-3.6332225-6.7112182.5509765-2.8182694 3.0216006-4.8510311 5.8932225-4.8487818.5522847 0 1 .4477153 1 1-.0015617 1.2430619.4621945 2.4416933 1.3 3.36.8760128-.2586929 1.7868105-.3801326 2.7-.36 1.091316-.0381655 2.1792634.1420257 3.2.53z" fill="#ecf0f1"/><path id="Shape" d="m35 28h-3c-.5522847 0-1-.4477153-1-1s.4477153-1 1-1h3c.5522847 0 1 .4477153 1 1s-.4477153 1-1 1z" fill="#f29c1f"/><path id="Shape" d="m31.82 24.62c.9223743-.5714946 1.3707878-1.6727336 1.11-2.726-.2057973-.8579506-.8539363-1.5407841-1.7-1.791-.8038984-.2405738-1.6748708-.0617972-2.319.476-.3542178.2963398-.8078934.4468499-1.269.421-1.3349365-.0542642-2.4766149.9506764-2.5921708 2.2817086-.1155558 1.3310323.8358554 2.517688 2.1601708 2.6942914z" fill="#e64c3c"/><path id="Shape" d="m22.031 41.99c-2.2772269.00257-4.3634621-1.2723515-5.4-3.3-.2694199-.5329546-.2875103-1.1582059-.0493554-1.7058462.2381549-.5476404.7078157-.9607809 1.2813554-1.1271538l2.858-.825c.5307456-.1529829 1.0850171.1532544 1.238.684s-.1532544 1.0850171-.684 1.238l-2.857.825c.894555 1.8037156 2.9925217 2.658681 4.893 1.994 1.6493842-.6065554 2.730258-2.1951063 2.689-3.952v-2.821c0-.5522847.4477153-1 1-1s1 .4477153 1 1v2.821c.0444121 2.6154427-1.5818168 4.9687294-4.044 5.852-.6199834.2103468-1.2703054.3174388-1.925.317z" fill="#d1d4d1"/><path id="Shape" d="m30.81 30.808.823 3.178c.0713341.2723691.019635.5623201-.1414388.7932502-.1610737.2309301-.4153172.3796064-.6955612.4067498-2.1635032.2112304-4.3416659-.2127259-6.268-1.22-.2993626-.1508279-.4975996-.4477067-.5221812-.7820161s.1280995-.656991.4021812-.8499839c.2071407-.1388241.4049029-.2911544.592-.456 1.3434537-1.2256782 2.0756782-2.9830169 2-4.8.0051378-1.5855416 1.2091362-2.9100694 2.787-3.066 1.4246487-.0997368 2.7221118.8186446 3.1016377 2.1954276.3795259 1.3767831-.26411 2.8302505-1.5386377 3.4745724-.4322578.1916238-.6611773.6689633-.54 1.126z" fill="#fff"/><path id="Shape" d="m44 49v6c0 1.6568542-1.3431458 3-3 3h-38c-1.65685425 0-3-1.3431458-3-3v-6z" fill="#cb8252"/><path id="Rectangle-path" d="m21 49h2v9h-2z" fill="#a56a43"/><path id="Shape" d="m16.03 49-2 9h-2.06l2.01-9z" fill="#a56a43"/><path id="Shape" d="m10.09 49-3.99 9h-2.2l4-9z" fill="#a56a43"/><path id="Shape" d="m32.03 58h-2.06l-2-9h2.05z" fill="#a56a43"/><path id="Shape" d="m40.09 58h-2.19l-3.99-9h2.18z" fill="#a56a43"/><path id="Shape" d="m30 10v-5c-.0000863-.4043959-.2437275-.76893405-.6173454-.92367798-.373618-.15474393-.8036603-.06922994-1.0896546.21667798l-1 1c-.2859079.28599425-.3714219.71603662-.216678 1.08965456s.5192821.61725909.923678.61734544v3c-.5522847 0-1 .4477153-1 1s.4477153 1 1 1h2c.5522847 0 1-.4477153 1-1s-.4477153-1-1-1z" fill="#ecf0f1"/><path id="Shape" d="m35 12c-1.6568542 0-3-1.3431458-3-3v-2c0-1.65685425 1.3431458-3 3-3s3 1.34314575 3 3v2c0 .79564947-.3160705 1.5587112-.8786797 2.1213203-.5626091.5626092-1.3256708.8786797-2.1213203.8786797zm0-6c-.5522847 0-1 .44771525-1 1v2c0 .55228475.4477153 1 1 1s1-.44771525 1-1v-2c0-.55228475-.4477153-1-1-1z" fill="#ecf0f1"/><path id="Shape" d="m43 12c-1.6568542 0-3-1.3431458-3-3v-2c0-1.65685425 1.3431458-3 3-3s3 1.34314575 3 3v2c0 .79564947-.3160705 1.5587112-.8786797 2.1213203-.5626091.5626092-1.3256708.8786797-2.1213203.8786797zm0-6c-.5522847 0-1 .44771525-1 1v2c0 .55228475.4477153 1 1 1s1-.44771525 1-1v-2c0-.55228475-.4477153-1-1-1z" fill="#ecf0f1"/><path id="Shape" d="m49 12c-.3882927.0001783-.7415861-.2244341-.9061765-.5761176-.1645904-.3516834-.1107192-.7668519.1381765-1.0648824l5-6c.3540145-.42415469.9848453-.48101452 1.409-.127s.4810145.98484531.127 1.409l-5 6c-.1901006.2276288-.4714311.3591361-.768.359z" fill="#ecf0f1"/><circle id="Oval" cx="49" cy="5" fill="#ecf0f1" r="1"/><circle id="Oval" cx="54" cy="11" fill="#ecf0f1" r="1"/></g></g></svg>