<svg height="512" viewBox="0 0 58 59" width="512" xmlns="http://www.w3.org/2000/svg"><g id="Page-1" fill="none" fill-rule="evenodd"><g id="074---Farm-Shop" fill-rule="nonzero"><path id="Shape" d="m49 23v-11c-.0032948-1.1032019-.8967981-1.9967052-2-2h-36c-1.10320187.0032948-1.9967052.8967981-2 2v11z" fill="#f29c1f"/><path id="Shape" d="m33 4c-1.0665199-.02520504-2.1146261.28084199-3 .876v-3.876c0-.55228475-.4477153-1-1-1s-1 .44771525-1 1v10c0 .5522847.4477153 1 1 1s1-.4477153 1-1v-2.874c.3579519-1.33836103 1.618641-2.23176935 3-2.126.5522847 0 1-.44771525 1-1s-.4477153-1-1-1z" fill="#24ae5f"/><path id="Shape" d="m25.4 22c-2.979 0-5.4-2.912-5.4-6.5s2.421-6.5 5.4-6.5c.8464723.00077662 1.6765413.2335418 2.4.673.7423446.440084 1.6656554.440084 2.408 0 .7211354-.43805283 1.5482456-.670764 2.392-.673 2.979 0 5.4 2.912 5.4 6.5s-2.421 6.5-5.4 6.5z" fill="#e64c3c"/><path id="Shape" d="m25 18.858c-.1968186.0004253-.3893153-.0577066-.553-.167-.9660347-.7701603-1.5041587-1.9568595-1.447-3.191-.004728-.6645731.1366032-1.3220705.414-1.926.2418344-.4877968.8294669-.6924884 1.3220245-.4605044.4925575.231984.7090154.8153849.4869755 1.3125044-.1524175.3372421-.2285602.7039562-.223 1.074-.044016.5644562.1579503 1.1204103.554 1.525.367452.2440589.5315832.7000576.4039624 1.1223119s-.5168438.711009-.9579624.7106881z" fill="#fb7b76"/><path id="Shape" d="m36 2h2v1c0 1.65685425-1.3431458 3-3 3h-2v-1c0-1.65685425 1.3431458-3 3-3z" fill="#4fba6f"/><path id="Rectangle-path" d="m6 25h46v31h-46z" fill="#f3d55b"/><path id="Shape" d="m53 26v2c0 1.6568542-1.3431458 3-3 3s-3-1.3431458-3-3v-2z" fill="#ecf0f1"/><path id="Shape" d="m47 26v2c0 1.6568542-1.3431458 3-3 3s-3-1.3431458-3-3v-2z" fill="#e64c3c"/><path id="Shape" d="m41 26v2c0 1.6568542-1.3431458 3-3 3s-3-1.3431458-3-3v-2z" fill="#ecf0f1"/><path id="Shape" d="m35 26v2c0 1.6568542-1.3431458 3-3 3s-3-1.3431458-3-3v-2z" fill="#e64c3c"/><path id="Shape" d="m29 26v2c0 1.6568542-1.3431458 3-3 3s-3-1.3431458-3-3v-2z" fill="#ecf0f1"/><path id="Shape" d="m23 26v2c0 1.6568542-1.3431458 3-3 3s-3-1.3431458-3-3v-2z" fill="#e64c3c"/><path id="Shape" d="m17 26v2c0 1.6568542-1.3431458 3-3 3s-3-1.3431458-3-3v-2z" fill="#ecf0f1"/><path id="Shape" d="m11 26v2c0 1.6568542-1.34314575 3-3 3s-3-1.3431458-3-3v-2z" fill="#e64c3c"/><path id="Shape" d="m43 50c-.5522847 0-1-.4477153-1-1v-4c0-.5522847.4477153-1 1-1s1 .4477153 1 1v4c0 .5522847-.4477153 1-1 1z" fill="#26b99a"/><path id="Shape" d="m46.4 37.665c-.4901218-.1876674-.8773326-.5748782-1.065-1.065-.3701702-.9677164-1.298901-1.6068175-2.335-1.6068175s-1.9648298.6391011-2.335 1.6068175c-.1876674.4901218-.5748782.8773326-1.065 1.065-.9677164.3701702-1.6068175 1.298901-1.6068175 2.335s.6391011 1.9648298 1.6068175 2.335c.4901218.1876674.8773326.5748782 1.065 1.065.3701702.9677164 1.298901 1.6068175 2.335 1.6068175s1.9648298-.6391011 2.335-1.6068175c.1876674-.4901218.5748782-.8773326 1.065-1.065.9677164-.3701702 1.6068175-1.298901 1.6068175-2.335s-.6391011-1.9648298-1.6068175-2.335z" fill="#955ba5"/><circle id="Oval" cx="43" cy="40" fill="#f3d55b" r="1"/><path id="Shape" d="m33 36v19h-22v-19c0-.5522847.4477153-1 1-1h20c.5522847 0 1 .4477153 1 1z" fill="#e57e25"/><g fill="#f29c1f"><path id="Shape" d="m18 50c0 .5522847-.4477153 1-1 1h-6v-2h6c.5522847 0 1 .4477153 1 1z"/><path id="Shape" d="m18 45c0 .5522847-.4477153 1-1 1h-6v-2h6c.5522847 0 1 .4477153 1 1z"/><path id="Shape" d="m18 40c0 .5522847-.4477153 1-1 1h-6v-2h6c.5522847 0 1 .4477153 1 1z"/><path id="Shape" d="m33 49v2h-6c-.5522847 0-1-.4477153-1-1s.4477153-1 1-1z"/><path id="Shape" d="m33 44v2h-6c-.5522847 0-1-.4477153-1-1s.4477153-1 1-1z"/><path id="Shape" d="m33 39v2h-6c-.5522847 0-1-.4477153-1-1s.4477153-1 1-1z"/></g><rect id="Rectangle-path" fill="#f0c419" height="4" rx="1" width="52" x="3" y="22"/><rect id="Rectangle-path" fill="#f29c1f" height="4" rx="1" width="58" y="55"/><path id="Rectangle-path" d="m17 35h10v20h-10z" fill="#f0c419"/><circle id="Oval" cx="21" cy="44" fill="#3f5c6c" r="1"/><path id="Shape" d="m47 49-2 6h-4l-2-6z" fill="#e57e25"/><path id="Shape" d="m48 50h-10c-.5522847 0-1-.4477153-1-1s.4477153-1 1-1h10c.5522847 0 1 .4477153 1 1s-.4477153 1-1 1z" fill="#f29c1f"/></g></g></svg>