<svg height="512" viewBox="0 0 60 59" width="512" xmlns="http://www.w3.org/2000/svg"><g id="Page-1" fill="none" fill-rule="evenodd"><g id="075---Berry-Picking-Robot" fill-rule="nonzero"><path id="Rectangle-path" d="m13 13h7v4h-7z" fill="#7f8c8d"/><path id="Shape" d="m11.93 18-4.93 11.97v.01l-3.93-.98 4.93-11.97v-.01z" fill="#7f8c8d"/><path id="Shape" d="m6.94 34.32 3.8 10.75-3.78 1.34-4.03-11.41z" fill="#7f8c8d"/><path id="Shape" d="m4 54h12c.5522847 0 1 .4477153 1 1v3h-14v-3c0-.5522847.44771525-1 1-1z" fill="#7f8c8d"/><path id="Shape" d="m10 45c2.209139 0 4 1.790861 4 4v5h-8v-5c0-2.209139 1.790861-4 4-4z" fill="#95a5a5"/><rect id="Rectangle-path" fill="#95a5a5" height="6" rx="1" width="6" x="1" y="29"/><path id="Shape" d="m26 16h-5c-.5522847 0-1-.4477153-1-1s.4477153-1 1-1h5c.5522847 0 1 .4477153 1 1s-.4477153 1-1 1z" fill="#7f8c8d"/><circle id="Oval" cx="20" cy="15" fill="#95a5a5" r="2"/><rect id="Rectangle-path" fill="#95a5a5" height="6" rx="1" width="6" x="8" y="12"/><circle id="Oval" cx="10" cy="49" fill="#7f8c8d" r="1"/><path id="Shape" d="m55.738 24.089c-.4285489-.0000339-.8094358-.2731302-.947-.679l-2.638-7.784c-.1775595-.5246705.1038295-1.0939404.6285-1.2714999.5246705-.1775596 1.0939404.1038294 1.2715.6284999l2.638 7.785c.1035207.3054273.0533912.6420326-.1346358.9040407s-.4908703.4172563-.8133642.4169593z" fill="#4c8056"/><circle id="Oval" cx="55.999" cy="23.999" fill="#e64c3c" r="2"/><path id="Shape" d="m45.144 24.56c-.365 2.7 2.891 23.78 12.856 33.44h-34c10.728-10.41 13.44-33.813 12.874-33.876z" fill="#cb8252"/><path id="Shape" d="m40 33c-.0634237-.0000877-.1266999-.006114-.189-.018-.5422891-.1039124-.8977324-.6276764-.794-1.17.1333333-.6906667.2506667-1.3486667.352-1.974.1007918-.5335153.6088885-.8891302 1.144665-.8011466.5357765.0879835.9034598.5874163.828335 1.1251466-.1046667.642-.225 1.3173333-.361 2.026-.0901179.4708052-.5016478.8114396-.981.812z" fill="#a56a43"/><path id="Shape" d="m56 13c.0009529 2.9972245-1.9103478 5.6609741-4.75 6.62-.7354034.2803078-1.2316636.9734965-1.26 1.76-.1576649 1.4189266-.8173534 2.734757-1.86 3.71-1.1037963 1.2207409-2.674233 1.9150775-4.32 1.91-1.4054929-.04822-2.7498223-.5866593-3.8-1.522-.6843864-.5903746-1.6717059-.671203-2.443-.2-.7721713.474024-1.6609408.7240013-2.567.722-2.1311758-.0037807-4.0241263-1.3622038-4.71-3.38-.1685344-.5346752-.5580609-.9715273-1.07-1.2-2.0311182-.8748562-3.5276681-2.6602529-4.0343027-4.8129572-.5066346-2.1527042.0365577-4.4181501 1.4643027-6.1070428.3535082-.4254786.5065548-.98264083.42-1.529-.2008115-1.39478778.0371813-2.81750261.681-4.071.8197537-1.6636556 2.2669-2.93346083 4.023-3.53 1.268829-.43099001 2.6355303-.48414337 3.934-.153.4520356.12087903.9333768.06098038 1.342-.167 1.2012571-.69166654 2.5638521-1.05387534 3.95-1.05 3.2707654.00005893 6.2427426 1.90263969 7.612 4.873.2857005.64996057.8804675 1.11155396 1.581 1.227 3.3567664.5805826 5.8081727 3.49339535 5.807 6.9z" fill="#4fba6f"/><path id="Shape" d="m32 14c-.5522847 0-1-.4477153-1-1v-3c0-.55228475.4477153-1 1-1s1 .44771525 1 1v3c0 .5522847-.4477153 1-1 1z" fill="#4c8056"/><circle id="Oval" cx="32" cy="15" fill="#e64c3c" r="2"/><path id="Shape" d="m44 18c-.5522847 0-1-.4477153-1-1v-3c0-.5522847.4477153-1 1-1s1 .4477153 1 1v3c0 .5522847-.4477153 1-1 1z" fill="#4c8056"/><circle id="Oval" cx="44" cy="19" fill="#e64c3c" r="2"/><path id="Shape" d="m39 9c-.5522847 0-1-.44771525-1-1v-3c0-.55228475.4477153-1 1-1s1 .44771525 1 1v3c0 .55228475-.4477153 1-1 1z" fill="#4c8056"/><circle id="Oval" cx="39" cy="10" fill="#e64c3c" r="2"/><path id="Shape" d="m59 59h-58c-.55228475 0-1-.4477153-1-1s.44771525-1 1-1h58c.5522847 0 1 .4477153 1 1s-.4477153 1-1 1z" fill="#4fba6f"/><g fill="#a56a43"><path id="Shape" d="m45 55c-.3808256.0020788-.7297741-.2123306-.9-.553-.7686245-1.583177-1.4516094-3.2065179-2.046-4.863-.1759684-.5166759.0948727-1.0790102.6085594-1.2635225.5136867-.1845124 1.0804351.0769662 1.2734406.5875225.5725218 1.5817957 1.2280996 3.132284 1.964 4.645.1553431.3108588.1381628.6800764-.0453763.9751664-.183539.2950901-.5071168.4737357-.8546237.4718336z"/><path id="Shape" d="m46.376 48c-.4039434.0004375-.7684819-.2421936-.924-.615-1.3925137-3.3786685-2.536227-6.8545943-3.422-10.4-.0875301-.3465476.0164697-.7134676.2728238-.9625447.256354-.249077.6261159-.3424705.97-.245.3438841.0974706.6096461.3709971.6971762.7175447.861591 3.4500649 1.9745646 6.8324353 3.33 10.12.1020714.2449181.1026212.5203616.0015283.7656852-.1010928.2453236-.2955396.4404131-.5405283.5423148-.1218738.0512166-.2528024.0774023-.385.077z"/><path id="Shape" d="m49.878 55c-.3505826.0003556-.6757489-.1829062-.857-.483-.58-.962-1.15-1.993-1.7-3.063-.2507373-.4923619-.0548619-1.0947627.4375-1.3455s1.0947627-.0548619 1.3455.4375c.524 1.029 1.071 2.017 1.625 2.937.1860765.3080726.19225.6923729.0161651 1.0062634s-.5072624.508945-.8671651.5107366z"/><path id="Shape" d="m32.11 55c-.1808655.0001874-.3583124-.0492764-.513-.143-.2275928-.1362878-.3917068-.357423-.4562228-.6147371-.0645161-.2573141-.024147-.5297191.1122228-.7572629 3.0640023-5.3875346 5.3458693-11.1836182 6.777-17.214.0866369-.3467263.351669-.6208943.6952612-.7192277.3435922-.0983333.7135447-.0058928.9705.2425.2569553.2483929.3618757.6150014.2752388.9617277-1.4791539 6.2217324-3.8361113 12.2013334-7 17.759-.1814901.3020865-.5085896.4863411-.861.485z"/><path id="Shape" d="m37 55c-.3475069.0019021-.6710847-.1767435-.8546237-.4718336-.1835391-.29509-.2007194-.6643076-.0453763-.9751664.732507-1.51292 1.3847455-3.063405 1.954-4.645.1930055-.5105563.7597539-.7720349 1.2734406-.5875225.5136867.1845123.7845278.7468466.6085594 1.2635225-.5911243 1.6562779-1.2707697 3.2796154-2.036 4.863-.1702259.3406694-.5191744.5550788-.9.553z"/></g></g></g></svg>