<svg height="512" viewBox="0 0 42 58" width="512" xmlns="http://www.w3.org/2000/svg"><g id="Page-1" fill="none" fill-rule="evenodd"><g id="076---Organic-Award" fill-rule="nonzero"><path id="Shape" d="m9.682 31.843-9.571 19.307c-.17105185.344625-.1399237.7552034.08113007 1.0701007.22105377.3148974.59662856.4836788.97886993.4398993l5.68-.72c.41677449-.0501968.82291712.1548461 1.03.52l2.839 5.01c.1848738.3359381.5419409.5404382.9252447.5299079.3833039-.0105303.7286046-.2343262.8947553-.5799079l10.414-21.442z" fill="#802f34"/><path id="Shape" d="m6.631 48c-.3457563-.0003549-.66679833-.179294-.84894997-.4731789-.18215164-.2938848-.19956609-.6610141-.04605003-.9708211l2.975-6c.15184485-.3314691.47205589-.5540285.835664-.5808197s.712981.1464322.9117686.4520662c.1987876.3056339.2154818.6952351.0435674 1.0167535l-2.975 6c-.1687448.3405402-.51594414.5559898-.896.556z" fill="#c03a2b"/><path id="Shape" d="m19.237 36.371 10.223 21.049c.1661507.3455817.5114514.5693776.8947553.5799079.3833038.0105303.7403709-.1939698.9252447-.5299079l2.839-5.01c.2070829-.3651539.6132255-.5701968 1.03-.52l5.68.72c.3822414.0437795.7578162-.1250019.9788699-.4398993.2210538-.3148973.252182-.7254757.0811301-1.0701007l-9.374-18.909z" fill="#c03a2b"/><path id="Shape" d="m30 50.377c-.3832977.0000204-.7328822-.2190525-.9-.564l-3.583-7.376c-.2413484-.4970563-.0340563-1.0956516.463-1.337s1.0956516-.0340563 1.337.463l3.583 7.377c.1506113.3099977.1309766.6757045-.0519605.967794-.1829371.2920896-.5033915.4693916-.8480395.469206z" fill="#e64c3c"/><path id="Shape" d="m41 20c0 1.272-2.011 2.33-2.249 3.533-.245 1.238 1.2 2.984.731 4.123-.481 1.16-2.744 1.367-3.434 2.4s-.026 3.208-.906 4.089-3.05.21-4.089.905-1.238 2.953-2.4 3.434c-1.14.473-2.885-.976-4.124-.731-1.199.236-2.257 2.247-3.529 2.247s-2.33-2.011-3.533-2.249c-1.238-.245-2.984 1.2-4.123.731-1.16-.481-1.367-2.744-2.4-3.434s-3.208-.026-4.089-.906-.21-3.05-.9-4.089-2.953-1.238-3.434-2.4c-.473-1.14.976-2.885.731-4.124-.241-1.199-2.252-2.257-2.252-3.529s2.011-2.33 2.249-3.533c.245-1.238-1.2-2.984-.731-4.123.481-1.16 2.744-1.367 3.434-2.4s.026-3.208.906-4.089 3.05-.21 4.089-.905 1.238-2.95 2.397-3.432c1.14-.473 2.885.976 4.124.731 1.202-.238 2.26-2.249 3.532-2.249s2.33 2.011 3.533 2.249c1.238.245 2.984-1.2 4.123-.731 1.16.481 1.367 2.744 2.4 3.434s3.208.026 4.089.906.21 3.05.905 4.089 2.953 1.238 3.434 2.4c.473 1.14-.976 2.885-.731 4.124.236 1.199 2.247 2.257 2.247 3.529z" fill="#e64c3c"/><circle id="Oval" cx="21" cy="20" fill="#f0c419" r="14"/><path id="Shape" d="m21 28c-.5522847 0-1-.4477153-1-1 0-4.835-3.681-5.879-4.1-5.982-.5278049-.1389907-.8466698-.6755207-.7164788-1.2055648.1301911-.5300441.6613422-.8577905 1.1934788-.7364352 1.7328474.4743714 3.2425749 1.5453111 4.263 3.024.4985186-1.9341561 1.3019154-3.7765678 2.38-5.458.1923678-.3092972.5376935-.4895373.9014346-.4704968s.6883613.2343498.847385.5620411c.1590238.3276913.1272969.7159306-.0828196 1.0134557-1.7534839 2.7677519-2.684946 5.9765453-2.686 9.253 0 .5522847-.4477153 1-1 1z" fill="#24ae5f"/><path id="Shape" d="m31.76 28.95c-2.6575325 3.1992932-6.6009189 5.0500727-10.76 5.0500727s-8.1024675-1.8507795-10.76-5.0500727c.8796642-.4108289 1.8391328-.6225266 2.81-.62.4734189.0010111.9456257.0478969 1.41.14 1.059137.2396671 2.1699235.060508 3.1-.5 2.1110018-1.2932858 4.7689982-1.2932858 6.88 0 .9300765.560508 2.040863.7396671 3.1.5.4643743-.0921031.9365811-.1389889 1.41-.14.9708672-.0025266 1.9303358.2091711 2.81.62z" fill="#cb8252"/><g fill="#4fba6f"><path id="Shape" d="m26.657 16.562c-.6261218 1.2450396-2.1264883 1.769637-3.392 1.186-.5808838-.3248618-1.0065233-.8699015-1.1809254-1.5121982-.1744022-.6422967-.0828802-1.3277607.2539254-1.9018018.641-1.186 2.514-1.958 3.49-2.3.1596278-.0611006.3376525-.0518292.4900698.0255226.1524173.0773517.2650038.2155655.3099302.3804774.265.987.672 2.936.029 4.122z"/><path id="Shape" d="m13.478 21.341c1.0370697.9306689 2.6250568.8722968 3.591-.132.4220443-.5146016.6194458-1.1772911.5477873-1.8389566-.0716584-.6616656-.4063578-1.2667284-.9287873-1.6790434-1.03-.871-3.056-.906-4.088-.865-.1713156.0004545-.334407.0735187-.4487901.2010559-.1143832.1275373-.1693332.2975892-.1512099.4679441.115 1.013.448 2.975 1.478 3.846z"/></g></g></g></svg>