<svg height="512" viewBox="0 0 34 58" width="512" xmlns="http://www.w3.org/2000/svg"><g id="Page-1" fill="none" fill-rule="evenodd"><g id="077---Crop-Data-App" fill-rule="nonzero"><path id="Shape" d="m34 3v52c0 1.6568542-1.3431458 3-3 3h-28c-1.65685425 0-3-1.3431458-3-3v-52c0-1.65685425 1.34314575-3 3-3h28c1.6568542 0 3 1.34314575 3 3z" fill="#84b5cb"/><path id="Shape" d="m1.69 57.7c-1.03406401-.5019225-1.69043287-1.5505591-1.69-2.7v-52c0-1.65685425 1.34314575-3 3-3h25.11c1.89 11 7.709 50-26.42 57.7z" fill="#9fc9d3"/><path id="Shape" d="m27 0-2.861 3.052c-.5672653.60498515-1.3596648.94815313-2.189.948h-9.9c-.8293352.00015313-1.6217347-.34301485-2.189-.948l-2.861-3.052z" fill="#3b97d3"/><path id="Shape" d="m17 48.963c-.5522847 0-1-.4477153-1-1v-22.963c0-.5522847.4477153-1 1-1s1 .4477153 1 1v22.963c0 .5522847-.4477153 1-1 1z" fill="#24ae5f"/><path id="Shape" d="m22 37h1c.5522847 0 1 .4477153 1 1 0 2.7614237-2.2385763 5-5 5h-2v-1c0-2.7614237 2.2385763-5 5-5z" fill="#4fba6f"/><path id="Shape" d="m10 36.998h2c2.7614237 0 5 2.2385763 5 5 0 .5522847-.4477153 1-1 1h-1c-2.7614237 0-5-2.2385763-5-5z" fill="#4fba6f" transform="matrix(-1 0 0 -1 27 79.996)"/><path id="Shape" d="m5 53c0-2.209139 1.790861-4 4-4 .17746272.0067417.35440744.0234346.53.05.5160446-.935146 1.3874611-1.6226194 2.4170347-1.9068344 1.0295737-.2842151 2.130263-.1411439 3.0529653.3968344 1.2361501-.7199379 2.7638499-.7199379 4 0 .9227023-.5379783 2.0233916-.6810495 3.0529653-.3968344 1.0295736.284215 1.9009901.9716884 2.4170347 1.9068344.1755926-.0265654.3525373-.0432583.53-.05 2.209139 0 4 1.790861 4 4z" fill="#cb8252"/><path id="Shape" d="m11.763 31.152c-.3346327.0003846-.6472789-.1666353-.833-.445l-2.262-3.393c-.43171476-.6617581-.66363045-1.4338846-.668-2.224v-4.09c0-.5522847.44771525-1 1-1s1 .4477153 1 1v4.09c.0034038.4019623.122103.7945025.342 1.131l2.252 3.379c.2040789.3066761.2230279.7007175.0493181 1.025561-.1737098.3248436-.5119458.5278806-.8803181.528439z" fill="#f29c1f"/><path id="Shape" d="m22.476 30.8c-.3687074-.0003134-.7073293-.2034902-.88111-.5286756s-.1545228-.719615.05011-1.0263244l2.023-3.036c.2150974-.3337146.3302916-.7219743.332-1.119v-4.09c0-.5522847.4477153-1 1-1s1 .4477153 1 1v4.09c-.0035885.7841045-.2319468 1.550736-.658 2.209l-2.033 3.052c-.1848015.2798879-.4976068.4484949-.833.449z" fill="#f29c1f"/><path id="Shape" d="m34 50v5c0 1.6568542-1.3431458 3-3 3h-28c-1.65685425 0-3-1.3431458-3-3v-5c0 1.6568542 1.34314575 3 3 3h28c1.6568542 0 3-1.3431458 3-3z" fill="#3b97d3"/><path id="Shape" d="m22 28h1c.5522847 0 1 .4477153 1 1 0 2.7614237-2.2385763 5-5 5h-2v-1c0-2.7614237 2.2385763-5 5-5z" fill="#4fba6f"/><path id="Shape" d="m10 28h2c2.7614237 0 5 2.2385763 5 5 0 .5522847-.4477153 1-1 1h-1c-2.7614237 0-5-2.2385763-5-5z" fill="#4fba6f" transform="matrix(-1 0 0 -1 27 62)"/><rect id="Rectangle-path" fill="#f0c419" height="12" rx="2" width="11" x="4" y="9"/><path id="Shape" d="m11 14h-3c-.55228475 0-1-.4477153-1-1s.44771525-1 1-1h3c.5522847 0 1 .4477153 1 1s-.4477153 1-1 1z" fill="#ecf0f1"/><path id="Shape" d="m10 18h-2c-.55228475 0-1-.4477153-1-1s.44771525-1 1-1h2c.5522847 0 1 .4477153 1 1s-.4477153 1-1 1z" fill="#ecf0f1"/><rect id="Rectangle-path" fill="#f0c419" height="12" rx="2" width="11" x="19" y="9"/><g fill="#ecf0f1"><path id="Shape" d="m26 14h-3c-.5522847 0-1-.4477153-1-1s.4477153-1 1-1h3c.5522847 0 1 .4477153 1 1s-.4477153 1-1 1z"/><path id="Shape" d="m25 18h-2c-.5522847 0-1-.4477153-1-1s.4477153-1 1-1h2c.5522847 0 1 .4477153 1 1s-.4477153 1-1 1z"/></g></g></g></svg>