<svg height="512" viewBox="0 0 58 58" width="512" xmlns="http://www.w3.org/2000/svg"><g id="Page-1" fill="none" fill-rule="evenodd"><g id="078---Tomato-Plant" fill-rule="nonzero" transform="translate(0 -1)"><path id="Shape" d="m22 43c0 5.52-4.92 10-11 10s-11-4.48-11-10c.006989-1.9491007.62227545-3.8473992 1.76-5.43 1.16245704-1.6030022 2.74346315-2.8553527 4.57-3.62h9.34c1.8265368.7646473 3.407543 2.0169978 4.57 3.62 1.1377246 1.5826008 1.753011 3.4808993 1.76 5.43z" fill="#c03a2b"/><path id="Shape" d="m21 41c0 4.97-4.48 9-10 9s-10-4.03-10-9c.00093219-1.1849919.26029205-2.355524.76-3.43 1.16245704-1.6030022 2.74346315-2.8553527 4.57-3.62h9.34c1.8265368.7646473 3.407543 2.0169978 4.57 3.62.4997079 1.074476.7590678 2.2450081.76 3.43z" fill="#e64c3c"/><path id="Shape" d="m51.67 18.95c3.7394993 1.4672558 6.2343122 5.0340894 6.33 9.05 0 5.52-4.92 10-11 10s-11-4.48-11-10c.0956878-4.0159106 2.5905007-7.5827442 6.33-9.05z" fill="#c03a2b"/><path id="Shape" d="m57 26.05c0 4.97-4.48 9-10 9s-10-4.03-10-9c.0009322-1.1849919.2602921-2.355524.76-3.43 1.162457-1.6030022 2.7434632-2.8553527 4.57-3.62h9.34c1.8265368.7646473 3.407543 2.0169978 4.57 3.62.4997079 1.074476.7590678 2.2450081.76 3.43z" fill="#e64c3c"/><path id="Shape" d="m9 49.75c-.08396143-.0000153-.16759786-.0104278-.249-.031-3.22247589-.670263-5.58606758-3.431691-5.751-6.719 0-.5522847.44771525-1 1-1s1 .4477153 1 1c.16852952 2.3723557 1.91194934 4.3345238 4.248 4.781.48869077.1245979.8081251.5935941.74510217 1.0939654-.06302289.5003713-.48877778.8755092-.99310217.8750346z" fill="#fb7b76"/><path id="Shape" d="m45 34.75c-.0839614-.0000153-.1675979-.0104278-.249-.031-3.2224759-.670263-5.5860676-3.431691-5.751-6.719 0-.5522847.4477153-1 1-1s1 .4477153 1 1c.1685295 2.3723557 1.9119493 4.3345238 4.248 4.781.4886908.1245979.8081251.5935941.7451022 1.0939654s-.4887778.8755092-.9931022.8750346z" fill="#fb7b76"/><path id="Shape" d="m27 27v16c0 9.058-3.349 13.093-5.713 14.813-.2328481.1638816-.3326626.4597464-.2466785.7311909.0859841.2714446.3379411.4558804.6226785.4558091h14.674c.2847374.0000713.5366944-.1843645.6226785-.4558091.0859841-.2714445-.0138304-.5673093-.2466785-.7311909-2.364-1.72-5.713-5.755-5.713-14.813v-30.756c-.0516928-3.57681621 2.5430172-6.64360204 6.079-7.185 1.9992863-.26237604 4.0147224.34901714 5.531279 1.67794268s2.3873009 3.24662952 2.389721 5.26305732v4h-4.52c-.1914188-.0041995-.3660901.1086226-.4409798.2848336-.0748896.176211-.0348917.3802675.1009798.5151664l2.84 2.79c.1131209.1113834.1620637.2725185.13.428l-.7 3.4c-.0374329.1861913.0379578.3770079.1925433.4873336s.3595462.1195923.5234567.0236664l3.62-2.13c.1547005-.0893164.3452995-.0893164.5 0l3.62 2.13c.1639105.0959259.3688712.0866593.5234567-.0236664s.2299762-.3011423.1925433-.4873336l-.7-3.4c-.0320637-.1554815.0168791-.3166166.13-.428l2.84-2.79c.1358715-.1348989.1758694-.3389554.1009798-.5151664-.0748897-.176211-.249561-.2890331-.4409798-.2848336h-4.512v-3.639c.0722961-6.08747533-4.7166639-11.12519518-10.8-11.361-2.952358-.05533027-5.8028625 1.07931654-7.9095868 3.14842074s-3.2925432 4.89870357-3.2904132 7.85157926v5.512c-.0012611.1819877-.1013056.3489178-.2612026.4358319-.1598969.086914-.354391.0800842-.5077974-.0178319-1.9946166-1.3723036-4.3874313-2.0456673-6.805-1.915-5.9208913.4157307-10.49192754 5.3738977-10.426 11.309v3.676h-4.52c-.19141875-.0041995-.36609011.1086226-.44097978.2848336s-.03489175.3802675.10097978.5151664l2.838 2.788c.11452277.1122305.16423548.2749267.132.432l-.7 3.4c-.03743295.1861913.03795784.3770079.19254334.4873336s.35954616.1195923.52345666.0236664l3.62-2.13c.1547005-.0893164.3452995-.0893164.5 0l3.639 2.141c.1603841.0931317.3604452.0837061.5113627-.0240922.1509176-.1077982.2247184-.2939882.1886373-.4759078l-.7-3.42c-.0322355-.1570733.0174772-.3197695.132-.432l2.843-2.79c.1358715-.1348989.1758694-.3389554.1009798-.5151664-.0748897-.176211-.249561-.2890331-.4409798-.2848336h-4.52v-3.756c-.0516928-3.5768162 2.5430172-6.643602 6.079-7.185 1.9992863-.262376 4.0147224.3490171 5.531279 1.6779427 1.5165566 1.3289255 2.3873009 3.2466295 2.389721 5.2630573z" fill="#4fba6f"/></g></g></svg>