<svg height="512" viewBox="0 0 58 59" width="512" xmlns="http://www.w3.org/2000/svg"><g id="Page-1" fill="none" fill-rule="evenodd"><g id="079---High-Quality-Produce" fill-rule="nonzero"><path id="Shape" d="m23 2h1.908c2.7614237 0 5 2.23857625 5 5v1h-2.908c-2.7614237 0-5-2.23857625-5-5 0-.55228475.4477153-1 1-1z" fill="#4fba6f"/><path id="Shape" d="m29 15c-.5522847 0-1-.4477153-1-1v-1c0-.349.073-8.585 6.445-12.832.297245-.19828242.6776931-.22292463.9980332-.06464413.3203401.15828049.5319049.47543711.555.83200002s-.1457882.69836172-.4430332.89664411c-5.469 3.646-5.555 11.095-5.555 11.168v1c0 .5522847-.4477153 1-1 1z" fill="#24ae5f"/><path id="Shape" d="m46 25c.1020286 4.0399728-1.3267839 7.9692071-4 11l-13 2-13-2c-2.6715717-3.031769-4.1001413-6.9603354-4-11 .0017255-.9608118.0752637-1.9201507.22-2.87.99-6.36 5.22-11.13 10.28-11.13 1.6579801.0116473 3.2756107.512591 4.65 1.44 1.1223465.739956 2.5776535.739956 3.7 0 1.3743893-.927409 2.9920199-1.4283527 4.65-1.44 5.06 0 9.29 4.77 10.28 11.13.1447363.9498493.2182745 1.9091882.22 2.87z" fill="#c03a2b"/><path id="Shape" d="m45.78 22.13c-1.4543273 8.1015252-8.5495377 13.966279-16.78 13.87-8.2304623.096279-15.3256727-5.7684748-16.78-13.87.99-6.36 5.22-11.13 10.28-11.13 1.6579801.0116473 3.2756107.512591 4.65 1.44 1.1223465.739956 2.5776535.739956 3.7 0 1.3743893-.927409 2.9920199-1.4283527 4.65-1.44 5.06 0 9.29 4.77 10.28 11.13z" fill="#e64c3c"/><path id="Shape" d="m18.67 58.74c-.1833983.1666976-.4221642.259353-.67.26h-17c-.37877206 0-.72503518-.2140024-.89442719-.5527864-.16939202-.338784-.13283605-.744196.09442719-1.0472136l4.35-5.8c.27004762-.3544214.27004762-.8455786 0-1.2l-4.35-5.8c-.22726324-.3030176-.26381921-.7084296-.09442719-1.0472136.16939201-.338784.51565513-.5527864.89442719-.5527864h8z" fill="#894b9d"/><path id="Shape" d="m57.8 57.4c.2272632.3030176.2638192.7084296.0944272 1.0472136s-.5156551.5527864-.8944272.5527864h-17c-.2478358-.000647-.4866017-.0933024-.67-.26l9.67-15.74h8c.3787721 0 .7250352.2140024.8944272.5527864s.132836.744196-.0944272 1.0472136l-4.35 5.8c-.2700476.3544214-.2700476.8455786 0 1.2z" fill="#894b9d"/><path id="Shape" d="m16.137 28c-.4987987-.0002156-.9211658-.3679736-.99-.862-.0976607-.7084844-.1467752-1.4228163-.147-2.138 0-4.933 2.374-9.413 5.646-10.653.3373474-.1424096.7255526-.0890502 1.0119664.1390964s.4252273.5945908.3618566.9552401-.3187903.6578216-.665823.7746635c-2.482.942-4.354 4.719-4.354 8.784-.0001299.6228692.042638 1.2450078.128 1.862.0759381.5470378-.3059625 1.0520599-.853 1.128-.0456817.0068115-.0918135.0101544-.138.01z" fill="#fb7b76"/><circle id="Oval" cx="17" cy="31" fill="#fb7b76" r="1"/><path id="Shape" d="m19 52v6c-.000667.2821782-.1205206.5509408-.33.74l-9.67-6.74v-9z" fill="#5d4c72"/><path id="Shape" d="m49 43v9l-9.67 6.74c-.2094794-.1890592-.329333-.4578218-.33-.74v-6z" fill="#5d4c72"/><path id="Shape" d="m10 36h38c.5522847 0 1 .4477153 1 1v15h-40v-15c0-.5522847.44771525-1 1-1z" fill="#955ba5"/><g fill="#f0c419"><path id="Shape" d="m29.481 40.312.945 2 2.114.321c.2064101.0382631.3747875.1874397.4376419.3877358s.0098984.4189288-.1376419.5682642l-1.529 1.557.361 2.2c.042105.2041699-.0368455.4143675-.20295.5403337-.1661045.1259661-.3898073.1452871-.57505.0496663l-1.894-1.036-1.891 1.037c-.1852427.0956208-.4089455.0762998-.57505-.0496663-.1661045-.1259662-.245055-.3361638-.20295-.5403337l.361-2.2-1.529-1.557c-.1475403-.1493354-.2004963-.3679681-.1376419-.5682642s.2312318-.3494727.4376419-.3877358l2.114-.321.945-2c.0854516-.1879131.2727487-.308633.4791785-.3088483.2064297-.0002152.3939782.1201138.4798215.3078483z"/><path id="Shape" d="m41.481 40.312.945 2 2.114.321c.2064101.0382631.3747875.1874397.4376419.3877358s.0098984.4189288-.1376419.5682642l-1.529 1.557.361 2.2c.042105.2041699-.0368455.4143675-.20295.5403337-.1661045.1259661-.3898073.1452871-.57505.0496663l-1.894-1.036-1.891 1.037c-.1852427.0956208-.4089455.0762998-.57505-.0496663-.1661045-.1259662-.245055-.3361638-.20295-.5403337l.361-2.2-1.529-1.557c-.1475403-.1493354-.2004963-.3679681-.1376419-.5682642s.2312318-.3494727.4376419-.3877358l2.114-.321.945-2c.0854516-.1879131.2727487-.308633.4791785-.3088483.2064297-.0002152.3939782.1201138.4798215.3078483z"/><path id="Shape" d="m17.481 40.312.945 2 2.114.321c.2064101.0382631.3747875.1874397.4376419.3877358s.0098984.4189288-.1376419.5682642l-1.529 1.557.361 2.2c.042105.2041699-.0368455.4143675-.20295.5403337-.1661045.1259661-.3898073.1452871-.57505.0496663l-1.894-1.036-1.891 1.037c-.1852427.0956208-.4089455.0762998-.57505-.0496663-.1661045-.1259662-.245055-.3361638-.20295-.5403337l.361-2.2-1.529-1.557c-.1475403-.1493354-.2004963-.3679681-.1376419-.5682642s.2312318-.3494727.4376419-.3877358l2.114-.321.945-2c.0854516-.1879131.2727487-.308633.4791785-.3088483.2064297-.0002152.3939782.1201138.4798215.3078483z"/></g></g></g></svg>