<svg height="512" viewBox="0 0 58 58" width="512" xmlns="http://www.w3.org/2000/svg"><g id="Page-1" fill="none" fill-rule="evenodd"><g id="080---Orange-Data" fill-rule="nonzero"><circle id="Oval" cx="29" cy="29" fill="#f29c1f" r="12"/><path id="Shape" d="m21.252 32c-.4559068-.0001121-.8540233-.3085702-.968-.75-.7057905-2.7465458-.075833-5.6651017 1.7-7.876.3497674-.41605.9678085-.4765379 1.391604-.1361966.4237956.3403412.4981397.9568691.167396 1.3881966-1.380134 1.7194445-1.8682573 3.9891991-1.317 6.124.0665067.2570039.0280929.5299056-.106776.7585636-.1348688.2286581-.3551233.3943052-.612224.4604364-.0833791.0209028-.1690413.0313166-.255.031z" fill="#f0c419"/><path id="Shape" d="m22 9v1.667c0 1.8407651 1.4922349 3.333 3.333 3.333h3.667v-1.667c-.1578797-1.9013547-1.759251-3.35686898-3.667-3.333z" fill="#4fba6f"/><path id="Shape" d="m21 45c-.5522847 0-1-.4477153-1-1v-9c0-.5522847.4477153-1 1-1s1 .4477153 1 1v9c0 .5522847-.4477153 1-1 1z" fill="#894b9d"/><path id="Shape" d="m37 24c-.5522847 0-1-.4477153-1-1v-9c0-.5522847.4477153-1 1-1s1 .4477153 1 1v9c0 .5522847-.4477153 1-1 1z" fill="#894b9d"/><path id="Shape" d="m29 22c-.5522847 0-1-.4477153-1-1v-15c0-.55228475.4477153-1 1-1s1 .44771525 1 1v15c0 .5522847-.4477153 1-1 1z" fill="#24ae5f"/><path id="Shape" d="m31 22.385c-.1336184-.0003165-.2658433-.0271694-.389-.079-1.0353702-.4073742-2.1866298-.4073742-3.222 0-.5055733.2011756-1.07921-.0388054-1.2909224-.5400577-.2117125-.5012523.0162107-1.0797858.5129224-1.3019423 1.5332885-.6150437 3.2447115-.6150437 4.778 0 .4379974.185263.6849307.6533639.5905447 1.1194705-.094386.4661067-.5039776.8012621-.9795447.8015295z" fill="#e57e25"/><rect id="Rectangle-path" fill="#955ba5" height="16" rx="2" width="22" y="42"/><g fill="#ecf0f1"><path id="Shape" d="m18 47h-14c-.55228475 0-1-.4477153-1-1s.44771525-1 1-1h14c.5522847 0 1 .4477153 1 1s-.4477153 1-1 1z"/><path id="Shape" d="m18 51h-14c-.55228475 0-1-.4477153-1-1s.44771525-1 1-1h14c.5522847 0 1 .4477153 1 1s-.4477153 1-1 1z"/><path id="Shape" d="m12 55h-8c-.55228475 0-1-.4477153-1-1s.44771525-1 1-1h8c.5522847 0 1 .4477153 1 1s-.4477153 1-1 1z"/></g><rect id="Rectangle-path" fill="#955ba5" height="16" rx="2" width="22" x="36"/><path id="Shape" d="m54 5h-14c-.5522847 0-1-.44771525-1-1s.4477153-1 1-1h14c.5522847 0 1 .44771525 1 1s-.4477153 1-1 1z" fill="#ecf0f1"/><path id="Shape" d="m54 9h-14c-.5522847 0-1-.44771525-1-1s.4477153-1 1-1h14c.5522847 0 1 .44771525 1 1s-.4477153 1-1 1z" fill="#ecf0f1"/><path id="Shape" d="m48 13h-8c-.5522847 0-1-.4477153-1-1s.4477153-1 1-1h8c.5522847 0 1 .4477153 1 1s-.4477153 1-1 1z" fill="#ecf0f1"/></g></g></svg>