<svg height="512" viewBox="0 0 58 58" width="512" xmlns="http://www.w3.org/2000/svg"><g id="Page-1" fill="none" fill-rule="evenodd"><g id="081---Autonomous-Tractor-Controls" fill-rule="nonzero"><path id="Shape" d="m20.08 46h-17.08c-1.65685425 0-3-1.3431458-3-3v-40c0-1.65685425 1.34314575-3 3-3h34c1.6568542 0 3 1.34314575 3 3v31z" fill="#f0c419"/><path id="Shape" d="m24.25 42h-19.25c-.55228475 0-1-.4477153-1-1v-36c0-.55228475.44771525-1 1-1h30c.5522847 0 1 .44771525 1 1v29z" fill="#f3d55b"/><path id="Shape" d="m8 16c-.55228475 0-1-.4477153-1-1v-6c0-1.1045695.8954305-2 2-2h2c.5522847 0 1 .44771525 1 1s-.4477153 1-1 1h-2v6c0 .5522847-.44771525 1-1 1z" fill="#fff"/><g fill="#2fa8cc"><path id="Shape" d="m22.707 33.293c-.3904999-.3903819-1.0235001-.3903819-1.414 0l-.293.293v-2.586c0-.5522847-.4477153-1-1-1s-1 .4477153-1 1v2.586l-.293-.293c-.3923789-.3789722-1.0160848-.3735524-1.4018186.0121814s-.3911536 1.0094397-.0121814 1.4018186l2 2c.3904999.3903819 1.0235001.3903819 1.414 0l2-2c.3903819-.3904999.3903819-1.0235001 0-1.414z"/><path id="Shape" d="m22.707 10.293-2-2c-.3904999-.39038194-1.0235001-.39038194-1.414 0l-2 2c-.3789722.3923789-.3735524 1.0160848.0121814 1.4018186s1.0094397.3911536 1.4018186.0121814l.293-.293v2.586c0 .5522847.4477153 1 1 1s1-.4477153 1-1v-2.586l.293.293c.3923789.3789722 1.0160848.3735524 1.4018186-.0121814s.3911536-1.0094397.0121814-1.4018186z"/><path id="Shape" d="m13 22h-2.586l.293-.293c.3789722-.3923789.3735524-1.0160848-.0121814-1.4018186s-1.00943971-.3911536-1.4018186-.0121814l-2 2c-.39038194.3904999-.39038194 1.0235001 0 1.414l2 2c.39237889.3789722 1.0160848.3735524 1.4018186-.0121814s.3911536-1.0094397.0121814-1.4018186l-.293-.293h2.586c.5522847 0 1-.4477153 1-1s-.4477153-1-1-1z"/><path id="Shape" d="m32.707 22.293-2-2c-.3923789-.3789722-1.0160848-.3735524-1.4018186.0121814s-.3911536 1.0094397-.0121814 1.4018186l.293.293h-2.586c-.5522847 0-1 .4477153-1 1s.4477153 1 1 1h2.586l-.293.293c-.2599566.2510745-.3642126.6228779-.2726972.9725073.0915155.3496295.3645604.6226744.7141899.7141899.3496294.0915154.7214328-.0127406.9725073-.2726972l2-2c.3903819-.3904999.3903819-1.0235001 0-1.414z"/></g><path id="Shape" d="m24 20.8c-.262482-.0013707-.5139013-.1058893-.7-.291-.8368586-.9410939-2.036139-1.4795086-3.2955-1.4795086s-2.4586414.5384147-3.2955 1.4795086c-.2540158.2516936-.6230131.3487523-.9679941.2546149-.3449809-.0941374-.6135348-.365169-.7045-.711-.0909651-.345831.0094783-.7139213.2634941-.9656149 1.2226789-1.2988215 2.9165809-2.050986 4.7-2.087 1.7868039.0349194 3.4840701.7887392 4.708 2.091.2874729.2859324.3738374.7171497.2186541 1.0917376-.1551833.374588-.5211955.6183958-.9266541.6172624z" fill="#955ba5"/><path id="Shape" d="m22.208 24c-.2619144-.0003051-.5132551-.1033547-.7-.287-.3725593-.4489011-.9256368-.7086263-1.509-.7086263s-1.1364407.2597252-1.509.7086263c-.3977586.3601386-1.0088552.3421682-1.3847637-.0407215s-.3826323-.9942134-.0152363-1.3852785c.7543596-.8053283 1.8085454-1.2622984 2.912-1.2622984s2.1576404.4569701 2.912 1.2622984c.2893174.2845141.3780242.7156533.2245299 1.0912758s-.5187559.6212521-.9245299.6217242z" fill="#955ba5"/><path id="Shape" d="m21 27.323c-.2002091.0005063-.3958479-.0598244-.561-.173-.2588085-.1990894-.6191915-.1990894-.878 0-.4578441.3092794-1.0797205.188844-1.389-.269-.3092794-.4578441-.188844-1.0797205.269-1.389.9406852-.6451274 2.1813148-.6451274 3.122 0 .3669593.2456212.5293773.7028518.3995972 1.1249253s-.5210318.7090605-.9625972.7060747z" fill="#955ba5"/><path id="Shape" d="m33 30c1.6568542 0 3 1.3431458 3 3v2h-6v-2c0-1.6568542 1.3431458-3 3-3z" fill="#95a5a5"/><path id="Shape" d="m57 40v8.69l-11 3.31h-6.18c-.4519638-.0021887-.8178113-.3680362-.82-.82v-1.18c.0652438-5.0505395-3.0783092-9.5872125-7.83-11.3-1.3424093-.4596362-2.7510874-.696105-4.17-.7v-2c.0032948-1.1032019.8967981-1.9967052 2-2h22c3.3137085 0 6 2.6862915 6 6z" fill="#e64c3c"/><path id="Shape" d="m57 41v2h-5v3.09c0 .5522847-.4477153 1-1 1s-1-.4477153-1-1v-6.09h-9c-.5522847 0-1-.4477153-1-1s.4477153-1 1-1h9v-4h1c.3353876-.0007205.6701307.0294064 1 .09v6.91z" fill="#c03a2b"/><path id="Shape" d="m40 44h-3.18c-.5522847 0-1-.4477153-1-1s.4477153-1 1-1h3.18c.5522847 0 1 .4477153 1 1s-.4477153 1-1 1z" fill="#c03a2b"/><path id="Shape" d="m41 48h-2.38c-.5522847 0-1-.4477153-1-1s.4477153-1 1-1h2.38c.5522847 0 1 .4477153 1 1s-.4477153 1-1 1z" fill="#c03a2b"/><path id="Shape" d="m39 50 .0000038 1h-4.0600038l-10.58-8.55-.97-3.9c2.5425997-.7835969 5.2694945-.7310218 7.78.15 2.3272937.7931495 4.3298305 2.3284277 5.7 4.37 1.3897295 2.0437273 2.1319415 4.4585297 2.13 6.93z" fill="#35495e"/><path id="Shape" d="m39 52.179c-.5522847 0-1-.4477153-1-1v-1.179c.0811903-4.6266747-2.7957174-8.7903872-7.152-10.351-2.6847801-.9577113-5.6327633-.8623039-8.25.267-.5015786.2009149-1.0720448-.032938-1.2882756-.5281067-.2162309-.4951687-.0000157-1.0725506.4882756-1.3038933 3.0728222-1.3328905 6.536872-1.4504673 9.693-.329 5.1683593 1.8351186 8.591426 6.7611323 8.509 12.245v1.179c0 .5522847-.4477153 1-1 1z" fill="#c03a2b"/><circle id="Oval" cx="27" cy="50" fill="#3f5c6c" r="8"/><circle id="Oval" cx="27" cy="50" fill="#547580" r="4"/><circle id="Oval" cx="52" cy="52" fill="#3f5c6c" r="6"/><circle id="Oval" cx="52" cy="52" fill="#547580" r="2"/></g></g></svg>