<svg height="512" viewBox="0 0 60 59" width="512" xmlns="http://www.w3.org/2000/svg"><g id="Page-1" fill="none" fill-rule="evenodd"><g id="082---Farm-Insurance" fill-rule="nonzero"><path id="Rectangle-path" d="m37 37h18v16h-18z" fill="#e57e25"/><rect id="Rectangle-path" fill="#9fc9d3" height="7" rx="1" width="9" x="42" y="42"/><path id="Shape" d="m49 42c.0024792.1343143-.0248427.2675085-.08.39l-2.83 6.61h-2.09c-.0024792-.1343143.0248427-.2675085.08-.39l2.83-6.61z" fill="#ecf0f1"/><path id="Shape" d="m37.26 30h15.74c1.1045695 0 2 .8954305 2 2v6h-18z" fill="#f29c1f"/><path id="Shape" d="m51 35h-7c-.5522847 0-1-.4477153-1-1s.4477153-1 1-1h7c.5522847 0 1 .4477153 1 1s-.4477153 1-1 1z" fill="#e57e25"/><path id="Shape" d="m30 0s-12 12-13 14.99c-.1025116.0030987-.203576-.0247812-.29-.08-1.7111129-1.1288341-3.701201-1.7622013-5.75-1.83-1.83595853.0488696-3.62912603.5651367-5.21 1.5-.16579868.0937828-.37026133.0862932-.52875418-.0193687-.15849284-.1056619-.24404584-.2915161-.22124582-.4806313.87-7.86 11.73-14.08 25-14.08z" fill="#e64c3c"/><path id="Shape" d="m30 0 2 7-2 8c-.0885551.0029813-.175869-.0214666-.25-.07-1.8904625-1.1501475-4.0480292-1.7877671-6.26-1.85-2.2075701.0614376-4.361286.6954915-6.25 1.84-.0710399.0471539-.1547492.0715691-.24.07 0-8.28 5.82-14.99 13-14.99z" fill="#ecf0f1"/><path id="Shape" d="m55 14.08c.0228.1891152-.062753.3749694-.2212458.4806313-.1584929.1056619-.3629555.1131515-.5287542.0193687-1.580874-.9348633-3.3740415-1.4511304-5.21-1.5-2.048799.0677987-4.0388871.7011659-5.75 1.83-.086424.0552188-.1874884.0830987-.29.08-3.7039519-5.5095452-8.0699031-10.54382273-13-14.99 13.27 0 24.13 6.22 25 14.08z" fill="#ecf0f1"/><path id="Shape" d="m43 14.99c-.0852508.0015691-.1689601-.0228461-.24-.07-1.888714-1.1445085-4.0424299-1.7785624-6.25-1.84-2.2119708.0622329-4.3695375.6998525-6.26 1.85-.074131.0485334-.1614449.0729813-.25.07v-15c7.18 0 13 6.71 13 14.99z" fill="#e64c3c"/><path id="Shape" d="m38 31.08v21.92h-30v-21.92l4.76-6.94c.1596755-.2345963.367656-.4323482.61-.58l8.6-5.27c.6313068-.3899425 1.4286932-.3899425 2.06 0l8.6 5.27c.242344.1476518.4503245.3454037.61.58z" fill="#cc4b4c"/><path id="Shape" d="m15 42h16c.5522847 0 1 .4477153 1 1v10h-18v-10c0-.5522847.4477153-1 1-1z" fill="#802f34"/><path id="Rectangle-path" d="m18 42h10v11h-10z" fill="#fb7b76"/><circle id="Oval" cx="22" cy="47" fill="#3f5c6c" r="1"/><path id="Shape" d="m29 27.33v5.67c0 .5522847-.4477153 1-1 1h-10c-.5522847 0-1-.4477153-1-1v-5.67c.0031474-.3341542.1716936-.6450284.45-.83l4.55-3.03.45-.3c.3305929-.2300179.7694071-.2300179 1.1 0l.45.3 4.55 3.03c.2783064.1849716.4468526.4958458.45.83z" fill="#2fa8cc"/><g fill="#802f34"><path id="Shape" d="m29 28v2h-5v4h-2v-4h-5v-2h5v-4.53l.45-.3c.3305929-.2300179.7694071-.2300179 1.1 0l.45.3v4.53z"/><path id="Shape" d="m34 39h-22c-.5522847 0-1-.4477153-1-1s.4477153-1 1-1h22c.5522847 0 1 .4477153 1 1s-.4477153 1-1 1z"/><path id="Shape" d="m17 43c0 .5522847-.4477153 1-1 1h-8v-2h8c.5522847 0 1 .4477153 1 1z"/><path id="Shape" d="m14 33c0 .5522847-.4477153 1-1 1h-5v-2h5c.5522847 0 1 .4477153 1 1z"/><path id="Shape" d="m13 29h-2.89c-.55228475 0-1-.4477153-1-1s.44771525-1 1-1h2.89c.5522847 0 1 .4477153 1 1s-.4477153 1-1 1z"/><path id="Shape" d="m38 32v2h-5c-.5522847 0-1-.4477153-1-1s.4477153-1 1-1z"/><path id="Shape" d="m35.89 29h-2.89c-.5522847 0-1-.4477153-1-1s.4477153-1 1-1h2.89c.5522847 0 1 .4477153 1 1s-.4477153 1-1 1z"/><path id="Shape" d="m17 48c0 .5522847-.4477153 1-1 1h-8v-2h8c.5522847 0 1 .4477153 1 1z"/><path id="Shape" d="m38 42v2h-8c-.5522847 0-1-.4477153-1-1s.4477153-1 1-1z"/><path id="Shape" d="m38 49h-8c-.5522847 0-1-.4477153-1-1s.4477153-1 1-1h8z"/></g><path id="Shape" d="m30 59c-.5522847 0-1-.4477153-1-1v-5c0-.5522847.4477153-1 1-1s1 .4477153 1 1v5c0 .5522847-.4477153 1-1 1z" fill="#a56a43"/><path id="Shape" d="m8 59c-.42138111.0003167-.797746-.2635474-.94110246-.6597936s-.02293983-.8398391.30110246-1.1092064l6-5c.424707-.3534622 1.0555378-.295707 1.409.129s.295707 1.0555378-.129 1.409l-6 5c-.17977399.1494414-.40622366.2311755-.64.231z" fill="#a56a43"/><path id="Shape" d="m52 59c-.2337763.0001755-.460226-.0815586-.64-.231l-6-5c-.2747372-.22865-.4066216-.5865018-.3459735-.9387563.060648-.3522544.3046147-.6453955.64-.769.3353853-.1236044.7112363-.0588937.9859735.1697563l6 5c.3240423.2693673.4444589.7129602.3011025 1.1092064-.1433565.3962462-.5197214.6601103-.9411025.6597936z" fill="#a56a43"/><path id="Shape" d="m40 35c-.330274.0003002-.6393952-.1624937-.826-.435l-6.755-9.855c-.0804049-.118326-.1850526-.2182015-.307-.293l-8.606-5.273c-.3103887-.1919465-.7026113-.1919465-1.013 0l-8.6 5.273c-.1216799.074725-.2262784.1742127-.307.292l-6.761 9.856c-.19986452.2996447-.54542909.4686553-.90465929.4424559s-.67661585-.2435605-.8308892-.5690332c-.15427336-.3254727-.12159528-.7087632.08554849-1.0034227l6.756-9.856c.2392897-.3502234.5501266-.6457228.912-.867l8.606-5.274c.9507818-.5841342 2.1492182-.5841342 3.1 0l8.606 5.274c.3622362.2212263.6731465.5171365.912.868l6.756 9.855c.2094191.3058209.2325057.7023899.0599882 1.0304456-.1725174.3280557-.5123371.53378-.8829882.5345544z" fill="#f0c419"/><path id="Shape" d="m59 54h-58c-.55228475 0-1-.4477153-1-1s.44771525-1 1-1h58c.5522847 0 1 .4477153 1 1s-.4477153 1-1 1z" fill="#cb8252"/></g></g></svg>