<svg height="512" viewBox="0 0 58 58" width="512" xmlns="http://www.w3.org/2000/svg"><g id="Page-1" fill="none" fill-rule="evenodd"><g id="083---Crop-Data-Computer-App" fill-rule="nonzero" transform="translate(-1)"><path id="Shape" d="m59 2.18v43.64c.0452102 1.152631-.8477494 2.1259569-2 2.18h-54c-.86591857-.0251368-1.61886316-.6009179-1.87-1.43-.08918702-.2398512-.13326106-.4941245-.13-.75v-43.64c-.04521019-1.152631.84774936-2.12595691 2-2.18h54c1.1522506.05404309 2.0452102 1.027369 2 2.18z" fill="#84b5cb"/><path id="Shape" d="m47 0c-2.74 12.24-12.5 39.55-45.87 46.57-.08918702-.2398512-.13326106-.4941245-.13-.75v-43.64c-.04521019-1.152631.84774936-2.12595691 2-2.18z" fill="#9fc9d3"/><path id="Shape" d="m38 48 3 6-11 2-11-2 3-6 8-2z" fill="#2980ba"/><rect id="Rectangle-path" fill="#3b97d3" height="4" rx="2" width="34" x="13" y="54"/><path id="Shape" d="m42 11h-7c-.5522847 0-1-.4477153-1-1 0-.55228475.4477153-1 1-1h7c.5522847 0 1 .44771525 1 1 0 .5522847-.4477153 1-1 1z" fill="#f0c419"/><path id="Shape" d="m42 27h-6c-.5522847 0-1-.4477153-1-1s.4477153-1 1-1h6c.5522847 0 1 .4477153 1 1s-.4477153 1-1 1z" fill="#f0c419"/><path id="Shape" d="m24 19h-6c-.5522847 0-1-.4477153-1-1s.4477153-1 1-1h6c.5522847 0 1 .4477153 1 1s-.4477153 1-1 1z" fill="#f0c419"/><path id="Shape" d="m30 40c-.5522847 0-1-.4477153-1-1v-35c0-.55228475.4477153-1 1-1s1 .44771525 1 1v35c0 .5522847-.4477153 1-1 1z" fill="#24ae5f"/><g fill="#4fba6f"><path id="Shape" d="m35 16h1c.5522847 0 1 .4477153 1 1 0 1.3260824-.5267842 2.597852-1.4644661 3.5355339s-2.2094515 1.4644661-3.5355339 1.4644661h-2v-1c0-2.7614237 2.2385763-5 5-5z"/><path id="Shape" d="m23 16h2c2.7614237 0 5 2.2385763 5 5 0 .5522847-.4477153 1-1 1h-1c-2.7614237 0-5-2.2385763-5-5z" transform="matrix(-1 0 0 -1 53 38)"/><path id="Shape" d="m35 25h1c.5522847 0 1 .4477153 1 1 0 2.7614237-2.2385763 5-5 5h-2v-1c0-2.7614237 2.2385763-5 5-5z"/><path id="Shape" d="m23 24.998h2c2.7614237 0 5 2.2385763 5 5 0 .5522847-.4477153 1-1 1h-1c-2.7614237 0-5-2.2385763-5-5z" transform="matrix(-1 0 0 -1 53 55.996)"/><path id="Shape" d="m34.167 8h2c.4600532 0 .833.3729468.833.833 0 1.10515711-.439022 2.1650499-1.220486 2.946514-.7814641.781464-1.8413569 1.220486-2.946514 1.220486h-2.833v-.833c0-2.30137055 1.8656294-4.167 4.167-4.167z"/><path id="Shape" d="m23 8h2.833c2.3013706 0 4.167 1.86562945 4.167 4.167 0 .4600532-.3729468.833-.833.833h-2c-2.3013706 0-4.167-1.8656294-4.167-4.167z" transform="matrix(-1 0 0 -1 53 21)"/></g><path id="Shape" d="m9.1 42c.26676642-1.3063263 1.0442235-2.4520034 2.1596142-3.1824529s2.4763225-.9851651 3.7803858-.7075471c.9009383.1958882 1.8404678-.066132 2.51-.7.9199925-.905159 2.1593815-1.4116919 3.45-1.41 1.0075327.0002908 1.991115.3072243 2.82.88.5544349.375086 1.2466683.4849643 1.89.3.4191974-.1212973.8536104-.181913 1.29-.18.3706349-.0023775.74013.0412902 1.1.13.8638525.2078107 1.7735454-.0499356 2.4-.68 1.9174145-1.9174716 5.0206729-1.9353064 6.96-.04.5296195.4930855 1.2534445.7208883 1.97.62.1893442-.019966.379606-.0299797.57-.03 1.0509701-.0006214 2.0744312.3358589 2.92.96.6877432.5106123 1.5871443.6385605 2.39.34.5414037-.1982505 1.1134402-.2997954 1.69-.3 2.3763431-.000485 4.4247314 1.6716687 4.9 4z" fill="#cb8252"/><path id="Shape" d="m59 42v3.82c.0452102 1.152631-.8477494 2.1259569-2 2.18h-54c-1.15225064-.0540431-2.04521019-1.027369-2-2.18v-3.82z" fill="#3b97d3"/><rect id="Rectangle-path" fill="#f3d55b" height="12" rx="2" width="13" x="42" y="4"/><path id="Shape" d="m51 9h-5c-.5522847 0-1-.44771525-1-1s.4477153-1 1-1h5c.5522847 0 1 .44771525 1 1s-.4477153 1-1 1z" fill="#ecf0f1"/><rect id="Rectangle-path" fill="#f3d55b" height="12" rx="2" width="13" x="42" y="19.999"/><path id="Shape" d="m51 25h-5c-.5522847 0-1-.4477153-1-1s.4477153-1 1-1h5c.5522847 0 1 .4477153 1 1s-.4477153 1-1 1z" fill="#ecf0f1"/><rect id="Rectangle-path" fill="#f3d55b" height="12" rx="2" transform="matrix(-1 0 0 -1 23 35.998)" width="13" x="5" y="11.999"/><path id="Shape" d="m14 17h-5c-.55228475 0-1-.4477153-1-1s.44771525-1 1-1h5c.5522847 0 1 .4477153 1 1s-.4477153 1-1 1z" fill="#ecf0f1"/><path id="Shape" d="m14 21h-3c-.5522847 0-1-.4477153-1-1s.4477153-1 1-1h3c.5522847 0 1 .4477153 1 1s-.4477153 1-1 1z" fill="#ecf0f1"/><path id="Shape" d="m49 13h-3c-.5522847 0-1-.4477153-1-1s.4477153-1 1-1h3c.5522847 0 1 .4477153 1 1s-.4477153 1-1 1z" fill="#ecf0f1"/><path id="Shape" d="m49 29h-3c-.5522847 0-1-.4477153-1-1s.4477153-1 1-1h3c.5522847 0 1 .4477153 1 1s-.4477153 1-1 1z" fill="#ecf0f1"/></g></g></svg>