<svg height="512" viewBox="0 0 58 58" width="512" xmlns="http://www.w3.org/2000/svg"><g id="Page-1" fill="none" fill-rule="evenodd"><g id="084---Indoor-Farming" fill-rule="nonzero"><path id="Shape" d="m22 35h3c2.209139 0 4 1.790861 4 4v2h-4c-2.209139 0-4-1.790861-4-4v-1c0-.5522847.4477153-1 1-1z" fill="#4fba6f"/><path id="Shape" d="m33 35h4v2c0 2.209139-1.790861 4-4 4h-3c-.5522847 0-1-.4477153-1-1v-1c0-2.209139 1.790861-4 4-4z" fill="#4fba6f" transform="matrix(-1 0 0 -1 66 76)"/><path id="Shape" d="m29 42c-.5522847 0-1-.4477153-1-1v-10c0-.5522847.4477153-1 1-1s1 .4477153 1 1v10c0 .5522847-.4477153 1-1 1z" fill="#24ae5f"/><path id="Shape" d="m2 35h3c2.209139 0 4 1.790861 4 4v2h-4c-2.209139 0-4-1.790861-4-4v-1c0-.5522847.44771525-1 1-1z" fill="#4fba6f"/><path id="Shape" d="m13 35h4v2c0 2.209139-1.790861 4-4 4h-3c-.55228475 0-1-.4477153-1-1v-1c0-2.209139 1.790861-4 4-4z" fill="#4fba6f" transform="matrix(-1 0 0 -1 26 76)"/><path id="Shape" d="m9 42c-.55228475 0-1-.4477153-1-1v-10c0-.5522847.44771525-1 1-1s1 .4477153 1 1v10c0 .5522847-.44771525 1-1 1z" fill="#24ae5f"/><path id="Shape" d="m42 35h3c2.209139 0 4 1.790861 4 4v2h-4c-2.209139 0-4-1.790861-4-4v-1c0-.5522847.4477153-1 1-1z" fill="#4fba6f"/><path id="Shape" d="m53 35h4v2c0 2.209139-1.790861 4-4 4h-3c-.5522847 0-1-.4477153-1-1v-1c0-2.209139 1.790861-4 4-4z" fill="#4fba6f" transform="matrix(-1 0 0 -1 106 76)"/><path id="Shape" d="m49 42c-.5522847 0-1-.4477153-1-1v-10c0-.5522847.4477153-1 1-1s1 .4477153 1 1v10c0 .5522847-.4477153 1-1 1z" fill="#24ae5f"/><path id="Rectangle-path" d="m8 44h42v7h-42z" fill="#805333"/><path id="Shape" d="m5 44h4v13c0 .5522847-.44771525 1-1 1h-2c-.55228475 0-1-.4477153-1-1z" fill="#a56a43"/><path id="Shape" d="m49 44h4v13c0 .5522847-.4477153 1-1 1h-2c-.5522847 0-1-.4477153-1-1z" fill="#a56a43"/><path id="Shape" d="m33 5h23c1.1011688-.00816722 1.9918328-.89883122 2-2-.0032948-1.10320187-.8967981-1.9967052-2-2h-54c-.53059053-.00282307-1.0395388.2101411-1.41.59-.3798589.3704612-.59282307.87940947-.59 1.41.0032948 1.10320187.89679813 1.9967052 2 2z" fill="#95a5a5"/><rect id="Rectangle-path" fill="#bdc3c7" height="6" rx="1" width="8" x="5"/><rect id="Rectangle-path" fill="#bdc3c7" height="6" rx="1" width="8" x="25"/><rect id="Rectangle-path" fill="#bdc3c7" height="6" rx="1" width="8" x="45"/><g fill="#2fa8cc"><path id="Shape" d="m29 12c-.5522847 0-1-.4477153-1-1v-1c0-.55228475.4477153-1 1-1s1 .44771525 1 1v1c0 .5522847-.4477153 1-1 1z"/><path id="Shape" d="m29 17c-.5522847 0-1-.4477153-1-1v-1c0-.5522847.4477153-1 1-1s1 .4477153 1 1v1c0 .5522847-.4477153 1-1 1z"/><path id="Shape" d="m29 22c-.5522847 0-1-.4477153-1-1v-1c0-.5522847.4477153-1 1-1s1 .4477153 1 1v1c0 .5522847-.4477153 1-1 1z"/><path id="Shape" d="m29 27c-.5522847 0-1-.4477153-1-1v-1c0-.5522847.4477153-1 1-1s1 .4477153 1 1v1c0 .5522847-.4477153 1-1 1z"/><path id="Shape" d="m22 27c-.0620995-.0000887-.1240482-.0061162-.185-.018-.2609012-.0485511-.4918042-.1988173-.641855-.4177039-.1500509-.2188867-.2069425-.4884409-.158145-.7492961l.188-1c.1121832-.5321517.6290813-.8770891 1.1635371-.7764536.5344557.1006354.8905034.6099443.8014629 1.1464536l-.187 1c-.0888526.4719977-.5007127.8141649-.981.815z"/><path id="Shape" d="m22.938 22c-.0620995-.0000887-.1240482-.0061162-.185-.018-.2609012-.0485511-.4918042-.1988173-.641855-.4177039-.1500509-.2188867-.2069425-.4884409-.158145-.7492961l.187-1c.0660941-.3511921.3145264-.6404461.6517147-.758803.3371883-.1183568.7119058-.0478352.983.185.2710942.2328353.3973794.5926109.3312853.943803l-.188 1c-.088782.4716285-.5000896.8136854-.98.815z"/><path id="Shape" d="m23.876 17c-.0620995-.0000887-.1240482-.0061162-.185-.018-.2609012-.0485511-.4918042-.1988173-.641855-.4177039-.1500509-.2188867-.2069425-.4884409-.158145-.7492961l.188-1c.1121832-.5321517.6290813-.8770891 1.1635371-.7764536.5344557.1006354.8905034.6099443.8014629 1.1464536l-.187 1c-.0888526.4719977-.5007127.8141649-.981.815z"/><path id="Shape" d="m24.813 12c-.0620995-.0000887-.1240482-.0061162-.185-.018-.2609012-.0485511-.4918042-.1988173-.641855-.4177039-.1500509-.2188867-.2069425-.4884409-.158145-.7492961l.187-1c.1021727-.5428959.6251041-.90017266 1.168-.79799999.5428959.10217268.9001727.62510409.798 1.16799999l-.188 1c-.088782.4716285-.5000896.8136854-.98.815z"/><path id="Shape" d="m36 27c-.4806641-.000355-.8930772-.3426327-.982-.815l-.187-1c-.0890405-.5365093.2670072-1.0458182.8014629-1.1464536.5344558-.1006355 1.0513539.2443019 1.1635371.7764536l.188 1c.0487975.2608552-.0080941.5304094-.158145.7492961-.1500508.2188866-.3809538.3691528-.641855.4177039-.0606239.0118205-.1222347.0178477-.184.018z"/><path id="Shape" d="m35.062 22c-.4806641-.000355-.8930772-.3426327-.982-.815l-.188-1c-.1021727-.5428959.2551041-1.0658273.798-1.168s1.0658273.2551041 1.168.798l.187 1c.0487975.2608552-.0080941.5304094-.158145.7492961-.1500508.2188866-.3809538.3691528-.641855.4177039-.0602959.0117576-.1215689.0177845-.183.018z"/><path id="Shape" d="m34.124 17c-.4806641-.000355-.8930772-.3426327-.982-.815l-.187-1c-.0890405-.5365093.2670072-1.0458182.8014629-1.1464536.5344558-.1006355 1.0513539.2443019 1.1635371.7764536l.188 1c.0487975.2608552-.0080941.5304094-.158145.7492961-.1500508.2188866-.3809538.3691528-.641855.4177039-.0606239.0118205-.1222347.0178477-.184.018z"/><path id="Shape" d="m33.187 12c-.4806641-.000355-.8930772-.3426327-.982-.815l-.188-1c-.1021727-.5428959.2551041-1.06582731.798-1.16799999.5428959-.10217267 1.0658273.25510409 1.168.79799999l.187 1c.0487975.2608552-.0080941.5304094-.158145.7492961-.1500508.2188866-.3809538.3691528-.641855.4177039-.0602959.0117576-.1215689.0177845-.183.018z"/><path id="Shape" d="m9 12c-.55228475 0-1-.4477153-1-1v-1c0-.55228475.44771525-1 1-1s1 .44771525 1 1v1c0 .5522847-.44771525 1-1 1z"/><path id="Shape" d="m9 17c-.55228475 0-1-.4477153-1-1v-1c0-.5522847.44771525-1 1-1s1 .4477153 1 1v1c0 .5522847-.44771525 1-1 1z"/><path id="Shape" d="m9 22c-.55228475 0-1-.4477153-1-1v-1c0-.5522847.44771525-1 1-1s1 .4477153 1 1v1c0 .5522847-.44771525 1-1 1z"/><path id="Shape" d="m9 27c-.55228475 0-1-.4477153-1-1v-1c0-.5522847.44771525-1 1-1s1 .4477153 1 1v1c0 .5522847-.44771525 1-1 1z"/><path id="Shape" d="m2 27c-.06209948-.0000887-.12404815-.0061162-.185-.018-.26090115-.0485511-.49180422-.1988173-.64185505-.4177039-.15005083-.2188867-.20694242-.4884409-.15814495-.7492961l.188-1c.11218315-.5321517.6290813-.8770891 1.16353707-.7764536.53445576.1006354.89050347.6099443.80146293 1.1464536l-.187 1c-.08885256.4719977-.50071271.8141649-.981.815z"/><path id="Shape" d="m2.938 22c-.06209948-.0000887-.12404815-.0061162-.185-.018-.26090115-.0485511-.49180422-.1988173-.64185505-.4177039-.15005083-.2188867-.20694242-.4884409-.15814495-.7492961l.187-1c.10217268-.5428959.62510409-.9001727 1.168-.798s.90017268.6251041.798 1.168l-.188 1c-.08878195.4716285-.50008963.8136854-.98.815z"/><path id="Shape" d="m3.876 17c-.06209948-.0000887-.12404815-.0061162-.185-.018-.26090115-.0485511-.49180422-.1988173-.64185505-.4177039-.15005083-.2188867-.20694242-.4884409-.15814495-.7492961l.188-1c.11218315-.5321517.6290813-.8770891 1.16353707-.7764536.53445576.1006354.89050347.6099443.80146293 1.1464536l-.187 1c-.08885256.4719977-.50071271.8141649-.981.815z"/><path id="Shape" d="m4.813 12c-.06209948-.0000887-.12404815-.0061162-.185-.018-.26090115-.0485511-.49180422-.1988173-.64185505-.4177039-.15005083-.2188867-.20694242-.4884409-.15814495-.7492961l.187-1c.10217269-.5428959.62510409-.90017266 1.168-.79799999.5428959.10217268.90017267.62510409.798 1.16799999l-.188 1c-.08878195.4716285-.50008963.8136854-.98.815z"/><path id="Shape" d="m16 27c-.4806641-.000355-.8930772-.3426327-.982-.815l-.187-1c-.0890405-.5365093.2670072-1.0458182.8014629-1.1464536.5344558-.1006355 1.0513539.2443019 1.1635371.7764536l.188 1c.0487975.2608552-.0080941.5304094-.158145.7492961-.1500508.2188866-.3809538.3691528-.641855.4177039-.0606239.0118205-.1222347.0178477-.184.018z"/><path id="Shape" d="m15.062 22c-.4806641-.000355-.8930772-.3426327-.982-.815l-.188-1c-.1021727-.5428959.2551041-1.0658273.798-1.168s1.0658273.2551041 1.168.798l.187 1c.0487975.2608552-.0080941.5304094-.158145.7492961-.1500508.2188866-.3809538.3691528-.641855.4177039-.0602959.0117576-.1215689.0177845-.183.018z"/><path id="Shape" d="m14.124 17c-.4806641-.000355-.8930772-.3426327-.982-.815l-.187-1c-.0890405-.5365093.2670072-1.0458182.8014629-1.1464536.5344558-.1006355 1.0513539.2443019 1.1635371.7764536l.188 1c.0487975.2608552-.0080941.5304094-.158145.7492961-.1500508.2188866-.3809538.3691528-.641855.4177039-.0606239.0118205-.1222347.0178477-.184.018z"/><path id="Shape" d="m13.187 12c-.4806641-.000355-.8930772-.3426327-.982-.815l-.188-1c-.1021727-.5428959.2551041-1.06582731.798-1.16799999.5428959-.10217267 1.0658273.25510409 1.168.79799999l.187 1c.0487975.2608552-.0080941.5304094-.158145.7492961-.1500508.2188866-.3809538.3691528-.641855.4177039-.0602959.0117576-.1215689.0177845-.183.018z"/><path id="Shape" d="m49 12c-.5522847 0-1-.4477153-1-1v-1c0-.55228475.4477153-1 1-1s1 .44771525 1 1v1c0 .5522847-.4477153 1-1 1z"/><path id="Shape" d="m49 17c-.5522847 0-1-.4477153-1-1v-1c0-.5522847.4477153-1 1-1s1 .4477153 1 1v1c0 .5522847-.4477153 1-1 1z"/><path id="Shape" d="m49 22c-.5522847 0-1-.4477153-1-1v-1c0-.5522847.4477153-1 1-1s1 .4477153 1 1v1c0 .5522847-.4477153 1-1 1z"/><path id="Shape" d="m49 27c-.5522847 0-1-.4477153-1-1v-1c0-.5522847.4477153-1 1-1s1 .4477153 1 1v1c0 .5522847-.4477153 1-1 1z"/><path id="Shape" d="m42 27c-.0620995-.0000887-.1240482-.0061162-.185-.018-.2609012-.0485511-.4918042-.1988173-.641855-.4177039-.1500509-.2188867-.2069425-.4884409-.158145-.7492961l.188-1c.1121832-.5321517.6290813-.8770891 1.1635371-.7764536.5344557.1006354.8905034.6099443.8014629 1.1464536l-.187 1c-.0888526.4719977-.5007127.8141649-.981.815z"/><path id="Shape" d="m42.938 22c-.0620995-.0000887-.1240482-.0061162-.185-.018-.2609012-.0485511-.4918042-.1988173-.641855-.4177039-.1500509-.2188867-.2069425-.4884409-.158145-.7492961l.187-1c.0660941-.3511921.3145264-.6404461.6517147-.758803.3371883-.1183568.7119058-.0478352.983.185.2710942.2328353.3973794.5926109.3312853.943803l-.188 1c-.088782.4716285-.5000896.8136854-.98.815z"/><path id="Shape" d="m43.876 17c-.0620995-.0000887-.1240482-.0061162-.185-.018-.2609012-.0485511-.4918042-.1988173-.641855-.4177039-.1500509-.2188867-.2069425-.4884409-.158145-.7492961l.188-1c.1121832-.5321517.6290813-.8770891 1.1635371-.7764536.5344557.1006354.8905034.6099443.8014629 1.1464536l-.187 1c-.0888526.4719977-.5007127.8141649-.981.815z"/><path id="Shape" d="m44.813 12c-.0620995-.0000887-.1240482-.0061162-.185-.018-.2609012-.0485511-.4918042-.1988173-.641855-.4177039-.1500509-.2188867-.2069425-.4884409-.158145-.7492961l.187-1c.1021727-.5428959.6251041-.90017266 1.168-.79799999.5428959.10217268.9001727.62510409.798 1.16799999l-.188 1c-.088782.4716285-.5000896.8136854-.98.815z"/><path id="Shape" d="m56 27c-.4806641-.000355-.8930772-.3426327-.982-.815l-.187-1c-.0890405-.5365093.2670072-1.0458182.8014629-1.1464536.5344558-.1006355 1.0513539.2443019 1.1635371.7764536l.188 1c.0487975.2608552-.0080941.5304094-.158145.7492961-.1500508.2188866-.3809538.3691528-.641855.4177039-.0606239.0118205-.1222347.0178477-.184.018z"/><path id="Shape" d="m55.062 22c-.4806641-.000355-.8930772-.3426327-.982-.815l-.188-1c-.1021727-.5428959.2551041-1.0658273.798-1.168s1.0658273.2551041 1.168.798l.187 1c.0487975.2608552-.0080941.5304094-.158145.7492961-.1500508.2188866-.3809538.3691528-.641855.4177039-.0602959.0117576-.1215689.0177845-.183.018z"/><path id="Shape" d="m54.124 17c-.4806641-.000355-.8930772-.3426327-.982-.815l-.187-1c-.0890405-.5365093.2670072-1.0458182.8014629-1.1464536.5344558-.1006355 1.0513539.2443019 1.1635371.7764536l.188 1c.0487975.2608552-.0080941.5304094-.158145.7492961-.1500508.2188866-.3809538.3691528-.641855.4177039-.0606239.0118205-.1222347.0178477-.184.018z"/><path id="Shape" d="m53.187 12c-.4806641-.000355-.8930772-.3426327-.982-.815l-.188-1c-.1021727-.5428959.2551041-1.06582731.798-1.16799999.5428959-.10217267 1.0658273.25510409 1.168.79799999l.187 1c.0487975.2608552-.0080941.5304094-.158145.7492961-.1500508.2188866-.3809538.3691528-.641855.4177039-.0602959.0117576-.1215689.0177845-.183.018z"/></g><rect id="Rectangle-path" fill="#cb8252" height="4" rx="1" width="58" y="41"/></g></g></svg>