<svg height="512" viewBox="0 0 58 58" width="512" xmlns="http://www.w3.org/2000/svg"><g id="Page-1" fill="none" fill-rule="evenodd"><g id="085---Electric-Fence" fill-rule="nonzero"><path id="Shape" d="m54 22h-50c-.55228475 0-1-.4477153-1-1s.44771525-1 1-1h50c.5522847 0 1 .4477153 1 1s-.4477153 1-1 1z" fill="#95a5a5"/><path id="Shape" d="m54 38h-50c-.55228475 0-1-.4477153-1-1s.44771525-1 1-1h50c.5522847 0 1 .4477153 1 1s-.4477153 1-1 1z" fill="#95a5a5"/><path id="Shape" d="m54 54h-50c-.55228475 0-1-.4477153-1-1s.44771525-1 1-1h50c.5522847 0 1 .4477153 1 1s-.4477153 1-1 1z" fill="#95a5a5"/><g fill="#547580"><rect id="Rectangle-path" height="42" rx="1" width="4" y="16"/><path id="Shape" d="m22 30.39v26.61c0 .5522847-.4477153 1-1 1h-2c-.5522847 0-1-.4477153-1-1v-29.38z"/><path id="Shape" d="m40 27.62v29.38c0 .5522847-.4477153 1-1 1h-2c-.5522847 0-1-.4477153-1-1v-26.61z"/><rect id="Rectangle-path" height="42" rx="1" width="4" x="54" y="16"/></g><circle id="Oval" cx="29" cy="16" fill="#955ba5" r="16"/><path id="Shape" d="m34 6h-6.674c-.4298711.00075645-.8111612.27615501-.947.684l-3.327 10c-.1015206.3048053-.0504155.6398255.1373651.9004999s.4893677.4152562.8106349.4155001h2.685c.3113351.000559.6046481.1460919.7934195.3936707.1887714.2475787.2514623.5689541.1695805.8693293l-1.968 7.23c-.0542995.1990585.043667.4081354.2313766.4937965.1877095.0856611.4098388.0226596.5246234-.1487965l8.332-11.283c.2047322-.3068587.2239019-.7015085.049874-1.026765-.174028-.3252566-.5129871-.5282902-.881874-.528235h-2.536c-.1183417-.001101-.2269733-.0656774-.2844827-.1691116-.0575095-.1034342-.055034-.2297862.0064827-.3308884l3.725-5.97c.1925741-.30811726.2028676-.69644536.0268872-1.01433201s-.5105404-.51530561-.8738872-.51566799z" fill="#f0c419"/></g></g></svg>