<svg height="512" viewBox="0 0 60 60" width="512" xmlns="http://www.w3.org/2000/svg"><g id="Page-1" fill="none" fill-rule="evenodd"><g id="086---Solar-Pannel-Farm" fill-rule="nonzero"><path id="Rectangle-path" d="m28 18h4v5h-4z" fill="#3b97d3"/><path id="Rectangle-path" d="m28 54h4v5h-4z" fill="#3b97d3"/><path id="Rectangle-path" d="m7 54h4v5h-4z" fill="#3b97d3"/><path id="Rectangle-path" d="m49 54h4v5h-4z" fill="#3b97d3"/><path id="Shape" d="m59 60h-58c-.55228475 0-1-.4477153-1-1s.44771525-1 1-1h58c.5522847 0 1 .4477153 1 1s-.4477153 1-1 1z" fill="#cb8252"/><path id="Rectangle-path" d="m38 36h4v5h-4z" fill="#3b97d3"/><path id="Rectangle-path" d="m18 36h4v5h-4z" fill="#3b97d3"/><path id="Shape" d="m54 42h-48c-.55228475 0-1-.4477153-1-1s.44771525-1 1-1h48c.5522847 0 1 .4477153 1 1s-.4477153 1-1 1z" fill="#cb8252"/><path id="Shape" d="m37 55h-14c-.3226006.0008335-.6257891-.154014-.8142345-.4158539-.1884454-.26184-.2389991-.598508-.1357655-.9041461 1.541-4.588.584-1.729 2.7-8 .1375721-.4073117.5200841-.6811098.95-.68h8.6c.4299159-.0011098.8124279.2726883.95.68 2.354 6.977.957 2.81 2.7 8 .1032336.3056381.0526799.6423061-.1357655.9041461-.1884454.2618399-.4916339.4166874-.8142345.4158539z" fill="#9fc9d3"/><path id="Shape" d="m16 55h-14c-.32260055.0008335-.62578914-.154014-.81423454-.4158539-.18844539-.26184-.23899906-.598508-.13576546-.9041461 1.541-4.588.584-1.729 2.7-8 .13757212-.4073117.52008409-.6811098.95-.68h8.6c.4299159-.0011098.8124279.2726883.95.68 2.354 6.977.957 2.81 2.7 8 .1032336.3056381.0526799.6423061-.1357655.9041461-.1884454.2618399-.4916339.4166874-.8142345.4158539z" fill="#9fc9d3"/><path id="Shape" d="m58 55h-14c-.3226006.0008335-.6257891-.154014-.8142345-.4158539-.1884454-.26184-.2389991-.598508-.1357655-.9041461 1.541-4.588.584-1.729 2.7-8 .1375721-.4073117.5200841-.6811098.95-.68h8.6c.4299159-.0011098.8124279.2726883.95.68 2.354 6.977.957 2.81 2.7 8 .1032336.3056381.0526799.6423061-.1357655.9041461-.1884454.2618399-.4916339.4166874-.8142345.4158539z" fill="#9fc9d3"/><path id="Shape" d="m47 37h-14c-.3226006.0008335-.6257891-.154014-.8142345-.4158539-.1884454-.26184-.2389991-.598508-.1357655-.9041461 1.541-4.588.584-1.729 2.7-8 .1375721-.4073117.5200841-.6811098.95-.68h8.6c.4299159-.0011098.8124279.2726883.95.68 2.354 6.977.957 2.81 2.7 8 .1032336.3056381.0526799.6423061-.1357655.9041461-.1884454.2618399-.4916339.4166874-.8142345.4158539z" fill="#9fc9d3"/><path id="Shape" d="m27 37h-14c-.3226006.0008335-.6257891-.154014-.8142345-.4158539-.1884454-.26184-.2389991-.598508-.1357655-.9041461 1.541-4.588.584-1.729 2.7-8 .1375721-.4073117.5200841-.6811098.95-.68h8.6c.4299159-.0011098.8124279.2726883.95.68 2.354 6.977.957 2.81 2.7 8 .1032336.3056381.0526799.6423061-.1357655.9041461-.1884454.2618399-.4916339.4166874-.8142345.4158539z" fill="#9fc9d3"/><path id="Shape" d="m37 19h-14c-.3226006.0008335-.6257891-.154014-.8142345-.4158539-.1884454-.26184-.2389991-.598508-.1357655-.9041461 1.541-4.588.584-1.729 2.7-8 .1375721-.40731172.5200841-.68110976.95-.68h8.6c.4299159-.00110976.8124279.27268828.95.68 2.354 6.977.957 2.81 2.7 8 .1032336.3056381.0526799.6423061-.1357655.9041461-.1884454.2618399-.4916339.4166874-.8142345.4158539z" fill="#9fc9d3"/><path id="Shape" d="m33.6 51 .4 4h-2.01l-.4-4h-3.18l-.4 4h-2.01l.4-4h-3.45l.68-2h2.96l.4-4h2.01l-.4 4h2.79l-.39-4h2.01l.39 4h2.97l.68 2z" fill="#84b5cb"/><path id="Shape" d="m12.6 51 .4 4h-2.01l-.4-4h-3.18l-.4 4h-2.01l.4-4h-3.45l.68-2h2.96l.4-4h2.01l-.4 4h2.79l-.39-4h2.01l.39 4h2.97l.68 2z" fill="#84b5cb"/><path id="Shape" d="m54.6 51 .4 4h-2.01l-.4-4h-3.18l-.4 4h-2.01l.4-4h-3.45l.68-2h2.96l.4-4h2.01l-.4 4h2.79l-.39-4h2.01l.39 4h2.97l.68 2z" fill="#84b5cb"/><path id="Shape" d="m43.6 33 .4 4h-2.01l-.4-4h-3.18l-.4 4h-2.01l.4-4h-3.45l.68-2h2.96l.4-4h2.01l-.4 4h2.79l-.39-4h2.01l.39 4h2.97l.68 2z" fill="#84b5cb"/><path id="Shape" d="m23.6 33 .4 4h-2.01l-.4-4h-3.18l-.4 4h-2.01l.4-4h-3.45l.68-2h2.96l.4-4h2.01l-.4 4h2.79l-.39-4h2.01l.39 4h2.97l.68 2z" fill="#84b5cb"/><path id="Shape" d="m33.6 15 .4 4h-2.01l-.4-4h-3.18l-.4 4h-2.01l.4-4h-3.45l.68-2h2.96l.4-4h2.01l-.4 4h2.79l-.39-4h2.01l.39 4h2.97l.68 2z" fill="#84b5cb"/><path id="Shape" d="m43 24h-26c-.5522847 0-1-.4477153-1-1s.4477153-1 1-1h26c.5522847 0 1 .4477153 1 1s-.4477153 1-1 1z" fill="#cb8252"/><circle id="Oval" cx="10" cy="10" fill="#f0c419" r="4"/><g fill="#f29c1f"><path id="Shape" d="m10 3c-.55228475 0-1-.44771525-1-1v-1c0-.55228475.44771525-1 1-1 .5522847 0 1 .44771525 1 1v1c0 .55228475-.4477153 1-1 1z"/><path id="Shape" d="m6 4.072c-.35761373.00034843-.68819322-.19029718-.867-.5l-.5-.866c-.18148438-.30957042-.18318331-.69264947-.00445186-1.00381742s.51048847-.50271357.86933356-.50192468c.35884509.00078888.68975672.19379132.8671183.5057421l.5.866c.17854148.30924248.17863929.6902222.00025662.99955632-.17838268.30933411-.50817422.50007763-.86525662.50044368z"/><path id="Shape" d="m3.071 7c-.17558875.00037182-.34812995-.04586922-.5-.134l-.866-.5c-.47421361-.27800577-.63512861-.88664704-.36027453-1.3626943.27485408-.47604727.88241457-.64099599 1.36027453-.3693057l.866.5c.39194126.22631394.58302085.68765624.46588095 1.12482233-.1171399.4371661-.51329289.74115776-.96588095.74117767z"/><path id="Shape" d="m2 11h-1c-.55228475 0-1-.4477153-1-1 0-.55228475.44771525-1 1-1h1c.55228475 0 1 .44771525 1 1 0 .5522847-.44771525 1-1 1z"/><path id="Shape" d="m2.207 15.5c-.45258806-.0000199-.84874105-.3040116-.96588095-.7411777s.07393969-.8985084.46588095-1.1248223l.866-.5c.47785996-.2716903 1.08542045-.1067416 1.36027453.3693057s.11393908 1.0846885-.36027453 1.3626943l-.866.5c-.15187005.0881308-.32441125.1343718-.5.134z"/><path id="Shape" d="m5.5 18.794c-.3570824-.000366-.68687394-.1911096-.86525662-.5004437-.17838267-.3093341-.17828486-.6903138.00025662-.9995563l.5-.866c.27800577-.4742136.88664704-.6351286 1.3626943-.3602745.47604727.274854.64099599.8824145.3693057 1.3602745l-.5.866c-.17880678.3097028-.50938627.5003484-.867.5z"/><path id="Shape" d="m10 20c-.55228475 0-1-.4477153-1-1v-1c0-.5522847.44771525-1 1-1 .5522847 0 1 .4477153 1 1v1c0 .5522847-.4477153 1-1 1z"/><path id="Shape" d="m14.5 18.794c-.3576137.0003484-.6881932-.1902972-.867-.5l-.5-.866c-.2716903-.47786-.1067416-1.0854205.3693057-1.3602745.4760473-.2748541 1.0846885-.1139391 1.3626943.3602745l.5.866c.1785415.3092425.1786393.6902222.0002566.9995563s-.5081742.5000777-.8652566.5004437z"/><path id="Shape" d="m17.793 15.5c-.1755887.0003718-.3481299-.0458692-.5-.134l-.866-.5c-.4742136-.2780058-.6351286-.886647-.3602745-1.3626943.274854-.4760473.8824145-.640996 1.3602745-.3693057l.866.5c.3919413.2263139.5830208.6876562.4658809 1.1248223-.1171398.4371661-.5132928.7411578-.9658809.7411777z"/><path id="Shape" d="m19 11h-1c-.5522847 0-1-.4477153-1-1 0-.55228475.4477153-1 1-1h1c.5522847 0 1 .44771525 1 1 0 .5522847-.4477153 1-1 1z"/><path id="Shape" d="m16.929 7c-.4525881-.00001991-.8487411-.30401157-.9658809-.74117767-.1171399-.43716609.0739396-.89850839.4658809-1.12482233l.866-.5c.3095704-.18148438.6926495-.18318331 1.0038174-.00445186.311168.17873145.5027136.51048847.5019247.86933356s-.1937913.68975672-.5057421.8671183l-.866.5c-.1518701.08813078-.3244113.13437182-.5.134z"/><path id="Shape" d="m14 4.072c-.3570824-.00036605-.6868739-.19110957-.8652566-.50044368-.1783827-.30933412-.1782849-.69031384.0002566-.99955632l.5-.866c.1773616-.31195078.5082732-.50495322.8671183-.5057421.3588451-.00078889.6906021.19075673.8693336.50192468.1787314.31116795.1770325.694247-.0044519 1.00381742l-.5.866c-.1788068.30970282-.5093863.50034843-.867.5z"/></g></g></g></svg>