<svg height="512" viewBox="0 0 50 58" width="512" xmlns="http://www.w3.org/2000/svg"><g id="Page-1" fill="none" fill-rule="evenodd"><g id="087---Farmers-Outfit" fill-rule="nonzero" transform="translate(0 -1)"><path id="Shape" d="m49.11 18.07-4.62 2.97c-.8481055.5517512-1.9751666.3796808-2.62-.4l-3.87-4.64v39c.5522847 0 1 .4477153 1 1v2c0 .5522847-.4477153 1-1 1h-10c-.5522847 0-1-.4477153-1-1v-2c0-.5522847.4477153-1 1-1v-16c0-.5522847-.4477153-1-1-1h-4c-.5522847 0-1 .4477153-1 1v16c.5522847 0 1 .4477153 1 1v2c0 .5522847-.4477153 1-1 1h-10c-.5522847 0-1-.4477153-1-1v-2c0-.5522847.4477153-1 1-1v-39l-3.87 4.64c-.64483343.7796808-1.77189451.9517512-2.62.4l-4.62-2.97c-.43748141-.2794528-.74363074-.7236731-.84905602-1.2319736-.10542529-.5083005-.00119859-1.0376357.28905602-1.4680264l6.81-10.09c.55211078-.81990435 1.38996574-1.40462015 2.35-1.64l9.83-2.6c.428055-.1059074.880964-.00196106 1.22.28l2.82 2.96c.4279262.44797687 1.0204808.70140369 1.64.70140369s1.2120738-.25342682 1.64-.70140369c1.27-1.33 2.82-2.96 2.82-2.96.34234-.28322548.7987976-.38713453 1.23-.28l9.82 2.6c.9600343.23537985 1.7978892.82009565 2.35 1.64l6.81 10.09c.2902546.4303907.3944813.9597259.289056 1.4680264s-.4115746.9525208-.849056 1.2319736z" fill="#2980ba"/><path id="Shape" d="m38 2.98v12.02c0 2.209139-1.790861 4-4 4s-4-1.790861-4-4v-13.95c.2252097-.06332924.4630496-.06677619.69-.01z" fill="#3b97d3"/><path id="Shape" d="m20 1.05v13.95c0 2.209139-1.790861 4-4 4s-4-1.790861-4-4v-12.02l7.32-1.94c.223578-.05672914.4581869-.05327901.68.01z" fill="#3b97d3"/><circle id="Oval" cx="16" cy="14.999" fill="#3f5c6c" r="1"/><circle id="Oval" cx="34" cy="14.999" fill="#3f5c6c" r="1"/><g fill="#285680"><path id="Shape" d="m17 54c0 .5522847-.4477153 1-1 1h-4v-2h4c.5522847 0 1 .4477153 1 1z"/><path id="Shape" d="m22 53v2h-2c-.5522847 0-1-.4477153-1-1s.4477153-1 1-1z"/><path id="Shape" d="m33 54c0 .5522847-.4477153 1-1 1h-4v-2h4c.5522847 0 1 .4477153 1 1z"/><path id="Shape" d="m38 53v2h-2c-.5522847 0-1-.4477153-1-1s.4477153-1 1-1z"/></g><path id="Shape" d="m21 22h8c.5522847 0 1 .4477153 1 1v4c0 2.7614237-2.2385763 5-5 5s-5-2.2385763-5-5v-4c0-.5522847.4477153-1 1-1z" fill="#3b97d3"/><path id="Shape" d="m26 27h-1c-.5522847 0-1-.4477153-1-1s.4477153-1 1-1h1c.5522847 0 1 .4477153 1 1s-.4477153 1-1 1z" fill="#2980ba"/><path id="Shape" d="m17.97 35.24-.43 1.73c-.4450601 1.7805185-2.0447005 3.0297221-3.88 3.03h-1.66v-2h1.66c.9171798.0033108 1.7180765-.6200676 1.94-1.51l.43-1.73c.1491291-.5161023.6793873-.8221608 1.2008781-.6931322.5214908.1290287.8478565.6470354.7391219 1.1731322z" fill="#285680"/><path id="Shape" d="m38 38v2h-1.66c-1.8352995-.0002779-3.4349399-1.2494815-3.88-3.03l-.43-1.73c-.1017414-.352104-.0027126-.7316542.2580846-.989168s.6415716-.3517261.9923583-.245532c.3507868.106194.6153744.3957774.6895571.7547l.43 1.73c.2219235.8899324 1.0228202 1.5133108 1.94 1.51z" fill="#285680"/><path id="Shape" d="m30 1.05v9.95s-1 1-5 1-5-1-5-1v-9.95c.1993161.04464147.3846971.13733198.54.27l2.82 2.96c.4279262.44797687 1.0204808.70140369 1.64.70140369s1.2120738-.25342682 1.64-.70140369c1.27-1.33 2.82-2.96 2.82-2.96.1553029-.13266802.3406839-.22535853.54-.27z" fill="#f0c419"/><path id="Shape" d="m49.11 18.07-4.62 2.97c-.8481055.5517512-1.9751666.3796808-2.62-.4l-3.87-4.64v-13.02l2.51.66c.9600343.23537985 1.7978892.82009565 2.35 1.64l6.81 10.09c.2902546.4303907.3944813.9597259.289056 1.4680264s-.4115746.9525208-.849056 1.2319736z" fill="#f0c419"/><path id="Shape" d="m12 2.98v13.02l-3.87 4.64c-.64483343.7796808-1.77189451.9517512-2.62.4l-4.62-2.97c-.43748141-.2794528-.74363074-.7236731-.84905602-1.2319736-.10542529-.5083005-.00119859-1.0376357.28905602-1.4680264l6.81-10.09c.55211078-.81990435 1.38996574-1.40462015 2.35-1.64z" fill="#f0c419"/></g></g></svg>