<svg height="512" viewBox="0 0 58 59" width="512" xmlns="http://www.w3.org/2000/svg"><g id="Page-1" fill="none" fill-rule="evenodd"><g id="088---Crop-Date" fill-rule="nonzero"><path id="Shape" d="m58 51v4c0 2.209139-1.790861 4-4 4h-50c-2.209139 0-4-1.790861-4-4v-4z" fill="#d1d4d1"/><rect id="Rectangle-path" fill="#ecf0f1" height="51" rx="4" width="58" y="4"/><path id="Shape" d="m53 51h-48c-.55228475 0-1-.4477153-1-1s.44771525-1 1-1h48c.5522847 0 1 .4477153 1 1s-.4477153 1-1 1z" fill="#cb8252"/><path id="Shape" d="m17 51c-.5522847 0-1-.4477153-1-1v-34c0-.5522847.4477153-1 1-1s1 .4477153 1 1v34c0 .5522847-.4477153 1-1 1z" fill="#24ae5f"/><path id="Shape" d="m22 39h2c.5522847 0 1 .4477153 1 1 0 2.7614237-2.2385763 5-5 5h-3v-1c0-2.7614237 2.2385763-5 5-5z" fill="#4fba6f"/><path id="Shape" d="m9 39h3c2.7614237 0 5 2.2385763 5 5 0 .5522847-.4477153 1-1 1h-2c-2.7614237 0-5-2.2385763-5-5z" fill="#4fba6f" transform="matrix(-1 0 0 -1 26 84)"/><path id="Shape" d="m22 29h1c.5522847 0 1 .4477153 1 1 0 2.7614237-2.2385763 5-5 5h-2v-1c0-2.7614237 2.2385763-5 5-5z" fill="#4fba6f"/><path id="Shape" d="m10 29h2c2.7614237 0 5 2.2385763 5 5 0 .5522847-.4477153 1-1 1h-1c-2.7614237 0-5-2.2385763-5-5z" fill="#4fba6f" transform="matrix(-1 0 0 -1 27 64)"/><path id="Shape" d="m21.167 20h2c.4600532 0 .833.3729468.833.833 0 1.1051571-.439022 2.1650499-1.220486 2.946514-.7814641.781464-1.8413569 1.220486-2.946514 1.220486h-2.833v-.833c0-1.1051571.439022-2.1650499 1.220486-2.946514.7814641-.781464 1.8413569-1.220486 2.946514-1.220486z" fill="#4fba6f"/><path id="Shape" d="m10 20h2.833c1.1051571 0 2.1650499.439022 2.946514 1.220486.781464.7814641 1.220486 1.8413569 1.220486 2.946514 0 .4600532-.3729468.833-.833.833h-2c-1.1051571 0-2.1650499-.439022-2.946514-1.220486-.781464-.7814641-1.220486-1.8413569-1.220486-2.946514z" fill="#4fba6f" transform="matrix(-1 0 0 -1 27 45)"/><path id="Shape" d="m41 51c-.5522847 0-1-.4477153-1-1v-34c0-.5522847.4477153-1 1-1s1 .4477153 1 1v34c0 .5522847-.4477153 1-1 1z" fill="#24ae5f"/><path id="Shape" d="m46 39h2c.5522847 0 1 .4477153 1 1 0 2.7614237-2.2385763 5-5 5h-3v-1c0-2.7614237 2.2385763-5 5-5z" fill="#4fba6f"/><path id="Shape" d="m33 39h3c2.7614237 0 5 2.2385763 5 5 0 .5522847-.4477153 1-1 1h-2c-2.7614237 0-5-2.2385763-5-5z" fill="#4fba6f" transform="matrix(-1 0 0 -1 74 84)"/><path id="Shape" d="m46 29h1c.5522847 0 1 .4477153 1 1 0 2.7614237-2.2385763 5-5 5h-2v-1c0-2.7614237 2.2385763-5 5-5z" fill="#4fba6f"/><path id="Shape" d="m34 29h2c2.7614237 0 5 2.2385763 5 5 0 .5522847-.4477153 1-1 1h-1c-2.7614237 0-5-2.2385763-5-5z" fill="#4fba6f" transform="matrix(-1 0 0 -1 75 64)"/><path id="Shape" d="m45.167 20h2c.4600532 0 .833.3729468.833.833 0 2.3013706-1.8656294 4.167-4.167 4.167h-2.833v-.833c0-1.1051571.439022-2.1650499 1.220486-2.946514.7814641-.781464 1.8413569-1.220486 2.946514-1.220486z" fill="#4fba6f"/><path id="Shape" d="m34 20h2.833c1.1051571 0 2.1650499.439022 2.946514 1.220486.781464.7814641 1.220486 1.8413569 1.220486 2.946514 0 .4600532-.3729468.833-.833.833h-2c-1.1051571 0-2.1650499-.439022-2.946514-1.220486-.781464-.7814641-1.220486-1.8413569-1.220486-2.946514z" fill="#4fba6f" transform="matrix(-1 0 0 -1 75 45)"/><path id="Shape" d="m58 8v3h-58v-3c0-2.209139 1.790861-4 4-4h50c2.209139 0 4 1.790861 4 4z" fill="#e64c3c"/><g fill="#95a5a5"><path id="Shape" d="m5 8c-.55228475 0-1-.44771525-1-1v-6c0-.55228475.44771525-1 1-1s1 .44771525 1 1v6c0 .55228475-.44771525 1-1 1z"/><path id="Shape" d="m11 8c-.5522847 0-1-.44771525-1-1v-6c0-.55228475.4477153-1 1-1s1 .44771525 1 1v6c0 .55228475-.4477153 1-1 1z"/><path id="Shape" d="m17 8c-.5522847 0-1-.44771525-1-1v-6c0-.55228475.4477153-1 1-1s1 .44771525 1 1v6c0 .55228475-.4477153 1-1 1z"/><path id="Shape" d="m23 8c-.5522847 0-1-.44771525-1-1v-6c0-.55228475.4477153-1 1-1s1 .44771525 1 1v6c0 .55228475-.4477153 1-1 1z"/><path id="Shape" d="m29 8c-.5522847 0-1-.44771525-1-1v-6c0-.55228475.4477153-1 1-1s1 .44771525 1 1v6c0 .55228475-.4477153 1-1 1z"/><path id="Shape" d="m35 8c-.5522847 0-1-.44771525-1-1v-6c0-.55228475.4477153-1 1-1s1 .44771525 1 1v6c0 .55228475-.4477153 1-1 1z"/><path id="Shape" d="m41 8c-.5522847 0-1-.44771525-1-1v-6c0-.55228475.4477153-1 1-1s1 .44771525 1 1v6c0 .55228475-.4477153 1-1 1z"/><path id="Shape" d="m47 8c-.5522847 0-1-.44771525-1-1v-6c0-.55228475.4477153-1 1-1s1 .44771525 1 1v6c0 .55228475-.4477153 1-1 1z"/><path id="Shape" d="m53 8c-.5522847 0-1-.44771525-1-1v-6c0-.55228475.4477153-1 1-1s1 .44771525 1 1v6c0 .55228475-.4477153 1-1 1z"/></g></g></g></svg>