<svg height="512" viewBox="0 0 44 58" width="512" xmlns="http://www.w3.org/2000/svg"><g id="Page-1" fill="none" fill-rule="evenodd"><g id="089---Water-Tower" fill-rule="nonzero" transform="translate(-1)"><g fill="#a56a43"><path id="Rectangle-path" d="m9.33 32.976h14.301v2.001h-14.301z" transform="matrix(.912 -.411 .411 .912 -12.506 9.773)"/><path id="Rectangle-path" d="m28.927 27.458h2.001v13.406h-2.001z" transform="matrix(.411 -.912 .912 .411 -13.511 47.417)"/><path id="Shape" d="m22 48-.174-.422-1.026.422h-8.017l8.554-3.059c.3827485-.1376975.6439517-.4935135.6606389-.8999351s-.2144671-.7824534-.5846389-.9510649l-6.805-3.09h7.392v-2h-12v1l-.415.915 8.753 3.975-11.495 4.11h-1.843v2h10.946l-13.18 5.429.761 1.849 17.673-7.278h.8v-.33l.588-.242z"/><path id="Shape" d="m43.587 55.574-13.533-5.574h9.946v-2.28h-1.626l-10.713-3.83 9.13-4.147-.779-1.717v-.026h-.012l-.035-.077-.165.077h-11.8v2h7.391l-6.8 3.09c-.3701718.1686115-.6013261.5446433-.5846389.9510649s.2778904.7622376.6606389.8999351l8.55 3.059h-8.017l-1.024-.422-.176.422-.588 1.428.588.242v.33h.8l18.023 7.424z"/></g><path id="Shape" d="m11 28-9.941 28.66c-.10965945.3031046-.06649194.6404833.11594976.9062136.18244171.2657303.48178553.4272268.80405024.4337864h1.821c.41348969-.0020655.77960844-.2676022.91-.66l9.52-26.61z" fill="#cb8252"/><path id="Shape" d="m35 28 9.94 28.66c.1096595.3031046.0664919.6404833-.1159498.9062136s-.4817855.4272268-.8040502.4337864h-1.82c-.4134897-.0020655-.7796084-.2676022-.91-.66l-9.52-26.61z" fill="#cb8252"/><path id="Shape" d="m25 31.94v25.06c0 .5522847-.4477153 1-1 1h-2c-.5522847 0-1-.4477153-1-1v-25.06z" fill="#cb8252"/><path id="Shape" d="m11 28c0 2.209 5.373 4 12 4s12-1.791 12-4v-20h-24z" fill="#2980ba"/><path id="Shape" d="m38 24h-8v-3h8c.5522847 0 1-.4477153 1-1s-.4477153-1-1-1h-30c-.55228475 0-1 .4477153-1 1s.44771525 1 1 1h8v3h-8c-.55228475 0-1 .4477153-1 1s.44771525 1 1 1h30c.5522847 0 1-.4477153 1-1s-.4477153-1-1-1zm-10 0h-4v-3h4zm-10-3h4v3h-4z" fill="#bdc3c7"/><path id="Shape" d="m15 17c-.5522847 0-1-.4477153-1-1v-7c0-.55228475.4477153-1 1-1s1 .44771525 1 1v7c0 .5522847-.4477153 1-1 1z" fill="#3b97d3"/><path id="Shape" d="m36.523 7.289-13.074-7.174c-.2803149-.15369474-.6196851-.15369474-.9 0l-13.072 7.174c-.3680446.20038432-.55191389.62599809-.44554599 1.03133323s.47553189.68582211.89454599.67966677h26.148c.4190141.00615534.7881781-.27433163.894546-.67966677s-.0775014-.83094891-.445546-1.03133323z" fill="#67b9cc"/></g></g></svg>