<svg height="512" viewBox="0 0 40 58" width="512" xmlns="http://www.w3.org/2000/svg"><g id="Page-1" fill="none" fill-rule="evenodd"><g id="090---Milk-Bottle" fill-rule="nonzero"><path id="Shape" d="m35.59 23.478c-.4268784.000875-.8072446-.2693221-.9469666-.6726876-.139722-.4033654-.0079883-.8509491.3279666-1.1143124l2.82-2.217c.1345652-.0997568.2124595-.2585269.209-.426-.0020524-.170968-.0866119-.3304016-.227-.428l-14.608-10.453c-.4492836-.32142972-.5529297-.94621636-.2315-1.3955s.9462164-.55292972 1.3955-.2315l14.612 10.46c.6495287.4644377 1.0415684 1.2083468 1.0575193 2.0066797s-.3460608 1.5573081-.9765193 2.0473203l-2.815 2.214c-.176444.1369389-.3936527.2108674-.617.21z" fill="#3f5c6c"/><path id="Shape" d="m30 19.07v33.93c0 2.21-6.72 5-15 5s-15-2.79-15-5v-33.93c.00028119-1.3235245.52531047-2.5929446 1.46-3.53l2.08-2.08c.13376114-.1304569.2574483-.2708586.37-.42.43389446-.5358655.74457211-1.1606348.91-1.83.12060824-.4159265.18121971-.8469414.18-1.28v-1.68h20v1.68c.0002812 1.3235245.5253105 2.5929446 1.46 3.53l2.08 2.08c.9346895.9370554 1.4597188 2.2064755 1.46 3.53z" fill="#2fa8cc"/><path id="Shape" d="m26 3v4c0 1.657-4.925 3-11 3s-11-1.343-11-3v-4z" fill="#67b9cc"/><ellipse id="Oval" cx="15" cy="3" fill="#2fa8cc" rx="11" ry="3"/><path id="Shape" d="m12 23.9h-.068c-2.81478469-.1448191-5.59718776-.6685379-8.272-1.557-.51997609-.1866722-.79017225-.7595239-.6035-1.2795s.75952391-.7901722 1.2795-.6035c2.50150578.820922 5.10083007 1.3064879 7.73 1.444.5522847.0182254.9852254.4807153.967 1.033s-.4807153.9852254-1.033.967z" fill="#67b9cc"/><path id="Shape" d="m22 23.423c-.5188038.0002315-.951625-.3963308-.9966698-.9131754-.0450449-.5168446.312648-.982303.8236698-1.0718246 1.3040557-.2177127 2.5873145-.5455525 3.836-.98.5199761-.1866722 1.0928277.0835239 1.2795.6035.1866722.5199761-.0835239 1.0928277-.6035 1.2795-1.3555255.4718893-2.7484727.8284892-4.164 1.066-.0577137.0107287-.1162976.0160849-.175.016z" fill="#67b9cc"/><g fill="#9fc9d3"><path id="Shape" d="m9 54.434c-.06513111-.0000005-.13010638-.0063641-.194-.019-1.32387768-.2511617-2.6234308-.6168702-3.884-1.093-1.16033837-.4437291-1.92542417-1.5587163-1.922-2.801v-6.521c0-.5522847.44771525-1 1-1s1 .4477153 1 1v6.521c-.00099059.4169801.25686212.7908068.647.938 1.15040386.4338797 2.33660451.7661498 3.545.993.5068548.0974763.8562522.5646875.80648549 1.0784254-.04976675.513738-.48234522.9051978-.99848549.9035746z"/><circle id="Oval" cx="4" cy="40" r="1"/><path id="Shape" d="m5.656 18c-.4043959-.0000863-.76893405-.2437275-.92367798-.6173454-.15474393-.373618-.06922994-.8036603.21667798-1.0896546l.712-.712c.82325414-.8280704 1.45625989-1.8255237 1.855-2.923.19621965-.5081613.7630642-.7657941 1.2749336-.5794616.51186941.1863324.78044162.7480765.6040664 1.2634616-.4979811 1.3736048-1.28973562 2.6219833-2.32 3.658l-.712.712c-.18830835.1857171-.44252075.2892718-.707.288z"/></g><path id="Shape" d="m30.55 27.69-.55.43-2.41 1.91c-.4517663.3427103-1.0029536.5287799-1.57.53-.5878035-.00012-1.1571632-.2052309-1.61-.58l-20.5-16.94c.43389446-.5358655.74457211-1.1606348.91-1.83l20.87 17.23c.194143.157886.4712316.1620216.67.01l2.95-2.33c.1936609-.1569064.4424479-.2290185.69-.2.2797276.0123062.5396698.1477691.71.37.3403569.4313699.2689082 1.0565461-.16 1.4z" fill="#3f5c6c"/><path id="Shape" d="m4 37c-.55228475 0-1-.4477153-1-1v-10c0-.5522847.44771525-1 1-1s1 .4477153 1 1v10c0 .5522847-.44771525 1-1 1z" fill="#9fc9d3"/><path id="Shape" d="m28.427 27.737c-.6815552-.8683363-.5307241-2.1246655.337-2.807l5.091-4c.5598299-.4624057 1.3263004-.5850692 2.0024779-.3204703.6761775.264599 1.155831.8748906 1.2531409 1.5944456.09731.719555-.2030115 1.4353276-.7846188 1.8700247l-5.091 4c-.8684994.6822351-2.1255948.5313657-2.808-.337z" fill="#2c3e50"/></g></g></svg>