<svg height="512" viewBox="0 0 58 58" width="512" xmlns="http://www.w3.org/2000/svg"><g id="Page-1" fill="none" fill-rule="evenodd"><g id="091---Deliver-Produce" fill-rule="nonzero"><path id="Shape" d="m55 37v-20c0-3.8659932-3.1340068-7-7-7h-10l-1 27z" fill="#f29c1f"/><path id="Shape" d="m48 27h-3c-.5522847 0-1-.4477153-1-1s.4477153-1 1-1h3c.5522847 0 1 .4477153 1 1s-.4477153 1-1 1z" fill="#e57e25"/><path id="Shape" d="m53 28h2v4h-2c-1.1045695 0-2-.8954305-2-2s.8954305-2 2-2z" fill="#f0c419"/><path id="Shape" d="m55 17v3h-9c-1.1032019-.0032948-1.9967052-.8967981-2-2v-8h4c3.8659932 0 7 3.1340068 7 7z" fill="#2fa8cc"/><path id="Shape" d="m2 0h34c1.1045695 0 2 .8954305 2 2v34h-36c-1.1045695 0-2-.8954305-2-2v-32c0-1.1045695.8954305-2 2-2z" fill="#f0c419"/><rect id="Rectangle-path" fill="#cb8252" height="5" rx="1" width="22" x="8" y="25"/><rect id="Rectangle-path" fill="#a56a43" height="5" rx="1" width="22" x="8" y="20"/><rect id="Rectangle-path" fill="#cb8252" height="5" rx="1" width="22" x="8" y="15"/><path id="Shape" d="m15 12c-.5522847 0-1-.4477153-1-1v-5c0-.55228475.4477153-1 1-1s1 .44771525 1 1v5c0 .5522847-.4477153 1-1 1z" fill="#4fba6f"/><path id="Shape" d="m22 12c-.5522847 0-1-.4477153-1-1v-5c0-.55228475.4477153-1 1-1s1 .44771525 1 1v5c0 .5522847-.4477153 1-1 1z" fill="#4fba6f"/><path id="Shape" d="m12 27c-.5522847 0-1-.4477153-1-1v-7c0-.5522847.4477153-1 1-1s1 .4477153 1 1v7c0 .5522847-.4477153 1-1 1z" fill="#bdc3c7"/><path id="Shape" d="m26 27c-.5522847 0-1-.4477153-1-1v-7c0-.5522847.4477153-1 1-1s1 .4477153 1 1v7c0 .5522847-.4477153 1-1 1z" fill="#bdc3c7"/><path id="Shape" d="m26.1 15c.5925722-.6970076.9123312-1.5852272.9-2.5.1271713-1.7913447-1.2102802-3.3517048-3-3.5-.3767156-.00257932-.7492057.07943683-1.09.24-.5773552.26670051-1.2426448.26670051-1.82 0-.3407943-.16056317-.7132844-.24257932-1.09-.24-2.3 0-3.9 2.977-2.605 6z" fill="#c03a2b"/><path id="Shape" d="m10.9 15c-.591063-.697881-.91061164-1.5855162-.9-2.5-.1271713-1.7913447 1.2102802-3.3517048 3-3.5.3764229.00015274.7483239.0820392 1.09.24.5766273.26999185 1.2433727.26999185 1.82 0 .3416761-.1579608.7135771-.23984726 1.09-.24 1.7897198.1482952 3.1271713 1.7086553 3 3.5.0106116.9144838-.308937 1.802119-.9 2.5z" fill="#e64c3c"/><path id="Shape" d="m8.4 49h-7.4c-.55228475 0-1 .4477153-1 1v7c0 .5522847.44771525 1 1 1h56c.5522847 0 1-.4477153 1-1v-7c0-.5522847-.4477153-1-1-1z" fill="#95a5a5"/><path id="Shape" d="m4 42c-1.65685425 0-3-1.3431458-3-3s1.34314575-3 3-3h51c1.6568542 0 3 1.3431458 3 3s-1.3431458 3-3 3z" fill="#547580"/><circle id="Oval" cx="12" cy="43" fill="#3f5c6c" r="7"/><circle id="Oval" cx="12" cy="43" fill="#35495e" r="2"/><circle id="Oval" cx="46" cy="43" fill="#3f5c6c" r="7"/><circle id="Oval" cx="46" cy="43" fill="#35495e" r="2"/><rect id="Rectangle-path" fill="#35495e" height="4" rx="2" width="10" x="24" y="40"/><g fill="#ecf0f1"><path id="Shape" d="m16 55h-12c-.55228475 0-1-.4477153-1-1s.44771525-1 1-1h12c.5522847 0 1 .4477153 1 1s-.4477153 1-1 1z"/><path id="Shape" d="m36 55h-14c-.5522847 0-1-.4477153-1-1s.4477153-1 1-1h14c.5522847 0 1 .4477153 1 1s-.4477153 1-1 1z"/><path id="Shape" d="m54 55h-12c-.5522847 0-1-.4477153-1-1s.4477153-1 1-1h12c.5522847 0 1 .4477153 1 1s-.4477153 1-1 1z"/></g><path id="Rectangle-path" d="m38 10h2v26h-2z" fill="#e57e25"/></g></g></svg>