<svg height="512" viewBox="0 0 58 58" width="512" xmlns="http://www.w3.org/2000/svg"><g id="Page-1" fill="none" fill-rule="evenodd"><g id="092---Sell-Cheese" fill-rule="nonzero"><path id="Shape" d="m8 15 15.66-7.1c.4291841-.19004326.9313282.00144105 1.125.429.4924887 1.08760206 1.6505852 1.7124831 2.83 1.527 1.1710461-.26091456 2.0617873-1.21400365 2.243-2.4.0842691-.46410137.0726985-.94053641-.034-1.4-.1216368-.47371343.1025591-.96827553.539-1.189l10.516-4.773c.5332992-.23177092 1.1543675.00030086 1.405.525l7.716 14.381-21 3z" fill="#f3d55b"/><circle id="Oval" cx="41" cy="9" fill="#f29c1f" r="2"/><circle id="Oval" cx="34" cy="10" fill="#f29c1f" r="1"/><path id="Shape" d="m47 22c-.0346677 1.384144.9182121 2.5980063 2.271 2.893.433636.127343.7308364.5260563.729.978l.0000085 9.129h-42.00001696l.00000846-7.129c-.00183644-.4519437.29536396-.850657.729-.978 1.3334188-.3255994 2.2715759-1.5204036 2.2715759-2.893s-.9381571-2.5674006-2.2715759-2.893c-.43363604-.127343-.73083644-.5260563-.729-.978l-.00000846-5.129h42.00001696l-.0000085 3.129c.0018364.4519437-.295364.850657-.729.978-1.3498959.2995972-2.3005092 1.5105722-2.271 2.893z" fill="#f0c419"/><g fill="#f29c1f"><circle id="Oval" cx="40" cy="22" r="3"/><circle id="Oval" cx="32" cy="27" r="2"/><circle id="Oval" cx="22" cy="21" r="2"/><circle id="Oval" cx="15" cy="23" r="1"/><circle id="Oval" cx="30" cy="21" r="1"/><circle id="Oval" cx="20" cy="28" r="1"/><circle id="Oval" cx="44" cy="29" r="1"/></g><path id="Shape" d="m45.64 40h9.36v-6h-52v6h11.44z" fill="#a56a43"/><rect id="Rectangle-path" fill="#cb8252" height="58" rx="2" width="4"/><rect id="Rectangle-path" fill="#cb8252" height="58" rx="2" width="4" x="54"/><rect id="Rectangle-path" fill="#3b97d3" height="16" rx="1" width="30" x="15" y="38"/><circle id="Oval" cx="25" cy="43" fill="#ecf0f1" r="1"/><circle id="Oval" cx="33" cy="49" fill="#ecf0f1" r="1"/><path id="Shape" d="m25 51c-.4043959-.0000863-.7689341-.2437275-.923678-.6173454-.1547439-.373618-.0692299-.8036603.216678-1.0896546l8-8c.3923789-.3789722 1.0160848-.3735524 1.4018186.0121814s.3911536 1.0094397.0121814 1.4018186l-8 8c-.1874927.1875494-.4418052.2929434-.707.293z" fill="#ecf0f1"/></g></g></svg>