<svg height="512" viewBox="0 0 60 60" width="512" xmlns="http://www.w3.org/2000/svg"><g id="Page-1" fill="none" fill-rule="evenodd"><g id="093---Crop-Rotation" fill-rule="nonzero"><circle id="Oval" cx="30" cy="30" fill="#9fc9d3" r="16"/><path id="Shape" d="m30 41c-.5522847 0-1-.4477153-1-1v-22c0-.5522847.4477153-1 1-1s1 .4477153 1 1v22c0 .5522847-.4477153 1-1 1z" fill="#24ae5f"/><g fill="#4fba6f"><path id="Shape" d="m35 21h1c.5522847 0 1 .4477153 1 1 0 2.7614237-2.2385763 5-5 5h-2v-1c0-2.7614237 2.2385763-5 5-5z"/><path id="Shape" d="m23 21h2c2.7614237 0 5 2.2385763 5 5 0 .5522847-.4477153 1-1 1h-1c-2.7614237 0-5-2.2385763-5-5z" transform="matrix(-1 0 0 -1 53 48)"/><path id="Shape" d="m35 30h1c.5522847 0 1 .4477153 1 1 0 2.7614237-2.2385763 5-5 5h-2v-1c0-2.7614237 2.2385763-5 5-5z"/><path id="Shape" d="m23 29.998h2c2.7614237 0 5 2.2385763 5 5 0 .5522847-.4477153 1-1 1h-1c-2.7614237 0-5-2.2385763-5-5z" transform="matrix(-1 0 0 -1 53 65.996)"/></g><path id="Shape" d="m47.056 52.207c-10.1574634 7.8010614-24.3132202 7.7158205-34.376-.207h2.32c.5522847 0 1-.4477153 1-1s-.4477153-1-1-1h-5c-.55228475 0-1 .4477153-1 1v5c0 .5522847.44771525 1 1 1 .5522847 0 1-.4477153 1-1v-2.792c10.779789 8.8322294 26.2233593 9.0746033 37.275.585.4379618-.3366176.5201175-.9645382.1835-1.4025-.3366176-.4379618-.9645382-.5201175-1.4025-.1835z" fill="#f0c419"/><path id="Shape" d="m12.944 7.793c10.1574634-7.80106142 24.3132202-7.71582051 34.376.207h-2.32c-.5522847 0-1 .44771525-1 1s.4477153 1 1 1h5c.5522847 0 1-.44771525 1-1v-5c0-.55228475-.4477153-1-1-1s-1 .44771525-1 1v2.792c-10.779789-8.83222938-26.2233593-9.07460332-37.275-.585-.2833116.21775338-.4289323.57011074-.3820081.92434248.0469241.35423175.2792642.65652164.6095.793.3302357.13647837.7081965.0864109.9915081-.13134248z" fill="#f0c419"/><path id="Shape" d="m10 15v-5c0-.55228475-.44771525-1-1-1h-5c-.55228475 0-1 .44771525-1 1 0 .5522847.44771525 1 1 1h2.792c-8.83266529 10.7797545-9.07463292 26.2238356-.584 37.275.21128697.3007467.57052566.4613482.93553602.4182415s.67695489-.2829731.81237169-.6246646c.1354168-.3416914.07247749-.7301292-.16390771-1.0115769-7.80076907-10.1576915-7.71511636-24.3134496.208-34.376v2.319c.00000002.5522847.44771526 1 1 1s.99999998-.4477153 1-1z" fill="#f29c1f"/><path id="Shape" d="m56 49h-2.792c8.8326653-10.7797545 9.0746329-26.2238356.584-37.275-.211287-.3007467-.5705257-.4613482-.935536-.4182415-.3650104.0431067-.6769549.2829731-.8123717.6246646-.1354168.3416914-.0724775.7301292.1639077 1.0115769 7.8007691 10.1576915 7.7151164 24.3134496-.208 34.376v-2.319c0-.5522847-.4477153-1-1-1s-1 .4477153-1 1v5c0 .5522847.4477153 1 1 1h5c.5522847 0 1-.4477153 1-1s-.4477153-1-1-1z" fill="#f29c1f"/><path id="Shape" d="m39.97 42.52c-5.8369111 4.6399033-14.1030889 4.6399033-19.94 0 .6006688-.340729 1.279421-.519892 1.97-.52.1774627.0067417.3544074.0234346.53.05.5160446-.935146 1.3874611-1.6226194 2.4170347-1.9068344 1.0295737-.2842151 2.130263-.1411439 3.0529653.3968344 1.2361501-.7199379 2.7638499-.7199379 4 0 .9227023-.5379783 2.0233916-.6810495 3.0529653-.3968344 1.0295736.284215 1.9009901.9716884 2.4170347 1.9068344.1755926-.0265654.3525373-.0432583.53-.05.690579.000108 1.3693312.179271 1.97.52z" fill="#cb8252"/></g></g></svg>