<svg height="512" viewBox="0 0 58 58" width="512" xmlns="http://www.w3.org/2000/svg"><g id="Page-1" fill="none" fill-rule="evenodd"><g id="094---Bread-Oven" fill-rule="nonzero"><path id="Shape" d="m18.5 58h-3.5c-.5522847 0-1-.4477153-1-1v-5l8 2-2.7 3.6c-.1888544.2518058-.4852427.4-.8.4z" fill="#7f8c8d"/><path id="Shape" d="m53.5 58h3.5c.5522847 0 1-.4477153 1-1v-5l-8 2 2.7 3.6c.1888544.2518058.4852427.4.8.4z" fill="#7f8c8d"/><path id="Shape" d="m14 4v-2c0-1.1045695.8954305-2 2-2h40c1.1045695 0 2 .8954305 2 2v52h-44z" fill="#95a5a5"/><path id="Rectangle-path" d="m18 34h18v16h-18z" fill="#547580"/><path id="Shape" d="m54 5v44c0 .5522847-.4477153 1-1 1h-17v-46h17c.5522847 0 1 .44771525 1 1z" fill="#7f8c8d"/><circle id="Oval" cx="40" cy="46" fill="#56595e" r="1"/><circle id="Oval" cx="50" cy="46" fill="#56595e" r="1"/><path id="Shape" d="m2 4h16v46h-16c-1.1045695 0-2-.8954305-2-2v-42c0-1.1045695.8954305-2 2-2z" fill="#7f8c8d"/><path id="Shape" d="m32 41.5c.001185.6634943-.2614303 1.3002463-.73 1.77-.0831553.0843563-.1734964.1613135-.27.23v4.5c-.0032948 1.1032019-.8967981 1.9967052-2 2h-4c-1.1032019-.0032948-1.9967052-.8967981-2-2v-4.5c-.8608608-.6456456-1.2119934-1.7697141-.8717082-2.7905694.3402851-1.0208554 1.2956322-1.7094306 2.3717082-1.7094306h5c1.3807119 0 2.5 1.1192881 2.5 2.5z" fill="#cf976a"/><path id="Rectangle-path" d="m18 4h18v15h-18z" fill="#547580"/><path id="Rectangle-path" d="m18 19h18v15h-18z" fill="#3f5c6c"/><rect id="Rectangle-path" fill="#9fc9d3" height="7" rx="2" width="10" x="40" y="12"/><rect id="Rectangle-path" fill="#9fc9d3" height="7" rx="2" width="10" x="4" y="12"/><g fill="#56595e"><path id="Shape" d="m48 24h-6c-.5522847 0-1-.4477153-1-1s.4477153-1 1-1h6c.5522847 0 1 .4477153 1 1s-.4477153 1-1 1z"/><path id="Shape" d="m48 28h-6c-.5522847 0-1-.4477153-1-1s.4477153-1 1-1h6c.5522847 0 1 .4477153 1 1s-.4477153 1-1 1z"/><path id="Shape" d="m48 32h-6c-.5522847 0-1-.4477153-1-1s.4477153-1 1-1h6c.5522847 0 1 .4477153 1 1s-.4477153 1-1 1z"/><path id="Shape" d="m48 36h-6c-.5522847 0-1-.4477153-1-1s.4477153-1 1-1h6c.5522847 0 1 .4477153 1 1s-.4477153 1-1 1z"/><circle id="Oval" cx="40" cy="8" r="1"/><circle id="Oval" cx="50" cy="8" r="1"/></g><path id="Shape" d="m32 10.5c.001185.6634943-.2614303 1.3002463-.73 1.77-.0831553.0843563-.1734964.1613135-.27.23v4.5c-.0032948 1.1032019-.8967981 1.9967052-2 2h-4c-1.1032019-.0032948-1.9967052-.8967981-2-2v-4.5c-.8608608-.6456456-1.2119934-1.7697141-.8717082-2.79056942.3402851-1.02085534 1.2956322-1.70943058 2.3717082-1.70943058h5c1.3807119 0 2.5 1.11928813 2.5 2.5z" fill="#cf976a"/><path id="Shape" d="m32 25.5c.001185.6634943-.2614303 1.3002463-.73 1.77-.0831553.0843563-.1734964.1613135-.27.23v4.5c-.0032948 1.1032019-.8967981 1.9967052-2 2h-4c-1.1032019-.0032948-1.9967052-.8967981-2-2v-4.5c-.8608608-.6456456-1.2119934-1.7697141-.8717082-2.7905694.3402851-1.0208554 1.2956322-1.7094306 2.3717082-1.7094306h5c1.3807119 0 2.5 1.1192881 2.5 2.5z" fill="#cf976a"/></g></g></svg>