<svg height="512" viewBox="0 0 58 58" width="512" xmlns="http://www.w3.org/2000/svg"><g id="Page-1" fill="none" fill-rule="evenodd"><g id="095---Hose" fill-rule="nonzero"><path id="Shape" d="m13.53 20.31-1.53-.793c-.4766409-.2467607-1.0324614-.2915868-1.5424866-.1243994-.51002514.1671875-.9314483.5323564-1.1695134 1.0133994l-5.488 11.488c-.41716636.8294855-1.34883554 1.2645472-2.25263958 1.0519154s-1.54377682-1.0174429-1.54736042-1.9459154c.00056407-.3056787.07247173-.607006.21-.88l4.935-10.62c.58204643-1.0514639.48380719-2.348222-.25-3.3-.07104587-.1034577-.08030527-.2373359-.02417859-.3495893s.16878487-.1851727.29417859-.1904107c.64965098-.0718972 1.22317983-.4567025 1.53602626-1.0305864s.3255317-1.2644268.03397374-1.8494136c-.05552847-.0972196-.04529573-.2186231.02572241-.3051765.07101815-.0865533.18808593-.1202973.29427759-.0848235.92033011.2574291 1.90791948.0772948 2.678099-.4884796.7701795-.5657745 1.2373684-1.4543214 1.266901-2.4095204v-2.492c-.0064256-.52890791.1994698-1.03831174.5716076-1.41420847.3721378-.37589674.8794466-.5869013 1.4083924-.58579153h.01c1.1100923 0 2.01.89990765 2.01 2.01v4.929c.0015988.7375467.4089899 1.414354 1.06 1.761l1.57.836z" fill="#e57e25"/><path id="Shape" d="m20 9h-13c-.55228475 0-1-.44771525-1-1s.44771525-1 1-1h13c.5522847 0 1 .44771525 1 1s-.4477153 1-1 1z" fill="#f3d55b"/><circle id="Oval" cx="12" cy="15" fill="#d25627" r="1"/><path id="Shape" d="m58 55v2c0 .5522847-.4477153 1-1 1h-24s8-4 8.49-4h15.51c.5522847 0 1 .4477153 1 1z" fill="#2980ba"/><path id="Shape" d="m33 36c-6.0735321.0038613-10.9961387 4.9264679-11 11-.0052874 1.739799.4098212 3.4551238 1.21 5 .3527204.7157284.789103 1.3870863 1.3 2h-12.64c-.9304009.0010073-1.8032276-.4503129-2.34024291-1.2100901-.53701532-.7597772-.67119181-1.73318-.35975709-2.6099099l2.94-8.32-3.81-1.22-2.9 8.21c-.7408838 2.1003502-.41696479 4.4295814.86890093 6.2480777s3.37390869 2.9003087 5.60109907 2.9019223h21.13c6.0751322 0 11-4.9248678 11-11s-4.9248678-11-11-11zm0 18c-3.8659932 0-7-3.1340068-7-7s3.1340068-7 7-7 7 3.1340068 7 7c.0128903 1.8604372-.7204675 3.6484139-2.0360268 4.9639732s-3.103536 2.0489171-4.9639732 2.0360268z" fill="#3b97d3"/><path id="Shape" d="m33 54.0000082-8.49-.0000082c-.510897-.6129137-.9472796-1.2842716-1.3-2h4.9c1.3033026 1.2841849 3.0603223 2.0028023 4.89 2.0000082z" fill="#2980ba"/><path id="Shape" d="m9.12 36.06-1.03 3.06c-.14818411.4442148-.11333913.929157.09683191 1.3476225.21017104.4184656.57835827.7359893 1.02316809.8823775l1.66.56c.4441874.1493055.9296137.114984 1.3483742-.0953352s.7361534-.5792074.8816258-1.0246648l.94-2.8z" fill="#e57e25"/><path id="Shape" d="m27.079 12c-5.072227 7.1542572-8.6576362 15.2533918-10.544 23.818-.1685272.7868951-.6723339 1.4609349-1.37931 1.84537-.706976.384435-1.5465955.4409152-2.29869.15463l-2.544-.954c-1.37017454-.5070852-2.17350868-1.9298322-1.9-3.365 1.6645226-8.1497049 5.6948734-15.6277847 11.587-21.499l4-2z" fill="#f29c1f"/><path id="Shape" d="m12.521 34.424c-.0740403-.0000299-.1478408-.0084163-.22-.025-.2597805-.0581813-.4856392-.2175452-.6275424-.4427883s-.1881363-.4977711-.1284576-.7572117c.7186742-3.1531358 1.8317737-6.2031562 3.313-9.078.2518418-.4918096.8546904-.6863418 1.3465-.4345s.6863418.8546904.4345 1.3465c-1.4044441 2.7268397-2.4591115 5.6200354-3.139 8.611-.1031405.4573475-.5101696.7816403-.979.78z" fill="#f0c419"/><path id="Shape" d="m37 2 2 7-2 7h-3c-2.1189445.001689-4.0809471-1.1167932-5.159-2.941-.3567956-.6416309-1.0279715-1.0450221-1.762-1.059h-7.079c-.5522847 0-1-.4477153-1-1v-4c0-.55228475.4477153-1 1-1h7.079c.7340285-.01397792 1.4052044-.41736911 1.762-1.059 1.0777594-1.824505 3.0399485-2.94309352 5.159-2.941z" fill="#f0c419"/><path id="Shape" d="m38 7h-4c-.5522847 0-1-.44771525-1-1s.4477153-1 1-1h4c.5522847 0 1 .44771525 1 1s-.4477153 1-1 1z" fill="#e57e25"/><path id="Shape" d="m38 13h-4c-.5522847 0-1-.4477153-1-1s.4477153-1 1-1h4c.5522847 0 1 .4477153 1 1s-.4477153 1-1 1z" fill="#e57e25"/><rect id="Rectangle-path" fill="#f29c1f" height="18" rx="2" width="4" x="37"/></g></g></svg>