<svg height="512" viewBox="0 0 58 58" width="512" xmlns="http://www.w3.org/2000/svg"><g id="Page-1" fill="none" fill-rule="evenodd"><g id="096---NPK-Balance" fill-rule="nonzero"><path id="Shape" d="m4.67 38.73c-.44711356-1.8771435-.67199034-3.8003434-.67-5.73-.00416681-10.764548 6.8858581-20.3219393 17.1-23.72h15.8c10.2141419 3.3980607 17.1041668 12.955452 17.1 23.72.0019903 1.9296566-.2228864 3.8528565-.67 5.73l-8.35 13.5c-9.264352 7.693447-22.695648 7.693447-31.96 0z" fill="#f0c419"/><g fill="#955ba5"><circle id="Oval" cx="29" cy="8" r="8"/><circle id="Oval" cx="8" cy="46" r="8"/><circle id="Oval" cx="50" cy="46" r="8"/></g><path id="Shape" d="m27 12c.5522847 0 1-.4477153 1-1v-2.7l2.168 3.252c.2441763.3661979.6990772.5296901 1.1205023.4027105s.7102786-.5145725.7114977-.9547105v-6c0-.55228475-.4477153-1-1-1s-1 .44771525-1 1v2.7l-2.168-3.255c-.2444851-.36665571-.7001723-.53004275-1.1219349-.40227078-.4217626.12777198-.710164.51657885-.7100651.95727078v6c0 .5522847.4477153 1 1 1z" fill="#ecf0f1"/><path id="Shape" d="m51 42h-2c-.5522847 0-1 .4477153-1 1v6c0 .5522847.4477153 1 1 1s1-.4477153 1-1v-1h1c1.6568542 0 3-1.3431458 3-3s-1.3431458-3-3-3zm0 4h-1v-2h1c.5522847 0 1 .4477153 1 1s-.4477153 1-1 1z" fill="#ecf0f1"/><path id="Shape" d="m10.707 42.293c-.3904999-.3903819-1.02350015-.3903819-1.414 0l-1.293 1.293v-.586c0-.5522847-.44771525-1-1-1s-1 .4477153-1 1v6c0 .5522847.44771525 1 1 1s1-.4477153 1-1v-.586l1.293 1.293c.39237889.3789722 1.0160848.3735524 1.4018186-.0121814s.3911536-1.0094397.0121814-1.4018186l-2.293-2.293 2.293-2.293c.3903819-.3904999.3903819-1.0235001 0-1.414z" fill="#ecf0f1"/><circle id="Oval" cx="29" cy="33" fill="#4fba6f" r="12"/><path id="Shape" d="m33.219 27.375-7.3 9.128-1.21-1.21c-.3923789-.3789722-1.0160848-.3735524-1.4018186.0121814s-.3911536 1.0094397-.0121814 1.4018186l2 2c.1865649.187713.4403444.2931845.705.293h.056c.2836811-.0156962.5472938-.1513204.725-.373l8-10c.223291-.2790244.2807626-.655978.1507659-.9888659s-.4277123-.5711365-.781-.625c-.3532878-.0538634-.7084749.0848415-.9317659.3638659z" fill="#ecf0f1"/></g></g></svg>