<svg height="512" viewBox="0 0 42 59" width="512" xmlns="http://www.w3.org/2000/svg"><g id="Page-1" fill="none" fill-rule="evenodd"><g id="097---Farm-Location" fill-rule="nonzero" transform="translate(-1 -1)"><path id="Shape" d="m43 21.751c.0965742 7.7804002-4.1167794 14.9764648-10.949 18.7l-9.3 18.086c-.1453561.2824291-.4363609.4599433-.754.4599433s-.6086439-.1775142-.754-.4599433l-9.3-18.086c-8.97982499-4.8941616-13.12999037-15.5441639-9.82939842-25.223842 3.30059195-9.67967802 13.09262852-15.57564621 23.19180562-13.96421948 10.0991772 1.61142674 17.5701823 10.26188938 17.6945928 20.48806148z" fill="#e64c3c"/><path id="Shape" d="m39 22c0 9.3888407-7.6111593 17-17 17s-17-7.6111593-17-17 7.6111593-17 17-17c4.514552-.01924297 8.849758 1.76564331 12.0420574 4.95794263 3.1922993 3.19229937 4.9771856 7.52750537 4.9579426 12.04205737z" fill="#802f34"/><path id="Shape" d="m33 18.41v16.53c-6.3342531 5.4135343-15.6657469 5.4135343-22 0v-16.53l1.81-3.25c.0930434-.159761.2278766-.291137.39-.38l8.32-4.65c.2974068-.17005658.6625932-.17005658.96 0l8.32 4.65c.1621234.088863.2969566.220239.39.38z" fill="#f29c1f"/><path id="Shape" d="m35 23c-.3628251.0002169-.6973042-.1961077-.874-.513l-3.813-6.836-8.313-4.651-8.308 4.65-3.814 6.838c-.16865281.3221022-.49884248.5272864-.86232578.5358604-.36348331.008574-.70298033-.1808132-.88663293-.4946051-.18365261-.3137919-.1825197-.7025392.00295871-1.0152553l3.812-6.836c.1816354-.3256722.4503278-.5943646.776-.776l8.313-4.648c.6030391-.34002215 1.3399609-.34002215 1.943 0l8.318 4.65c.3243052.1819742.5918644.4502257.773.775l3.811 6.835c.1725894.3103554.1676396.6889612-.0130047.9946985-.1806442.3057372-.5098819.4927382-.8649953.4913015z" fill="#f0c419"/><path id="Shape" d="m36 60h-28c-.55228475 0-1-.4477153-1-1s.44771525-1 1-1h28c.5522847 0 1 .4477153 1 1s-.4477153 1-1 1z" fill="#3b97d3"/><path id="Shape" d="m26 17.54v4.45c.0026696.2669449-.1015076.5238754-.2893341.7135801-.1878265.1897048-.4437077.2964332-.7106659.2964199h-6c-.2669582.0000133-.5228394-.1067151-.7106659-.2964199-.1878265-.1897047-.2920037-.4466352-.2893341-.7135801v-4.45c-.0048078-.3832903.2084109-.7360704.55-.91l2.45-1.24.55-.28c.2812389-.1500445.6187611-.1500445.9 0l.55.28 2.45 1.24c.3415891.1739296.5548078.5267097.55.91z" fill="#9fc9d3"/><path id="Shape" d="m23 15.39v7.61h-2v-7.61l.55-.28c.2812389-.1500445.6187611-.1500445.9 0z" fill="#e57e25"/><path id="Shape" d="m29 28v9.48l-.27.12c-.6624695.2925495-1.3440367.5397847-2.04.74-3.0647499.8799845-6.3152501.8799845-9.38 0-.6959633-.2002153-1.3775305-.4474505-2.04-.74l-.27-.12v-9.48c0-.5522847.4477153-1 1-1h12c.5522847 0 1 .4477153 1 1z" fill="#e57e25"/><path id="Shape" d="m29 28.32-5.46 4.68 4.92 4.22c.119079.1032653.2116664.2335735.27.38-.6624695.2925495-1.3440367.5397847-2.04.74l-4.69-4.02-4.69 4.02c-.6959633-.2002153-1.3775305-.4474505-2.04-.74.0583336-.1464265.150921-.2767347.27-.38l4.93-4.22-5.47-4.69v-.31c0-.5522847.4477153-1 1-1h.54l5.46 4.68 5.47-4.68h.53c.5522847 0 1 .4477153 1 1z" fill="#d25627"/></g></g></svg>