<svg height="512" viewBox="0 0 58 59" width="512" xmlns="http://www.w3.org/2000/svg"><g id="Page-1" fill="none" fill-rule="evenodd"><g id="098---Robot-Farming-Assistant" fill-rule="nonzero" transform="translate(0 -1)"><path id="Shape" d="m11.707 29.293c-.3904999-.3903819-1.0235001-.3903819-1.414 0l-2.293 2.293v-3.586c0-.5522847-.44771525-1-1-1s-1 .4477153-1 1v3.586l-2.293-2.293c-.39237889-.3789722-1.01608478-.3735524-1.40181858.0121814-.38573379.3857338-.39115363 1.0094397-.01218142 1.4018186l4 4c.39049985.3903819 1.02350015.3903819 1.414 0l4-4c.3903819-.3904999.3903819-1.0235001 0-1.414z" fill="#4fba6f"/><path id="Shape" d="m55.707 29.293c-.3904999-.3903819-1.0235001-.3903819-1.414 0l-2.293 2.293v-3.586c0-.5522847-.4477153-1-1-1s-1 .4477153-1 1v3.586l-2.293-2.293c-.3923789-.3789722-1.0160848-.3735524-1.4018186.0121814s-.3911536 1.0094397-.0121814 1.4018186l4 4c.3904999.3903819 1.0235001.3903819 1.414 0l4-4c.3903819-.3904999.3903819-1.0235001 0-1.414z" fill="#4fba6f"/><path id="Shape" d="m11 42 7.64-5.03-2.64-3.04-4.46 2.97z" fill="#2c3e50"/><path id="Shape" d="m47 42-7.64-5.03 2.64-3.04 4.46 2.97z" fill="#2c3e50"/><path id="Rectangle-path" d="m23 49h12v6h-12z" fill="#35495e"/><g fill="#7f8c8d"><path id="Shape" d="m25 14c0-2.209139 1.790861-4 4-4s4 1.790861 4 4l-4 2z"/><path id="Shape" d="m19 17h3v8h-3c-1.1045695 0-2-.8954305-2-2v-4c0-1.1045695.8954305-2 2-2z"/><path id="Shape" d="m38 17h3v8h-3c-1.1045695 0-2-.8954305-2-2v-4c0-1.1045695.8954305-2 2-2z" transform="matrix(-1 0 0 -1 77 42)"/><path id="Rectangle-path" d="m26 27h6v6h-6z"/></g><rect id="Rectangle-path" fill="#3f5c6c" height="6" rx="3" width="18" x="20" y="54"/><rect id="Rectangle-path" fill="#cb8252" height="8" rx="1" width="14" y="52"/><path id="Shape" d="m3.05 45c.71730514 2.3821631 1.57548325 4.7196132 2.57 7h2.76c1.48-3.43 3.62-9.07 3.62-13 0-2.7614237-2.23857625-5-5-5s-5 2.2385763-5 5c.00279844.6693688.05292344 1.337702.15 2z" fill="#f29c1f"/><path id="Shape" d="m20 36.82c-.3193958.1211006-.6584234.1821256-1 .18-1.6568542 0-3-1.3431458-3-3s1.3431458-3 3-3c.9071012-.0027397 1.765549.4099048 2.33 1.12z" fill="#7f8c8d"/><path id="Shape" d="m2 41h3c.55228475 0 1 .4477153 1 1v2c0 .5522847-.44771525 1-1 1h-3c-1.1045695 0-2-.8954305-2-2s.8954305-2 2-2z" fill="#95a5a5"/><path id="Shape" d="m4 56c0 .5522847-.44771525 1-1 1h-3v-2h3c.55228475 0 1 .4477153 1 1z" fill="#a56a43"/><path id="Shape" d="m14 55v2h-7c-.55228475 0-1-.4477153-1-1s.44771525-1 1-1z" fill="#a56a43"/><rect id="Rectangle-path" fill="#cb8252" height="8" rx="1" width="14" x="44" y="52"/><path id="Shape" d="m54.95 45c-.7173051 2.3821631-1.5754832 4.7196132-2.57 7h-2.76c-1.48-3.43-3.62-9.07-3.62-13 0-2.7614237 2.2385763-5 5-5s5 2.2385763 5 5c-.0027984.6693688-.0529234 1.337702-.15 2z" fill="#f29c1f"/><path id="Shape" d="m36.67 32.12c.564451-.7100952 1.4228988-1.1227397 2.33-1.12 1.6568542 0 3 1.3431458 3 3s-1.3431458 3-3 3c-.3415766.0021256-.6806042-.0588994-1-.18z" fill="#7f8c8d"/><path id="Shape" d="m54 41h3c.5522847 0 1 .4477153 1 1v2c0 .5522847-.4477153 1-1 1h-3c-1.1045695 0-2-.8954305-2-2s.8954305-2 2-2z" fill="#95a5a5" transform="matrix(-1 0 0 -1 110 86)"/><path id="Shape" d="m58 55v2h-3c-.5522847 0-1-.4477153-1-1s.4477153-1 1-1z" fill="#a56a43"/><path id="Shape" d="m52 56c0 .5522847-.4477153 1-1 1h-7v-2h7c.5522847 0 1 .4477153 1 1z" fill="#a56a43"/><path id="Shape" d="m38 6c-.226899.00035951-.4470919-.07691975-.624-.219-2.3978658-1.84622704-5.35007-2.82641805-8.376-2.781-3.0262712-.04564476-5.9788644.93455837-8.377 2.781-.4313344.34517797-1.060822.27533439-1.406-.156s-.2753344-1.06082203.156-1.406c2.7538104-2.1286138 6.1466949-3.26309965 9.627-3.219 3.4803051-.04409965 6.8731896 1.0903862 9.627 3.219.3320683.26553762.4599178.71202061.3187268 1.11307508s-.5205463.66897631-.9457268.66792492z" fill="#67b9cc"/><path id="Shape" d="m35 9c-.2270891.00048149-.4474263-.07720151-.624-.22-3.1910537-2.37345287-7.5609463-2.37345287-10.752 0-.4318457.32441833-1.0432686.24728493-1.3810132-.17422023-.3377445-.42150515-.2797404-1.03503845.1310132-1.38577977 3.921665-2.95941353 9.330335-2.95941353 13.252 0 .3310896.26562698.4584082.71133426.3175821 1.1117665-.1408262.40043224-.5191083.6683271-.9435821.6682335z" fill="#67b9cc"/><rect id="Rectangle-path" fill="#95a5a5" height="18" rx="2" width="18" x="20" y="32"/><rect id="Rectangle-path" fill="#d1d4d1" height="10" rx="1" transform="matrix(0 1 -1 0 70 12)" width="10" x="24" y="36"/><path id="Shape" d="m28 43c-.4043959-.0000863-.7689341-.2437275-.923678-.6173454-.1547439-.373618-.0692299-.8036603.216678-1.0896546l2-2c.3923789-.3789722 1.0160848-.3735524 1.4018186.0121814s.3911536 1.0094397.0121814 1.4018186l-2 2c-.1874927.1875494-.4418052.2929434-.707.293z" fill="#ecf0f1"/><rect id="Rectangle-path" fill="#95a5a5" height="14" rx="2" width="16" x="21" y="14"/><path id="Shape" d="m33 25h-8c-.5522847 0-1-.4477153-1-1s.4477153-1 1-1h8c.5522847 0 1 .4477153 1 1s-.4477153 1-1 1z" fill="#3f5c6c"/><path id="Shape" d="m26 21c-.5522847 0-1-.4477153-1-1v-2c0-.5522847.4477153-1 1-1s1 .4477153 1 1v2c0 .5522847-.4477153 1-1 1z" fill="#3f5c6c"/><path id="Shape" d="m32 21c-.5522847 0-1-.4477153-1-1v-2c0-.5522847.4477153-1 1-1s1 .4477153 1 1v2c0 .5522847-.4477153 1-1 1z" fill="#3f5c6c"/></g></g></svg>