<svg height="512" viewBox="0 0 42 58" width="512" xmlns="http://www.w3.org/2000/svg"><g id="Page-1" fill="none" fill-rule="evenodd"><g id="099---Udder-Milk" fill-rule="nonzero"><path id="Shape" d="m33 39-1.717 16.314c-.1606735 1.5266653-1.447903 2.6857328-2.983 2.686h-14.6c-1.5354795.0002446-2.8232865-1.1589543-2.984-2.686l-1.716-16.314z" fill="#7f8c8d"/><path id="Shape" d="m4.95 14.55-3.58 7.77c-.65545562 1.3052706-.54735092 2.8640299.28201191 4.0663238s2.24810979 1.8569498 3.70107449 1.7077961c1.45296471-.1491538 2.70911646-1.0784009 3.2769136-2.4241199l2.77-5.99z" fill="#ff5364"/><path id="Shape" d="m37.05 14.55 3.58 7.77c.6554556 1.3052706.5473509 2.8640299-.2820119 4.0663238s-2.2481098 1.8569498-3.7010745 1.7077961c-1.4529647-.1491538-2.7091165-1.0784009-3.2769136-2.4241199l-2.77-5.99z" fill="#ff5364"/><path id="Shape" d="m35 40h-28c-.55228475 0-1-.4477153-1-1s.44771525-1 1-1h28c.5522847 0 1 .4477153 1 1s-.4477153 1-1 1z" fill="#95a5a5"/><path id="Shape" d="m42 1c.0084274 10.057602-7.1244273 18.7051395-17 20.61v4.39c0 2.209139-1.790861 4-4 4s-4-1.790861-4-4v-4.39c-7.18389138-1.3847344-13.12648345-6.4139561-15.68-13.27-.87914159-2.34701571-1.32634565-4.83374135-1.32-7.34 0-.55228475.44771525-1 1-1h40c.5522847 0 1 .44771525 1 1z" fill="#fb7b76"/><path id="Shape" d="m8.008 12.97c-.29486756.000241-.57481046-.1296672-.765-.355-2.0368676-2.4170158-3.40281592-5.32685466-3.961-8.438-.0977544-.54372434.26377566-1.0637456.8075-1.1615s1.0637456.26377566 1.1615.8075c.49544346 2.76538796 1.7093676 5.35187405 3.52 7.5.35614422.4219709.30287148 1.0527381-.119 1.409-.17940434.1536129-.40781609.2380259-.644.238z" fill="#ecf0f1"/><path id="Shape" d="m17 16v5.61c-.6751067-.1267244-1.3427718-.2903023-2-.49v-5.12c0-.5522847.4477153-1 1-1s1 .4477153 1 1z" fill="#ff5364"/><path id="Shape" d="m27 16v5.12c-.6572282.1996977-1.3248933.3632756-2 .49v-5.61c0-.5522847.4477153-1 1-1s1 .4477153 1 1z" fill="#ff5364"/><path id="Shape" d="m21 36c-.5522847 0-1-.4477153-1-1v-1c0-.5522847.4477153-1 1-1s1 .4477153 1 1v1c0 .5522847-.4477153 1-1 1z" fill="#f9eab0"/><path id="Shape" d="m25 48h-8c-2.209139 0-4-1.790861-4-4v-1c0-.5522847.4477153-1 1-1s1 .4477153 1 1v1c0 1.1045695.8954305 2 2 2h8c1.1045695 0 2-.8954305 2-2v-1c0-.5522847.4477153-1 1-1s1 .4477153 1 1v1c0 2.209139-1.790861 4-4 4z" fill="#95a5a5"/></g></g></svg>