<svg height="512" viewBox="0 0 60 59" width="512" xmlns="http://www.w3.org/2000/svg"><g id="Page-1" fill="none" fill-rule="evenodd"><g id="100---Hay-Bale-Trailer" fill-rule="nonzero"><path id="Shape" d="m59 54h-9c-1.6568542 0-3-1.3431458-3-3v-2c0-.5522847.4477153-1 1-1s1 .4477153 1 1v2c0 .5522847.4477153 1 1 1h9c.5522847 0 1 .4477153 1 1s-.4477153 1-1 1z" fill="#95a5a5"/><path id="Shape" d="m56 58c-.5522847 0-1-.4477153-1-1v-6c0-.5522847.4477153-1 1-1s1 .4477153 1 1v6c0 .5522847-.4477153 1-1 1z" fill="#7f8c8d"/><path id="Shape" d="m42.739 3.89c-.3687074-.00031344-.7073293-.20349025-.88111-.52867561s-.1545228-.71961497.05011-1.02632439l1.26-1.89c.1982824-.29724497.5400812-.46612825.8966441-.44303314.3565629.02309512.6737195.23465992.832.555.1582805.32034009.1336383.70078817-.0646441.99803314l-1.26 1.889c-.1854917.27874539-.4981775.4461618-.833.446z" fill="#f29c1f"/><path id="Shape" d="m50.966 18c-.0787653-.0002032-.1572582-.00926-.234-.027l-2.209-.528c-.5301622-.1344487-.85395-.6698843-.7267734-1.2018379.1271765-.5319535.6581283-.8630427 1.1917734-.7431621l2.209.527c.4936747.1171044.8214113.5853547.7624107 1.0892863s-.486037.8838126-.9934107.8837137z" fill="#f29c1f"/><path id="Shape" d="m20.739 3.89c-.3687074-.00031344-.7073293-.20349025-.88111-.52867561s-.1545228-.71961497.05011-1.02632439l1.26-1.89c.1982824-.29724497.5400812-.46612825.8966441-.44303314.3565629.02309512.6737195.23465992.832.555.1582805.32034009.1336383.70078817-.0646441.99803314l-1.26 1.889c-.1854917.27874539-.4981775.4461618-.833.446z" fill="#f0c419"/><path id="Shape" d="m3.649 7.15c-.2324261.00036851-.45757195-.08105216-.636-.23l-1.75-1.45c-.29088328-.22278316-.43663899-.58680725-.37989332-.94878149.05674568-.36197424.30690543-.66393179.65200891-.78701311s.72988552-.04757608 1.00288441.1967946l1.75 1.45c.32390112.26925016.44436815.71259063.30127213 1.10873595s-.51907434.66015928-.94027213.66026405z" fill="#f0c419"/><path id="Shape" d="m26.07 23c-7.493-10.531-.15-22 9.93-22 5.2106837-.00318901 9.919174 3.10711198 11.9609754 7.90109595 2.0418013 4.79398395 1.0218525 10.34407925-2.5909754 14.09890405l-9.37 2z" fill="#f0c419"/><path id="Shape" d="m36 24c-4.9135129.0005095-9.0994268-3.5686772-9.8755101-8.4205123-.7760833-4.8518352 2.0876277-9.54865628 6.7561368-11.08085485 4.6685091-1.53219858 9.7584757.55423593 12.0083733 4.92236715.1639849.31760911.1460708.6985769-.0469943.9993966s-.53195.4757895-.889.459c-.3570501-.0167894-.6780208-.2227875-.8420057-.5403966-1.7990571-3.49548865-5.8712377-5.16581514-9.6066861-3.94046923s-6.027018 4.98318493-5.4060445 8.86512253c.6209734 3.8819375 3.9704399 6.7374092 7.9017306 6.7363467 2.7614237 0 5-2.2385763 5-5s-2.2385763-5-5-5c-1.6568542 0-3 1.3431458-3 3s1.3431458 3 3 3c.5522847 0 1 .4477153 1 1s-.4477153 1-1 1c-2.7614237 0-5-2.2385763-5-5s2.2385763-5 5-5c3.8659932 0 7 3.1340068 7 7s-3.1340068 7-7 7z" fill="#f29c1f"/><path id="Shape" d="m23.37 23c4.057742-4.2192785 4.7949756-10.630193 1.8008942-15.66040747-2.9940814-5.03021446-8.9808839-7.43885202-14.624398-5.88375425-5.64351418 1.55509778-9.55157157 6.69031211-9.5464962 12.54416172-.00703736 3.3580233 1.29513298 6.5865448 3.63 9l9.37 2z" fill="#f3d55b"/><path id="Shape" d="m14 24c-4.91351294.0005095-9.09942684-3.5686772-9.87551013-8.4205123-.77608329-4.8518352 2.08762772-9.54865628 6.75613683-11.08085485 4.6685091-1.53219858 9.7584757.55423593 12.0083733 4.92236715.2534987.49098114.0609811 1.0945013-.43 1.348s-1.0945013.0609811-1.348-.43c-1.7990571-3.49548865-5.8712377-5.16581514-9.6066861-3.94046923-3.73544835 1.22534591-6.02701795 4.98318493-5.40604455 8.86512253.62097341 3.8819375 3.97043995 6.7374092 7.90173065 6.7363467 2.7614237 0 5-2.2385763 5-5s-2.2385763-5-5-5c-1.6568542 0-3 1.3431458-3 3s1.3431458 3 3 3c.5522847 0 1 .4477153 1 1s-.4477153 1-1 1c-2.7614237 0-5-2.2385763-5-5s2.2385763-5 5-5c3.8659932 0 7 3.1340068 7 7s-3.1340068 7-7 7z" fill="#f0c419"/><path id="Shape" d="m49 24v25h-47c-.55228475 0-1-.4477153-1-1v-24c0-.5522847.44771525-1 1-1h46c.5522847 0 1 .4477153 1 1z" fill="#e64c3c"/><path id="Shape" d="m6.414 49c1.33812168-4.7385039 5.6621815-8.0105847 10.586-8.0105847s9.2478783 3.2720808 10.586 8.0105847z" fill="#35495e"/><path id="Shape" d="m49 43v2h-19c-.5522847 0-1-.4477153-1-1s.4477153-1 1-1z" fill="#c03a2b"/><path id="Shape" d="m6 44c0 .5522847-.44771525 1-1 1h-4v-2h4c.55228475 0 1 .4477153 1 1z" fill="#c03a2b"/><path id="Rectangle-path" d="m1 26h48v2h-48z" fill="#c03a2b"/><g fill="#f0c419"><circle id="Oval" cx="8" cy="31" r="1"/><circle id="Oval" cx="15" cy="31" r="1"/><circle id="Oval" cx="22" cy="31" r="1"/><circle id="Oval" cx="29" cy="31" r="1"/><circle id="Oval" cx="36" cy="31" r="1"/><circle id="Oval" cx="43" cy="31" r="1"/></g><circle id="Oval" cx="17" cy="52" fill="#3f5c6c" r="7"/><circle id="Oval" cx="17" cy="52" fill="#547580" r="3"/></g></g></svg>